<svg
  width="295"
  height="162"
  viewBox="0 0 295 162"
  fill="none"
  xmlns="http://www.w3.org/2000/svg"
>
<rect x="129.216" y="1" width="164.784" height="57" rx="5" fill="#F9FAFB" />
<rect
    x="129.216"
    y="1"
    width="164.784"
    height="57"
    rx="5"
    stroke="#4ED6D4"
    strokeWidth="2"
  />
<path
    d="M144.422 17.608C144.422 17.0293 144.566 16.5207 144.856 16.082C145.145 15.6433 145.551 15.3027 146.074 15.06C146.606 14.8173 147.217 14.696 147.908 14.696C148.552 14.696 149.112 14.8127 149.588 15.046C150.073 15.27 150.451 15.592 150.722 16.012C151.002 16.432 151.16 16.936 151.198 17.524H149.812C149.774 17.02 149.588 16.628 149.252 16.348C148.916 16.068 148.463 15.928 147.894 15.928C147.259 15.928 146.75 16.0773 146.368 16.376C145.985 16.6653 145.794 17.062 145.794 17.566C145.794 17.9767 145.91 18.308 146.144 18.56C146.377 18.8027 146.732 18.98 147.208 19.092L148.874 19.484C149.704 19.6707 150.325 19.9927 150.736 20.45C151.156 20.898 151.366 21.4767 151.366 22.186C151.366 22.7927 151.216 23.32 150.918 23.768C150.628 24.216 150.213 24.5613 149.672 24.804C149.14 25.0467 148.514 25.168 147.796 25.168C147.114 25.168 146.512 25.056 145.99 24.832C145.476 24.5987 145.07 24.272 144.772 23.852C144.482 23.4227 144.319 22.9233 144.282 22.354H145.682C145.691 22.8393 145.887 23.2267 146.27 23.516C146.652 23.796 147.161 23.936 147.796 23.936C148.468 23.936 149 23.7867 149.392 23.488C149.793 23.1893 149.994 22.7927 149.994 22.298C149.994 21.8967 149.882 21.57 149.658 21.318C149.434 21.066 149.079 20.884 148.594 20.772L146.928 20.394C146.106 20.2073 145.481 19.8807 145.052 19.414C144.632 18.938 144.422 18.336 144.422 17.608ZM154.182 24.986H152.866V14.696H154.182V19.204C154.396 18.8307 154.704 18.532 155.106 18.308C155.507 18.0747 155.974 17.958 156.506 17.958C157.374 17.958 158.022 18.2147 158.452 18.728C158.881 19.2413 159.096 19.9367 159.096 20.814V25H157.78V21.108C157.78 20.6413 157.71 20.268 157.57 19.988C157.439 19.6987 157.248 19.4887 156.996 19.358C156.753 19.2273 156.468 19.162 156.142 19.162C155.722 19.162 155.362 19.2553 155.064 19.442C154.774 19.6287 154.555 19.8807 154.406 20.198C154.256 20.5153 154.182 20.87 154.182 21.262V24.986ZM166.281 18.154H167.443V25H166.239L166.127 23.754C165.893 24.1927 165.562 24.5427 165.133 24.804C164.713 25.056 164.218 25.182 163.649 25.182C162.977 25.182 162.403 25.0233 161.927 24.706C161.451 24.3887 161.087 23.9547 160.835 23.404C160.592 22.8533 160.471 22.228 160.471 21.528C160.471 20.828 160.601 20.212 160.863 19.68C161.133 19.1387 161.507 18.7187 161.983 18.42C162.468 18.112 163.037 17.958 163.691 17.958C164.213 17.958 164.703 18.0793 165.161 18.322C165.618 18.5553 165.959 18.9193 166.183 19.414L166.281 18.154ZM166.099 21.584C166.099 21.108 166.01 20.688 165.833 20.324C165.665 19.96 165.422 19.6753 165.105 19.47C164.787 19.2647 164.4 19.162 163.943 19.162C163.504 19.162 163.121 19.2647 162.795 19.47C162.468 19.6753 162.221 19.96 162.053 20.324C161.885 20.688 161.801 21.108 161.801 21.584C161.801 22.0507 161.885 22.466 162.053 22.83C162.221 23.194 162.463 23.4787 162.781 23.684C163.098 23.8893 163.481 23.992 163.929 23.992C164.377 23.992 164.759 23.8893 165.077 23.684C165.403 23.4787 165.655 23.194 165.833 22.83C166.01 22.466 166.099 22.0507 166.099 21.584ZM173.26 18.098V19.302H172.672C172.047 19.302 171.552 19.484 171.188 19.848C170.834 20.2027 170.656 20.7113 170.656 21.374V25H169.34V18.168H170.572L170.684 19.54H170.558C170.652 19.092 170.876 18.728 171.23 18.448C171.585 18.1587 172.028 18.014 172.56 18.014C172.682 18.014 172.794 18.0233 172.896 18.042C173.008 18.0513 173.13 18.07 173.26 18.098ZM177.203 25.168C176.54 25.168 175.952 25.0187 175.439 24.72C174.925 24.412 174.524 23.992 174.235 23.46C173.945 22.9187 173.801 22.2933 173.801 21.584C173.801 20.8653 173.941 20.2353 174.221 19.694C174.51 19.1527 174.902 18.728 175.397 18.42C175.901 18.112 176.484 17.958 177.147 17.958C177.8 17.958 178.365 18.098 178.841 18.378C179.326 18.658 179.699 19.05 179.961 19.554C180.231 20.058 180.367 20.6507 180.367 21.332V21.822L174.501 21.836L174.529 20.954H179.051C179.051 20.3847 178.878 19.9273 178.533 19.582C178.187 19.2367 177.725 19.064 177.147 19.064C176.708 19.064 176.33 19.162 176.013 19.358C175.705 19.5447 175.467 19.8247 175.299 20.198C175.14 20.562 175.061 21.0007 175.061 21.514C175.061 22.3353 175.247 22.97 175.621 23.418C175.994 23.8567 176.531 24.076 177.231 24.076C177.744 24.076 178.164 23.9733 178.491 23.768C178.817 23.5627 179.037 23.264 179.149 22.872H180.381C180.213 23.6 179.853 24.1647 179.303 24.566C178.752 24.9673 178.052 25.168 177.203 25.168ZM186.211 18.154L188.619 24.818L187.807 25.938L184.825 18.154H186.211ZM185.007 28.066V26.988H185.889C186.103 26.988 186.299 26.9647 186.477 26.918C186.654 26.8807 186.817 26.792 186.967 26.652C187.116 26.5213 187.242 26.3113 187.345 26.022L190.229 18.154H191.587L188.353 26.54C188.119 27.128 187.825 27.5527 187.471 27.814C187.116 28.0753 186.677 28.206 186.155 28.206C185.94 28.206 185.739 28.192 185.553 28.164C185.366 28.1453 185.184 28.1127 185.007 28.066ZM191.916 21.57C191.916 20.87 192.07 20.2493 192.378 19.708C192.686 19.1667 193.106 18.742 193.638 18.434C194.179 18.126 194.795 17.972 195.486 17.972C196.177 17.972 196.788 18.126 197.32 18.434C197.852 18.742 198.272 19.1667 198.58 19.708C198.888 20.2493 199.042 20.87 199.042 21.57C199.042 22.27 198.888 22.8907 198.58 23.432C198.272 23.9733 197.852 24.398 197.32 24.706C196.788 25.014 196.177 25.168 195.486 25.168C194.795 25.168 194.179 25.014 193.638 24.706C193.106 24.398 192.686 23.9733 192.378 23.432C192.07 22.8907 191.916 22.27 191.916 21.57ZM193.246 21.57C193.246 22.046 193.339 22.466 193.526 22.83C193.722 23.194 193.988 23.4787 194.324 23.684C194.66 23.8893 195.047 23.992 195.486 23.992C195.925 23.992 196.312 23.8893 196.648 23.684C196.984 23.4787 197.245 23.194 197.432 22.83C197.628 22.466 197.726 22.046 197.726 21.57C197.726 21.0847 197.628 20.6647 197.432 20.31C197.245 19.946 196.984 19.6613 196.648 19.456C196.312 19.2507 195.925 19.148 195.486 19.148C195.047 19.148 194.66 19.2507 194.324 19.456C193.988 19.6613 193.722 19.946 193.526 20.31C193.339 20.6647 193.246 21.0847 193.246 21.57ZM205.067 18.154H206.369V25H205.193L205.053 23.964C204.857 24.3187 204.549 24.608 204.129 24.832C203.709 25.056 203.247 25.168 202.743 25.168C201.949 25.168 201.333 24.9207 200.895 24.426C200.465 23.922 200.251 23.25 200.251 22.41V18.154H201.567V21.976C201.567 22.704 201.711 23.2267 202.001 23.544C202.299 23.852 202.701 24.006 203.205 24.006C203.811 24.006 204.273 23.8193 204.591 23.446C204.908 23.0633 205.067 22.5033 205.067 21.766V18.154ZM212.198 18.098V19.302H211.61C210.985 19.302 210.49 19.484 210.126 19.848C209.771 20.2027 209.594 20.7113 209.594 21.374V25H208.278V18.168H209.51L209.622 19.54H209.496C209.589 19.092 209.813 18.728 210.168 18.448C210.523 18.1587 210.966 18.014 211.498 18.014C211.619 18.014 211.731 18.0233 211.834 18.042C211.946 18.0513 212.067 18.07 212.198 18.098ZM216.532 18.154H220.508V19.26H216.532V18.154ZM220.452 23.852L220.62 24.944C220.266 25.084 219.888 25.154 219.486 25.154C219.085 25.154 218.744 25.0793 218.464 24.93C218.184 24.7713 217.97 24.538 217.82 24.23C217.671 23.922 217.596 23.5393 217.596 23.082V16.012H218.912V22.9C218.912 23.292 218.992 23.572 219.15 23.74C219.318 23.8987 219.533 23.978 219.794 23.978C220 23.978 220.219 23.936 220.452 23.852ZM223.293 24.986H221.977V14.696H223.293V19.204C223.508 18.8307 223.816 18.532 224.217 18.308C224.618 18.0747 225.085 17.958 225.617 17.958C226.485 17.958 227.134 18.2147 227.563 18.728C227.992 19.2413 228.207 19.9367 228.207 20.814V25H226.891V21.108C226.891 20.6413 226.821 20.268 226.681 19.988C226.55 19.6987 226.359 19.4887 226.107 19.358C225.864 19.2273 225.58 19.162 225.253 19.162C224.833 19.162 224.474 19.2553 224.175 19.442C223.886 19.6287 223.666 19.8807 223.517 20.198C223.368 20.5153 223.293 20.87 223.293 21.262V24.986ZM229.582 21.57C229.582 20.87 229.736 20.2493 230.044 19.708C230.352 19.1667 230.772 18.742 231.304 18.434C231.845 18.126 232.461 17.972 233.152 17.972C233.843 17.972 234.454 18.126 234.986 18.434C235.518 18.742 235.938 19.1667 236.246 19.708C236.554 20.2493 236.708 20.87 236.708 21.57C236.708 22.27 236.554 22.8907 236.246 23.432C235.938 23.9733 235.518 24.398 234.986 24.706C234.454 25.014 233.843 25.168 233.152 25.168C232.461 25.168 231.845 25.014 231.304 24.706C230.772 24.398 230.352 23.9733 230.044 23.432C229.736 22.8907 229.582 22.27 229.582 21.57ZM230.912 21.57C230.912 22.046 231.005 22.466 231.192 22.83C231.388 23.194 231.654 23.4787 231.99 23.684C232.326 23.8893 232.713 23.992 233.152 23.992C233.591 23.992 233.978 23.8893 234.314 23.684C234.65 23.4787 234.911 23.194 235.098 22.83C235.294 22.466 235.392 22.046 235.392 21.57C235.392 21.0847 235.294 20.6647 235.098 20.31C234.911 19.946 234.65 19.6613 234.314 19.456C233.978 19.2507 233.591 19.148 233.152 19.148C232.713 19.148 232.326 19.2507 231.99 19.456C231.654 19.6613 231.388 19.946 231.192 20.31C231.005 20.6647 230.912 21.0847 230.912 21.57ZM242.733 18.154H244.035V25H242.859L242.719 23.964C242.523 24.3187 242.215 24.608 241.795 24.832C241.375 25.056 240.913 25.168 240.409 25.168C239.615 25.168 238.999 24.9207 238.561 24.426C238.131 23.922 237.917 23.25 237.917 22.41V18.154H239.233V21.976C239.233 22.704 239.377 23.2267 239.667 23.544C239.965 23.852 240.367 24.006 240.871 24.006C241.477 24.006 241.939 23.8193 242.257 23.446C242.574 23.0633 242.733 22.5033 242.733 21.766V18.154ZM247.33 22.62L247.512 23.096C247.269 23.096 247.078 23.1473 246.938 23.25C246.798 23.3433 246.728 23.4833 246.728 23.67C246.728 24.0433 247.031 24.23 247.638 24.23H249.878C250.671 24.23 251.269 24.384 251.67 24.692C252.081 25 252.286 25.4527 252.286 26.05C252.286 26.75 251.964 27.2913 251.32 27.674C250.685 28.066 249.78 28.262 248.604 28.262C247.493 28.262 246.677 28.1173 246.154 27.828C245.631 27.548 245.37 27.1093 245.37 26.512C245.37 26.092 245.538 25.742 245.874 25.462C246.219 25.182 246.653 25.0373 247.176 25.028L247.61 25.294C247.246 25.3033 246.966 25.378 246.77 25.518C246.574 25.6673 246.476 25.8867 246.476 26.176C246.476 26.5307 246.639 26.7827 246.966 26.932C247.302 27.0907 247.857 27.17 248.632 27.17C249.425 27.17 250.018 27.0767 250.41 26.89C250.811 26.7127 251.012 26.442 251.012 26.078C251.012 25.8073 250.919 25.6067 250.732 25.476C250.545 25.3547 250.251 25.294 249.85 25.294H247.316C246.793 25.294 246.383 25.182 246.084 24.958C245.785 24.734 245.636 24.4213 245.636 24.02C245.636 23.6187 245.781 23.292 246.07 23.04C246.369 22.788 246.789 22.648 247.33 22.62ZM250.886 19.106L250.256 18.644C250.377 18.2707 250.587 17.9767 250.886 17.762C251.185 17.5473 251.539 17.44 251.95 17.44C251.997 17.44 252.039 17.44 252.076 17.44C252.123 17.44 252.165 17.4447 252.202 17.454V18.574C252.146 18.5553 252.095 18.546 252.048 18.546C252.011 18.546 251.969 18.546 251.922 18.546C251.679 18.546 251.469 18.5927 251.292 18.686C251.124 18.7793 250.989 18.9193 250.886 19.106ZM245.748 20.688C245.748 20.156 245.874 19.6893 246.126 19.288C246.387 18.8773 246.737 18.5553 247.176 18.322C247.624 18.0793 248.133 17.958 248.702 17.958C249.019 17.958 249.332 18 249.64 18.084C249.957 18.1587 250.233 18.266 250.466 18.406L250.914 18.896C251.166 19.092 251.362 19.358 251.502 19.694C251.651 20.03 251.726 20.3753 251.726 20.73C251.726 21.2433 251.6 21.696 251.348 22.088C251.105 22.48 250.76 22.788 250.312 23.012C249.873 23.2267 249.355 23.334 248.758 23.334C248.17 23.334 247.647 23.2267 247.19 23.012C246.742 22.788 246.387 22.48 246.126 22.088C245.874 21.6867 245.748 21.22 245.748 20.688ZM247.022 20.674C247.022 21.1593 247.181 21.5513 247.498 21.85C247.815 22.1393 248.231 22.284 248.744 22.284C249.257 22.284 249.673 22.1393 249.99 21.85C250.307 21.5513 250.466 21.1593 250.466 20.674C250.466 20.1887 250.307 19.792 249.99 19.484C249.673 19.176 249.257 19.022 248.744 19.022C248.24 19.022 247.825 19.176 247.498 19.484C247.181 19.7827 247.022 20.1793 247.022 20.674ZM254.82 24.986H253.504V14.696H254.82V19.204C255.035 18.8307 255.343 18.532 255.744 18.308C256.146 18.0747 256.612 17.958 257.144 17.958C258.012 17.958 258.661 18.2147 259.09 18.728C259.52 19.2413 259.734 19.9367 259.734 20.814V25H258.418V21.108C258.418 20.6413 258.348 20.268 258.208 19.988C258.078 19.6987 257.886 19.4887 257.634 19.358C257.392 19.2273 257.107 19.162 256.78 19.162C256.36 19.162 256.001 19.2553 255.702 19.442C255.413 19.6287 255.194 19.8807 255.044 20.198C254.895 20.5153 254.82 20.87 254.82 21.262V24.986ZM260.829 18.154H264.805V19.26H260.829V18.154ZM264.749 23.852L264.917 24.944C264.563 25.084 264.185 25.154 263.783 25.154C263.382 25.154 263.041 25.0793 262.761 24.93C262.481 24.7713 262.267 24.538 262.117 24.23C261.968 23.922 261.893 23.5393 261.893 23.082V16.012H263.209V22.9C263.209 23.292 263.289 23.572 263.447 23.74C263.615 23.8987 263.83 23.978 264.091 23.978C264.297 23.978 264.516 23.936 264.749 23.852ZM265.714 23.012H266.974C266.974 23.3573 267.1 23.6327 267.352 23.838C267.604 24.034 267.945 24.132 268.374 24.132C268.841 24.132 269.2 24.0433 269.452 23.866C269.704 23.6793 269.83 23.432 269.83 23.124C269.83 22.9 269.76 22.7133 269.62 22.564C269.489 22.4147 269.247 22.2933 268.892 22.2L267.688 21.92C267.081 21.7707 266.629 21.542 266.33 21.234C266.041 20.926 265.896 20.52 265.896 20.016C265.896 19.596 266.003 19.232 266.218 18.924C266.442 18.616 266.745 18.378 267.128 18.21C267.52 18.042 267.968 17.958 268.472 17.958C268.976 17.958 269.41 18.0467 269.774 18.224C270.147 18.4013 270.437 18.6487 270.642 18.966C270.857 19.2833 270.969 19.6613 270.978 20.1H269.718C269.709 19.7453 269.592 19.47 269.368 19.274C269.144 19.078 268.831 18.98 268.43 18.98C268.019 18.98 267.702 19.0687 267.478 19.246C267.254 19.4233 267.142 19.666 267.142 19.974C267.142 20.4313 267.478 20.744 268.15 20.912L269.354 21.206C269.933 21.3367 270.367 21.5513 270.656 21.85C270.945 22.1393 271.09 22.536 271.09 23.04C271.09 23.4693 270.973 23.8473 270.74 24.174C270.507 24.4913 270.185 24.7387 269.774 24.916C269.373 25.084 268.897 25.168 268.346 25.168C267.543 25.168 266.904 24.972 266.428 24.58C265.952 24.188 265.714 23.6653 265.714 23.012ZM162.965 38.154H164.127V45H162.923L162.811 43.754C162.578 44.1927 162.246 44.5427 161.817 44.804C161.397 45.056 160.902 45.182 160.333 45.182C159.661 45.182 159.087 45.0233 158.611 44.706C158.135 44.3887 157.771 43.9547 157.519 43.404C157.276 42.8533 157.155 42.228 157.155 41.528C157.155 40.828 157.286 40.212 157.547 39.68C157.818 39.1387 158.191 38.7187 158.667 38.42C159.152 38.112 159.722 37.958 160.375 37.958C160.898 37.958 161.388 38.0793 161.845 38.322C162.302 38.5553 162.643 38.9193 162.867 39.414L162.965 38.154ZM162.783 41.584C162.783 41.108 162.694 40.688 162.517 40.324C162.349 39.96 162.106 39.6753 161.789 39.47C161.472 39.2647 161.084 39.162 160.627 39.162C160.188 39.162 159.806 39.2647 159.479 39.47C159.152 39.6753 158.905 39.96 158.737 40.324C158.569 40.688 158.485 41.108 158.485 41.584C158.485 42.0507 158.569 42.466 158.737 42.83C158.905 43.194 159.148 43.4787 159.465 43.684C159.782 43.8893 160.165 43.992 160.613 43.992C161.061 43.992 161.444 43.8893 161.761 43.684C162.088 43.4787 162.34 43.194 162.517 42.83C162.694 42.466 162.783 42.0507 162.783 41.584ZM167.341 45H166.025V38.154H167.215L167.355 39.204C167.57 38.812 167.878 38.5087 168.279 38.294C168.69 38.07 169.138 37.958 169.623 37.958C170.519 37.958 171.182 38.2147 171.611 38.728C172.04 39.2413 172.255 39.9367 172.255 40.814V45H170.939V41.108C170.939 40.4173 170.79 39.9227 170.491 39.624C170.192 39.316 169.791 39.162 169.287 39.162C168.671 39.162 168.19 39.3627 167.845 39.764C167.509 40.1653 167.341 40.702 167.341 41.374V45ZM176.822 45.168C176.159 45.168 175.59 45.0187 175.114 44.72C174.638 44.412 174.269 43.9873 174.008 43.446C173.756 42.9047 173.63 42.2887 173.63 41.598C173.63 40.898 173.76 40.2773 174.022 39.736C174.283 39.1853 174.656 38.7513 175.142 38.434C175.627 38.1167 176.206 37.958 176.878 37.958C177.41 37.958 177.881 38.07 178.292 38.294C178.712 38.5087 179.038 38.8307 179.272 39.26V34.696H180.574V45H179.398L179.286 43.754C179.062 44.2113 178.73 44.5613 178.292 44.804C177.862 45.0467 177.372 45.168 176.822 45.168ZM177.088 43.978C177.536 43.978 177.918 43.8753 178.236 43.67C178.562 43.4647 178.814 43.18 178.992 42.816C179.169 42.452 179.258 42.032 179.258 41.556C179.258 41.08 179.169 40.6647 178.992 40.31C178.814 39.946 178.562 39.6613 178.236 39.456C177.918 39.2507 177.536 39.148 177.088 39.148C176.64 39.148 176.257 39.2553 175.94 39.47C175.622 39.6753 175.38 39.96 175.212 40.324C175.044 40.6787 174.96 41.0893 174.96 41.556C174.96 42.032 175.044 42.452 175.212 42.816C175.38 43.18 175.622 43.4647 175.94 43.67C176.257 43.8753 176.64 43.978 177.088 43.978ZM186.3 45V38.154H187.616V45H186.3ZM186.944 36.53C186.711 36.53 186.506 36.446 186.328 36.278C186.16 36.1007 186.076 35.8953 186.076 35.662C186.076 35.4193 186.16 35.214 186.328 35.046C186.506 34.878 186.711 34.794 186.944 34.794C187.187 34.794 187.392 34.878 187.56 35.046C187.728 35.214 187.812 35.4193 187.812 35.662C187.812 35.8953 187.728 36.1007 187.56 36.278C187.392 36.446 187.187 36.53 186.944 36.53ZM190.843 45H189.527V38.154H190.717L190.857 39.204C191.072 38.812 191.38 38.5087 191.781 38.294C192.192 38.07 192.64 37.958 193.125 37.958C194.021 37.958 194.684 38.2147 195.113 38.728C195.542 39.2413 195.757 39.9367 195.757 40.814V45H194.441V41.108C194.441 40.4173 194.292 39.9227 193.993 39.624C193.694 39.316 193.293 39.162 192.789 39.162C192.173 39.162 191.692 39.3627 191.347 39.764C191.011 40.1653 190.843 40.702 190.843 41.374V45ZM196.852 38.154H200.8V39.26H196.852V38.154ZM200.842 34.752V35.886C200.758 35.886 200.664 35.886 200.562 35.886C200.468 35.886 200.366 35.886 200.254 35.886C199.824 35.886 199.535 35.9887 199.386 36.194C199.246 36.3993 199.176 36.6887 199.176 37.062V45H197.86V37.062C197.86 36.502 197.953 36.0493 198.14 35.704C198.336 35.3493 198.592 35.0927 198.91 34.934C199.236 34.7753 199.61 34.696 200.03 34.696C200.16 34.696 200.296 34.7007 200.436 34.71C200.576 34.7193 200.711 34.7333 200.842 34.752ZM201.37 41.57C201.37 40.87 201.524 40.2493 201.832 39.708C202.14 39.1667 202.56 38.742 203.092 38.434C203.633 38.126 204.249 37.972 204.94 37.972C205.631 37.972 206.242 38.126 206.774 38.434C207.306 38.742 207.726 39.1667 208.034 39.708C208.342 40.2493 208.496 40.87 208.496 41.57C208.496 42.27 208.342 42.8907 208.034 43.432C207.726 43.9733 207.306 44.398 206.774 44.706C206.242 45.014 205.631 45.168 204.94 45.168C204.249 45.168 203.633 45.014 203.092 44.706C202.56 44.398 202.14 43.9733 201.832 43.432C201.524 42.8907 201.37 42.27 201.37 41.57ZM202.7 41.57C202.7 42.046 202.793 42.466 202.98 42.83C203.176 43.194 203.442 43.4787 203.778 43.684C204.114 43.8893 204.501 43.992 204.94 43.992C205.379 43.992 205.766 43.8893 206.102 43.684C206.438 43.4787 206.699 43.194 206.886 42.83C207.082 42.466 207.18 42.046 207.18 41.57C207.18 41.0847 207.082 40.6647 206.886 40.31C206.699 39.946 206.438 39.6613 206.102 39.456C205.766 39.2507 205.379 39.148 204.94 39.148C204.501 39.148 204.114 39.2507 203.778 39.456C203.442 39.6613 203.176 39.946 202.98 40.31C202.793 40.6647 202.7 41.0847 202.7 41.57ZM213.873 38.098V39.302H213.285C212.659 39.302 212.165 39.484 211.801 39.848C211.446 40.2027 211.269 40.7113 211.269 41.374V45H209.953V38.168H211.185L211.297 39.54H211.171C211.264 39.092 211.488 38.728 211.843 38.448C212.197 38.1587 212.641 38.014 213.173 38.014C213.294 38.014 213.406 38.0233 213.509 38.042C213.621 38.0513 213.742 38.07 213.873 38.098ZM216.423 45H215.107V38.154H216.283L216.465 39.414L216.297 39.302C216.437 38.9193 216.694 38.602 217.067 38.35C217.45 38.0887 217.912 37.958 218.453 37.958C219.06 37.958 219.564 38.1213 219.965 38.448C220.366 38.7747 220.628 39.2087 220.749 39.75H220.511C220.604 39.2087 220.861 38.7747 221.281 38.448C221.701 38.1213 222.219 37.958 222.835 37.958C223.619 37.958 224.235 38.1867 224.683 38.644C225.131 39.1013 225.355 39.7267 225.355 40.52V45H224.067V40.842C224.067 40.3007 223.927 39.8853 223.647 39.596C223.376 39.2973 223.008 39.148 222.541 39.148C222.214 39.148 221.925 39.2227 221.673 39.372C221.43 39.512 221.239 39.7173 221.099 39.988C220.959 40.2587 220.889 40.576 220.889 40.94V45H219.587V40.828C219.587 40.2867 219.452 39.876 219.181 39.596C218.91 39.3067 218.542 39.162 218.075 39.162C217.748 39.162 217.459 39.2367 217.207 39.386C216.964 39.526 216.773 39.7313 216.633 40.002C216.493 40.2633 216.423 40.576 216.423 40.94V45ZM232.541 38.154H233.703V45H232.499L232.387 43.754C232.154 44.1927 231.823 44.5427 231.393 44.804C230.973 45.056 230.479 45.182 229.909 45.182C229.237 45.182 228.663 45.0233 228.187 44.706C227.711 44.3887 227.347 43.9547 227.095 43.404C226.853 42.8533 226.731 42.228 226.731 41.528C226.731 40.828 226.862 40.212 227.123 39.68C227.394 39.1387 227.767 38.7187 228.243 38.42C228.729 38.112 229.298 37.958 229.951 37.958C230.474 37.958 230.964 38.0793 231.421 38.322C231.879 38.5553 232.219 38.9193 232.443 39.414L232.541 38.154ZM232.359 41.584C232.359 41.108 232.271 40.688 232.093 40.324C231.925 39.96 231.683 39.6753 231.365 39.47C231.048 39.2647 230.661 39.162 230.203 39.162C229.765 39.162 229.382 39.2647 229.055 39.47C228.729 39.6753 228.481 39.96 228.313 40.324C228.145 40.688 228.061 41.108 228.061 41.584C228.061 42.0507 228.145 42.466 228.313 42.83C228.481 43.194 228.724 43.4787 229.041 43.684C229.359 43.8893 229.741 43.992 230.189 43.992C230.637 43.992 231.02 43.8893 231.337 43.684C231.664 43.4787 231.916 43.194 232.093 42.83C232.271 42.466 232.359 42.0507 232.359 41.584ZM234.873 38.154H238.849V39.26H234.873V38.154ZM238.793 43.852L238.961 44.944C238.607 45.084 238.229 45.154 237.827 45.154C237.426 45.154 237.085 45.0793 236.805 44.93C236.525 44.7713 236.311 44.538 236.161 44.23C236.012 43.922 235.937 43.5393 235.937 43.082V36.012H237.253V42.9C237.253 43.292 237.333 43.572 237.491 43.74C237.659 43.8987 237.874 43.978 238.135 43.978C238.341 43.978 238.56 43.936 238.793 43.852ZM240.318 45V38.154H241.634V45H240.318ZM240.962 36.53C240.729 36.53 240.523 36.446 240.346 36.278C240.178 36.1007 240.094 35.8953 240.094 35.662C240.094 35.4193 240.178 35.214 240.346 35.046C240.523 34.878 240.729 34.794 240.962 34.794C241.205 34.794 241.41 34.878 241.578 35.046C241.746 35.214 241.83 35.4193 241.83 35.662C241.83 35.8953 241.746 36.1007 241.578 36.278C241.41 36.446 241.205 36.53 240.962 36.53ZM243.097 41.57C243.097 40.87 243.251 40.2493 243.559 39.708C243.867 39.1667 244.287 38.742 244.819 38.434C245.36 38.126 245.976 37.972 246.667 37.972C247.357 37.972 247.969 38.126 248.501 38.434C249.033 38.742 249.453 39.1667 249.761 39.708C250.069 40.2493 250.223 40.87 250.223 41.57C250.223 42.27 250.069 42.8907 249.761 43.432C249.453 43.9733 249.033 44.398 248.501 44.706C247.969 45.014 247.357 45.168 246.667 45.168C245.976 45.168 245.36 45.014 244.819 44.706C244.287 44.398 243.867 43.9733 243.559 43.432C243.251 42.8907 243.097 42.27 243.097 41.57ZM244.427 41.57C244.427 42.046 244.52 42.466 244.707 42.83C244.903 43.194 245.169 43.4787 245.505 43.684C245.841 43.8893 246.228 43.992 246.667 43.992C247.105 43.992 247.493 43.8893 247.829 43.684C248.165 43.4787 248.426 43.194 248.613 42.83C248.809 42.466 248.907 42.046 248.907 41.57C248.907 41.0847 248.809 40.6647 248.613 40.31C248.426 39.946 248.165 39.6613 247.829 39.456C247.493 39.2507 247.105 39.148 246.667 39.148C246.228 39.148 245.841 39.2507 245.505 39.456C245.169 39.6613 244.903 39.946 244.707 40.31C244.52 40.6647 244.427 41.0847 244.427 41.57ZM252.995 45H251.679V38.154H252.869L253.009 39.204C253.224 38.812 253.532 38.5087 253.933 38.294C254.344 38.07 254.792 37.958 255.277 37.958C256.173 37.958 256.836 38.2147 257.265 38.728C257.695 39.2413 257.909 39.9367 257.909 40.814V45H256.593V41.108C256.593 40.4173 256.444 39.9227 256.145 39.624C255.847 39.316 255.445 39.162 254.941 39.162C254.325 39.162 253.845 39.3627 253.499 39.764C253.163 40.1653 252.995 40.702 252.995 41.374V45Z"
    fill="#1F2937"
  />
<path
    d="M0 161H211.608V72"
    stroke="#4ED6D4"
    strokeWidth="2"
    strokeDasharray="8 8"
  />
</svg>
