<svg
  width="328"
  height="154"
  viewBox="0 0 328 154"
  fill="none"
  xmlns="http://www.w3.org/2000/svg"
>
<rect x="162.924" y="1" width="164.076" height="57" rx="5" fill="#F9FAFB" />
<rect
    x="162.924"
    y="1"
    width="164.076"
    height="57"
    rx="5"
    stroke="#4ED6D4"
    strokeWidth="2"
  />
<path
    d="M184.759 25H183.415V14.878H184.759L188.245 23.39L191.731 14.878H193.103V25H191.759V20.996C191.759 20.52 191.759 20.114 191.759 19.778C191.759 19.442 191.763 19.1527 191.773 18.91C191.782 18.6673 191.791 18.4527 191.801 18.266C191.81 18.07 191.824 17.8833 191.843 17.706L188.889 25H187.601L184.661 17.734C184.698 17.9767 184.721 18.35 184.731 18.854C184.749 19.358 184.759 19.9647 184.759 20.674V25ZM198.189 25.168C197.527 25.168 196.939 25.0187 196.425 24.72C195.912 24.412 195.511 23.992 195.221 23.46C194.932 22.9187 194.787 22.2933 194.787 21.584C194.787 20.8653 194.927 20.2353 195.207 19.694C195.497 19.1527 195.889 18.728 196.383 18.42C196.887 18.112 197.471 17.958 198.133 17.958C198.787 17.958 199.351 18.098 199.827 18.378C200.313 18.658 200.686 19.05 200.947 19.554C201.218 20.058 201.353 20.6507 201.353 21.332V21.822L195.487 21.836L195.515 20.954H200.037C200.037 20.3847 199.865 19.9273 199.519 19.582C199.174 19.2367 198.712 19.064 198.133 19.064C197.695 19.064 197.317 19.162 196.999 19.358C196.691 19.5447 196.453 19.8247 196.285 20.198C196.127 20.562 196.047 21.0007 196.047 21.514C196.047 22.3353 196.234 22.97 196.607 23.418C196.981 23.8567 197.517 24.076 198.217 24.076C198.731 24.076 199.151 23.9733 199.477 23.768C199.804 23.5627 200.023 23.264 200.135 22.872H201.367C201.199 23.6 200.84 24.1647 200.289 24.566C199.739 24.9673 199.039 25.168 198.189 25.168ZM205.777 25.168C205.115 25.168 204.527 25.0187 204.013 24.72C203.5 24.412 203.099 23.992 202.809 23.46C202.52 22.9187 202.375 22.2933 202.375 21.584C202.375 20.8653 202.515 20.2353 202.795 19.694C203.085 19.1527 203.477 18.728 203.971 18.42C204.475 18.112 205.059 17.958 205.721 17.958C206.375 17.958 206.939 18.098 207.415 18.378C207.901 18.658 208.274 19.05 208.535 19.554C208.806 20.058 208.941 20.6507 208.941 21.332V21.822L203.075 21.836L203.103 20.954H207.625C207.625 20.3847 207.453 19.9273 207.107 19.582C206.762 19.2367 206.3 19.064 205.721 19.064C205.283 19.064 204.905 19.162 204.587 19.358C204.279 19.5447 204.041 19.8247 203.873 20.198C203.715 20.562 203.635 21.0007 203.635 21.514C203.635 22.3353 203.822 22.97 204.195 23.418C204.569 23.8567 205.105 24.076 205.805 24.076C206.319 24.076 206.739 23.9733 207.065 23.768C207.392 23.5627 207.611 23.264 207.723 22.872H208.955C208.787 23.6 208.428 24.1647 207.877 24.566C207.327 24.9673 206.627 25.168 205.777 25.168ZM209.615 18.154H213.591V19.26H209.615V18.154ZM213.535 23.852L213.703 24.944C213.348 25.084 212.97 25.154 212.569 25.154C212.168 25.154 211.827 25.0793 211.547 24.93C211.267 24.7713 211.052 24.538 210.903 24.23C210.754 23.922 210.679 23.5393 210.679 23.082V16.012H211.995V22.9C211.995 23.292 212.074 23.572 212.233 23.74C212.401 23.8987 212.616 23.978 212.877 23.978C213.082 23.978 213.302 23.936 213.535 23.852ZM218.888 28.066V18.154H220.078L220.176 19.386C220.4 18.91 220.731 18.5553 221.17 18.322C221.618 18.0793 222.112 17.958 222.654 17.958C223.307 17.958 223.872 18.112 224.348 18.42C224.824 18.7187 225.188 19.1387 225.44 19.68C225.701 20.212 225.832 20.828 225.832 21.528C225.832 22.228 225.706 22.8533 225.454 23.404C225.211 23.9547 224.852 24.3887 224.376 24.706C223.909 25.0233 223.335 25.182 222.654 25.182C222.103 25.182 221.613 25.07 221.184 24.846C220.754 24.622 220.428 24.3 220.204 23.88V28.066H218.888ZM220.218 21.584C220.218 22.0413 220.302 22.4567 220.47 22.83C220.647 23.194 220.894 23.4787 221.212 23.684C221.538 23.8893 221.926 23.992 222.374 23.992C222.822 23.992 223.204 23.8893 223.522 23.684C223.839 23.4693 224.082 23.18 224.25 22.816C224.427 22.452 224.516 22.0413 224.516 21.584C224.516 21.108 224.427 20.688 224.25 20.324C224.082 19.96 223.839 19.6753 223.522 19.47C223.204 19.2647 222.822 19.162 222.374 19.162C221.926 19.162 221.538 19.2647 221.212 19.47C220.894 19.6753 220.647 19.96 220.47 20.324C220.302 20.688 220.218 21.108 220.218 21.584ZM230.236 25.168C229.574 25.168 228.986 25.0187 228.472 24.72C227.959 24.412 227.558 23.992 227.268 23.46C226.979 22.9187 226.834 22.2933 226.834 21.584C226.834 20.8653 226.974 20.2353 227.254 19.694C227.544 19.1527 227.936 18.728 228.43 18.42C228.934 18.112 229.518 17.958 230.18 17.958C230.834 17.958 231.398 18.098 231.874 18.378C232.36 18.658 232.733 19.05 232.994 19.554C233.265 20.058 233.4 20.6507 233.4 21.332V21.822L227.534 21.836L227.562 20.954H232.084C232.084 20.3847 231.912 19.9273 231.566 19.582C231.221 19.2367 230.759 19.064 230.18 19.064C229.742 19.064 229.364 19.162 229.046 19.358C228.738 19.5447 228.5 19.8247 228.332 20.198C228.174 20.562 228.094 21.0007 228.094 21.514C228.094 22.3353 228.281 22.97 228.654 23.418C229.028 23.8567 229.564 24.076 230.264 24.076C230.778 24.076 231.198 23.9733 231.524 23.768C231.851 23.5627 232.07 23.264 232.182 22.872H233.414C233.246 23.6 232.887 24.1647 232.336 24.566C231.786 24.9673 231.086 25.168 230.236 25.168ZM234.422 21.57C234.422 20.87 234.576 20.2493 234.884 19.708C235.192 19.1667 235.612 18.742 236.144 18.434C236.686 18.126 237.302 17.972 237.992 17.972C238.683 17.972 239.294 18.126 239.826 18.434C240.358 18.742 240.778 19.1667 241.086 19.708C241.394 20.2493 241.548 20.87 241.548 21.57C241.548 22.27 241.394 22.8907 241.086 23.432C240.778 23.9733 240.358 24.398 239.826 24.706C239.294 25.014 238.683 25.168 237.992 25.168C237.302 25.168 236.686 25.014 236.144 24.706C235.612 24.398 235.192 23.9733 234.884 23.432C234.576 22.8907 234.422 22.27 234.422 21.57ZM235.752 21.57C235.752 22.046 235.846 22.466 236.032 22.83C236.228 23.194 236.494 23.4787 236.83 23.684C237.166 23.8893 237.554 23.992 237.992 23.992C238.431 23.992 238.818 23.8893 239.154 23.684C239.49 23.4787 239.752 23.194 239.938 22.83C240.134 22.466 240.232 22.046 240.232 21.57C240.232 21.0847 240.134 20.6647 239.938 20.31C239.752 19.946 239.49 19.6613 239.154 19.456C238.818 19.2507 238.431 19.148 237.992 19.148C237.554 19.148 237.166 19.2507 236.83 19.456C236.494 19.6613 236.228 19.946 236.032 20.31C235.846 20.6647 235.752 21.0847 235.752 21.57ZM243.005 28.066V18.154H244.195L244.293 19.386C244.517 18.91 244.848 18.5553 245.287 18.322C245.735 18.0793 246.23 17.958 246.771 17.958C247.424 17.958 247.989 18.112 248.465 18.42C248.941 18.7187 249.305 19.1387 249.557 19.68C249.818 20.212 249.949 20.828 249.949 21.528C249.949 22.228 249.823 22.8533 249.571 23.404C249.328 23.9547 248.969 24.3887 248.493 24.706C248.026 25.0233 247.452 25.182 246.771 25.182C246.22 25.182 245.73 25.07 245.301 24.846C244.872 24.622 244.545 24.3 244.321 23.88V28.066H243.005ZM244.335 21.584C244.335 22.0413 244.419 22.4567 244.587 22.83C244.764 23.194 245.012 23.4787 245.329 23.684C245.656 23.8893 246.043 23.992 246.491 23.992C246.939 23.992 247.322 23.8893 247.639 23.684C247.956 23.4693 248.199 23.18 248.367 22.816C248.544 22.452 248.633 22.0413 248.633 21.584C248.633 21.108 248.544 20.688 248.367 20.324C248.199 19.96 247.956 19.6753 247.639 19.47C247.322 19.2647 246.939 19.162 246.491 19.162C246.043 19.162 245.656 19.2647 245.329 19.47C245.012 19.6753 244.764 19.96 244.587 20.324C244.419 20.688 244.335 21.108 244.335 21.584ZM252.744 25H251.428V14.696H252.744V25ZM257.635 25.168C256.972 25.168 256.384 25.0187 255.871 24.72C255.357 24.412 254.956 23.992 254.667 23.46C254.377 22.9187 254.233 22.2933 254.233 21.584C254.233 20.8653 254.373 20.2353 254.653 19.694C254.942 19.1527 255.334 18.728 255.829 18.42C256.333 18.112 256.916 17.958 257.579 17.958C258.232 17.958 258.797 18.098 259.273 18.378C259.758 18.658 260.131 19.05 260.393 19.554C260.663 20.058 260.799 20.6507 260.799 21.332V21.822L254.933 21.836L254.961 20.954H259.483C259.483 20.3847 259.31 19.9273 258.965 19.582C258.619 19.2367 258.157 19.064 257.579 19.064C257.14 19.064 256.762 19.162 256.445 19.358C256.137 19.5447 255.899 19.8247 255.731 20.198C255.572 20.562 255.493 21.0007 255.493 21.514C255.493 22.3353 255.679 22.97 256.053 23.418C256.426 23.8567 256.963 24.076 257.663 24.076C258.176 24.076 258.596 23.9733 258.923 23.768C259.249 23.5627 259.469 23.264 259.581 22.872H260.813C260.645 23.6 260.285 24.1647 259.735 24.566C259.184 24.9673 258.484 25.168 257.635 25.168ZM266.097 25V18.154H267.413V25H266.097ZM266.741 16.53C266.507 16.53 266.302 16.446 266.125 16.278C265.957 16.1007 265.873 15.8953 265.873 15.662C265.873 15.4193 265.957 15.214 266.125 15.046C266.302 14.878 266.507 14.794 266.741 14.794C266.983 14.794 267.189 14.878 267.357 15.046C267.525 15.214 267.609 15.4193 267.609 15.662C267.609 15.8953 267.525 16.1007 267.357 16.278C267.189 16.446 266.983 16.53 266.741 16.53ZM270.639 25H269.323V18.154H270.513L270.653 19.204C270.868 18.812 271.176 18.5087 271.577 18.294C271.988 18.07 272.436 17.958 272.921 17.958C273.817 17.958 274.48 18.2147 274.909 18.728C275.339 19.2413 275.553 19.9367 275.553 20.814V25H274.237V21.108C274.237 20.4173 274.088 19.9227 273.789 19.624C273.491 19.316 273.089 19.162 272.585 19.162C271.969 19.162 271.489 19.3627 271.143 19.764C270.807 20.1653 270.639 20.702 270.639 21.374V25ZM280.476 18.154H284.452V19.26H280.476V18.154ZM284.396 23.852L284.564 24.944C284.21 25.084 283.832 25.154 283.43 25.154C283.029 25.154 282.688 25.0793 282.408 24.93C282.128 24.7713 281.914 24.538 281.764 24.23C281.615 23.922 281.54 23.5393 281.54 23.082V16.012H282.856V22.9C282.856 23.292 282.936 23.572 283.094 23.74C283.262 23.8987 283.477 23.978 283.738 23.978C283.944 23.978 284.163 23.936 284.396 23.852ZM287.237 24.986H285.921V14.696H287.237V19.204C287.452 18.8307 287.76 18.532 288.161 18.308C288.562 18.0747 289.029 17.958 289.561 17.958C290.429 17.958 291.078 18.2147 291.507 18.728C291.936 19.2413 292.151 19.9367 292.151 20.814V25H290.835V21.108C290.835 20.6413 290.765 20.268 290.625 19.988C290.494 19.6987 290.303 19.4887 290.051 19.358C289.808 19.2273 289.524 19.162 289.197 19.162C288.777 19.162 288.418 19.2553 288.119 19.442C287.83 19.6287 287.61 19.8807 287.461 20.198C287.312 20.5153 287.237 20.87 287.237 21.262V24.986ZM296.928 25.168C296.265 25.168 295.677 25.0187 295.164 24.72C294.65 24.412 294.249 23.992 293.96 23.46C293.67 22.9187 293.526 22.2933 293.526 21.584C293.526 20.8653 293.666 20.2353 293.946 19.694C294.235 19.1527 294.627 18.728 295.122 18.42C295.626 18.112 296.209 17.958 296.872 17.958C297.525 17.958 298.09 18.098 298.566 18.378C299.051 18.658 299.424 19.05 299.686 19.554C299.956 20.058 300.092 20.6507 300.092 21.332V21.822L294.226 21.836L294.254 20.954H298.776C298.776 20.3847 298.603 19.9273 298.258 19.582C297.912 19.2367 297.45 19.064 296.872 19.064C296.433 19.064 296.055 19.162 295.738 19.358C295.43 19.5447 295.192 19.8247 295.024 20.198C294.865 20.562 294.786 21.0007 294.786 21.514C294.786 22.3353 294.972 22.97 295.346 23.418C295.719 23.8567 296.256 24.076 296.956 24.076C297.469 24.076 297.889 23.9733 298.216 23.768C298.542 23.5627 298.762 23.264 298.874 22.872H300.106C299.938 23.6 299.578 24.1647 299.028 24.566C298.477 24.9673 297.777 25.168 296.928 25.168ZM206.593 41.584C206.593 40.8653 206.733 40.2353 207.013 39.694C207.302 39.1527 207.699 38.728 208.203 38.42C208.707 38.112 209.29 37.958 209.953 37.958C210.812 37.958 211.526 38.1867 212.095 38.644C212.664 39.1013 213.005 39.708 213.117 40.464H211.801C211.689 40.0253 211.47 39.694 211.143 39.47C210.816 39.246 210.434 39.134 209.995 39.134C209.584 39.134 209.22 39.2367 208.903 39.442C208.586 39.638 208.338 39.918 208.161 40.282C207.984 40.646 207.895 41.0753 207.895 41.57C207.895 42.0647 207.979 42.494 208.147 42.858C208.315 43.2127 208.553 43.4927 208.861 43.698C209.169 43.894 209.528 43.992 209.939 43.992C210.406 43.992 210.807 43.8753 211.143 43.642C211.479 43.4087 211.703 43.0913 211.815 42.69H213.131C213.047 43.1847 212.856 43.6187 212.557 43.992C212.268 44.356 211.894 44.6453 211.437 44.86C210.989 45.0653 210.49 45.168 209.939 45.168C209.267 45.168 208.679 45.0187 208.175 44.72C207.68 44.4213 207.293 44.006 207.013 43.474C206.733 42.9327 206.593 42.3027 206.593 41.584ZM214.072 41.57C214.072 40.87 214.226 40.2493 214.534 39.708C214.842 39.1667 215.262 38.742 215.794 38.434C216.335 38.126 216.951 37.972 217.642 37.972C218.332 37.972 218.944 38.126 219.476 38.434C220.008 38.742 220.428 39.1667 220.736 39.708C221.044 40.2493 221.198 40.87 221.198 41.57C221.198 42.27 221.044 42.8907 220.736 43.432C220.428 43.9733 220.008 44.398 219.476 44.706C218.944 45.014 218.332 45.168 217.642 45.168C216.951 45.168 216.335 45.014 215.794 44.706C215.262 44.398 214.842 43.9733 214.534 43.432C214.226 42.8907 214.072 42.27 214.072 41.57ZM215.402 41.57C215.402 42.046 215.495 42.466 215.682 42.83C215.878 43.194 216.144 43.4787 216.48 43.684C216.816 43.8893 217.203 43.992 217.642 43.992C218.08 43.992 218.468 43.8893 218.804 43.684C219.14 43.4787 219.401 43.194 219.588 42.83C219.784 42.466 219.882 42.046 219.882 41.57C219.882 41.0847 219.784 40.6647 219.588 40.31C219.401 39.946 219.14 39.6613 218.804 39.456C218.468 39.2507 218.08 39.148 217.642 39.148C217.203 39.148 216.816 39.2507 216.48 39.456C216.144 39.6613 215.878 39.946 215.682 40.31C215.495 40.6647 215.402 41.0847 215.402 41.57ZM223.97 45H222.654V38.154H223.83L224.012 39.414L223.844 39.302C223.984 38.9193 224.241 38.602 224.614 38.35C224.997 38.0887 225.459 37.958 226 37.958C226.607 37.958 227.111 38.1213 227.512 38.448C227.914 38.7747 228.175 39.2087 228.296 39.75H228.058C228.152 39.2087 228.408 38.7747 228.828 38.448C229.248 38.1213 229.766 37.958 230.382 37.958C231.166 37.958 231.782 38.1867 232.23 38.644C232.678 39.1013 232.902 39.7267 232.902 40.52V45H231.614V40.842C231.614 40.3007 231.474 39.8853 231.194 39.596C230.924 39.2973 230.555 39.148 230.088 39.148C229.762 39.148 229.472 39.2227 229.22 39.372C228.978 39.512 228.786 39.7173 228.646 39.988C228.506 40.2587 228.436 40.576 228.436 40.94V45H227.134V40.828C227.134 40.2867 226.999 39.876 226.728 39.596C226.458 39.3067 226.089 39.162 225.622 39.162C225.296 39.162 225.006 39.2367 224.754 39.386C224.512 39.526 224.32 39.7313 224.18 40.002C224.04 40.2633 223.97 40.576 223.97 40.94V45ZM236.043 45H234.727V38.154H235.903L236.085 39.414L235.917 39.302C236.057 38.9193 236.313 38.602 236.687 38.35C237.069 38.0887 237.531 37.958 238.073 37.958C238.679 37.958 239.183 38.1213 239.585 38.448C239.986 38.7747 240.247 39.2087 240.369 39.75H240.131C240.224 39.2087 240.481 38.7747 240.901 38.448C241.321 38.1213 241.839 37.958 242.455 37.958C243.239 37.958 243.855 38.1867 244.303 38.644C244.751 39.1013 244.975 39.7267 244.975 40.52V45H243.687V40.842C243.687 40.3007 243.547 39.8853 243.267 39.596C242.996 39.2973 242.627 39.148 242.161 39.148C241.834 39.148 241.545 39.2227 241.293 39.372C241.05 39.512 240.859 39.7173 240.719 39.988C240.579 40.2587 240.509 40.576 240.509 40.94V45H239.207V40.828C239.207 40.2867 239.071 39.876 238.801 39.596C238.53 39.3067 238.161 39.162 237.695 39.162C237.368 39.162 237.079 39.2367 236.827 39.386C236.584 39.526 236.393 39.7313 236.253 40.002C236.113 40.2633 236.043 40.576 236.043 40.94V45ZM251.531 38.154H252.833V45H251.657L251.517 43.964C251.321 44.3187 251.013 44.608 250.593 44.832C250.173 45.056 249.711 45.168 249.207 45.168C248.414 45.168 247.798 44.9207 247.359 44.426C246.93 43.922 246.715 43.25 246.715 42.41V38.154H248.031V41.976C248.031 42.704 248.176 43.2267 248.465 43.544C248.764 43.852 249.165 44.006 249.669 44.006C250.276 44.006 250.738 43.8193 251.055 43.446C251.372 43.0633 251.531 42.5033 251.531 41.766V38.154ZM256.058 45H254.742V38.154H255.932L256.072 39.204C256.287 38.812 256.595 38.5087 256.996 38.294C257.407 38.07 257.855 37.958 258.34 37.958C259.236 37.958 259.899 38.2147 260.328 38.728C260.758 39.2413 260.972 39.9367 260.972 40.814V45H259.656V41.108C259.656 40.4173 259.507 39.9227 259.208 39.624C258.91 39.316 258.508 39.162 258.004 39.162C257.388 39.162 256.908 39.3627 256.562 39.764C256.226 40.1653 256.058 40.702 256.058 41.374V45ZM262.795 45V38.154H264.111V45H262.795ZM263.439 36.53C263.206 36.53 263 36.446 262.823 36.278C262.655 36.1007 262.571 35.8953 262.571 35.662C262.571 35.4193 262.655 35.214 262.823 35.046C263 34.878 263.206 34.794 263.439 34.794C263.682 34.794 263.887 34.878 264.055 35.046C264.223 35.214 264.307 35.4193 264.307 35.662C264.307 35.8953 264.223 36.1007 264.055 36.278C263.887 36.446 263.682 36.53 263.439 36.53ZM265.294 38.154H269.27V39.26H265.294V38.154ZM269.214 43.852L269.382 44.944C269.027 45.084 268.649 45.154 268.248 45.154C267.846 45.154 267.506 45.0793 267.226 44.93C266.946 44.7713 266.731 44.538 266.582 44.23C266.432 43.922 266.358 43.5393 266.358 43.082V36.012H267.674V42.9C267.674 43.292 267.753 43.572 267.912 43.74C268.08 43.8987 268.294 43.978 268.556 43.978C268.761 43.978 268.98 43.936 269.214 43.852ZM271.284 38.154L273.692 44.818L272.88 45.938L269.898 38.154H271.284ZM270.08 48.066V46.988H270.962C271.177 46.988 271.373 46.9647 271.55 46.918C271.728 46.8807 271.891 46.792 272.04 46.652C272.19 46.5213 272.316 46.3113 272.418 46.022L275.302 38.154H276.66L273.426 46.54C273.193 47.128 272.899 47.5527 272.544 47.814C272.19 48.0753 271.751 48.206 271.228 48.206C271.014 48.206 270.813 48.192 270.626 48.164C270.44 48.1453 270.258 48.1127 270.08 48.066Z"
    fill="#1F2937"
  />
<path
    d="M0 153H244.962V64"
    stroke="#4ED6D4"
    strokeWidth="2"
    strokeDasharray="8 8"
  />
</svg>
