<svg
  width="483"
  height="160"
  viewBox="0 0 483 160"
  fill="none"
  xmlns="http://www.w3.org/2000/svg"
>
<path
    d="M483 159H73V65"
    stroke="#4ED6D4"
    strokeWidth="2"
    strokeDasharray="8 8"
  />
<rect x="1" y="1" width="158" height="57" rx="5" fill="#F9FAFB" />
<rect
    x="1"
    y="1"
    width="158"
    height="57"
    rx="5"
    stroke="#4ED6D4"
    strokeWidth="2"
  />
<path
    d="M20.8185 25H19.4465V14.878H23.2685C24.3512 14.878 25.1958 15.1487 25.8025 15.69C26.4185 16.222 26.7265 16.964 26.7265 17.916C26.7265 18.616 26.5538 19.2087 26.2085 19.694C25.8725 20.1793 25.3918 20.5247 24.7665 20.73L26.8245 25H25.2985L23.4085 20.996H20.8185V25ZM20.8185 16.11V19.778H23.2825C23.9172 19.778 24.4072 19.6147 24.7525 19.288C25.1072 18.9613 25.2845 18.5087 25.2845 17.93C25.2845 17.342 25.1025 16.894 24.7385 16.586C24.3838 16.2687 23.8938 16.11 23.2685 16.11H20.8185ZM30.8445 25.168C30.1818 25.168 29.5938 25.0187 29.0805 24.72C28.5671 24.412 28.1658 23.992 27.8765 23.46C27.5871 22.9187 27.4425 22.2933 27.4425 21.584C27.4425 20.8653 27.5825 20.2353 27.8625 19.694C28.1518 19.1527 28.5438 18.728 29.0385 18.42C29.5425 18.112 30.1258 17.958 30.7885 17.958C31.4418 17.958 32.0065 18.098 32.4825 18.378C32.9678 18.658 33.3411 19.05 33.6025 19.554C33.8731 20.058 34.0085 20.6507 34.0085 21.332V21.822L28.1425 21.836L28.1705 20.954H32.6925C32.6925 20.3847 32.5198 19.9273 32.1745 19.582C31.8291 19.2367 31.3671 19.064 30.7885 19.064C30.3498 19.064 29.9718 19.162 29.6545 19.358C29.3465 19.5447 29.1085 19.8247 28.9405 20.198C28.7818 20.562 28.7025 21.0007 28.7025 21.514C28.7025 22.3353 28.8891 22.97 29.2625 23.418C29.6358 23.8567 30.1725 24.076 30.8725 24.076C31.3858 24.076 31.8058 23.9733 32.1325 23.768C32.4591 23.5627 32.6785 23.264 32.7905 22.872H34.0225C33.8545 23.6 33.4951 24.1647 32.9445 24.566C32.3938 24.9673 31.6938 25.168 30.8445 25.168ZM40.8404 18.154H42.0024V25H40.7984L40.6864 23.754C40.453 24.1927 40.1217 24.5427 39.6924 24.804C39.2724 25.056 38.7777 25.182 38.2084 25.182C37.5364 25.182 36.9624 25.0233 36.4864 24.706C36.0104 24.3887 35.6464 23.9547 35.3944 23.404C35.1517 22.8533 35.0304 22.228 35.0304 21.528C35.0304 20.828 35.161 20.212 35.4224 19.68C35.693 19.1387 36.0664 18.7187 36.5424 18.42C37.0277 18.112 37.597 17.958 38.2504 17.958C38.773 17.958 39.263 18.0793 39.7204 18.322C40.1777 18.5553 40.5184 18.9193 40.7424 19.414L40.8404 18.154ZM40.6584 21.584C40.6584 21.108 40.5697 20.688 40.3924 20.324C40.2244 19.96 39.9817 19.6753 39.6644 19.47C39.347 19.2647 38.9597 19.162 38.5024 19.162C38.0637 19.162 37.681 19.2647 37.3544 19.47C37.0277 19.6753 36.7804 19.96 36.6124 20.324C36.4444 20.688 36.3604 21.108 36.3604 21.584C36.3604 22.0507 36.4444 22.466 36.6124 22.83C36.7804 23.194 37.023 23.4787 37.3404 23.684C37.6577 23.8893 38.0404 23.992 38.4884 23.992C38.9364 23.992 39.319 23.8893 39.6364 23.684C39.963 23.4787 40.215 23.194 40.3924 22.83C40.5697 22.466 40.6584 22.0507 40.6584 21.584ZM45.2442 25H43.9282V14.696H45.2442V25ZM50.2816 18.154H54.2576V19.26H50.2816V18.154ZM54.2016 23.852L54.3696 24.944C54.015 25.084 53.637 25.154 53.2356 25.154C52.8343 25.154 52.4936 25.0793 52.2136 24.93C51.9336 24.7713 51.719 24.538 51.5696 24.23C51.4203 23.922 51.3456 23.5393 51.3456 23.082V16.012H52.6616V22.9C52.6616 23.292 52.741 23.572 52.8996 23.74C53.0676 23.8987 53.2823 23.978 53.5436 23.978C53.749 23.978 53.9683 23.936 54.2016 23.852ZM55.7264 25V18.154H57.0424V25H55.7264ZM56.3704 16.53C56.1371 16.53 55.9317 16.446 55.7544 16.278C55.5864 16.1007 55.5024 15.8953 55.5024 15.662C55.5024 15.4193 55.5864 15.214 55.7544 15.046C55.9317 14.878 56.1371 14.794 56.3704 14.794C56.6131 14.794 56.8184 14.878 56.9864 15.046C57.1544 15.214 57.2384 15.4193 57.2384 15.662C57.2384 15.8953 57.1544 16.1007 56.9864 16.278C56.8184 16.446 56.6131 16.53 56.3704 16.53ZM60.269 25H58.953V18.154H60.129L60.311 19.414L60.143 19.302C60.283 18.9193 60.5396 18.602 60.913 18.35C61.2956 18.0887 61.7576 17.958 62.299 17.958C62.9056 17.958 63.4096 18.1213 63.811 18.448C64.2123 18.7747 64.4736 19.2087 64.595 19.75H64.357C64.4503 19.2087 64.707 18.7747 65.127 18.448C65.547 18.1213 66.065 17.958 66.681 17.958C67.465 17.958 68.081 18.1867 68.529 18.644C68.977 19.1013 69.201 19.7267 69.201 20.52V25H67.913V20.842C67.913 20.3007 67.773 19.8853 67.493 19.596C67.2223 19.2973 66.8536 19.148 66.387 19.148C66.0603 19.148 65.771 19.2227 65.519 19.372C65.2763 19.512 65.085 19.7173 64.945 19.988C64.805 20.2587 64.735 20.576 64.735 20.94V25H63.433V20.828C63.433 20.2867 63.2976 19.876 63.027 19.596C62.7563 19.3067 62.3876 19.162 61.921 19.162C61.5943 19.162 61.305 19.2367 61.053 19.386C60.8103 19.526 60.619 19.7313 60.479 20.002C60.339 20.2633 60.269 20.576 60.269 20.94V25ZM73.9792 25.168C73.3166 25.168 72.7286 25.0187 72.2152 24.72C71.7019 24.412 71.3006 23.992 71.0112 23.46C70.7219 22.9187 70.5772 22.2933 70.5772 21.584C70.5772 20.8653 70.7172 20.2353 70.9972 19.694C71.2866 19.1527 71.6786 18.728 72.1732 18.42C72.6772 18.112 73.2606 17.958 73.9232 17.958C74.5766 17.958 75.1412 18.098 75.6172 18.378C76.1026 18.658 76.4759 19.05 76.7372 19.554C77.0079 20.058 77.1432 20.6507 77.1432 21.332V21.822L71.2772 21.836L71.3052 20.954H75.8272C75.8272 20.3847 75.6546 19.9273 75.3092 19.582C74.9639 19.2367 74.5019 19.064 73.9232 19.064C73.4846 19.064 73.1066 19.162 72.7892 19.358C72.4812 19.5447 72.2432 19.8247 72.0752 20.198C71.9166 20.562 71.8372 21.0007 71.8372 21.514C71.8372 22.3353 72.0239 22.97 72.3972 23.418C72.7706 23.8567 73.3072 24.076 74.0072 24.076C74.5206 24.076 74.9406 23.9733 75.2672 23.768C75.5939 23.5627 75.8132 23.264 75.9252 22.872H77.1572C76.9892 23.6 76.6299 24.1647 76.0792 24.566C75.5286 24.9673 74.8286 25.168 73.9792 25.168ZM81.9933 21.584C81.9933 20.8653 82.1333 20.2353 82.4133 19.694C82.7026 19.1527 83.0993 18.728 83.6033 18.42C84.1073 18.112 84.6906 17.958 85.3533 17.958C86.2119 17.958 86.9259 18.1867 87.4953 18.644C88.0646 19.1013 88.4053 19.708 88.5173 20.464H87.2013C87.0893 20.0253 86.8699 19.694 86.5433 19.47C86.2166 19.246 85.8339 19.134 85.3953 19.134C84.9846 19.134 84.6206 19.2367 84.3033 19.442C83.9859 19.638 83.7386 19.918 83.5613 20.282C83.3839 20.646 83.2953 21.0753 83.2953 21.57C83.2953 22.0647 83.3793 22.494 83.5473 22.858C83.7153 23.2127 83.9533 23.4927 84.2613 23.698C84.5693 23.894 84.9286 23.992 85.3393 23.992C85.8059 23.992 86.2073 23.8753 86.5433 23.642C86.8793 23.4087 87.1033 23.0913 87.2153 22.69H88.5313C88.4473 23.1847 88.2559 23.6187 87.9573 23.992C87.6679 24.356 87.2946 24.6453 86.8373 24.86C86.3893 25.0653 85.8899 25.168 85.3393 25.168C84.6673 25.168 84.0793 25.0187 83.5753 24.72C83.0806 24.4213 82.6933 24.006 82.4133 23.474C82.1333 22.9327 81.9933 22.3027 81.9933 21.584ZM91.2358 24.986H89.9198V14.696H91.2358V19.204C91.4504 18.8307 91.7584 18.532 92.1598 18.308C92.5611 18.0747 93.0278 17.958 93.5598 17.958C94.4278 17.958 95.0764 18.2147 95.5058 18.728C95.9351 19.2413 96.1498 19.9367 96.1498 20.814V25H94.8338V21.108C94.8338 20.6413 94.7638 20.268 94.6238 19.988C94.4931 19.6987 94.3018 19.4887 94.0498 19.358C93.8071 19.2273 93.5224 19.162 93.1958 19.162C92.7758 19.162 92.4164 19.2553 92.1178 19.442C91.8284 19.6287 91.6091 19.8807 91.4598 20.198C91.3104 20.5153 91.2358 20.87 91.2358 21.262V24.986ZM103.335 18.154H104.497V25H103.293L103.181 23.754C102.947 24.1927 102.616 24.5427 102.187 24.804C101.767 25.056 101.272 25.182 100.703 25.182C100.031 25.182 99.4565 25.0233 98.9805 24.706C98.5045 24.3887 98.1405 23.9547 97.8885 23.404C97.6458 22.8533 97.5245 22.228 97.5245 21.528C97.5245 20.828 97.6552 20.212 97.9165 19.68C98.1872 19.1387 98.5605 18.7187 99.0365 18.42C99.5218 18.112 100.091 17.958 100.745 17.958C101.267 17.958 101.757 18.0793 102.215 18.322C102.672 18.5553 103.013 18.9193 103.237 19.414L103.335 18.154ZM103.153 21.584C103.153 21.108 103.064 20.688 102.887 20.324C102.719 19.96 102.476 19.6753 102.159 19.47C101.841 19.2647 101.454 19.162 100.997 19.162C100.558 19.162 100.175 19.2647 99.8485 19.47C99.5218 19.6753 99.2745 19.96 99.1065 20.324C98.9385 20.688 98.8545 21.108 98.8545 21.584C98.8545 22.0507 98.9385 22.466 99.1065 22.83C99.2745 23.194 99.5172 23.4787 99.8345 23.684C100.152 23.8893 100.535 23.992 100.983 23.992C101.431 23.992 101.813 23.8893 102.131 23.684C102.457 23.4787 102.709 23.194 102.887 22.83C103.064 22.466 103.153 22.0507 103.153 21.584ZM105.666 18.154H109.642V19.26H105.666V18.154ZM109.586 23.852L109.754 24.944C109.4 25.084 109.022 25.154 108.62 25.154C108.219 25.154 107.878 25.0793 107.598 24.93C107.318 24.7713 107.104 24.538 106.954 24.23C106.805 23.922 106.73 23.5393 106.73 23.082V16.012H108.046V22.9C108.046 23.292 108.126 23.572 108.284 23.74C108.452 23.8987 108.667 23.978 108.928 23.978C109.134 23.978 109.353 23.936 109.586 23.852ZM116.409 25L114.169 18.154H115.527L116.661 21.71C116.745 21.962 116.82 22.2233 116.885 22.494C116.951 22.7553 117.016 23.0353 117.081 23.334C117.119 23.1287 117.161 22.9327 117.207 22.746C117.263 22.55 117.319 22.368 117.375 22.2C117.431 22.0227 117.483 21.8593 117.529 21.71L118.677 18.154H120.021L121.155 21.71C121.193 21.794 121.225 21.906 121.253 22.046C121.291 22.1767 121.333 22.3167 121.379 22.466C121.426 22.6153 121.468 22.7647 121.505 22.914C121.543 23.0633 121.575 23.2033 121.603 23.334C121.641 23.1473 121.678 22.97 121.715 22.802C121.762 22.6247 121.809 22.452 121.855 22.284C121.911 22.1067 121.972 21.9153 122.037 21.71L123.185 18.154H124.557L122.219 25H120.973L119.783 21.332C119.671 20.9867 119.578 20.6833 119.503 20.422C119.438 20.1513 119.387 19.9227 119.349 19.736C119.312 19.904 119.256 20.114 119.181 20.366C119.116 20.6087 119.023 20.9353 118.901 21.346L117.711 25H116.409ZM125.685 25V18.154H127.001V25H125.685ZM126.329 16.53C126.096 16.53 125.891 16.446 125.713 16.278C125.545 16.1007 125.461 15.8953 125.461 15.662C125.461 15.4193 125.545 15.214 125.713 15.046C125.891 14.878 126.096 14.794 126.329 14.794C126.572 14.794 126.777 14.878 126.945 15.046C127.113 15.214 127.197 15.4193 127.197 15.662C127.197 15.8953 127.113 16.1007 126.945 16.278C126.777 16.446 126.572 16.53 126.329 16.53ZM128.184 18.154H132.16V19.26H128.184V18.154ZM132.104 23.852L132.272 24.944C131.917 25.084 131.539 25.154 131.138 25.154C130.737 25.154 130.396 25.0793 130.116 24.93C129.836 24.7713 129.621 24.538 129.472 24.23C129.323 23.922 129.248 23.5393 129.248 23.082V16.012H130.564V22.9C130.564 23.292 130.643 23.572 130.802 23.74C130.97 23.8987 131.185 23.978 131.446 23.978C131.651 23.978 131.871 23.936 132.104 23.852ZM134.945 24.986H133.629V14.696H134.945V19.204C135.159 18.8307 135.467 18.532 135.869 18.308C136.27 18.0747 136.737 17.958 137.269 17.958C138.137 17.958 138.785 18.2147 139.215 18.728C139.644 19.2413 139.859 19.9367 139.859 20.814V25H138.543V21.108C138.543 20.6413 138.473 20.268 138.333 19.988C138.202 19.6987 138.011 19.4887 137.759 19.358C137.516 19.2273 137.231 19.162 136.905 19.162C136.485 19.162 136.125 19.2553 135.827 19.442C135.537 19.6287 135.318 19.8807 135.169 20.198C135.019 20.5153 134.945 20.87 134.945 21.262V24.986ZM43.4044 41.584C43.4044 40.8653 43.5444 40.2353 43.8244 39.694C44.1137 39.1527 44.5104 38.728 45.0144 38.42C45.5184 38.112 46.1017 37.958 46.7644 37.958C47.6231 37.958 48.3371 38.1867 48.9064 38.644C49.4757 39.1013 49.8164 39.708 49.9284 40.464H48.6124C48.5004 40.0253 48.2811 39.694 47.9544 39.47C47.6277 39.246 47.2451 39.134 46.8064 39.134C46.3957 39.134 46.0317 39.2367 45.7144 39.442C45.3971 39.638 45.1497 39.918 44.9724 40.282C44.7951 40.646 44.7064 41.0753 44.7064 41.57C44.7064 42.0647 44.7904 42.494 44.9584 42.858C45.1264 43.2127 45.3644 43.4927 45.6724 43.698C45.9804 43.894 46.3397 43.992 46.7504 43.992C47.2171 43.992 47.6184 43.8753 47.9544 43.642C48.2904 43.4087 48.5144 43.0913 48.6264 42.69H49.9424C49.8584 43.1847 49.6671 43.6187 49.3684 43.992C49.0791 44.356 48.7057 44.6453 48.2484 44.86C47.8004 45.0653 47.3011 45.168 46.7504 45.168C46.0784 45.168 45.4904 45.0187 44.9864 44.72C44.4917 44.4213 44.1044 44.006 43.8244 43.474C43.5444 42.9327 43.4044 42.3027 43.4044 41.584ZM50.8829 41.57C50.8829 40.87 51.0369 40.2493 51.3449 39.708C51.6529 39.1667 52.0729 38.742 52.6049 38.434C53.1462 38.126 53.7622 37.972 54.4529 37.972C55.1436 37.972 55.7549 38.126 56.2869 38.434C56.8189 38.742 57.2389 39.1667 57.5469 39.708C57.8549 40.2493 58.0089 40.87 58.0089 41.57C58.0089 42.27 57.8549 42.8907 57.5469 43.432C57.2389 43.9733 56.8189 44.398 56.2869 44.706C55.7549 45.014 55.1436 45.168 54.4529 45.168C53.7622 45.168 53.1462 45.014 52.6049 44.706C52.0729 44.398 51.6529 43.9733 51.3449 43.432C51.0369 42.8907 50.8829 42.27 50.8829 41.57ZM52.2129 41.57C52.2129 42.046 52.3062 42.466 52.4929 42.83C52.6889 43.194 52.9549 43.4787 53.2909 43.684C53.6269 43.8893 54.0142 43.992 54.4529 43.992C54.8916 43.992 55.2789 43.8893 55.6149 43.684C55.9509 43.4787 56.2122 43.194 56.3989 42.83C56.5949 42.466 56.6929 42.046 56.6929 41.57C56.6929 41.0847 56.5949 40.6647 56.3989 40.31C56.2122 39.946 55.9509 39.6613 55.6149 39.456C55.2789 39.2507 54.8916 39.148 54.4529 39.148C54.0142 39.148 53.6269 39.2507 53.2909 39.456C52.9549 39.6613 52.6889 39.946 52.4929 40.31C52.3062 40.6647 52.2129 41.0847 52.2129 41.57ZM60.7817 45H59.4657V38.154H60.6557L60.7957 39.204C61.0103 38.812 61.3183 38.5087 61.7197 38.294C62.1303 38.07 62.5783 37.958 63.0637 37.958C63.9597 37.958 64.6223 38.2147 65.0517 38.728C65.481 39.2413 65.6957 39.9367 65.6957 40.814V45H64.3797V41.108C64.3797 40.4173 64.2303 39.9227 63.9317 39.624C63.633 39.316 63.2317 39.162 62.7277 39.162C62.1117 39.162 61.631 39.3627 61.2857 39.764C60.9497 40.1653 60.7817 40.702 60.7817 41.374V45ZM66.8764 43.012H68.1364C68.1364 43.3573 68.2624 43.6327 68.5144 43.838C68.7664 44.034 69.107 44.132 69.5364 44.132C70.003 44.132 70.3624 44.0433 70.6144 43.866C70.8664 43.6793 70.9924 43.432 70.9924 43.124C70.9924 42.9 70.9224 42.7133 70.7824 42.564C70.6517 42.4147 70.409 42.2933 70.0544 42.2L68.8504 41.92C68.2437 41.7707 67.791 41.542 67.4924 41.234C67.203 40.926 67.0584 40.52 67.0584 40.016C67.0584 39.596 67.1657 39.232 67.3804 38.924C67.6044 38.616 67.9077 38.378 68.2904 38.21C68.6824 38.042 69.1304 37.958 69.6344 37.958C70.1384 37.958 70.5724 38.0467 70.9364 38.224C71.3097 38.4013 71.599 38.6487 71.8044 38.966C72.019 39.2833 72.131 39.6613 72.1404 40.1H70.8804C70.871 39.7453 70.7544 39.47 70.5304 39.274C70.3064 39.078 69.9937 38.98 69.5924 38.98C69.1817 38.98 68.8644 39.0687 68.6404 39.246C68.4164 39.4233 68.3044 39.666 68.3044 39.974C68.3044 40.4313 68.6404 40.744 69.3124 40.912L70.5164 41.206C71.095 41.3367 71.529 41.5513 71.8184 41.85C72.1077 42.1393 72.2524 42.536 72.2524 43.04C72.2524 43.4693 72.1357 43.8473 71.9024 44.174C71.669 44.4913 71.347 44.7387 70.9364 44.916C70.535 45.084 70.059 45.168 69.5084 45.168C68.7057 45.168 68.0664 44.972 67.5904 44.58C67.1144 44.188 66.8764 43.6653 66.8764 43.012ZM78.4438 38.154H79.7458V45H78.5698L78.4298 43.964C78.2338 44.3187 77.9258 44.608 77.5058 44.832C77.0858 45.056 76.6238 45.168 76.1198 45.168C75.3264 45.168 74.7104 44.9207 74.2718 44.426C73.8424 43.922 73.6278 43.25 73.6278 42.41V38.154H74.9438V41.976C74.9438 42.704 75.0884 43.2267 75.3778 43.544C75.6764 43.852 76.0778 44.006 76.5818 44.006C77.1884 44.006 77.6504 43.8193 77.9678 43.446C78.2851 43.0633 78.4438 42.5033 78.4438 41.766V38.154ZM82.9991 45H81.6831V34.696H82.9991V45ZM84.2084 38.154H88.1844V39.26H84.2084V38.154ZM88.1284 43.852L88.2964 44.944C87.9417 45.084 87.5637 45.154 87.1624 45.154C86.761 45.154 86.4204 45.0793 86.1404 44.93C85.8604 44.7713 85.6457 44.538 85.4964 44.23C85.347 43.922 85.2724 43.5393 85.2724 43.082V36.012H86.5884V42.9C86.5884 43.292 86.6677 43.572 86.8264 43.74C86.9944 43.8987 87.209 43.978 87.4704 43.978C87.6757 43.978 87.895 43.936 88.1284 43.852ZM94.9468 38.154H96.1088V45H94.9048L94.7928 43.754C94.5595 44.1927 94.2281 44.5427 93.7988 44.804C93.3788 45.056 92.8841 45.182 92.3148 45.182C91.6428 45.182 91.0688 45.0233 90.5928 44.706C90.1168 44.3887 89.7528 43.9547 89.5008 43.404C89.2581 42.8533 89.1368 42.228 89.1368 41.528C89.1368 40.828 89.2675 40.212 89.5288 39.68C89.7995 39.1387 90.1728 38.7187 90.6488 38.42C91.1341 38.112 91.7035 37.958 92.3568 37.958C92.8795 37.958 93.3695 38.0793 93.8268 38.322C94.2841 38.5553 94.6248 38.9193 94.8488 39.414L94.9468 38.154ZM94.7648 41.584C94.7648 41.108 94.6761 40.688 94.4988 40.324C94.3308 39.96 94.0881 39.6753 93.7708 39.47C93.4535 39.2647 93.0661 39.162 92.6088 39.162C92.1701 39.162 91.7875 39.2647 91.4608 39.47C91.1341 39.6753 90.8868 39.96 90.7188 40.324C90.5508 40.688 90.4668 41.108 90.4668 41.584C90.4668 42.0507 90.5508 42.466 90.7188 42.83C90.8868 43.194 91.1295 43.4787 91.4468 43.684C91.7641 43.8893 92.1468 43.992 92.5948 43.992C93.0428 43.992 93.4255 43.8893 93.7428 43.684C94.0695 43.4787 94.3215 43.194 94.4988 42.83C94.6761 42.466 94.7648 42.0507 94.7648 41.584ZM99.3227 45H98.0067V38.154H99.1967L99.3367 39.204C99.5514 38.812 99.8594 38.5087 100.261 38.294C100.671 38.07 101.119 37.958 101.605 37.958C102.501 37.958 103.163 38.2147 103.593 38.728C104.022 39.2413 104.237 39.9367 104.237 40.814V45H102.921V41.108C102.921 40.4173 102.771 39.9227 102.473 39.624C102.174 39.316 101.773 39.162 101.269 39.162C100.653 39.162 100.172 39.3627 99.8267 39.764C99.4907 40.1653 99.3227 40.702 99.3227 41.374V45ZM105.331 38.154H109.307V39.26H105.331V38.154ZM109.251 43.852L109.419 44.944C109.065 45.084 108.687 45.154 108.285 45.154C107.884 45.154 107.543 45.0793 107.263 44.93C106.983 44.7713 106.769 44.538 106.619 44.23C106.47 43.922 106.395 43.5393 106.395 43.082V36.012H107.711V42.9C107.711 43.292 107.791 43.572 107.949 43.74C108.117 43.8987 108.332 43.978 108.593 43.978C108.799 43.978 109.018 43.936 109.251 43.852ZM110.216 43.012H111.476C111.476 43.3573 111.602 43.6327 111.854 43.838C112.106 44.034 112.447 44.132 112.876 44.132C113.343 44.132 113.702 44.0433 113.954 43.866C114.206 43.6793 114.332 43.432 114.332 43.124C114.332 42.9 114.262 42.7133 114.122 42.564C113.992 42.4147 113.749 42.2933 113.394 42.2L112.19 41.92C111.584 41.7707 111.131 41.542 110.832 41.234C110.543 40.926 110.398 40.52 110.398 40.016C110.398 39.596 110.506 39.232 110.72 38.924C110.944 38.616 111.248 38.378 111.63 38.21C112.022 38.042 112.47 37.958 112.974 37.958C113.478 37.958 113.912 38.0467 114.276 38.224C114.65 38.4013 114.939 38.6487 115.144 38.966C115.359 39.2833 115.471 39.6613 115.48 40.1H114.22C114.211 39.7453 114.094 39.47 113.87 39.274C113.646 39.078 113.334 38.98 112.932 38.98C112.522 38.98 112.204 39.0687 111.98 39.246C111.756 39.4233 111.644 39.666 111.644 39.974C111.644 40.4313 111.98 40.744 112.652 40.912L113.856 41.206C114.435 41.3367 114.869 41.5513 115.158 41.85C115.448 42.1393 115.592 42.536 115.592 43.04C115.592 43.4693 115.476 43.8473 115.242 44.174C115.009 44.4913 114.687 44.7387 114.276 44.916C113.875 45.084 113.399 45.168 112.848 45.168C112.046 45.168 111.406 44.972 110.93 44.58C110.454 44.188 110.216 43.6653 110.216 43.012Z"
    fill="#1F2937"
  />
</svg>
