<svg
  width="260"
  height="161"
  viewBox="0 0 260 161"
  fill="none"
  xmlns="http://www.w3.org/2000/svg"
>
<rect x="1" y="1" width="158" height="57" rx="5" fill="#F9FAFB" />
<rect
    x="1"
    y="1"
    width="158"
    height="57"
    rx="5"
    stroke="#4ED6D4"
    strokeWidth="2"
  />
<path
    d="M12.2786 25H10.8506L14.5466 14.878H16.0726L19.7826 25H18.3406L17.4306 22.48H13.1746L12.2786 25ZM15.1346 17.062L13.5946 21.29H17.0246L15.4706 17.062C15.4426 16.9593 15.41 16.8567 15.3726 16.754C15.3353 16.642 15.312 16.5487 15.3026 16.474C15.284 16.5487 15.2606 16.642 15.2326 16.754C15.2046 16.8567 15.172 16.9593 15.1346 17.062ZM24.7323 28.066V18.154H25.9223L26.0203 19.386C26.2443 18.91 26.5756 18.5553 27.0143 18.322C27.4623 18.0793 27.9569 17.958 28.4983 17.958C29.1516 17.958 29.7163 18.112 30.1923 18.42C30.6683 18.7187 31.0323 19.1387 31.2843 19.68C31.5456 20.212 31.6763 20.828 31.6763 21.528C31.6763 22.228 31.5503 22.8533 31.2983 23.404C31.0556 23.9547 30.6963 24.3887 30.2203 24.706C29.7536 25.0233 29.1796 25.182 28.4983 25.182C27.9476 25.182 27.4576 25.07 27.0283 24.846C26.5989 24.622 26.2723 24.3 26.0483 23.88V28.066H24.7323ZM26.0623 21.584C26.0623 22.0413 26.1463 22.4567 26.3143 22.83C26.4916 23.194 26.7389 23.4787 27.0563 23.684C27.3829 23.8893 27.7703 23.992 28.2183 23.992C28.6663 23.992 29.0489 23.8893 29.3663 23.684C29.6836 23.4693 29.9263 23.18 30.0943 22.816C30.2716 22.452 30.3603 22.0413 30.3603 21.584C30.3603 21.108 30.2716 20.688 30.0943 20.324C29.9263 19.96 29.6836 19.6753 29.3663 19.47C29.0489 19.2647 28.6663 19.162 28.2183 19.162C27.7703 19.162 27.3829 19.2647 27.0563 19.47C26.7389 19.6753 26.4916 19.96 26.3143 20.324C26.1463 20.688 26.0623 21.108 26.0623 21.584ZM34.4708 25H33.1548V14.696H34.4708V25ZM39.3621 25.168C38.6994 25.168 38.1114 25.0187 37.5981 24.72C37.0847 24.412 36.6834 23.992 36.3941 23.46C36.1047 22.9187 35.9601 22.2933 35.9601 21.584C35.9601 20.8653 36.1001 20.2353 36.3801 19.694C36.6694 19.1527 37.0614 18.728 37.5561 18.42C38.0601 18.112 38.6434 17.958 39.3061 17.958C39.9594 17.958 40.5241 18.098 41.0001 18.378C41.4854 18.658 41.8587 19.05 42.1201 19.554C42.3907 20.058 42.5261 20.6507 42.5261 21.332V21.822L36.6601 21.836L36.6881 20.954H41.2101C41.2101 20.3847 41.0374 19.9273 40.6921 19.582C40.3467 19.2367 39.8847 19.064 39.3061 19.064C38.8674 19.064 38.4894 19.162 38.1721 19.358C37.8641 19.5447 37.6261 19.8247 37.4581 20.198C37.2994 20.562 37.2201 21.0007 37.2201 21.514C37.2201 22.3353 37.4067 22.97 37.7801 23.418C38.1534 23.8567 38.6901 24.076 39.3901 24.076C39.9034 24.076 40.3234 23.9733 40.6501 23.768C40.9767 23.5627 41.1961 23.264 41.3081 22.872H42.5401C42.3721 23.6 42.0127 24.1647 41.4621 24.566C40.9114 24.9673 40.2114 25.168 39.3621 25.168ZM43.1996 18.154H47.1756V19.26H43.1996V18.154ZM47.1196 23.852L47.2876 24.944C46.9329 25.084 46.5549 25.154 46.1536 25.154C45.7523 25.154 45.4116 25.0793 45.1316 24.93C44.8516 24.7713 44.6369 24.538 44.4876 24.23C44.3383 23.922 44.2636 23.5393 44.2636 23.082V16.012H45.5796V22.9C45.5796 23.292 45.6589 23.572 45.8176 23.74C45.9856 23.8987 46.2003 23.978 46.4616 23.978C46.6669 23.978 46.8863 23.936 47.1196 23.852ZM49.9604 24.986H48.6444V14.696H49.9604V19.204C50.175 18.8307 50.483 18.532 50.8844 18.308C51.2857 18.0747 51.7524 17.958 52.2844 17.958C53.1524 17.958 53.801 18.2147 54.2304 18.728C54.6597 19.2413 54.8744 19.9367 54.8744 20.814V25H53.5584V21.108C53.5584 20.6413 53.4884 20.268 53.3484 19.988C53.2177 19.6987 53.0264 19.4887 52.7744 19.358C52.5317 19.2273 52.247 19.162 51.9204 19.162C51.5004 19.162 51.141 19.2553 50.8424 19.442C50.553 19.6287 50.3337 19.8807 50.1844 20.198C50.035 20.5153 49.9604 20.87 49.9604 21.262V24.986ZM56.2491 21.57C56.2491 20.87 56.4031 20.2493 56.7111 19.708C57.0191 19.1667 57.4391 18.742 57.9711 18.434C58.5125 18.126 59.1285 17.972 59.8191 17.972C60.5098 17.972 61.1211 18.126 61.6531 18.434C62.1851 18.742 62.6051 19.1667 62.9131 19.708C63.2211 20.2493 63.3751 20.87 63.3751 21.57C63.3751 22.27 63.2211 22.8907 62.9131 23.432C62.6051 23.9733 62.1851 24.398 61.6531 24.706C61.1211 25.014 60.5098 25.168 59.8191 25.168C59.1285 25.168 58.5125 25.014 57.9711 24.706C57.4391 24.398 57.0191 23.9733 56.7111 23.432C56.4031 22.8907 56.2491 22.27 56.2491 21.57ZM57.5791 21.57C57.5791 22.046 57.6725 22.466 57.8591 22.83C58.0551 23.194 58.3211 23.4787 58.6571 23.684C58.9931 23.8893 59.3805 23.992 59.8191 23.992C60.2578 23.992 60.6451 23.8893 60.9811 23.684C61.3171 23.4787 61.5785 23.194 61.7651 22.83C61.9611 22.466 62.0591 22.046 62.0591 21.57C62.0591 21.0847 61.9611 20.6647 61.7651 20.31C61.5785 19.946 61.3171 19.6613 60.9811 19.456C60.6451 19.2507 60.2578 19.148 59.8191 19.148C59.3805 19.148 58.9931 19.2507 58.6571 19.456C58.3211 19.6613 58.0551 19.946 57.8591 20.31C57.6725 20.6647 57.5791 21.0847 57.5791 21.57ZM68.7519 18.098V19.302H68.1639C67.5385 19.302 67.0439 19.484 66.6799 19.848C66.3252 20.2027 66.1479 20.7113 66.1479 21.374V25H64.8319V18.168H66.0639L66.1759 19.54H66.0499C66.1432 19.092 66.3672 18.728 66.7219 18.448C67.0765 18.1587 67.5199 18.014 68.0519 18.014C68.1732 18.014 68.2852 18.0233 68.3879 18.042C68.4999 18.0513 68.6212 18.07 68.7519 18.098ZM75.1021 18.154H76.2641V25H75.0601L74.9481 23.754C74.7148 24.1927 74.3834 24.5427 73.9541 24.804C73.5341 25.056 73.0394 25.182 72.4701 25.182C71.7981 25.182 71.2241 25.0233 70.7481 24.706C70.2721 24.3887 69.9081 23.9547 69.6561 23.404C69.4134 22.8533 69.2921 22.228 69.2921 21.528C69.2921 20.828 69.4228 20.212 69.6841 19.68C69.9548 19.1387 70.3281 18.7187 70.8041 18.42C71.2894 18.112 71.8588 17.958 72.5121 17.958C73.0348 17.958 73.5248 18.0793 73.9821 18.322C74.4394 18.5553 74.7801 18.9193 75.0041 19.414L75.1021 18.154ZM74.9201 21.584C74.9201 21.108 74.8314 20.688 74.6541 20.324C74.4861 19.96 74.2434 19.6753 73.9261 19.47C73.6088 19.2647 73.2214 19.162 72.7641 19.162C72.3254 19.162 71.9428 19.2647 71.6161 19.47C71.2894 19.6753 71.0421 19.96 70.8741 20.324C70.7061 20.688 70.6221 21.108 70.6221 21.584C70.6221 22.0507 70.7061 22.466 70.8741 22.83C71.0421 23.194 71.2848 23.4787 71.6021 23.684C71.9194 23.8893 72.3021 23.992 72.7501 23.992C73.1981 23.992 73.5808 23.8893 73.8981 23.684C74.2248 23.4787 74.4768 23.194 74.6541 22.83C74.8314 22.466 74.9201 22.0507 74.9201 21.584ZM81.5421 21.57C81.5421 20.87 81.6961 20.2493 82.0041 19.708C82.3121 19.1667 82.7321 18.742 83.2641 18.434C83.8054 18.126 84.4214 17.972 85.1121 17.972C85.8028 17.972 86.4141 18.126 86.9461 18.434C87.4781 18.742 87.8981 19.1667 88.2061 19.708C88.5141 20.2493 88.6681 20.87 88.6681 21.57C88.6681 22.27 88.5141 22.8907 88.2061 23.432C87.8981 23.9733 87.4781 24.398 86.9461 24.706C86.4141 25.014 85.8028 25.168 85.1121 25.168C84.4214 25.168 83.8054 25.014 83.2641 24.706C82.7321 24.398 82.3121 23.9733 82.0041 23.432C81.6961 22.8907 81.5421 22.27 81.5421 21.57ZM82.8721 21.57C82.8721 22.046 82.9654 22.466 83.1521 22.83C83.3481 23.194 83.6141 23.4787 83.9501 23.684C84.2861 23.8893 84.6734 23.992 85.1121 23.992C85.5508 23.992 85.9381 23.8893 86.2741 23.684C86.6101 23.4787 86.8714 23.194 87.0581 22.83C87.2541 22.466 87.3521 22.046 87.3521 21.57C87.3521 21.0847 87.2541 20.6647 87.0581 20.31C86.8714 19.946 86.6101 19.6613 86.2741 19.456C85.9381 19.2507 85.5508 19.148 85.1121 19.148C84.6734 19.148 84.2861 19.2507 83.9501 19.456C83.6141 19.6613 83.3481 19.946 83.1521 20.31C82.9654 20.6647 82.8721 21.0847 82.8721 21.57ZM89.3558 18.154H93.3038V19.26H89.3558V18.154ZM93.3458 14.752V15.886C93.2618 15.886 93.1685 15.886 93.0658 15.886C92.9725 15.886 92.8698 15.886 92.7578 15.886C92.3285 15.886 92.0392 15.9887 91.8898 16.194C91.7498 16.3993 91.6798 16.6887 91.6798 17.062V25H90.3638V17.062C90.3638 16.502 90.4572 16.0493 90.6438 15.704C90.8398 15.3493 91.0965 15.0927 91.4138 14.934C91.7405 14.7753 92.1138 14.696 92.5338 14.696C92.6645 14.696 92.7998 14.7007 92.9398 14.71C93.0798 14.7193 93.2152 14.7333 93.3458 14.752ZM97.7953 23.012H99.0553C99.0553 23.3573 99.1813 23.6327 99.4333 23.838C99.6853 24.034 100.026 24.132 100.455 24.132C100.922 24.132 101.281 24.0433 101.533 23.866C101.785 23.6793 101.911 23.432 101.911 23.124C101.911 22.9 101.841 22.7133 101.701 22.564C101.571 22.4147 101.328 22.2933 100.973 22.2L99.7693 21.92C99.1627 21.7707 98.71 21.542 98.4113 21.234C98.122 20.926 97.9773 20.52 97.9773 20.016C97.9773 19.596 98.0847 19.232 98.2993 18.924C98.5233 18.616 98.8267 18.378 99.2093 18.21C99.6013 18.042 100.049 17.958 100.553 17.958C101.057 17.958 101.491 18.0467 101.855 18.224C102.229 18.4013 102.518 18.6487 102.723 18.966C102.938 19.2833 103.05 19.6613 103.059 20.1H101.799C101.79 19.7453 101.673 19.47 101.449 19.274C101.225 19.078 100.913 18.98 100.511 18.98C100.101 18.98 99.7833 19.0687 99.5593 19.246C99.3353 19.4233 99.2233 19.666 99.2233 19.974C99.2233 20.4313 99.5593 20.744 100.231 20.912L101.435 21.206C102.014 21.3367 102.448 21.5513 102.737 21.85C103.027 22.1393 103.171 22.536 103.171 23.04C103.171 23.4693 103.055 23.8473 102.821 24.174C102.588 24.4913 102.266 24.7387 101.855 24.916C101.454 25.084 100.978 25.168 100.427 25.168C99.6247 25.168 98.9853 24.972 98.5093 24.58C98.0333 24.188 97.7953 23.6653 97.7953 23.012ZM107.585 25.168C106.922 25.168 106.334 25.0187 105.821 24.72C105.307 24.412 104.906 23.992 104.617 23.46C104.327 22.9187 104.183 22.2933 104.183 21.584C104.183 20.8653 104.323 20.2353 104.603 19.694C104.892 19.1527 105.284 18.728 105.779 18.42C106.283 18.112 106.866 17.958 107.529 17.958C108.182 17.958 108.747 18.098 109.223 18.378C109.708 18.658 110.081 19.05 110.343 19.554C110.613 20.058 110.749 20.6507 110.749 21.332V21.822L104.883 21.836L104.911 20.954H109.433C109.433 20.3847 109.26 19.9273 108.915 19.582C108.569 19.2367 108.107 19.064 107.529 19.064C107.09 19.064 106.712 19.162 106.395 19.358C106.087 19.5447 105.849 19.8247 105.681 20.198C105.522 20.562 105.443 21.0007 105.443 21.514C105.443 22.3353 105.629 22.97 106.003 23.418C106.376 23.8567 106.913 24.076 107.613 24.076C108.126 24.076 108.546 23.9733 108.873 23.768C109.199 23.5627 109.419 23.264 109.531 22.872H110.763C110.595 23.6 110.235 24.1647 109.685 24.566C109.134 24.9673 108.434 25.168 107.585 25.168ZM116.139 18.098V19.302H115.551C114.925 19.302 114.431 19.484 114.067 19.848C113.712 20.2027 113.535 20.7113 113.535 21.374V25H112.219V18.168H113.451L113.563 19.54H113.437C113.53 19.092 113.754 18.728 114.109 18.448C114.463 18.1587 114.907 18.014 115.439 18.014C115.56 18.014 115.672 18.0233 115.775 18.042C115.887 18.0513 116.008 18.07 116.139 18.098ZM119.496 25L116.738 18.154H118.138L119.636 21.976C119.757 22.2933 119.865 22.5967 119.958 22.886C120.051 23.166 120.126 23.4087 120.182 23.614C120.247 23.3807 120.327 23.124 120.42 22.844C120.523 22.564 120.635 22.2747 120.756 21.976L122.282 18.154H123.654L120.798 25H119.496ZM124.701 25V18.154H126.017V25H124.701ZM125.345 16.53C125.112 16.53 124.906 16.446 124.729 16.278C124.561 16.1007 124.477 15.8953 124.477 15.662C124.477 15.4193 124.561 15.214 124.729 15.046C124.906 14.878 125.112 14.794 125.345 14.794C125.588 14.794 125.793 14.878 125.961 15.046C126.129 15.214 126.213 15.4193 126.213 15.662C126.213 15.8953 126.129 16.1007 125.961 16.278C125.793 16.446 125.588 16.53 125.345 16.53ZM127.48 21.584C127.48 20.8653 127.62 20.2353 127.9 19.694C128.189 19.1527 128.586 18.728 129.09 18.42C129.594 18.112 130.177 17.958 130.84 17.958C131.698 17.958 132.412 18.1867 132.982 18.644C133.551 19.1013 133.892 19.708 134.004 20.464H132.688C132.576 20.0253 132.356 19.694 132.03 19.47C131.703 19.246 131.32 19.134 130.882 19.134C130.471 19.134 130.107 19.2367 129.79 19.442C129.472 19.638 129.225 19.918 129.048 20.282C128.87 20.646 128.782 21.0753 128.782 21.57C128.782 22.0647 128.866 22.494 129.034 22.858C129.202 23.2127 129.44 23.4927 129.748 23.698C130.056 23.894 130.415 23.992 130.826 23.992C131.292 23.992 131.694 23.8753 132.03 23.642C132.366 23.4087 132.59 23.0913 132.702 22.69H134.018C133.934 23.1847 133.742 23.6187 133.444 23.992C133.154 24.356 132.781 24.6453 132.324 24.86C131.876 25.0653 131.376 25.168 130.826 25.168C130.154 25.168 129.566 25.0187 129.062 24.72C128.567 24.4213 128.18 24.006 127.9 23.474C127.62 22.9327 127.48 22.3027 127.48 21.584ZM138.36 25.168C137.697 25.168 137.109 25.0187 136.596 24.72C136.083 24.412 135.681 23.992 135.392 23.46C135.103 22.9187 134.958 22.2933 134.958 21.584C134.958 20.8653 135.098 20.2353 135.378 19.694C135.667 19.1527 136.059 18.728 136.554 18.42C137.058 18.112 137.641 17.958 138.304 17.958C138.957 17.958 139.522 18.098 139.998 18.378C140.483 18.658 140.857 19.05 141.118 19.554C141.389 20.058 141.524 20.6507 141.524 21.332V21.822L135.658 21.836L135.686 20.954H140.208C140.208 20.3847 140.035 19.9273 139.69 19.582C139.345 19.2367 138.883 19.064 138.304 19.064C137.865 19.064 137.487 19.162 137.17 19.358C136.862 19.5447 136.624 19.8247 136.456 20.198C136.297 20.562 136.218 21.0007 136.218 21.514C136.218 22.3353 136.405 22.97 136.778 23.418C137.151 23.8567 137.688 24.076 138.388 24.076C138.901 24.076 139.321 23.9733 139.648 23.768C139.975 23.5627 140.194 23.264 140.306 22.872H141.538C141.37 23.6 141.011 24.1647 140.46 24.566C139.909 24.9673 139.209 25.168 138.36 25.168ZM142.434 23.012H143.694C143.694 23.3573 143.82 23.6327 144.072 23.838C144.324 24.034 144.665 24.132 145.094 24.132C145.561 24.132 145.92 24.0433 146.172 23.866C146.424 23.6793 146.55 23.432 146.55 23.124C146.55 22.9 146.48 22.7133 146.34 22.564C146.209 22.4147 145.967 22.2933 145.612 22.2L144.408 21.92C143.801 21.7707 143.349 21.542 143.05 21.234C142.761 20.926 142.616 20.52 142.616 20.016C142.616 19.596 142.723 19.232 142.938 18.924C143.162 18.616 143.465 18.378 143.848 18.21C144.24 18.042 144.688 17.958 145.192 17.958C145.696 17.958 146.13 18.0467 146.494 18.224C146.867 18.4013 147.157 18.6487 147.362 18.966C147.577 19.2833 147.689 19.6613 147.698 20.1H146.438C146.429 19.7453 146.312 19.47 146.088 19.274C145.864 19.078 145.551 18.98 145.15 18.98C144.739 18.98 144.422 19.0687 144.198 19.246C143.974 19.4233 143.862 19.666 143.862 19.974C143.862 20.4313 144.198 20.744 144.87 20.912L146.074 21.206C146.653 21.3367 147.087 21.5513 147.376 21.85C147.665 22.1393 147.81 22.536 147.81 23.04C147.81 23.4693 147.693 23.8473 147.46 24.174C147.227 24.4913 146.905 24.7387 146.494 24.916C146.093 25.084 145.617 25.168 145.066 25.168C144.263 25.168 143.624 24.972 143.148 24.58C142.672 24.188 142.434 23.6653 142.434 23.012ZM33.7797 38.154H37.7277V39.26H33.7797V38.154ZM37.7697 34.752V35.886C37.6857 35.886 37.5923 35.886 37.4897 35.886C37.3963 35.886 37.2937 35.886 37.1817 35.886C36.7523 35.886 36.463 35.9887 36.3137 36.194C36.1737 36.3993 36.1037 36.6887 36.1037 37.062V45H34.7877V37.062C34.7877 36.502 34.881 36.0493 35.0677 35.704C35.2637 35.3493 35.5203 35.0927 35.8377 34.934C36.1643 34.7753 36.5377 34.696 36.9577 34.696C37.0883 34.696 37.2237 34.7007 37.3637 34.71C37.5037 34.7193 37.639 34.7333 37.7697 34.752ZM38.2979 41.57C38.2979 40.87 38.4519 40.2493 38.7599 39.708C39.0679 39.1667 39.4879 38.742 40.0199 38.434C40.5613 38.126 41.1773 37.972 41.8679 37.972C42.5586 37.972 43.1699 38.126 43.7019 38.434C44.2339 38.742 44.6539 39.1667 44.9619 39.708C45.2699 40.2493 45.4239 40.87 45.4239 41.57C45.4239 42.27 45.2699 42.8907 44.9619 43.432C44.6539 43.9733 44.2339 44.398 43.7019 44.706C43.1699 45.014 42.5586 45.168 41.8679 45.168C41.1773 45.168 40.5613 45.014 40.0199 44.706C39.4879 44.398 39.0679 43.9733 38.7599 43.432C38.4519 42.8907 38.2979 42.27 38.2979 41.57ZM39.6279 41.57C39.6279 42.046 39.7213 42.466 39.9079 42.83C40.1039 43.194 40.3699 43.4787 40.7059 43.684C41.0419 43.8893 41.4293 43.992 41.8679 43.992C42.3066 43.992 42.6939 43.8893 43.0299 43.684C43.3659 43.4787 43.6273 43.194 43.8139 42.83C44.0099 42.466 44.1079 42.046 44.1079 41.57C44.1079 41.0847 44.0099 40.6647 43.8139 40.31C43.6273 39.946 43.3659 39.6613 43.0299 39.456C42.6939 39.2507 42.3066 39.148 41.8679 39.148C41.4293 39.148 41.0419 39.2507 40.7059 39.456C40.3699 39.6613 40.1039 39.946 39.9079 40.31C39.7213 40.6647 39.6279 41.0847 39.6279 41.57ZM50.8007 38.098V39.302H50.2127C49.5874 39.302 49.0927 39.484 48.7287 39.848C48.374 40.2027 48.1967 40.7113 48.1967 41.374V45H46.8807V38.168H48.1127L48.2247 39.54H48.0987C48.192 39.092 48.416 38.728 48.7707 38.448C49.1254 38.1587 49.5687 38.014 50.1007 38.014C50.222 38.014 50.334 38.0233 50.4367 38.042C50.5487 38.0513 50.67 38.07 50.8007 38.098ZM55.8631 45V38.154H57.1791V45H55.8631ZM56.5071 36.53C56.2738 36.53 56.0685 36.446 55.8911 36.278C55.7231 36.1007 55.6391 35.8953 55.6391 35.662C55.6391 35.4193 55.7231 35.214 55.8911 35.046C56.0685 34.878 56.2738 34.794 56.5071 34.794C56.7498 34.794 56.9551 34.878 57.1231 35.046C57.2911 35.214 57.3751 35.4193 57.3751 35.662C57.3751 35.8953 57.2911 36.1007 57.1231 36.278C56.9551 36.446 56.7498 36.53 56.5071 36.53ZM60.4057 45H59.0897V38.154H60.2657L60.4477 39.414L60.2797 39.302C60.4197 38.9193 60.6764 38.602 61.0497 38.35C61.4324 38.0887 61.8944 37.958 62.4357 37.958C63.0424 37.958 63.5464 38.1213 63.9477 38.448C64.349 38.7747 64.6104 39.2087 64.7317 39.75H64.4937C64.587 39.2087 64.8437 38.7747 65.2637 38.448C65.6837 38.1213 66.2017 37.958 66.8177 37.958C67.6017 37.958 68.2177 38.1867 68.6657 38.644C69.1137 39.1013 69.3377 39.7267 69.3377 40.52V45H68.0497V40.842C68.0497 40.3007 67.9097 39.8853 67.6297 39.596C67.359 39.2973 66.9904 39.148 66.5237 39.148C66.197 39.148 65.9077 39.2227 65.6557 39.372C65.413 39.512 65.2217 39.7173 65.0817 39.988C64.9417 40.2587 64.8717 40.576 64.8717 40.94V45H63.5697V40.828C63.5697 40.2867 63.4344 39.876 63.1637 39.596C62.893 39.3067 62.5244 39.162 62.0577 39.162C61.731 39.162 61.4417 39.2367 61.1897 39.386C60.947 39.526 60.7557 39.7313 60.6157 40.002C60.4757 40.2633 60.4057 40.576 60.4057 40.94V45ZM72.478 45H71.162V38.154H72.338L72.52 39.414L72.352 39.302C72.492 38.9193 72.7486 38.602 73.122 38.35C73.5046 38.0887 73.9666 37.958 74.508 37.958C75.1146 37.958 75.6186 38.1213 76.02 38.448C76.4213 38.7747 76.6826 39.2087 76.804 39.75H76.566C76.6593 39.2087 76.916 38.7747 77.336 38.448C77.756 38.1213 78.274 37.958 78.89 37.958C79.674 37.958 80.29 38.1867 80.738 38.644C81.186 39.1013 81.41 39.7267 81.41 40.52V45H80.122V40.842C80.122 40.3007 79.982 39.8853 79.702 39.596C79.4313 39.2973 79.0626 39.148 78.596 39.148C78.2693 39.148 77.98 39.2227 77.728 39.372C77.4853 39.512 77.294 39.7173 77.154 39.988C77.014 40.2587 76.944 40.576 76.944 40.94V45H75.642V40.828C75.642 40.2867 75.5066 39.876 75.236 39.596C74.9653 39.3067 74.5966 39.162 74.13 39.162C73.8033 39.162 73.514 39.2367 73.262 39.386C73.0193 39.526 72.828 39.7313 72.688 40.002C72.548 40.2633 72.478 40.576 72.478 40.94V45ZM83.2342 45V38.154H84.5502V45H83.2342ZM83.8782 36.53C83.6449 36.53 83.4396 36.446 83.2622 36.278C83.0942 36.1007 83.0102 35.8953 83.0102 35.662C83.0102 35.4193 83.0942 35.214 83.2622 35.046C83.4396 34.878 83.6449 34.794 83.8782 34.794C84.1209 34.794 84.3262 34.878 84.4942 35.046C84.6622 35.214 84.7462 35.4193 84.7462 35.662C84.7462 35.8953 84.6622 36.1007 84.4942 36.278C84.3262 36.446 84.1209 36.53 83.8782 36.53ZM87.8468 42.62L88.0288 43.096C87.7861 43.096 87.5948 43.1473 87.4548 43.25C87.3148 43.3433 87.2448 43.4833 87.2448 43.67C87.2448 44.0433 87.5481 44.23 88.1548 44.23H90.3948C91.1881 44.23 91.7855 44.384 92.1868 44.692C92.5975 45 92.8028 45.4527 92.8028 46.05C92.8028 46.75 92.4808 47.2913 91.8368 47.674C91.2021 48.066 90.2968 48.262 89.1208 48.262C88.0101 48.262 87.1935 48.1173 86.6708 47.828C86.1481 47.548 85.8868 47.1093 85.8868 46.512C85.8868 46.092 86.0548 45.742 86.3908 45.462C86.7361 45.182 87.1701 45.0373 87.6928 45.028L88.1268 45.294C87.7628 45.3033 87.4828 45.378 87.2868 45.518C87.0908 45.6673 86.9928 45.8867 86.9928 46.176C86.9928 46.5307 87.1561 46.7827 87.4828 46.932C87.8188 47.0907 88.3741 47.17 89.1488 47.17C89.9421 47.17 90.5348 47.0767 90.9268 46.89C91.3281 46.7127 91.5288 46.442 91.5288 46.078C91.5288 45.8073 91.4355 45.6067 91.2488 45.476C91.0621 45.3547 90.7681 45.294 90.3668 45.294H87.8328C87.3101 45.294 86.8995 45.182 86.6008 44.958C86.3021 44.734 86.1528 44.4213 86.1528 44.02C86.1528 43.6187 86.2975 43.292 86.5868 43.04C86.8855 42.788 87.3055 42.648 87.8468 42.62ZM91.4028 39.106L90.7728 38.644C90.8941 38.2707 91.1041 37.9767 91.4028 37.762C91.7015 37.5473 92.0561 37.44 92.4668 37.44C92.5135 37.44 92.5555 37.44 92.5928 37.44C92.6395 37.44 92.6815 37.4447 92.7188 37.454V38.574C92.6628 38.5553 92.6115 38.546 92.5648 38.546C92.5275 38.546 92.4855 38.546 92.4388 38.546C92.1961 38.546 91.9861 38.5927 91.8088 38.686C91.6408 38.7793 91.5055 38.9193 91.4028 39.106ZM86.2648 40.688C86.2648 40.156 86.3908 39.6893 86.6428 39.288C86.9041 38.8773 87.2541 38.5553 87.6928 38.322C88.1408 38.0793 88.6495 37.958 89.2188 37.958C89.5361 37.958 89.8488 38 90.1568 38.084C90.4741 38.1587 90.7495 38.266 90.9828 38.406L91.4308 38.896C91.6828 39.092 91.8788 39.358 92.0188 39.694C92.1681 40.03 92.2428 40.3753 92.2428 40.73C92.2428 41.2433 92.1168 41.696 91.8648 42.088C91.6221 42.48 91.2768 42.788 90.8288 43.012C90.3901 43.2267 89.8721 43.334 89.2748 43.334C88.6868 43.334 88.1641 43.2267 87.7068 43.012C87.2588 42.788 86.9041 42.48 86.6428 42.088C86.3908 41.6867 86.2648 41.22 86.2648 40.688ZM87.5388 40.674C87.5388 41.1593 87.6975 41.5513 88.0148 41.85C88.3321 42.1393 88.7475 42.284 89.2608 42.284C89.7741 42.284 90.1895 42.1393 90.5068 41.85C90.8241 41.5513 90.9828 41.1593 90.9828 40.674C90.9828 40.1887 90.8241 39.792 90.5068 39.484C90.1895 39.176 89.7741 39.022 89.2608 39.022C88.7568 39.022 88.3415 39.176 88.0148 39.484C87.6975 39.7827 87.5388 40.1793 87.5388 40.674ZM97.9413 38.098V39.302H97.3533C96.728 39.302 96.2333 39.484 95.8693 39.848C95.5147 40.2027 95.3373 40.7113 95.3373 41.374V45H94.0213V38.168H95.2533L95.3653 39.54H95.2393C95.3327 39.092 95.5567 38.728 95.9113 38.448C96.266 38.1587 96.7093 38.014 97.2413 38.014C97.3627 38.014 97.4747 38.0233 97.5773 38.042C97.6893 38.0513 97.8107 38.07 97.9413 38.098ZM104.292 38.154H105.454V45H104.25L104.138 43.754C103.904 44.1927 103.573 44.5427 103.144 44.804C102.724 45.056 102.229 45.182 101.66 45.182C100.988 45.182 100.414 45.0233 99.9375 44.706C99.4615 44.3887 99.0975 43.9547 98.8455 43.404C98.6029 42.8533 98.4815 42.228 98.4815 41.528C98.4815 40.828 98.6122 40.212 98.8735 39.68C99.1442 39.1387 99.5175 38.7187 99.9935 38.42C100.479 38.112 101.048 37.958 101.702 37.958C102.224 37.958 102.714 38.0793 103.172 38.322C103.629 38.5553 103.97 38.9193 104.194 39.414L104.292 38.154ZM104.11 41.584C104.11 41.108 104.021 40.688 103.844 40.324C103.676 39.96 103.433 39.6753 103.116 39.47C102.798 39.2647 102.411 39.162 101.954 39.162C101.515 39.162 101.132 39.2647 100.806 39.47C100.479 39.6753 100.232 39.96 100.064 40.324C99.8955 40.688 99.8115 41.108 99.8115 41.584C99.8115 42.0507 99.8955 42.466 100.064 42.83C100.232 43.194 100.474 43.4787 100.792 43.684C101.109 43.8893 101.492 43.992 101.94 43.992C102.388 43.992 102.77 43.8893 103.088 43.684C103.414 43.4787 103.666 43.194 103.844 42.83C104.021 42.466 104.11 42.0507 104.11 41.584ZM108.667 45H107.351V38.154H108.541L108.681 39.204C108.896 38.812 109.204 38.5087 109.605 38.294C110.016 38.07 110.464 37.958 110.949 37.958C111.845 37.958 112.508 38.2147 112.937 38.728C113.367 39.2413 113.581 39.9367 113.581 40.814V45H112.265V41.108C112.265 40.4173 112.116 39.9227 111.817 39.624C111.519 39.316 111.117 39.162 110.613 39.162C109.997 39.162 109.517 39.3627 109.171 39.764C108.835 40.1653 108.667 40.702 108.667 41.374V45ZM114.676 38.154H118.652V39.26H114.676V38.154ZM118.596 43.852L118.764 44.944C118.409 45.084 118.031 45.154 117.63 45.154C117.229 45.154 116.888 45.0793 116.608 44.93C116.328 44.7713 116.113 44.538 115.964 44.23C115.815 43.922 115.74 43.5393 115.74 43.082V36.012H117.056V42.9C117.056 43.292 117.135 43.572 117.294 43.74C117.462 43.8987 117.677 43.978 117.938 43.978C118.143 43.978 118.363 43.936 118.596 43.852ZM119.561 43.012H120.821C120.821 43.3573 120.947 43.6327 121.199 43.838C121.451 44.034 121.792 44.132 122.221 44.132C122.688 44.132 123.047 44.0433 123.299 43.866C123.551 43.6793 123.677 43.432 123.677 43.124C123.677 42.9 123.607 42.7133 123.467 42.564C123.336 42.4147 123.094 42.2933 122.739 42.2L121.535 41.92C120.928 41.7707 120.476 41.542 120.177 41.234C119.888 40.926 119.743 40.52 119.743 40.016C119.743 39.596 119.85 39.232 120.065 38.924C120.289 38.616 120.592 38.378 120.975 38.21C121.367 38.042 121.815 37.958 122.319 37.958C122.823 37.958 123.257 38.0467 123.621 38.224C123.994 38.4013 124.284 38.6487 124.489 38.966C124.704 39.2833 124.816 39.6613 124.825 40.1H123.565C123.556 39.7453 123.439 39.47 123.215 39.274C122.991 39.078 122.678 38.98 122.277 38.98C121.866 38.98 121.549 39.0687 121.325 39.246C121.101 39.4233 120.989 39.666 120.989 39.974C120.989 40.4313 121.325 40.744 121.997 40.912L123.201 41.206C123.78 41.3367 124.214 41.5513 124.503 41.85C124.792 42.1393 124.937 42.536 124.937 43.04C124.937 43.4693 124.82 43.8473 124.587 44.174C124.354 44.4913 124.032 44.7387 123.621 44.916C123.22 45.084 122.744 45.168 122.193 45.168C121.39 45.168 120.751 44.972 120.275 44.58C119.799 44.188 119.561 43.6653 119.561 43.012Z"
    fill="#1F2937"
  />
<path
    d="M259.5 159.5H75V64.5"
    stroke="#4ED6D4"
    strokeWidth="2"
    strokeDasharray="8 8"
  />
</svg>
