<svg
  width="201"
  height="200"
  viewBox="0 0 201 200"
  fill="none"
  xmlns="http://www.w3.org/2000/svg"
>
<g opacity="0.51">
<path
      d="M18.1448 116.911C10.1783 102.895 4.86029 86.1735 9.92729 71.2235C14.7358 57.0355 28.6848 49.781 42.3988 46.368C56.7388 42.799 71.7938 42.392 86.2873 39.3585C101.492 36.1765 116.438 31.7385 130.89 26.0375C137.445 23.452 143.926 20.5985 150.755 18.8625C163.067 15.733 178.173 17.7085 186.216 28.526C194.613 39.8215 194.994 56.171 188.93 68.6105C182.002 82.822 169.576 93.9645 165.013 109.399C162.247 118.755 162.899 128.92 159.634 138.1C156.436 147.09 151.6 155.577 144.968 162.48C137.398 170.359 127.415 176.084 116.614 177.734C101.702 180.012 86.6833 174.536 73.3023 167.571C55.4108 158.259 38.7328 145.815 26.5218 129.611C23.6268 125.77 20.7453 121.484 18.1453 116.911H18.1448Z"
      fill="#FFECF1"
    />
</g>
<path
    d="M159.202 61.4702L133.245 93.6851L148.443 105.931L174.4 73.7159L159.202 61.4702Z"
    fill="#F9FAFD"
  />
<path
    d="M159.475 64.4709L136.468 93.0239L148.348 102.596L171.355 74.0431L159.475 64.4709Z"
    fill="#E096AA"
  />
<path
    d="M168.855 76.4831C167.747 75.5901 167.659 73.8601 168.659 72.6186C169.659 71.3771 171.369 71.0951 172.477 71.9881C173.585 72.8811 173.673 74.6111 172.673 75.8526C171.673 77.0941 169.964 77.3761 168.856 76.4831H168.855ZM146.429 104.262C145.321 103.369 145.233 101.639 146.233 100.398C147.234 99.1561 148.943 98.8741 150.051 99.7671C151.16 100.66 151.247 102.39 150.247 103.632C149.247 104.873 147.538 105.155 146.43 104.263L146.429 104.262ZM135.312 95.3046C134.203 94.4116 134.116 92.6816 135.116 91.4401C136.116 90.1991 137.825 89.9166 138.933 90.8091C140.042 91.7021 140.129 93.4326 139.129 94.6735C138.129 95.9151 136.42 96.1971 135.312 95.3041V95.3046ZM157.753 67.6706C156.645 66.7776 156.557 65.0471 157.557 63.8061C158.557 62.5646 160.267 62.2826 161.375 63.1756C162.483 64.0686 162.571 65.7986 161.571 67.0401C160.571 68.2816 158.861 68.5636 157.753 67.6706ZM159.019 77.1626C157.911 76.2696 157.823 74.5396 158.823 73.2981C159.823 72.0566 161.532 71.7746 162.641 72.6676C163.749 73.5606 163.837 75.2906 162.837 76.5321C161.837 77.7736 160.127 78.0556 159.019 77.1626ZM150.195 87.9681C148.308 86.4481 148.159 83.5026 149.861 81.3896C151.564 79.2766 154.473 78.7955 156.36 80.316C158.247 81.8361 158.396 84.7816 156.694 86.8946C154.991 89.0076 152.081 89.4886 150.195 87.9681ZM144.346 96.141C143.237 95.2481 143.15 93.5181 144.15 92.2766C145.15 91.0351 146.859 90.7531 147.968 91.6456C149.076 92.5386 149.164 94.2691 148.164 95.5101C147.164 96.7515 145.454 97.0336 144.346 96.1406L144.346 96.141Z"
    fill="#F9FAFD"
  />
<path
    d="M150.255 81.4344L151.11 82.1234C151.514 81.6394 152.075 81.2539 152.525 81.1284L152.929 81.7884C152.48 81.9294 151.965 82.2399 151.583 82.7139C151.099 83.3149 151.118 84.0009 151.601 84.3894C152.066 84.7644 152.62 84.6664 153.378 84.2444C154.412 83.6539 155.231 83.4344 155.968 84.0279C156.67 84.5939 156.801 85.5229 156.301 86.4039L157.156 87.0929L156.733 87.6174L155.912 86.9564C155.486 87.4504 155.071 87.6884 154.729 87.8179L154.341 87.1564C154.586 87.0604 155.051 86.8634 155.488 86.3219C156.013 85.6699 155.821 85.1114 155.483 84.8384C155.043 84.4839 154.57 84.6194 153.672 85.1104C152.614 85.6959 151.82 85.7814 151.066 85.1744C150.398 84.6359 150.146 83.6654 150.705 82.6779L149.824 81.9684L150.254 81.4354L150.255 81.4344Z"
    fill="#E096AA"
  />
<path
    d="M190.586 180.593H10.4142C10.0317 180.593 9.72168 180.903 9.72168 181.286C9.72168 181.668 10.0317 181.978 10.4142 181.978H190.586C190.968 181.978 191.278 181.668 191.278 181.286C191.278 180.903 190.968 180.593 190.586 180.593Z"
    fill="#393B50"
  />
<path
    d="M34.1283 48.1548L20.1616 53.9429L32.4305 83.5478L46.3971 77.7598L34.1283 48.1548Z"
    fill="#F9FAFD"
  />
<path
    d="M33.2208 50.3461L22.3032 54.8706L33.1775 81.1106L44.0952 76.5861L33.2208 50.3461Z"
    fill="#E096AA"
  />
<path
    d="M33.9537 52.954C32.9352 53.376 31.7262 52.7935 31.2537 51.653C30.7812 50.5125 31.2232 49.2455 32.2422 48.823C33.2607 48.401 34.4697 48.9835 34.9422 50.1245C35.4147 51.265 34.9722 52.532 33.9537 52.954ZM44.5157 78.512C43.4972 78.934 42.2882 78.3515 41.8157 77.211C41.3432 76.07 41.7852 74.8035 42.8042 74.381C43.8227 73.959 45.0317 74.5415 45.5042 75.6825C45.9767 76.823 45.5342 78.09 44.5162 78.512H44.5157ZM34.2992 82.7455C33.2807 83.1675 32.0717 82.585 31.5992 81.4445C31.1267 80.304 31.5687 79.037 32.5872 78.615C33.6057 78.193 34.8147 78.7755 35.2872 79.9165C35.7597 81.057 35.3172 82.324 34.2992 82.746V82.7455ZM23.8412 57.2305C22.8227 57.6525 21.6137 57.07 21.1412 55.9295C20.6682 54.7885 21.1112 53.522 22.1297 53.1C23.1482 52.678 24.3572 53.2605 24.8297 54.4015C25.3022 55.542 24.8602 56.809 23.8417 57.231L23.8412 57.2305ZM30.7647 59.8935C29.7462 60.3155 28.5372 59.733 28.0647 58.592C27.5922 57.4515 28.0347 56.1845 29.0532 55.7625C30.0717 55.3405 31.2807 55.923 31.7532 57.0635C32.2262 58.2045 31.7837 59.4715 30.7647 59.8935ZM34.8357 69.904C33.1017 70.6225 31.0437 69.6305 30.2392 67.6885C29.4347 65.7465 30.1877 63.59 31.9217 62.8715C33.6557 62.153 35.7137 63.1445 36.5182 65.0865C37.3227 67.0285 36.5697 69.1855 34.8357 69.9035V69.904ZM38.2212 76.914C37.2027 77.336 35.9937 76.7535 35.5212 75.613C35.0487 74.4725 35.4912 73.2055 36.5097 72.783C37.5282 72.361 38.7372 72.9435 39.2097 74.0845C39.6827 75.2255 39.2402 76.492 38.2212 76.914Z"
    fill="#F9FAFD"
  />
<path
    d="M30.4194 67.444L31.2049 67.1185C31.0259 66.664 30.9724 66.1395 31.0539 65.787L31.6524 65.7575C31.5819 66.115 31.6014 66.5805 31.7824 67.016C32.0114 67.568 32.4849 67.8095 32.9279 67.6255C33.3559 67.448 33.4944 67.0355 33.4894 66.363C33.4719 65.4405 33.6264 64.8025 34.3029 64.522C34.9484 64.2545 35.6289 64.5105 36.0419 65.1775L36.8274 64.852L37.0274 65.334L36.2729 65.6465C36.4509 66.1195 36.4584 66.49 36.4194 66.7705L35.8254 66.7885C35.8509 66.5865 35.8899 66.1965 35.6839 65.699C35.4359 65.1 34.9844 65.023 34.6734 65.1515C34.2689 65.319 34.1859 65.6905 34.1864 66.4835C34.1919 67.42 33.9549 67.992 33.2624 68.279C32.6479 68.5335 31.8949 68.3445 31.4309 67.598L30.6219 67.933L30.4189 67.443L30.4194 67.444Z"
    fill="#E096AA"
  />
<path
    d="M171.141 160.17C171.12 160.538 171.302 160.889 171.648 161.034C171.655 161.037 171.662 161.04 171.67 161.042C171.756 161.148 171.901 161.17 172.033 161.127C172.737 160.894 173.418 160.597 174.067 160.24C175.244 159.593 176.311 158.762 177.222 157.775C178.114 156.809 178.888 155.639 178.988 154.292C178.999 154.138 178.895 154.006 178.748 153.972C178.614 153.94 178.433 154.019 178.398 154.165C178.311 154.521 178.117 154.774 177.837 155.005C177.542 155.249 177.209 155.427 176.867 155.599C175.599 156.237 174.345 156.907 173.215 157.773C172.65 158.206 172.126 158.686 171.65 159.215C171.409 159.483 171.162 159.794 171.141 160.17H171.141ZM171.411 154.826C171.234 155.089 171.064 155.356 170.903 155.628C170.83 155.751 170.749 155.878 170.708 156.016C170.656 156.186 170.662 156.334 170.715 156.502C170.752 156.62 170.884 156.68 171.004 156.676C171.05 156.81 171.203 156.928 171.346 156.884C172.015 156.683 172.656 156.408 173.254 156.045C174.345 155.382 175.318 154.473 175.959 153.361C176.561 152.317 176.837 151.147 177.071 149.976C177.123 149.852 177.152 149.716 177.152 149.567C177.152 149.566 177.152 149.565 177.152 149.564C177.152 149.564 177.152 149.564 177.152 149.564C177.152 149.538 177.151 149.512 177.149 149.486C177.137 149.332 176.974 149.233 176.835 149.237C176.673 149.242 176.575 149.364 176.546 149.513C176.526 149.613 176.507 149.712 176.487 149.812C176.479 149.823 176.469 149.837 176.453 149.86C176.435 149.886 176.414 149.911 176.394 149.936C176.387 149.945 176.383 149.951 176.379 149.956C176.375 149.96 176.369 149.965 176.36 149.974C176.304 150.029 176.245 150.082 176.183 150.132C175.93 150.336 175.65 150.506 175.387 150.698C174.353 151.454 173.413 152.333 172.577 153.303C172.159 153.787 171.77 154.297 171.411 154.827V154.826ZM168.392 152.998C167.491 152.088 166.492 151.277 165.408 150.594C165.133 150.421 164.841 150.27 164.574 150.084C164.509 150.039 164.447 149.99 164.387 149.939C164.378 149.931 164.371 149.926 164.367 149.923C164.363 149.918 164.358 149.913 164.351 149.904C164.329 149.88 164.307 149.857 164.287 149.832C164.269 149.811 164.258 149.797 164.249 149.786C164.223 149.688 164.196 149.59 164.17 149.493C164.131 149.346 164.024 149.231 163.862 149.237C163.723 149.242 163.568 149.353 163.567 149.507C163.567 149.533 163.568 149.559 163.569 149.585C163.569 149.585 163.569 149.585 163.569 149.585C163.569 149.586 163.569 149.587 163.57 149.588C163.58 149.737 163.618 149.87 163.678 149.99C163.993 151.142 164.349 152.29 165.022 153.29C165.739 154.355 166.772 155.195 167.907 155.781C168.528 156.102 169.186 156.331 169.868 156.486C170.014 156.519 170.158 156.391 170.195 156.254C170.315 156.249 170.443 156.18 170.472 156.06C170.513 155.889 170.508 155.741 170.445 155.575C170.393 155.44 170.305 155.319 170.223 155.202C170.043 154.941 169.855 154.686 169.66 154.437C169.266 153.933 168.842 153.452 168.392 152.997L168.392 152.998ZM169.623 148.65C169.169 148.26 168.649 147.961 168.14 147.652C167.88 147.495 167.622 147.334 167.376 147.156C167.272 147.08 167.171 147.002 167.072 146.919C166.958 146.823 166.889 146.759 166.796 146.663C166.389 146.243 166.105 145.786 166.053 145.212C166.037 145.049 165.863 144.933 165.706 144.957C165.535 144.983 165.436 145.14 165.451 145.304C165.573 146.496 165.721 147.71 166.319 148.772C166.851 149.717 167.639 150.519 168.587 151.05C169.135 151.357 169.716 151.574 170.332 151.695C170.438 151.716 170.542 151.659 170.605 151.574C170.7 151.531 170.764 151.437 170.787 151.327C171 150.295 170.376 149.297 169.622 148.65H169.623Z"
    fill="#F08228"
  />
<path
    d="M169.95 137.014C170.099 136.945 170.285 137.014 170.353 137.163C170.909 138.38 171.364 139.651 171.649 140.96C171.931 142.258 172.041 143.607 171.89 144.93C171.807 145.665 171.688 146.477 171.229 147.077C171.404 147.599 171.414 148.166 171.424 148.712C171.433 149.246 171.415 149.779 171.383 150.312C171.57 149.807 171.901 149.343 172.274 148.975C172.7 148.555 173.198 148.221 173.684 147.877C173.932 147.702 174.179 147.523 174.412 147.329C174.51 147.246 174.606 147.161 174.699 147.071C174.806 146.968 174.87 146.9 174.957 146.797C175.333 146.35 175.585 145.874 175.597 145.298C175.603 145.134 175.768 145.007 175.926 145.02C176.098 145.034 176.208 145.183 176.204 145.348C176.165 146.546 176.102 147.767 175.579 148.867C175.113 149.847 174.383 150.701 173.474 151.297C172.948 151.641 172.384 151.898 171.777 152.061C171.673 152.089 171.566 152.039 171.497 151.959C171.4 151.922 171.329 151.833 171.299 151.725C171.292 151.702 171.287 151.679 171.281 151.657C171.204 152.545 171.118 153.433 171.071 154.323C170.944 156.728 171.021 159.136 171.302 161.527C171.37 162.111 171.452 162.693 171.544 163.273C172.553 162.345 173.753 161.654 175.052 161.22C175.704 161.002 176.355 160.794 176.983 160.512C177.575 160.247 178.159 159.932 178.694 159.582C179.319 159.175 179.907 158.713 180.452 158.204C180.635 158.034 180.996 158.208 180.95 158.464C180.803 159.28 180.37 159.989 179.87 160.637C179.381 161.271 178.819 161.856 178.192 162.356C177.027 163.286 175.625 163.93 174.137 164.101C173.331 164.194 172.523 164.149 171.734 163.96C171.704 163.953 171.676 163.939 171.652 163.921C171.747 164.463 172.072 168.247 172.187 168.785C172.222 168.946 172.098 169.11 171.94 169.137C171.773 169.167 171.622 169.051 171.588 168.89C171.437 168.189 171.085 164.238 170.97 163.531C170.951 163.544 170.93 163.555 170.907 163.562C170.133 163.805 169.33 163.906 168.52 163.869C167.024 163.801 165.58 163.255 164.354 162.408C163.694 161.952 163.093 161.408 162.561 160.809C162.017 160.198 161.536 159.519 161.334 158.716C161.27 158.463 161.618 158.265 161.812 158.423C162.391 158.892 163.01 159.312 163.661 159.676C164.219 159.987 164.823 160.261 165.432 160.485C166.078 160.723 166.742 160.884 167.408 161.057C168.649 161.379 169.82 161.93 170.843 162.702C170.725 161.871 170.63 161.037 170.56 160.2C170.493 160.403 170.356 160.577 170.152 160.679C170.145 160.683 170.138 160.686 170.131 160.688C170.052 160.8 169.909 160.833 169.774 160.798C169.057 160.615 168.356 160.366 167.684 160.054C166.466 159.49 165.343 158.735 164.366 157.813C163.409 156.911 162.556 155.797 162.364 154.461C162.342 154.307 162.436 154.169 162.581 154.125C162.713 154.084 162.898 154.15 162.944 154.293C163.055 154.642 163.266 154.881 163.561 155.092C163.872 155.315 164.217 155.47 164.569 155.618C165.878 156.167 167.176 156.748 168.363 157.534C168.956 157.927 169.512 158.369 170.025 158.864C170.207 159.04 170.394 159.238 170.505 159.471C170.481 159.12 170.461 158.768 170.445 158.416C170.393 157.215 170.39 156.011 170.438 154.809C170.488 153.578 170.612 152.355 170.713 151.128C170.771 150.426 170.817 149.723 170.819 149.018C170.821 148.465 170.838 147.844 170.668 147.314C170.643 147.298 170.621 147.279 170.603 147.257C170.564 147.21 170.543 147.158 170.537 147.106C170.221 146.939 170.032 146.645 169.921 146.307C169.813 145.982 169.74 145.644 169.677 145.308C169.553 144.643 169.495 143.967 169.48 143.29C169.451 141.966 169.632 140.667 169.843 139.364C169.897 139.027 169.944 138.687 169.949 138.345C169.951 138.171 169.945 138.053 169.918 137.873C169.891 137.7 169.854 137.556 169.799 137.416C169.74 137.263 169.793 137.083 169.949 137.012L169.95 137.014Z"
    fill="#F08228"
  />
<path
    d="M183.763 160.766H158.516C158.404 160.766 158.313 160.857 158.313 160.969V166.702C158.313 166.814 158.404 166.905 158.516 166.905H183.763C183.875 166.905 183.966 166.814 183.966 166.702V160.969C183.966 160.857 183.875 160.766 183.763 160.766Z"
    fill="#4ED6D4"
  />
<path
    d="M176.427 181.285H165.852C165.097 181.285 164.435 180.778 164.24 180.048L160.718 166.905H181.561L178.039 180.048C177.844 180.778 177.182 181.285 176.427 181.285Z"
    fill="#145D62"
  />
<path
    d="M162.148 172.242L181.561 166.905H160.718L162.148 172.242Z"
    fill="#114144"
  />
<path
    d="M156.322 175.065V179.05C156.322 179.964 155.765 180.711 155.085 180.711H122.631C121.951 180.711 121.394 179.964 121.394 179.05V175.065C121.394 174.152 121.95 173.404 122.631 173.404H155.085C155.765 173.404 156.322 174.152 156.322 175.065Z"
    fill="#FBC79D"
  />
<path
    d="M122.918 174.678V179.543"
    stroke="#F08228"
    strokeLinecap="8"
    stroke-miterlimit="10"
    strokeLinecap="round"
  />
<path
    d="M124.154 174.678V179.543"
    stroke="#F08228"
    strokeLinecap="8"
    stroke-miterlimit="10"
    strokeLinecap="round"
  />
<path
    d="M125.39 174.678V179.543"
    stroke="#F08228"
    strokeLinecap="8"
    stroke-miterlimit="10"
    strokeLinecap="round"
  />
<path
    d="M126.626 174.678V179.543"
    stroke="#F08228"
    strokeLinecap="8"
    stroke-miterlimit="10"
    strokeLinecap="round"
  />
<path
    d="M127.862 174.678V179.543"
    stroke="#F08228"
    strokeLinecap="8"
    stroke-miterlimit="10"
    strokeLinecap="round"
  />
<path
    d="M129.099 174.678V179.543"
    stroke="#F08228"
    strokeLinecap="8"
    stroke-miterlimit="10"
    strokeLinecap="round"
  />
<path
    d="M130.334 174.678V179.543"
    stroke="#F08228"
    strokeLinecap="8"
    stroke-miterlimit="10"
    strokeLinecap="round"
  />
<path
    d="M131.57 174.678V179.543"
    stroke="#F08228"
    strokeLinecap="8"
    stroke-miterlimit="10"
    strokeLinecap="round"
  />
<path
    d="M132.807 174.678V179.543"
    stroke="#F08228"
    strokeLinecap="8"
    stroke-miterlimit="10"
    strokeLinecap="round"
  />
<path
    d="M134.043 174.678V179.543"
    stroke="#F08228"
    strokeLinecap="8"
    stroke-miterlimit="10"
    strokeLinecap="round"
  />
<path
    d="M135.279 174.678V179.543"
    stroke="#F08228"
    strokeLinecap="8"
    stroke-miterlimit="10"
    strokeLinecap="round"
  />
<path
    d="M136.515 174.678V179.543"
    stroke="#F08228"
    strokeLinecap="8"
    stroke-miterlimit="10"
    strokeLinecap="round"
  />
<path
    d="M137.751 174.678V179.543"
    stroke="#F08228"
    strokeLinecap="8"
    stroke-miterlimit="10"
    strokeLinecap="round"
  />
<path
    d="M138.987 174.678V179.543"
    stroke="#F08228"
    strokeLinecap="8"
    stroke-miterlimit="10"
    strokeLinecap="round"
  />
<path
    d="M140.224 174.678V179.543"
    stroke="#F08228"
    strokeLinecap="8"
    stroke-miterlimit="10"
    strokeLinecap="round"
  />
<path
    d="M141.459 174.678V179.543"
    stroke="#F08228"
    strokeLinecap="8"
    stroke-miterlimit="10"
    strokeLinecap="round"
  />
<path
    d="M142.695 174.678V179.543"
    stroke="#F08228"
    strokeLinecap="8"
    stroke-miterlimit="10"
    strokeLinecap="round"
  />
<path
    d="M143.932 174.678V179.543"
    stroke="#F08228"
    strokeLinecap="8"
    stroke-miterlimit="10"
    strokeLinecap="round"
  />
<path
    d="M145.168 174.678V179.543"
    stroke="#F08228"
    strokeLinecap="8"
    stroke-miterlimit="10"
    strokeLinecap="round"
  />
<path
    d="M146.404 174.678V179.543"
    stroke="#F08228"
    strokeLinecap="8"
    stroke-miterlimit="10"
    strokeLinecap="round"
  />
<path
    d="M147.64 174.678V179.543"
    stroke="#F08228"
    strokeLinecap="8"
    stroke-miterlimit="10"
    strokeLinecap="round"
  />
<path
    d="M148.876 174.678V179.543"
    stroke="#F08228"
    strokeLinecap="8"
    stroke-miterlimit="10"
    strokeLinecap="round"
  />
<path
    d="M150.112 174.678V179.543"
    stroke="#F08228"
    strokeLinecap="8"
    stroke-miterlimit="10"
    strokeLinecap="round"
  />
<path
    d="M151.349 174.678V179.543"
    stroke="#F08228"
    strokeLinecap="8"
    stroke-miterlimit="10"
    strokeLinecap="round"
  />
<path
    d="M152.584 174.678V179.543"
    stroke="#F08228"
    strokeLinecap="8"
    stroke-miterlimit="10"
    strokeLinecap="round"
  />
<path
    d="M153.82 174.678V179.543"
    stroke="#F08228"
    strokeLinecap="8"
    stroke-miterlimit="10"
    strokeLinecap="round"
  />
<path
    d="M155.057 174.678V179.543"
    stroke="#F08228"
    strokeLinecap="8"
    stroke-miterlimit="10"
    strokeLinecap="round"
  />
<path
    opacity="0.08"
    d="M156.322 175.065V175.397C156.322 176.31 155.765 177.058 155.085 177.058H122.631C121.951 177.058 121.394 176.31 121.394 175.397V175.065C121.394 174.152 121.95 173.404 122.631 173.404H155.085C155.765 173.404 156.322 174.152 156.322 175.065Z"
    fill="#231F20"
  />
<path
    d="M151.865 167.909V171.894C151.865 172.808 151.309 173.555 150.629 173.555H118.174C117.494 173.555 116.938 172.808 116.938 171.894V167.909C116.938 166.996 117.494 166.248 118.174 166.248H150.629C151.308 166.248 151.865 166.996 151.865 167.909Z"
    fill="#FBC79D"
  />
<path
    d="M118.462 167.523V172.388"
    stroke="#F08228"
    strokeLinecap="8"
    stroke-miterlimit="10"
    strokeLinecap="round"
  />
<path
    d="M119.698 167.523V172.388"
    stroke="#F08228"
    strokeLinecap="8"
    stroke-miterlimit="10"
    strokeLinecap="round"
  />
<path
    d="M120.934 167.523V172.388"
    stroke="#F08228"
    strokeLinecap="8"
    stroke-miterlimit="10"
    strokeLinecap="round"
  />
<path
    d="M122.17 167.523V172.388"
    stroke="#F08228"
    strokeLinecap="8"
    stroke-miterlimit="10"
    strokeLinecap="round"
  />
<path
    d="M123.406 167.523V172.388"
    stroke="#F08228"
    strokeLinecap="8"
    stroke-miterlimit="10"
    strokeLinecap="round"
  />
<path
    d="M124.643 167.523V172.388"
    stroke="#F08228"
    strokeLinecap="8"
    stroke-miterlimit="10"
    strokeLinecap="round"
  />
<path
    d="M125.878 167.523V172.388"
    stroke="#F08228"
    strokeLinecap="8"
    stroke-miterlimit="10"
    strokeLinecap="round"
  />
<path
    d="M127.114 167.523V172.388"
    stroke="#F08228"
    strokeLinecap="8"
    stroke-miterlimit="10"
    strokeLinecap="round"
  />
<path
    d="M128.351 167.523V172.388"
    stroke="#F08228"
    strokeLinecap="8"
    stroke-miterlimit="10"
    strokeLinecap="round"
  />
<path
    d="M129.587 167.523V172.388"
    stroke="#F08228"
    strokeLinecap="8"
    stroke-miterlimit="10"
    strokeLinecap="round"
  />
<path
    d="M130.823 167.523V172.388"
    stroke="#F08228"
    strokeLinecap="8"
    stroke-miterlimit="10"
    strokeLinecap="round"
  />
<path
    d="M132.059 167.523V172.388"
    stroke="#F08228"
    strokeLinecap="8"
    stroke-miterlimit="10"
    strokeLinecap="round"
  />
<path
    d="M133.295 167.523V172.388"
    stroke="#F08228"
    strokeLinecap="8"
    stroke-miterlimit="10"
    strokeLinecap="round"
  />
<path
    d="M134.531 167.523V172.388"
    stroke="#F08228"
    strokeLinecap="8"
    stroke-miterlimit="10"
    strokeLinecap="round"
  />
<path
    d="M135.768 167.523V172.388"
    stroke="#F08228"
    strokeLinecap="8"
    stroke-miterlimit="10"
    strokeLinecap="round"
  />
<path
    d="M137.003 167.523V172.388"
    stroke="#F08228"
    strokeLinecap="8"
    stroke-miterlimit="10"
    strokeLinecap="round"
  />
<path
    d="M138.239 167.523V172.388"
    stroke="#F08228"
    strokeLinecap="8"
    stroke-miterlimit="10"
    strokeLinecap="round"
  />
<path
    d="M139.476 167.523V172.388"
    stroke="#F08228"
    strokeLinecap="8"
    stroke-miterlimit="10"
    strokeLinecap="round"
  />
<path
    d="M140.712 167.523V172.388"
    stroke="#F08228"
    strokeLinecap="8"
    stroke-miterlimit="10"
    strokeLinecap="round"
  />
<path
    d="M141.948 167.523V172.388"
    stroke="#F08228"
    strokeLinecap="8"
    stroke-miterlimit="10"
    strokeLinecap="round"
  />
<path
    d="M143.184 167.523V172.388"
    stroke="#F08228"
    strokeLinecap="8"
    stroke-miterlimit="10"
    strokeLinecap="round"
  />
<path
    d="M144.42 167.523V172.388"
    stroke="#F08228"
    strokeLinecap="8"
    stroke-miterlimit="10"
    strokeLinecap="round"
  />
<path
    d="M145.656 167.523V172.388"
    stroke="#F08228"
    strokeLinecap="8"
    stroke-miterlimit="10"
    strokeLinecap="round"
  />
<path
    d="M146.893 167.523V172.388"
    stroke="#F08228"
    strokeLinecap="8"
    stroke-miterlimit="10"
    strokeLinecap="round"
  />
<path
    d="M148.128 167.523V172.388"
    stroke="#F08228"
    strokeLinecap="8"
    stroke-miterlimit="10"
    strokeLinecap="round"
  />
<path
    d="M149.364 167.523V172.388"
    stroke="#F08228"
    strokeLinecap="8"
    stroke-miterlimit="10"
    strokeLinecap="round"
  />
<path
    d="M150.601 167.523V172.388"
    stroke="#F08228"
    strokeLinecap="8"
    stroke-miterlimit="10"
    strokeLinecap="round"
  />
<path
    opacity="0.08"
    d="M151.865 167.909V168.241C151.865 169.154 151.309 169.902 150.629 169.902H118.174C117.494 169.902 116.938 169.154 116.938 168.241V167.909C116.938 166.996 117.494 166.248 118.174 166.248H150.629C151.308 166.248 151.865 166.996 151.865 167.909Z"
    fill="#231F20"
  />
<path
    d="M160.648 160.711V164.697C160.648 165.61 160.092 166.358 159.412 166.358H126.957C126.277 166.358 125.721 165.61 125.721 164.697V160.711C125.721 159.798 126.277 159.05 126.957 159.05H159.412C160.091 159.05 160.648 159.798 160.648 160.711Z"
    fill="#FBC79D"
  />
<path
    d="M127.244 160.325V165.19"
    stroke="#F08228"
    strokeLinecap="8"
    stroke-miterlimit="10"
    strokeLinecap="round"
  />
<path
    d="M128.48 160.325V165.19"
    stroke="#F08228"
    strokeLinecap="8"
    stroke-miterlimit="10"
    strokeLinecap="round"
  />
<path
    d="M129.717 160.325V165.19"
    stroke="#F08228"
    strokeLinecap="8"
    stroke-miterlimit="10"
    strokeLinecap="round"
  />
<path
    d="M130.953 160.325V165.19"
    stroke="#F08228"
    strokeLinecap="8"
    stroke-miterlimit="10"
    strokeLinecap="round"
  />
<path
    d="M132.188 160.325V165.19"
    stroke="#F08228"
    strokeLinecap="8"
    stroke-miterlimit="10"
    strokeLinecap="round"
  />
<path
    d="M133.425 160.325V165.19"
    stroke="#F08228"
    strokeLinecap="8"
    stroke-miterlimit="10"
    strokeLinecap="round"
  />
<path
    d="M134.661 160.325V165.19"
    stroke="#F08228"
    strokeLinecap="8"
    stroke-miterlimit="10"
    strokeLinecap="round"
  />
<path
    d="M135.897 160.325V165.19"
    stroke="#F08228"
    strokeLinecap="8"
    stroke-miterlimit="10"
    strokeLinecap="round"
  />
<path
    d="M137.133 160.325V165.19"
    stroke="#F08228"
    strokeLinecap="8"
    stroke-miterlimit="10"
    strokeLinecap="round"
  />
<path
    d="M138.369 160.325V165.19"
    stroke="#F08228"
    strokeLinecap="8"
    stroke-miterlimit="10"
    strokeLinecap="round"
  />
<path
    d="M139.605 160.325V165.19"
    stroke="#F08228"
    strokeLinecap="8"
    stroke-miterlimit="10"
    strokeLinecap="round"
  />
<path
    d="M140.842 160.325V165.19"
    stroke="#F08228"
    strokeLinecap="8"
    stroke-miterlimit="10"
    strokeLinecap="round"
  />
<path
    d="M142.078 160.325V165.19"
    stroke="#F08228"
    strokeLinecap="8"
    stroke-miterlimit="10"
    strokeLinecap="round"
  />
<path
    d="M143.313 160.325V165.19"
    stroke="#F08228"
    strokeLinecap="8"
    stroke-miterlimit="10"
    strokeLinecap="round"
  />
<path
    d="M144.55 160.325V165.19"
    stroke="#F08228"
    strokeLinecap="8"
    stroke-miterlimit="10"
    strokeLinecap="round"
  />
<path
    d="M145.786 160.325V165.19"
    stroke="#F08228"
    strokeLinecap="8"
    stroke-miterlimit="10"
    strokeLinecap="round"
  />
<path
    d="M147.022 160.325V165.19"
    stroke="#F08228"
    strokeLinecap="8"
    stroke-miterlimit="10"
    strokeLinecap="round"
  />
<path
    d="M148.258 160.325V165.19"
    stroke="#F08228"
    strokeLinecap="8"
    stroke-miterlimit="10"
    strokeLinecap="round"
  />
<path
    d="M149.495 160.325V165.19"
    stroke="#F08228"
    strokeLinecap="8"
    stroke-miterlimit="10"
    strokeLinecap="round"
  />
<path
    d="M150.73 160.325V165.19"
    stroke="#F08228"
    strokeLinecap="8"
    stroke-miterlimit="10"
    strokeLinecap="round"
  />
<path
    d="M151.967 160.325V165.19"
    stroke="#F08228"
    strokeLinecap="8"
    stroke-miterlimit="10"
    strokeLinecap="round"
  />
<path
    d="M153.203 160.325V165.19"
    stroke="#F08228"
    strokeLinecap="8"
    stroke-miterlimit="10"
    strokeLinecap="round"
  />
<path
    d="M154.438 160.325V165.19"
    stroke="#F08228"
    strokeLinecap="8"
    stroke-miterlimit="10"
    strokeLinecap="round"
  />
<path
    d="M155.675 160.325V165.19"
    stroke="#F08228"
    strokeLinecap="8"
    stroke-miterlimit="10"
    strokeLinecap="round"
  />
<path
    d="M156.911 160.325V165.19"
    stroke="#F08228"
    strokeLinecap="8"
    stroke-miterlimit="10"
    strokeLinecap="round"
  />
<path
    d="M158.147 160.325V165.19"
    stroke="#F08228"
    strokeLinecap="8"
    stroke-miterlimit="10"
    strokeLinecap="round"
  />
<path
    d="M159.383 160.325V165.19"
    stroke="#F08228"
    strokeLinecap="8"
    stroke-miterlimit="10"
    strokeLinecap="round"
  />
<path
    opacity="0.08"
    d="M160.648 160.711V161.043C160.648 161.957 160.092 162.704 159.412 162.704H126.957C126.277 162.704 125.721 161.957 125.721 161.043V160.711C125.721 159.798 126.277 159.05 126.957 159.05H159.412C160.091 159.05 160.648 159.798 160.648 160.711Z"
    fill="#231F20"
  />
<path
    d="M136.549 38.9729H76.3711C74.7034 38.9729 73.3516 40.3248 73.3516 41.9924V164.072C73.3516 165.74 74.7034 167.091 76.3711 167.091H136.549C138.217 167.091 139.569 165.74 139.569 164.072V41.9924C139.569 40.3248 138.217 38.9729 136.549 38.9729Z"
    fill="#21242D"
  />
<path
    d="M80.1943 38.9729H140.372C142.039 38.9729 143.392 40.3259 143.392 41.9924V164.072C143.392 165.739 142.039 167.092 140.372 167.092H80.1943C78.5278 167.092 77.1748 165.739 77.1748 164.072V41.9924C77.1748 40.3259 78.5278 38.9729 80.1943 38.9729Z"
    fill="#414658"
  />
<path
    d="M81.8566 40.9834H138.709C140.184 40.9834 141.381 42.1804 141.381 43.6549V162.409C141.381 163.884 140.184 165.081 138.709 165.081H81.8566C80.3821 165.081 79.1851 163.884 79.1851 162.409V43.6549C79.1851 42.1804 80.3821 40.9834 81.8566 40.9834Z"
    fill="#F9FAFD"
  />
<path
    d="M99.2936 42.9829H119.902C120.907 42.9829 121.721 43.7974 121.721 44.8024C121.721 45.8074 120.907 46.6219 119.902 46.6219H99.2936C98.2886 46.6219 97.4741 45.8074 97.4741 44.8024C97.4741 43.7974 98.2886 42.9829 99.2936 42.9829Z"
    fill="#414658"
  />
<path
    d="M132.588 68.0969H87.9787C85.4669 68.0969 83.4307 70.1331 83.4307 72.6449V78.2079C83.4307 80.7197 85.4669 82.7559 87.9787 82.7559H132.588C135.099 82.7559 137.136 80.7197 137.136 78.2079V72.6449C137.136 70.1331 135.099 68.0969 132.588 68.0969Z"
    fill="#E6BDC8"
  />
<path
    d="M94.6008 79.0614C92.9953 78.9134 91.7888 78.0709 91.7203 76.5339H94.0998C94.1338 76.9439 94.3163 77.1829 94.6008 77.2969V75.8394C93.3598 75.4979 91.6978 75.1334 91.6978 73.2664C91.6978 71.7979 92.9958 70.9439 94.6008 70.8639V69.9419H95.3183V70.8639C96.9808 70.9889 98.0508 71.8319 98.1533 73.3459H95.7508C95.7168 72.9704 95.5458 72.7539 95.3183 72.6514V74.0974C96.5593 74.4729 98.2783 74.8259 98.2783 76.6589C98.2783 77.9454 97.2308 79.0154 95.3183 79.0839V79.9949H94.6008V79.0614ZM94.6008 73.8354V72.5829C94.2708 72.6399 94.0773 72.8334 94.0773 73.1634C94.0773 73.4709 94.2823 73.6759 94.6008 73.8349V73.8354ZM95.3183 76.0669V77.3534C95.6828 77.2849 95.9103 77.0574 95.9103 76.7159C95.9103 76.4084 95.6713 76.2149 95.3183 76.0669ZM100.179 72.7769H99.0068V70.6819H102.513V79.0044H100.179V72.7764V72.7769ZM104.198 76.8529H106.441L104.973 80.7809H103.504L104.198 76.8529ZM113.341 70.6819V72.6514H109.925V73.9154C110.21 73.6194 110.734 73.4144 111.348 73.4144C113.067 73.4144 113.796 74.7349 113.796 76.1239C113.796 77.9114 112.737 79.0044 110.916 79.0044C108.98 79.0044 107.864 77.9344 107.853 76.4429H110.028C110.062 76.7504 110.278 77.0919 110.825 77.0919C111.371 77.0919 111.633 76.6709 111.633 76.0899C111.633 75.5089 111.326 75.1789 110.791 75.1789C110.358 75.1789 110.119 75.4294 110.073 75.7139H107.899V70.6814H113.341V70.6819ZM118.043 70.5109C120.434 70.5109 121.356 72.2644 121.356 74.7234C121.356 77.1824 120.434 78.9589 118.043 78.9589C115.652 78.9589 114.741 77.2169 114.741 74.7234C114.741 72.2299 115.652 70.5109 118.043 70.5109ZM118.043 72.6174C117.052 72.6174 116.938 73.5739 116.938 74.7234C116.938 75.8729 117.052 76.8524 118.043 76.8524C119.033 76.8524 119.147 75.9074 119.147 74.7234C119.147 73.5394 119.033 72.6174 118.043 72.6174ZM125.522 70.5109C127.913 70.5109 128.835 72.2644 128.835 74.7234C128.835 77.1824 127.913 78.9589 125.522 78.9589C123.131 78.9589 122.22 77.2169 122.22 74.7234C122.22 72.2299 123.131 70.5109 125.522 70.5109ZM125.522 72.6174C124.532 72.6174 124.418 73.5739 124.418 74.7234C124.418 75.8729 124.532 76.8524 125.522 76.8524C126.513 76.8524 126.627 75.9074 126.627 74.7234C126.627 73.5394 126.513 72.6174 125.522 72.6174Z"
    fill="#F9FAFD"
  />
<path
    d="M97.8972 100.7C100.847 97.7504 100.847 92.9684 97.8972 90.0189C94.9478 87.0695 90.1658 87.0695 87.2164 90.0189C84.267 92.9684 84.267 97.7504 87.2164 100.7C90.1658 103.649 94.9478 103.649 97.8972 100.7Z"
    fill="#E6BDC8"
  />
<path
    d="M109.466 102.912C113.637 102.912 117.019 99.5305 117.019 95.3594C117.019 91.1883 113.637 87.8069 109.466 87.8069C105.295 87.8069 101.914 91.1883 101.914 95.3594C101.914 99.5305 105.295 102.912 109.466 102.912Z"
    fill="#E6BDC8"
  />
<path
    d="M127.286 102.912C131.457 102.912 134.838 99.5305 134.838 95.3594C134.838 91.1883 131.457 87.8069 127.286 87.8069C123.115 87.8069 119.733 91.1883 119.733 95.3594C119.733 99.5305 123.115 102.912 127.286 102.912Z"
    fill="#E6BDC8"
  />
<path
    d="M132.588 108.827H87.9787C85.4669 108.827 83.4307 110.863 83.4307 113.375V118.938C83.4307 121.45 85.4669 123.486 87.9787 123.486H132.588C135.099 123.486 137.136 121.45 137.136 118.938V113.375C137.136 110.863 135.099 108.827 132.588 108.827Z"
    fill="#E6BDC8"
  />
<path
    d="M98.7999 112.392H132.139C132.636 112.392 133.039 112.795 133.039 113.292C133.039 113.789 132.636 114.192 132.139 114.192H98.7999C98.3029 114.192 97.8999 113.789 97.8999 113.292C97.8999 112.795 98.3029 112.392 98.7999 112.392Z"
    fill="#F9FAFD"
  />
<path
    d="M132.417 116.156H98.5219C98.1784 116.156 97.8999 116.435 97.8999 116.779V116.779C97.8999 117.123 98.1784 117.401 98.5219 117.401H132.417C132.76 117.401 133.039 117.123 133.039 116.779V116.779C133.039 116.435 132.76 116.156 132.417 116.156Z"
    fill="#F9FAFD"
  />
<path
    d="M132.417 119.027H98.5219C98.1784 119.027 97.8999 119.306 97.8999 119.649V119.65C97.8999 119.993 98.1784 120.272 98.5219 120.272H132.417C132.76 120.272 133.039 119.993 133.039 119.65V119.649C133.039 119.306 132.76 119.027 132.417 119.027Z"
    fill="#F9FAFD"
  />
<path
    d="M132.588 127.951H87.9787C85.4669 127.951 83.4307 129.987 83.4307 132.499V138.062C83.4307 140.574 85.4669 142.61 87.9787 142.61H132.588C135.099 142.61 137.136 140.574 137.136 138.062V132.499C137.136 129.987 135.099 127.951 132.588 127.951Z"
    fill="#E6BDC8"
  />
<path
    d="M98.7999 131.516H132.139C132.636 131.516 133.039 131.919 133.039 132.416C133.039 132.913 132.636 133.316 132.139 133.316H98.7999C98.3029 133.316 97.8999 132.913 97.8999 132.416C97.8999 131.919 98.3029 131.516 98.7999 131.516Z"
    fill="#F9FAFD"
  />
<path
    d="M132.417 135.281H98.5219C98.1784 135.281 97.8999 135.559 97.8999 135.903V135.903C97.8999 136.247 98.1784 136.525 98.5219 136.525H132.417C132.76 136.525 133.039 136.247 133.039 135.903V135.903C133.039 135.559 132.76 135.281 132.417 135.281Z"
    fill="#F9FAFD"
  />
<path
    d="M132.417 138.151H98.5219C98.1784 138.151 97.8999 138.43 97.8999 138.773V138.774C97.8999 139.117 98.1784 139.396 98.5219 139.396H132.417C132.76 139.396 133.039 139.117 133.039 138.774V138.773C133.039 138.43 132.76 138.151 132.417 138.151Z"
    fill="#F9FAFD"
  />
<path
    d="M132.588 147.074H87.9787C85.4669 147.074 83.4307 149.111 83.4307 151.622V157.185C83.4307 159.697 85.4669 161.733 87.9787 161.733H132.588C135.099 161.733 137.136 159.697 137.136 157.185V151.622C137.136 149.111 135.099 147.074 132.588 147.074Z"
    fill="#E6BDC8"
  />
<path
    d="M98.7999 150.64H132.139C132.636 150.64 133.039 151.043 133.039 151.54C133.039 152.037 132.636 152.44 132.139 152.44H98.7999C98.3029 152.44 97.8999 152.037 97.8999 151.54C97.8999 151.043 98.3029 150.64 98.7999 150.64Z"
    fill="#F9FAFD"
  />
<path
    d="M132.417 154.405H98.5219C98.1784 154.405 97.8999 154.683 97.8999 155.027V155.027C97.8999 155.371 98.1784 155.649 98.5219 155.649H132.417C132.76 155.649 133.039 155.371 133.039 155.027V155.027C133.039 154.683 132.76 154.405 132.417 154.405Z"
    fill="#F9FAFD"
  />
<path
    d="M132.417 157.275H98.5219C98.1784 157.275 97.8999 157.553 97.8999 157.897V157.897C97.8999 158.241 98.1784 158.519 98.5219 158.519H132.417C132.76 158.519 133.039 158.241 133.039 157.897V157.897C133.039 157.553 132.76 157.275 132.417 157.275Z"
    fill="#F9FAFD"
  />
<path
    d="M53.9662 180.724C54.1057 180.724 54.2437 180.697 54.3727 180.643C54.5012 180.59 54.6187 180.512 54.7172 180.413C54.8157 180.315 54.8942 180.198 54.9472 180.069C55.0007 179.94 55.0282 179.802 55.0282 179.662V178.828H40.9492V179.662C40.9492 179.944 41.0612 180.214 41.2602 180.413C41.4592 180.612 41.7297 180.724 42.0112 180.724"
    fill="#E5BDC8"
  />
<path
    d="M47.1482 171.778L46.5687 175.618L41.7402 175.28L42.2202 171.778H47.1482Z"
    fill="url(#paint0_linear_811_33788)"
  />
<path
    d="M40.9682 176.154C40.9177 176.674 40.9327 177.974 40.9492 178.828C40.9537 179.041 41.0412 179.244 41.1937 179.393C41.3462 179.543 41.5507 179.626 41.7642 179.626H54.5442C54.6272 179.626 54.7087 179.601 54.7762 179.553C54.8442 179.505 54.8957 179.437 54.9232 179.359C55.0477 179.001 55.1247 178.379 54.7777 178.032L46.7117 174.674C44.2232 175.802 41.7407 174.845 41.7407 174.845C41.2637 174.898 41.0462 175.35 40.9682 176.154V176.154Z"
    fill="#231F20"
  />
<path
    d="M48.9873 175.552L47.8343 176.577C47.7923 176.614 47.7398 176.638 47.6838 176.645C47.6278 176.652 47.5708 176.643 47.5208 176.617C47.4798 176.596 47.4443 176.566 47.4178 176.528C47.3913 176.491 47.3748 176.447 47.3688 176.401C47.3633 176.356 47.3688 176.309 47.3853 176.266C47.4018 176.223 47.4288 176.185 47.4633 176.155L48.4153 175.329L48.9873 175.552ZM50.2263 176.138L49.0823 177.144C49.0403 177.181 48.9878 177.205 48.9318 177.212C48.8758 177.219 48.8193 177.21 48.7688 177.184C48.7278 177.163 48.6923 177.133 48.6658 177.095C48.6393 177.058 48.6228 177.014 48.6168 176.968C48.6113 176.922 48.6168 176.876 48.6333 176.833C48.6498 176.79 48.6768 176.752 48.7113 176.722L49.6618 175.903L50.2258 176.138H50.2263ZM51.6028 176.711L50.4793 177.71C50.4373 177.748 50.3848 177.772 50.3288 177.779C50.2728 177.786 50.2158 177.776 50.1658 177.751C50.1248 177.73 50.0893 177.699 50.0628 177.662C50.0363 177.624 50.0198 177.581 50.0138 177.535C50.0083 177.489 50.0138 177.443 50.0303 177.4C50.0468 177.357 50.0738 177.319 50.1083 177.288L51.0528 176.483L51.6023 176.711H51.6028Z"
    fill="#F9FAFD"
  />
<path
    d="M57.189 179.662C57.189 179.944 57.301 180.214 57.5 180.413C57.699 180.612 57.9695 180.724 58.251 180.724H70.206C70.3455 180.724 70.4835 180.697 70.6125 180.643C70.741 180.59 70.8585 180.512 70.957 180.413C71.0555 180.315 71.134 180.198 71.187 180.069C71.2405 179.94 71.268 179.802 71.268 179.662V178.828H57.189V179.662Z"
    fill="#E5BDC8"
  />
<path
    d="M63.3885 171.778L62.809 175.618L57.9805 175.28L58.4605 171.778H63.3885Z"
    fill="url(#paint1_linear_811_33788)"
  />
<path
    d="M57.208 176.154C57.1575 176.674 57.1725 177.974 57.189 178.828C57.1935 179.041 57.281 179.244 57.4335 179.393C57.586 179.543 57.7905 179.626 58.004 179.626H70.784C70.867 179.626 70.9485 179.601 71.016 179.553C71.084 179.505 71.1355 179.437 71.163 179.359C71.2875 179.001 71.3645 178.379 71.0175 178.032L62.9515 174.674C60.463 175.802 57.9805 174.845 57.9805 174.845C57.5035 174.898 57.286 175.35 57.208 176.154V176.154Z"
    fill="#231F20"
  />
<path
    d="M65.227 175.552L64.074 176.577C64.032 176.614 63.9795 176.638 63.9235 176.645C63.8675 176.652 63.8105 176.643 63.7605 176.617C63.7195 176.596 63.684 176.566 63.6575 176.528C63.631 176.491 63.6145 176.447 63.6085 176.401C63.603 176.356 63.6085 176.309 63.625 176.266C63.6415 176.223 63.6685 176.185 63.703 176.155L64.655 175.329L65.227 175.552ZM66.466 176.138L65.322 177.144C65.28 177.181 65.2275 177.205 65.1715 177.212C65.1155 177.219 65.059 177.21 65.0085 177.184C64.9675 177.163 64.932 177.133 64.9055 177.095C64.879 177.058 64.8625 177.014 64.8565 176.968C64.851 176.922 64.8565 176.876 64.873 176.833C64.8895 176.79 64.9165 176.752 64.951 176.722L65.9015 175.903L66.4655 176.138H66.466ZM67.843 176.711L66.7195 177.71C66.6775 177.748 66.625 177.772 66.569 177.779C66.513 177.786 66.456 177.776 66.406 177.751C66.365 177.73 66.3295 177.699 66.303 177.662C66.2765 177.624 66.26 177.581 66.254 177.535C66.2485 177.489 66.254 177.443 66.2705 177.4C66.287 177.357 66.314 177.319 66.3485 177.288L67.293 176.483L67.8425 176.711H67.843Z"
    fill="#F9FAFD"
  />
<path
    d="M70.7315 95.9815C69.906 97.8465 67.71 98.674 65.822 97.8415C63.9395 97.012 63.0805 94.8315 63.9065 92.97C64.731 91.113 66.928 90.2835 68.8135 91.113C70.7005 91.944 71.555 94.126 70.732 95.9815H70.7315Z"
    fill="url(#paint2_linear_811_33788)"
  />
<path
    d="M68.5283 112.398L73.0063 111.694C72.3393 102.559 71.9063 99.102 70.9868 93.874L63.6128 94.8165C63.7383 97.731 65.5763 106.429 68.5283 112.398V112.398Z"
    fill="url(#paint3_linear_811_33788)"
  />
<path
    d="M68.4523 72.9244C67.3968 69.4299 59.6418 70.0489 60.1833 74.3539C60.8243 79.4519 62.8873 92.0879 63.7418 95.2109L71.1113 94.3074C71.1113 94.3074 70.1483 78.5349 68.4523 72.9244Z"
    fill="url(#paint4_linear_811_33788)"
  />
<path
    d="M64.1299 96.2555C65.1244 98.0375 67.3884 98.6595 69.1914 97.6585C70.9874 96.659 71.6439 94.4075 70.6494 92.629C69.6589 90.8565 67.3954 90.231 65.5939 91.231C63.7924 92.233 63.1369 94.483 64.1299 96.255V96.2555Z"
    fill="url(#paint5_linear_811_33788)"
  />
<path
    d="M63.2491 69.3969C66.3036 68.8774 69.3671 71.5099 69.8856 74.5649L72.4756 88.1529C72.6041 88.9009 70.2281 89.9284 67.1731 90.4484C64.1171 90.9684 61.5386 90.7824 61.4101 90.0344L58.8216 76.4469C58.3016 73.3894 60.1931 69.9159 63.2491 69.3969Z"
    fill="#FEC253"
  />
<path
    d="M76.962 117.175C76.1625 117.498 75.598 116.261 75.1115 115.704C74.635 115.161 72.9605 113.764 72.9605 113.764C72.7915 113.384 71.534 110.51 71.999 110.55C73.535 110.686 74.6395 111.926 74.899 112.245C75.817 113.38 76.24 114.304 76.656 115.01C77.0545 115.684 77.951 116.775 76.962 117.175V117.175Z"
    fill="url(#paint6_linear_811_33788)"
  />
<path
    d="M73.008 116.2L74.791 120.85C74.95 121.276 75.3655 121.517 75.796 121.357C76.222 121.199 76.3015 120.729 76.1425 120.304L74.2815 114.351C74.1225 113.923 72.851 115.776 73.008 116.2Z"
    fill="url(#paint7_linear_811_33788)"
  />
<path
    d="M69.3883 115.117C68.9338 115.113 68.2233 114.881 68.2178 115.337L68.4818 120.732C68.4773 121.187 68.8543 121.741 69.3103 121.745C69.7663 121.748 70.0468 121.396 70.0523 120.944L70.0593 115.952C70.0653 115.498 69.8428 115.125 69.3878 115.118L69.3883 115.117Z"
    fill="url(#paint8_linear_811_33788)"
  />
<path
    d="M71.9885 115.477C71.499 115.614 71.2205 116.134 71.362 116.639L73.0195 122.142C73.161 122.646 73.561 122.968 74.046 122.832C74.534 122.693 74.6595 122.165 74.5195 121.658L73.125 116.145C72.985 115.639 72.4755 115.341 71.989 115.477H71.9885Z"
    fill="url(#paint9_linear_811_33788)"
  />
<path
    d="M70.8453 115.136C70.3473 115.208 69.7223 115.471 69.7943 115.989L71.0113 121.775C71.0848 122.295 71.4213 122.77 71.9253 122.696C72.4248 122.626 72.5878 122.143 72.5158 121.625L71.8878 115.948C71.8128 115.429 71.3478 115.067 70.8453 115.136Z"
    fill="url(#paint10_linear_811_33788)"
  />
<path
    d="M74.557 115.628C74.007 114.105 74.372 110.63 71.9785 110.467C69.5835 110.304 67.053 111.686 68.199 115.933C69.0825 118.97 74.5565 115.628 74.5565 115.628H74.557Z"
    fill="url(#paint11_linear_811_33788)"
  />
<path
    d="M65.0056 142.533L65.4486 112.981L53.3701 113.031L55.2856 142.536L65.0056 142.533Z"
    fill="#232533"
  />
<path
    d="M65.0056 142.534C65.0071 145.217 62.8316 147.394 60.1476 147.394C57.4641 147.396 55.2871 145.22 55.2856 142.536C55.2841 139.853 57.4611 137.677 60.1446 137.676C62.8271 137.676 65.0051 139.85 65.0051 142.534H65.0056Z"
    fill="#84292B"
  />
<path
    d="M55.3002 142.891C54.2302 156.183 56.7162 173.082 56.7162 173.082H64.9057L64.9922 142.18L55.2997 142.891H55.3002Z"
    fill="#232533"
  />
<path
    d="M64.9926 142.18C65.1891 144.857 63.1796 147.187 60.5016 147.383C57.8251 147.58 55.4951 145.569 55.3001 142.892C55.1021 140.216 57.1146 137.886 59.7896 137.689C62.4661 137.493 64.7961 139.504 64.9926 142.18Z"
    fill="#232533"
  />
<path
    d="M63.8985 102.286C65.67 104.26 65.426 114.429 65.426 114.429L54.0775 117.495L42.345 114.286C42.345 114.286 41.9265 103.467 44.291 101.647C47.8955 98.871 60.8145 98.847 63.8985 102.286Z"
    fill="#393B50"
  />
<path
    d="M63.1769 83.6545C63.2029 83.6545 63.2029 83.697 63.1769 83.697C63.1494 83.697 63.1494 83.6545 63.1769 83.6545Z"
    fill="#020202"
  />
<path
    d="M65.3466 104.957C65.3536 107.492 61.7836 109.317 56.3516 109.383C50.3041 109.457 42.3456 107.504 42.4986 104.66C42.6561 101.721 43.3416 99.5269 43.3836 97.7599C43.5266 91.7749 41.1646 73.0314 41.1646 73.0314C41.1646 69.8129 43.9436 67.4404 53.9696 67.4404C64.5701 67.4404 65.5776 70.7199 65.5776 73.9379C65.5776 73.9379 65.2226 86.0649 65.2656 94.5019C65.2831 97.9429 65.3406 103.051 65.3466 104.957V104.957Z"
    fill="#FEC253"
  />
<path
    d="M54.5016 113.027L42.3161 112.981L41.2906 142.012C38.8886 155.089 40.9706 173.028 40.9706 173.028H49.5341L51.0341 142.978L50.9531 142.973L54.5016 113.027Z"
    fill="url(#paint12_linear_811_33788)"
  />
<path
    d="M41.2009 92.5709C42.3429 94.2589 41.8794 96.5608 40.1714 97.7188C38.4694 98.8738 36.1649 98.4438 35.0249 96.7563C33.8894 95.0718 34.3524 92.7678 36.0559 91.6118C37.7629 90.4538 40.0654 90.8864 41.2009 92.5709Z"
    fill="url(#paint13_linear_811_33788)"
  />
<path
    d="M53.9421 103.151L55.7261 98.9829C47.6286 94.6994 45.5681 94.2214 39.5496 91.2349L36.4346 97.9839C38.9716 99.4254 47.3181 102.485 53.9421 103.15V103.151Z"
    fill="url(#paint14_linear_811_33788)"
  />
<path
    d="M38.5411 72.5013C39.7696 69.0633 47.5131 70.1758 46.7061 74.4388C45.7521 79.4883 42.9096 91.9708 41.8641 95.0373L34.5651 93.6788C34.5276 91.0353 36.0896 79.3593 38.5406 72.5013H38.5411Z"
    fill="url(#paint15_linear_811_33788)"
  />
<path
    d="M41.4111 96.0548C40.3096 97.7708 38.0126 98.2518 36.2746 97.1423C34.5436 96.0333 34.0266 93.7453 35.1281 92.0318C36.2266 90.3243 38.5251 89.8398 40.2616 90.9498C41.9981 92.0603 42.5121 94.3473 41.4106 96.0548H41.4111Z"
    fill="url(#paint16_linear_811_33788)"
  />
<path
    d="M43.9519 69.3024C40.9349 68.5954 37.7154 71.0324 37.0094 74.0494L33.5834 87.4514C33.4104 88.1904 35.7159 89.3634 38.7344 90.0704C41.7514 90.7779 44.3384 90.7524 44.5104 90.0139L47.9359 76.6124C48.6433 73.5939 46.9699 70.0094 43.9514 69.3024H43.9519Z"
    fill="#FEC253"
  />
<path
    d="M62.7108 99.4765C62.4488 100.298 61.1363 99.9445 60.3993 99.966C59.6748 99.9865 57.5338 100.387 57.5338 100.387C57.1303 100.274 54.1153 99.4115 54.4428 99.08C55.5253 97.9835 57.1848 97.9215 57.5968 97.9265C59.0568 97.9395 60.0383 98.204 60.8458 98.3325C61.6193 98.4535 63.0328 98.46 62.7113 99.477L62.7108 99.4765Z"
    fill="url(#paint17_linear_811_33788)"
  />
<path
    d="M59.496 101.703L64.318 102.925C64.754 103.04 65.18 102.86 65.2775 102.451C65.3775 102.044 65.0285 101.723 64.5895 101.609L58.646 99.727C58.2075 99.6115 59.058 101.585 59.496 101.702V101.703Z"
    fill="url(#paint18_linear_811_33788)"
  />
<path
    d="M56.8666 103.992C56.6596 104.359 56.1361 104.829 56.5376 105.037L61.4511 107.247C61.8556 107.455 62.5156 107.399 62.7236 107.033C62.9301 106.667 62.7431 106.28 62.3426 106.073L57.9086 103.825C57.5061 103.616 57.0761 103.625 56.8661 103.992H56.8666Z"
    fill="url(#paint19_linear_811_33788)"
  />
<path
    d="M58.3752 101.819C58.2242 102.261 58.5062 102.756 59.0012 102.929L64.4617 104.716C64.9557 104.888 65.4382 104.765 65.5877 104.324C65.7362 103.882 65.3647 103.496 64.8692 103.324L59.5412 101.334C59.0432 101.16 58.5227 101.379 58.3747 101.819H58.3752Z"
    fill="url(#paint20_linear_811_33788)"
  />
<path
    d="M57.4593 102.879C57.2793 103.306 57.2003 103.928 57.6858 104.127L63.2818 106.033C63.7673 106.232 64.3413 106.201 64.5238 105.77C64.7068 105.343 64.3688 104.976 63.8858 104.778L58.6693 102.463C58.1853 102.264 57.6438 102.451 57.4588 102.879H57.4593V102.879Z"
    fill="url(#paint21_linear_811_33788)"
  />
<path
    d="M59.8557 100.224C58.2967 99.7994 55.6087 97.6104 54.1842 99.3179C52.7582 101.026 52.5397 103.687 56.6842 105.166C59.6787 106.175 59.8557 100.224 59.8557 100.224Z"
    fill="url(#paint22_linear_811_33788)"
  />
<path
    d="M56.9754 69.0465C56.4779 70.4815 54.9429 70.773 53.5974 70.716C52.1124 70.6535 50.1594 70.249 49.6809 68.606C49.3519 67.473 49.6544 66.1935 49.6959 65.0375C49.7244 64.2695 49.7239 63.4995 49.6854 62.732C49.6624 62.2605 49.6259 61.7895 49.5729 61.32C49.5299 60.941 49.4794 60.5625 49.4214 60.185C49.3819 59.931 49.3394 59.678 49.2924 59.426C49.2604 59.2495 49.0644 58.7715 49.2714 58.6565C49.4629 58.5505 49.8379 58.8945 49.9919 58.994C52.2549 60.449 54.6254 61.738 57.0774 62.846C57.1739 62.889 57.2744 62.937 57.3299 63.027C57.3819 63.1125 57.3809 63.219 57.3779 63.32C57.3539 64.127 57.3284 64.9345 57.3044 65.7415C57.2959 66.055 57.2944 66.37 57.2889 66.684C57.2789 67.4825 57.2419 68.2795 56.9764 69.046H56.9754V69.0465Z"
    fill="url(#paint23_linear_811_33788)"
  />
<path
    d="M57.2884 66.684C55.1499 66.0225 53.1044 65.0725 51.2489 63.829C50.7329 63.484 50.2014 63.119 49.6854 62.7315C49.6624 62.26 49.6259 61.789 49.5729 61.3195C49.5299 60.9405 49.4794 60.562 49.4214 60.1845C49.3819 59.9305 49.3394 59.6775 49.2924 59.4255C49.2604 59.249 49.0644 58.771 49.2714 58.656C49.4629 58.55 49.8379 58.894 49.9919 58.9935C52.2549 60.4485 54.6254 61.7375 57.0774 62.8455C57.1739 62.8885 57.2744 62.9365 57.3299 63.0265C57.3819 63.112 57.3809 63.2185 57.3779 63.3195C57.3539 64.1265 57.3284 64.934 57.3044 65.741C57.2959 66.0545 57.2944 66.3695 57.2889 66.6835H57.2884V66.684Z"
    fill="url(#paint24_linear_811_33788)"
  />
<path
    d="M59.1027 57.7254C59.4122 58.8114 60.5437 59.4414 61.6297 59.1319C62.7162 58.8224 63.3457 57.6909 63.0362 56.6049C62.7267 55.5184 61.5952 54.8889 60.5092 55.1984C59.4232 55.5079 58.7932 56.6394 59.1027 57.7254Z"
    fill="#895250"
  />
<path
    d="M61.1904 50.7259C61.1904 50.7259 62.6669 57.5839 61.7284 60.2949C60.7899 63.0059 58.5719 64.6879 55.0339 63.9364C55.0339 63.9364 50.9259 63.6654 49.9944 57.5459C48.5924 48.3329 56.9909 45.7639 61.1904 50.7259Z"
    fill="url(#paint25_linear_811_33788)"
  />
<path
    d="M48.1605 58.0018C48.417 58.9023 49.3555 59.4248 50.256 59.1683C51.1565 58.9118 51.679 57.9733 51.4225 57.0728C51.166 56.1723 50.2275 55.6498 49.327 55.9063C48.4265 56.1628 47.904 57.1013 48.1605 58.0018Z"
    fill="url(#paint26_linear_811_33788)"
  />
<path
    d="M49.0347 57.0293C49.0347 57.0293 50.2837 56.6928 50.5917 58.0668"
    stroke="#3F260B"
    strokeLinecap="0.2"
    strokeLinecap="round"
    strokeLinejoin="round"
  />
<path
    d="M59.5969 55.5384C59.6719 55.8439 59.9799 56.0304 60.2854 55.9559C60.5909 55.8809 60.7774 55.5729 60.7029 55.2674C60.6279 54.9619 60.3199 54.7754 60.0149 54.8499C59.7094 54.9249 59.5229 55.2329 59.5974 55.5384H59.5969ZM54.7859 55.5544C54.8609 55.8599 55.1689 56.0464 55.4744 55.9719C55.7799 55.8969 55.9664 55.5889 55.8919 55.2834C55.8169 54.9779 55.5089 54.7914 55.2034 54.8659C54.8979 54.9409 54.7114 55.2489 54.7859 55.5544Z"
    fill="#141414"
  />
<path
    d="M58.356 56.0723L59.367 57.5543L58.468 58.0903"
    stroke="#3F260B"
    strokeLinecap="0.2"
    strokeLinecap="round"
    strokeLinejoin="round"
  />
<path
    d="M59.8314 51.9784C59.9589 51.9139 60.0334 51.9774 60.6404 52.0459C60.8779 52.0729 60.9409 52.0739 60.9784 52.0799C61.1654 52.1119 61.5739 52.4209 61.8524 55.1159C62.2429 54.4889 62.7649 53.4894 63.0484 52.1719C63.2319 51.3194 63.6639 49.1619 62.5954 46.8554C61.4174 44.3129 59.1859 43.2514 58.5754 42.9719C55.9669 41.7789 52.1954 41.7044 50.3194 43.4304C49.7614 43.9439 48.6369 45.2919 46.4594 46.7594C46.4234 46.7839 46.4294 46.7794 46.4179 46.7874C44.4679 48.1209 44.4649 51.1559 44.4629 52.9214C44.4619 54.0014 44.4584 57.6569 46.4339 59.8009C46.5854 59.9654 46.8554 60.2249 47.3949 60.7449C49.7389 63.0014 50.0564 62.9854 50.2149 62.9344C50.8289 62.7369 51.2064 61.3219 50.8589 60.4274C50.6979 60.0134 50.5369 59.5994 50.3759 59.1854C49.9174 59.2884 49.2894 59.3514 48.9789 58.9874C48.9694 58.9764 48.9609 58.9644 48.9459 58.9449C48.7249 58.6584 47.7859 57.3654 48.3719 56.4929C48.7004 56.0044 49.4479 55.7369 49.9894 55.9534C50.5914 56.1939 50.7484 56.9539 51.0004 57.9084C50.9104 58.4974 50.7594 60.0254 51.6169 61.5309C52.7854 63.5819 55.4134 64.8664 57.9339 64.1604C59.8779 63.6159 61.3774 61.9934 61.8589 59.9594C61.3549 59.6834 60.4874 59.2779 59.3584 59.1219C56.8629 58.7779 55.3679 59.9689 53.8859 59.1314C52.8979 58.5729 52.2809 57.7064 52.2809 57.7064C52.1764 57.5599 52.0944 57.4259 51.9519 57.1919C51.7244 56.8184 51.4234 56.2809 51.1349 55.6169C50.7289 54.6824 50.7419 54.4039 50.8654 54.2689C51.2094 53.8919 52.3609 54.6854 52.7529 54.2689C52.9844 54.0224 52.6619 53.6599 52.8879 53.1229C53.1459 52.5099 53.8634 52.2784 53.9664 52.2464C54.8319 51.9799 55.1279 52.6079 56.0559 52.4484C57.0034 52.2859 57.1234 51.5574 57.8084 51.6394C58.5644 51.7299 58.9509 52.6804 59.3589 52.5159C59.5774 52.4279 59.5244 52.1324 59.8309 51.9764V51.9784H59.8314Z"
    fill="#232533"
  />
<path
    d="M58.9663 60.582L56.3408 60.7715C56.3408 60.7715 56.3798 61.584 57.7188 61.496C59.0578 61.408 58.9668 60.582 58.9668 60.582H58.9663Z"
    fill="#F9FAFD"
  />
<path
    d="M67.9877 93.0854L66.8852 104.637L66.8432 105.102C66.8432 106.124 66.0147 106.952 64.9922 106.952L60.0502 107.393C59.0282 107.393 58.1997 106.564 58.1997 105.542L58.6842 100.185L58.8817 98.0049L59.3442 93.5259C59.3442 92.6784 59.9142 91.9639 60.6912 91.7444C60.8517 91.6994 61.0202 91.6754 61.1947 91.6754L66.1372 91.2349C67.1592 91.2349 67.9877 92.0634 67.9877 93.0854Z"
    fill="#393B50"
  />
<path
    d="M58.8818 98.0047L58.6843 100.185C58.0628 100.287 57.5338 100.386 57.5338 100.386C57.1303 100.274 54.1153 99.4107 54.4428 99.0792C55.5253 97.9827 57.1843 97.9207 57.5963 97.9252C58.0718 97.9292 58.4968 97.9602 58.8818 98.0047Z"
    fill="url(#paint27_linear_811_33788)"
  />
<path
    d="M59.496 101.702L64.318 102.925C64.754 103.039 65.18 102.86 65.2775 102.45C65.3775 102.043 65.0285 101.722 64.5895 101.608L58.646 99.7268C58.2075 99.6113 59.058 101.585 59.496 101.702V101.702Z"
    fill="url(#paint28_linear_811_33788)"
  />
<path
    d="M56.8666 103.992C56.6596 104.359 56.1361 104.829 56.5376 105.037L61.4511 107.247C61.8556 107.455 62.5156 107.399 62.7236 107.033C62.9301 106.667 62.7431 106.28 62.3426 106.073L57.9086 103.825C57.5061 103.616 57.0761 103.625 56.8661 103.992H56.8666Z"
    fill="url(#paint29_linear_811_33788)"
  />
<path
    d="M58.3752 101.819C58.2242 102.261 58.5062 102.756 59.0012 102.929L64.4617 104.716C64.9557 104.888 65.4382 104.765 65.5877 104.324C65.7362 103.882 65.3647 103.496 64.8692 103.324L59.5412 101.334C59.0432 101.16 58.5227 101.379 58.3747 101.819H58.3752Z"
    fill="url(#paint30_linear_811_33788)"
  />
<path
    d="M57.4593 102.879C57.2793 103.306 57.2003 103.928 57.6858 104.127L63.2818 106.033C63.7673 106.232 64.3413 106.201 64.5238 105.77C64.7068 105.343 64.3688 104.976 63.8858 104.778L58.6693 102.463C58.1853 102.264 57.6438 102.451 57.4588 102.879H57.4593V102.879Z"
    fill="url(#paint31_linear_811_33788)"
  />
<path
    d="M59.8557 100.224C58.2967 99.7994 55.6087 97.6104 54.1842 99.3179C52.7582 101.026 52.5397 103.687 56.6842 105.166C59.6787 106.175 59.8557 100.224 59.8557 100.224Z"
    fill="url(#paint32_linear_811_33788)"
  />
<path
    d="M147.128 48.8269H102.157C100.113 48.8269 98.457 50.4832 98.457 52.5264V59.8314C98.457 61.8746 100.113 63.5309 102.157 63.5309H147.128C149.171 63.5309 150.828 61.8746 150.828 59.8314V52.5264C150.828 50.4832 149.171 48.8269 147.128 48.8269Z"
    fill="#DB3B65"
  />
<path
    d="M110.176 60.8608H105.681V51.7803H110.034C111.876 51.7803 113.009 52.6303 113.009 54.1373C113.009 55.2323 112.365 55.9533 111.477 56.1983C112.559 56.4428 113.216 57.3573 113.216 58.3878C113.216 59.9203 112.121 60.8608 110.176 60.8608H110.176ZM109.48 53.7898H108.205V55.3868H109.48C110.099 55.3868 110.433 55.1293 110.433 54.6013C110.433 54.0733 110.098 53.7898 109.48 53.7898ZM109.661 57.1773H108.205V58.8258H109.674C110.305 58.8258 110.627 58.5683 110.627 58.0273C110.627 57.4863 110.279 57.1773 109.661 57.1773ZM120.067 59.3793H116.847L116.358 60.8603H113.704L117.014 51.7798H119.925L123.223 60.8603H120.557L120.067 59.3793ZM118.457 54.5108L117.491 57.4473H119.436L118.457 54.5108ZM132.458 51.7803V60.8608H129.933L126.572 55.7863V60.8608H124.047V51.7803H126.572L129.933 56.9193V51.7803H132.458ZM136.425 56.8808V60.8608H133.9V51.7803H136.425V55.6958L139.245 51.7803H142.156L138.82 56.1853L142.324 60.8608H139.271L136.425 56.8808Z"
    fill="#F9FAFD"
  />
<defs>
<linearGradient
      id="paint0_linear_811_33788"
      x1="41.7402"
      y1="173.698"
      x2="47.1482"
      y2="173.698"
      gradientUnits="userSpaceOnUse"
    >
<stop stopColor="#6F4C13" />
<stop offset="1" stopColor="#603913" />
</linearGradient>
<linearGradient
      id="paint1_linear_811_33788"
      x1="57.9805"
      y1="-0.000304028"
      x2="63.3885"
      y2="-0.000304028"
      gradientUnits="userSpaceOnUse"
    >
<stop stopColor="#6F4C13" />
<stop offset="1" stopColor="#603913" />
</linearGradient>
<linearGradient
      id="paint2_linear_811_33788"
      x1="63.5925"
      y1="94.4785"
      x2="71.0455"
      y2="94.4785"
      gradientUnits="userSpaceOnUse"
    >
<stop stopColor="#6F4C13" />
<stop offset="1" stopColor="#603913" />
</linearGradient>
<linearGradient
      id="paint3_linear_811_33788"
      x1="63.6128"
      y1="103.136"
      x2="73.0063"
      y2="103.136"
      gradientUnits="userSpaceOnUse"
    >
<stop stopColor="#6F4C13" />
<stop offset="1" stopColor="#603913" />
</linearGradient>
<linearGradient
      id="paint4_linear_811_33788"
      x1="60.1563"
      y1="82.9374"
      x2="71.1113"
      y2="82.9374"
      gradientUnits="userSpaceOnUse"
    >
<stop stopColor="#6F4C13" />
<stop offset="1" stopColor="#603913" />
</linearGradient>
<linearGradient
      id="paint5_linear_811_33788"
      x1="63.6669"
      y1="94.4455"
      x2="71.1139"
      y2="94.4455"
      gradientUnits="userSpaceOnUse"
    >
<stop stopColor="#6F4C13" />
<stop offset="1" stopColor="#603913" />
</linearGradient>
<linearGradient
      id="paint6_linear_811_33788"
      x1="71.8965"
      y1="113.889"
      x2="77.411"
      y2="113.889"
      gradientUnits="userSpaceOnUse"
    >
<stop stopColor="#6F4C13" />
<stop offset="1" stopColor="#603913" />
</linearGradient>
<linearGradient
      id="paint7_linear_811_33788"
      x1="72.995"
      y1="117.847"
      x2="76.2185"
      y2="117.847"
      gradientUnits="userSpaceOnUse"
    >
<stop stopColor="#6F4C13" />
<stop offset="1" stopColor="#603913" />
</linearGradient>
<linearGradient
      id="paint8_linear_811_33788"
      x1="68.2178"
      y1="118.4"
      x2="70.0598"
      y2="118.4"
      gradientUnits="userSpaceOnUse"
    >
<stop stopColor="#6F4C13" />
<stop offset="1" stopColor="#603913" />
</linearGradient>
<linearGradient
      id="paint9_linear_811_33788"
      x1="71.3255"
      y1="119.154"
      x2="74.5735"
      y2="119.154"
      gradientUnits="userSpaceOnUse"
    >
<stop stopColor="#6F4C13" />
<stop offset="1" stopColor="#603913" />
</linearGradient>
<linearGradient
      id="paint10_linear_811_33788"
      x1="69.7888"
      y1="118.916"
      x2="72.5323"
      y2="118.916"
      gradientUnits="userSpaceOnUse"
    >
<stop stopColor="#6F4C13" />
<stop offset="1" stopColor="#603913" />
</linearGradient>
<linearGradient
      id="paint11_linear_811_33788"
      x1="67.915"
      y1="113.831"
      x2="74.557"
      y2="113.831"
      gradientUnits="userSpaceOnUse"
    >
<stop stopColor="#6F4C13" />
<stop offset="1" stopColor="#603913" />
</linearGradient>
<linearGradient
      id="paint12_linear_811_33788"
      x1="48.3201"
      y1="112.651"
      x2="45.6536"
      y2="168.518"
      gradientUnits="userSpaceOnUse"
    >
<stop stopColor="#393B50" />
<stop offset="0.16" stopColor="#35374A" />
<stop offset="1" stopColor="#232533" />
</linearGradient>
<linearGradient
      id="paint13_linear_811_33788"
      x1="34.4029"
      y1="94.6643"
      x2="41.8274"
      y2="94.6643"
      gradientUnits="userSpaceOnUse"
    >
<stop stopColor="#6F4C13" />
<stop offset="1" stopColor="#603913" />
</linearGradient>
<linearGradient
      id="paint14_linear_811_33788"
      x1="36.4346"
      y1="97.1929"
      x2="55.7261"
      y2="97.1929"
      gradientUnits="userSpaceOnUse"
    >
<stop stopColor="#6F4C13" />
<stop offset="1" stopColor="#603913" />
</linearGradient>
<linearGradient
      id="paint15_linear_811_33788"
      x1="34.5646"
      y1="82.7538"
      x2="46.7651"
      y2="82.7538"
      gradientUnits="userSpaceOnUse"
    >
<stop stopColor="#6F4C13" />
<stop offset="1" stopColor="#603913" />
</linearGradient>
<linearGradient
      id="paint16_linear_811_33788"
      x1="34.5491"
      y1="94.0463"
      x2="41.9906"
      y2="94.0463"
      gradientUnits="userSpaceOnUse"
    >
<stop stopColor="#6F4C13" />
<stop offset="1" stopColor="#603913" />
</linearGradient>
<linearGradient
      id="paint17_linear_811_33788"
      x1="54.4183"
      y1="99.1565"
      x2="62.7583"
      y2="99.1565"
      gradientUnits="userSpaceOnUse"
    >
<stop stopColor="#6F4C13" />
<stop offset="1" stopColor="#603913" />
</linearGradient>
<linearGradient
      id="paint18_linear_811_33788"
      x1="58.524"
      y1="101.341"
      x2="65.295"
      y2="101.341"
      gradientUnits="userSpaceOnUse"
    >
<stop stopColor="#6F4C13" />
<stop offset="1" stopColor="#603913" />
</linearGradient>
<linearGradient
      id="paint19_linear_811_33788"
      x1="56.3906"
      y1="105.527"
      x2="62.8086"
      y2="105.527"
      gradientUnits="userSpaceOnUse"
    >
<stop stopColor="#6F4C13" />
<stop offset="1" stopColor="#603913" />
</linearGradient>
<linearGradient
      id="paint20_linear_811_33788"
      x1="58.3347"
      y1="103.032"
      x2="65.6212"
      y2="103.032"
      gradientUnits="userSpaceOnUse"
    >
<stop stopColor="#6F4C13" />
<stop offset="1" stopColor="#603913" />
</linearGradient>
<linearGradient
      id="paint21_linear_811_33788"
      x1="57.3198"
      y1="104.267"
      x2="64.5743"
      y2="104.267"
      gradientUnits="userSpaceOnUse"
    >
<stop stopColor="#6F4C13" />
<stop offset="1" stopColor="#603913" />
</linearGradient>
<linearGradient
      id="paint22_linear_811_33788"
      x1="53.2542"
      y1="101.978"
      x2="59.8557"
      y2="101.978"
      gradientUnits="userSpaceOnUse"
    >
<stop stopColor="#6F4C13" />
<stop offset="1" stopColor="#603913" />
</linearGradient>
<linearGradient
      id="paint23_linear_811_33788"
      x1="49.1779"
      y1="64.6795"
      x2="57.3794"
      y2="64.6795"
      gradientUnits="userSpaceOnUse"
    >
<stop stopColor="#6F4C13" />
<stop offset="1" stopColor="#603913" />
</linearGradient>
<linearGradient
      id="paint24_linear_811_33788"
      x1="49.1779"
      y1="62.66"
      x2="57.3794"
      y2="62.66"
      gradientUnits="userSpaceOnUse"
    >
<stop stopColor="#6F4C13" />
<stop offset="1" stopColor="#603913" />
</linearGradient>
<linearGradient
      id="paint25_linear_811_33788"
      x1="49.8384"
      y1="56.1784"
      x2="62.0409"
      y2="56.1784"
      gradientUnits="userSpaceOnUse"
    >
<stop stopColor="#6F4C13" />
<stop offset="1" stopColor="#603913" />
</linearGradient>
<linearGradient
      id="paint26_linear_811_33788"
      x1="48.0955"
      y1="57.5373"
      x2="51.488"
      y2="57.5373"
      gradientUnits="userSpaceOnUse"
    >
<stop stopColor="#6F4C13" />
<stop offset="1" stopColor="#603913" />
</linearGradient>
<linearGradient
      id="paint27_linear_811_33788"
      x1="54.4183"
      y1="99.1552"
      x2="58.8818"
      y2="99.1552"
      gradientUnits="userSpaceOnUse"
    >
<stop stopColor="#6F4C13" />
<stop offset="1" stopColor="#603913" />
</linearGradient>
<linearGradient
      id="paint28_linear_811_33788"
      x1="58.524"
      y1="101.34"
      x2="65.295"
      y2="101.34"
      gradientUnits="userSpaceOnUse"
    >
<stop stopColor="#6F4C13" />
<stop offset="1" stopColor="#603913" />
</linearGradient>
<linearGradient
      id="paint29_linear_811_33788"
      x1="56.3906"
      y1="105.527"
      x2="62.8086"
      y2="105.527"
      gradientUnits="userSpaceOnUse"
    >
<stop stopColor="#6F4C13" />
<stop offset="1" stopColor="#603913" />
</linearGradient>
<linearGradient
      id="paint30_linear_811_33788"
      x1="58.3347"
      y1="103.032"
      x2="65.6212"
      y2="103.032"
      gradientUnits="userSpaceOnUse"
    >
<stop stopColor="#6F4C13" />
<stop offset="1" stopColor="#603913" />
</linearGradient>
<linearGradient
      id="paint31_linear_811_33788"
      x1="57.3198"
      y1="104.267"
      x2="64.5743"
      y2="104.267"
      gradientUnits="userSpaceOnUse"
    >
<stop stopColor="#6F4C13" />
<stop offset="1" stopColor="#603913" />
</linearGradient>
<linearGradient
      id="paint32_linear_811_33788"
      x1="53.2542"
      y1="101.978"
      x2="59.8557"
      y2="101.978"
      gradientUnits="userSpaceOnUse"
    >
<stop stopColor="#6F4C13" />
<stop offset="1" stopColor="#603913" />
</linearGradient>
</defs>
</svg>
