<svg width="201" height="200" viewBox="0 0 201 200" fill="none" xmlns="http://www.w3.org/2000/svg">
<path d="M173.35 133.711C174.09 137.045 174.479 140.512 174.479 144.069C174.479 156.468 169.745 167.761 161.985 176.24C158.371 180.191 154.099 183.53 149.344 186.085H37.5171C22.9388 177.207 13.2041 161.163 13.2041 142.847C13.2041 118.947 29.776 98.919 52.0558 93.6252C53.4984 65.83 76.4924 43.737 104.647 43.737C105.815 43.737 106.974 43.7757 108.122 43.8502C109.464 24.6244 125.484 9.44312 145.051 9.44312C165.497 9.44312 182.07 26.0178 182.07 46.4636C182.07 57.4936 177.247 67.3971 169.593 74.1796C179.317 81.1754 185.651 92.5894 185.651 105.484C185.651 116.632 180.917 126.675 173.35 133.711Z" fill="#FFF1E5"/>
<path d="M151.824 171.179C136.069 153.253 137.767 129.1 136.918 107.212C136.635 98.4379 136.257 89.192 130.502 81.6443C129.802 80.7216 128.984 79.9497 128.077 79.313H125.568V186.085H149.344C153.043 184.097 156.448 181.633 159.48 178.778C156.783 176.44 154.221 173.917 151.824 171.179Z" fill="#6589E6"/>
<path d="M161.985 176.24V79.313H128.077C128.984 79.9497 129.802 80.7216 130.502 81.6443C136.257 89.192 136.635 98.4379 136.918 107.212C137.767 129.1 136.068 153.253 151.824 171.179C154.221 173.918 156.782 176.44 159.48 178.778C160.347 177.963 161.182 177.117 161.985 176.24Z" fill="#7EA1FB"/>
<path d="M107.765 179.104C102.01 169.48 98.4244 159.385 97.5753 148.347C97.1036 142.214 96.2545 136.082 93.2354 130.515C92.1659 128.599 90.5908 126.831 88.7097 125.488H85.6641V186.085H113.72C111.457 184.122 109.432 181.843 107.765 179.104Z" fill="#D7705C"/>
<path d="M122.176 125.488H88.7095C90.5905 126.831 92.1657 128.599 93.2352 130.515C96.2543 136.082 97.1034 142.214 97.5751 148.347C98.4242 159.385 102.009 169.48 107.764 179.104C109.432 181.843 111.457 184.121 113.72 186.085H122.176V125.488Z" fill="#FF907A"/>
<path d="M50.119 178.915C49.8658 178.781 49.6097 178.652 49.3509 178.528H41.4863V186.085H58.6972C56.1711 183.256 53.4992 180.694 50.119 178.915Z" fill="#278F8F"/>
<path d="M82.244 178.528H49.3511C49.6098 178.652 49.8659 178.781 50.1192 178.915C53.4994 180.694 56.1713 183.256 58.6974 186.085H82.244V178.528Z" fill="#41B2B1"/>
<path d="M125.65 32.2957L123.469 34.0129C123.469 34.0129 124.295 33.8335 125.378 34.275C125.617 33.6835 125.655 33.0008 125.779 32.3629L125.65 32.2957Z" fill="#A2412E"/>
<path d="M125.65 32.2957L124.341 29.4746L120.11 32.173L120.421 32.7401C121.302 32.2705 122.328 31.8895 123.278 31.9686C124.21 32.0928 124.387 33.1607 124.167 34.0612C124.648 33.6144 125.197 33.0183 125.65 32.2957Z" fill="#A2412E"/>
<path d="M123.278 31.9685C122.328 31.8893 121.302 32.2704 120.421 32.74L121.132 34.0332L121.706 33.8083L122.992 34.994C122.992 34.994 123.518 34.6633 124.167 34.0611C124.386 33.1606 124.21 32.0927 123.278 31.9685Z" fill="#DF725D"/>
<path d="M123.687 30.9873C123.687 30.9873 120.784 32.8271 117.309 33.3178C117.309 33.3178 121.275 29.3111 125.323 28.4116C125.323 28.4116 126.835 30.4968 125.65 32.2957L124.178 31.2327C124.178 31.2327 124.791 30.7012 124.3 30.3332C123.81 29.9652 123.687 30.9873 123.687 30.9873Z" fill="#322666"/>
<path d="M114.284 52.9015C114.889 53.2378 115.936 53.2427 116.335 53.7795C116.692 53.4119 115.964 52.8022 114.815 52.6153C114.815 52.6153 115.347 51.8385 114.775 51.2252C114.775 51.2252 114.942 51.1101 115.222 50.9094C115.085 50.7153 114.928 50.5354 114.754 50.3723C114.519 50.539 114.281 50.7006 114.039 50.8572C114.774 51.2661 114.774 52.2474 114.284 52.9015Z" fill="#A2412E"/>
<path d="M112.035 50.4076C112.035 50.4076 109.786 51.1844 109.541 52.1657C109.296 53.1469 111.176 55.1094 111.504 55.8454C111.831 56.5813 112.28 53.3923 112.853 52.4928C113.425 51.5933 113.957 54.21 115.551 54.0464C115.96 54.0045 116.211 53.9063 116.335 53.7796C115.936 53.2428 114.889 53.2379 114.284 52.9016C114.774 52.2474 114.774 51.2662 114.038 50.8574C114.28 50.7009 114.519 50.5392 114.754 50.3725C114.242 49.8929 113.596 49.5864 112.898 49.6008L112.035 50.4076Z" fill="#DF725D"/>
<path d="M115.222 50.9095C115.406 50.7783 115.588 50.646 115.77 50.5125C115.623 50.3241 115.461 50.1481 115.285 49.9863C115.11 50.1178 114.933 50.2465 114.754 50.3724C114.928 50.5355 115.085 50.7154 115.222 50.9095Z" fill="#E6E6E6"/>
<path d="M112.898 49.6007C113.596 49.5863 114.242 49.8927 114.754 50.3724C114.933 50.2464 115.11 50.1177 115.285 49.9863C114.789 49.5291 114.191 49.1934 113.524 49.0152L112.898 49.6007ZM115.285 49.9863C115.461 50.148 115.623 50.324 115.77 50.5125C117.154 49.4964 119.627 47.5863 120.825 46.0737C122.543 43.9068 126.004 39.4503 126.004 39.4503L126.335 39.3181C126.027 38.977 125.729 38.621 125.405 38.2646C122.35 42.3628 119.43 46.8676 115.285 49.9863ZM147.213 31.8135C146.507 34.2236 145.277 36.5295 143.312 38.1012C140.45 37.3653 137.67 36.2205 135.053 34.8304C135.29 35.1795 135.517 35.5346 135.735 35.8956C136.815 36.5878 140.485 38.7941 143.721 39.0006C143.721 39.0006 146.842 36.0886 148.044 32.0915C147.759 32.0249 147.481 31.9318 147.213 31.8135Z" fill="#F2F2F2"/>
<path d="M143.312 38.1013C145.277 36.5297 146.507 34.2237 147.213 31.8136C146.762 31.6141 146.347 31.3429 145.989 31.0027C145.419 32.9715 144.372 35.308 142.577 35.6073C142.331 35.6482 134.081 31.899 131.701 32.2956C131.456 32.3365 128.539 33.7947 128.539 33.7947L126.577 34.994L123.974 36.8338L118.332 44.5202L113.524 49.0153C114.191 49.1935 114.789 49.5292 115.286 49.9864C119.43 46.8677 122.35 42.3629 125.405 38.2648C125.729 38.6211 126.027 38.9772 126.335 39.3183L135.422 35.689C135.422 35.689 135.533 35.7657 135.736 35.8957C135.518 35.5348 135.29 35.1796 135.054 34.8305C137.67 36.2206 140.451 37.3654 143.312 38.1013Z" fill="#F9FAFD"/>
<path d="M146.166 30.3496C146.111 30.5684 146.052 30.7861 145.989 31.0028C146.558 31.5441 147.274 31.9113 148.045 32.0917C148.119 31.8459 148.185 31.5978 148.243 31.3477C147.468 31.2206 146.721 30.8811 146.166 30.3496Z" fill="#F2F2F2"/>
<path d="M148.464 30.0059C148.954 24.977 146.583 28.207 146.583 28.207C146.583 28.207 146.469 29.1425 146.166 30.3495C146.721 30.881 147.468 31.2205 148.243 31.3475C148.345 30.9055 148.419 30.4574 148.464 30.0059Z" fill="#DF725D"/>
<path d="M135.819 41.658C135.055 45.8574 133.869 49.975 132.682 54.1282C131.128 59.7703 129.984 65.1672 128.021 70.6458C127.157 73.093 126.293 75.5401 125.207 77.9315C126.471 76.3919 136.596 63.6218 136.852 49.0585C136.949 43.5712 136.474 41.7365 135.819 41.658Z" fill="#322666"/>
<path d="M132.682 54.1281C133.869 49.9749 135.055 45.8573 135.819 41.6579C134.62 41.5142 132.819 47.2594 132.819 47.2594L125.078 78.0868C125.078 78.0868 125.123 78.0341 125.207 77.9314C126.294 75.54 127.158 73.0929 128.021 70.6457C129.984 65.1671 131.129 59.7702 132.682 54.1281Z" fill="#3F327A"/>
<path d="M144.212 69.0922C144.734 71.9663 144.892 74.7362 145.184 77.5266C144.843 56.3013 138.978 44.97 138.978 44.97L137.583 45.4884C138.625 47.891 139.599 50.277 140.287 52.9017C141.758 58.3803 143.149 63.45 144.212 69.0922Z" fill="#322666"/>
<path d="M144.212 69.0921C143.149 63.45 141.759 58.3802 140.287 52.9016C139.599 50.2769 138.625 47.8909 137.584 45.4883L132.818 47.2594C133.152 50.05 135.626 50.6938 135.626 50.6938L145.193 78.0868C145.191 77.8987 145.187 77.7131 145.184 77.5265C144.892 74.736 144.734 71.9662 144.212 69.0921Z" fill="#3F327A"/>
<path d="M146.665 26.2447C145.664 26.2974 145.221 29.3128 146.874 28.9431C148.527 28.5734 148.218 26.1629 146.665 26.2447Z" fill="#A2412E"/>
<path d="M136.689 44.8063C135.851 46.0242 134.518 46.8164 133.084 46.7223C134.117 46.885 135.185 46.9143 136.198 46.4417C137.461 45.9604 138.326 44.992 139.021 43.8626C139.039 41.8896 138.805 37.7768 136.715 35.6677C136.156 35.4005 135.601 35.1213 135.053 34.8303C136.934 37.6105 138.896 41.6173 136.689 44.8063Z" fill="#F2F2F2"/>
<path d="M135.871 34.9941C132.11 32.7045 124.587 38.483 124.587 38.483C124.587 38.483 125.623 41.4812 129.602 42.2989C132.662 42.9276 132.918 45.5215 132.873 46.6874C132.943 46.6997 133.014 46.7114 133.085 46.7226C134.518 46.8167 135.852 46.0245 136.689 44.8066C138.897 41.6176 136.934 37.6108 135.054 34.8306C135.602 35.1216 136.156 35.4008 136.716 35.668C136.462 35.4119 136.183 35.1836 135.871 34.9941Z" fill="#F9FAFD"/>
<path d="M136.198 46.4419C135.116 46.947 133.97 46.8789 132.872 46.6873C132.859 47.0379 132.818 47.2596 132.818 47.2596C132.818 47.2596 136.416 49.004 138.978 44.97C138.978 44.97 139.014 44.5439 139.021 43.8628C138.326 44.9922 137.461 45.9606 136.198 46.4419ZM144.873 77.1707L142.494 79.3135H154.842L144.873 77.1707ZM125.811 77.1707L127.694 79.3135H115.306L125.811 77.1707Z" fill="#322666"/>
<path d="M151.735 17.4952C150.518 17.111 149.753 16.2256 148.811 15.4276L147.98 15.2874V19.4304L159.285 17.1953L159.148 17.1722C156.677 17.2664 154.206 18.1691 151.735 17.4952Z" fill="#E8462C"/>
<path d="M151.734 17.4951C154.206 18.169 156.677 17.2663 159.148 17.1722L148.811 15.4275C149.753 16.2255 150.518 17.1109 151.734 17.4951Z" fill="#FF5B41"/>
<path d="M147.98 79.109C147.904 79.109 147.831 79.0789 147.777 79.0252C147.724 78.9715 147.693 78.8988 147.693 78.8229V15.1238C147.693 15.0479 147.724 14.9751 147.777 14.9215C147.831 14.8678 147.904 14.8376 147.98 14.8376C148.055 14.8376 148.128 14.8678 148.182 14.9215C148.236 14.9751 148.266 15.0479 148.266 15.1238V78.8229C148.266 78.8604 148.258 78.8977 148.244 78.9324C148.23 78.9671 148.209 78.9987 148.182 79.0253C148.155 79.0519 148.124 79.0729 148.089 79.0873C148.054 79.1017 148.017 79.1091 147.98 79.109Z" fill="#F5B7AD"/>
<path d="M148.02 78.8229V15.1238C148.02 15.0266 148.069 14.9411 148.143 14.8894C148.095 14.8557 148.038 14.8376 147.98 14.8376C147.904 14.8376 147.831 14.8678 147.777 14.9215C147.724 14.9751 147.693 15.0479 147.693 15.1238V78.8229C147.693 78.8988 147.724 78.9716 147.777 79.0252C147.831 79.0789 147.904 79.1091 147.98 79.1091C148.04 79.1091 148.097 79.0898 148.143 79.0573C148.105 79.031 148.074 78.9959 148.053 78.9551C148.032 78.9143 148.02 78.8689 148.02 78.8229Z" fill="#EBA296"/>
<path d="M147.891 30.1695C148.791 30.4966 149.199 29.4336 149.445 28.7794C149.735 27.9076 149.624 27.0931 149.366 26.3021C149.106 26.0121 148.755 25.8232 148.3 25.7948C147.113 25.7206 146.689 27.6189 146.946 29.1622C147.131 29.6297 147.412 30.0259 147.891 30.1695Z" fill="#DF725D"/>
<path d="M149.367 26.302C149.625 27.093 149.736 27.9075 149.445 28.7793C149.2 29.4335 148.791 30.4965 147.891 30.1694C147.413 30.0258 147.131 29.6296 146.946 29.1621C147.114 30.1716 147.573 31.0292 148.3 31.0835C149.814 31.1965 150.577 27.6505 149.367 26.302Z" fill="#A2412E"/>
<path d="M122.336 34.0612L123.237 33.5222C123.237 33.5222 123.452 34.1253 123.237 34.3195C123.023 34.5137 122.336 34.0612 122.336 34.0612Z" fill="#F9FAFD"/>
<path d="M125.779 32.3628C125.655 33.0007 125.617 33.6834 125.377 34.2749C125.754 34.4284 126.161 34.6565 126.576 34.9941L128.539 36.4115V33.7948L125.779 32.3628Z" fill="#DF725D"/>
<path d="M126.74 35.3348L128.539 38.9054L128.621 36.6567L130.652 38.2104L129.439 33.9451L130.175 37.4336L128.539 36.4114L128.348 37.9105L126.74 35.3348Z" fill="#F2F2F2"/>
<path d="M128.621 36.6565L128.579 37.8013L129.384 38.4282L129.528 37.3507L128.621 36.6565Z" fill="#E5649A"/>
<path d="M130.12 46.9753L132.628 49.2606L132.665 49.1594C131.983 45.4257 130.911 41.5943 129.175 38.2129C130.19 41.9557 130.12 46.9753 130.12 46.9753Z" fill="#E5649A"/>
<path d="M129.054 37.7878C129.096 37.9273 129.136 38.0692 129.175 38.2128C130.911 41.5942 131.983 45.4256 132.665 49.1593L133.936 45.7331C132.737 41.5629 129.054 37.7878 129.054 37.7878Z" fill="#DB4A87"/>
<path d="M132.665 38.5918C132.63 38.5919 132.596 38.5805 132.567 38.5594C132.539 38.5382 132.518 38.5085 132.508 38.4745C132.498 38.4406 132.499 38.4044 132.512 38.3712C132.524 38.3381 132.547 38.3098 132.577 38.2907L135.074 36.6826C135.092 36.6707 135.112 36.6625 135.134 36.6584C135.155 36.6544 135.177 36.6546 135.198 36.659C135.219 36.6635 135.239 36.6721 135.257 36.6844C135.275 36.6967 135.29 36.7124 135.302 36.7306C135.313 36.7488 135.321 36.7691 135.325 36.7904C135.329 36.8117 135.329 36.8336 135.324 36.8547C135.319 36.8759 135.31 36.8958 135.298 36.9135C135.285 36.9312 135.269 36.9462 135.251 36.9577L132.754 38.5658C132.726 38.5833 132.696 38.5918 132.665 38.5918Z" fill="#F2F2F2"/>
<path d="M115.283 50.6377C115.383 50.6377 115.464 50.5565 115.464 50.4563C115.464 50.3561 115.383 50.2749 115.283 50.2749C115.183 50.2749 115.102 50.3561 115.102 50.4563C115.102 50.5565 115.183 50.6377 115.283 50.6377Z" fill="#F9FAFD"/>
<path d="M98.0113 71.7087L96.4756 74.0989L96.4901 74.2529C97.0389 74.116 97.5794 73.9427 98.0936 73.7154C97.8897 72.5804 98.0113 71.7087 98.0113 71.7087Z" fill="#A2412E"/>
<path d="M96.8667 78.242C96.8667 78.242 100.301 78.0459 98.9927 76.0426C98.4843 75.2642 98.2235 74.4368 98.0938 73.7155C97.5796 73.9429 97.0391 74.1161 96.4903 74.253L96.8667 78.242ZM97.3496 68.2966C96.9835 69.4375 95.997 70.3633 96.2943 71.6271C96.5086 72.6451 97.39 72.7502 98.2482 72.4948C99.1202 71.469 99.6877 70.4163 99.6877 70.1144C99.6878 69.7591 98.2824 68.8565 97.3496 68.2966Z" fill="#DF725D"/>
<path d="M96.2943 71.627C95.997 70.3633 96.9834 69.4374 97.3496 68.2965C96.8867 68.0186 96.5396 67.8247 96.5396 67.8247C91.3063 70.1143 93.7594 75.3884 95.8446 74.4468C96.7455 74.0399 97.5849 73.2751 98.2483 72.4947C97.39 72.7502 96.5087 72.645 96.2943 71.627Z" fill="#A2412E"/>
<path d="M94.8225 71.5862C94.8225 71.5862 96.7441 70.1552 97.3575 67.6203C97.9707 65.0854 96.5997 62.4143 94.0048 66.1484C92.3285 68.5606 92.9828 70.932 92.9828 70.932C92.9828 70.932 91.7154 72.1177 92.0016 73.6713C92.2878 75.2249 93.269 75.6338 93.269 75.6338C93.269 75.6338 91.0476 81.5886 95.5449 84.0425C100.042 86.4964 98.7476 76.4106 95.2314 72.1995C95.2314 72.1995 94.0048 72.6901 93.9231 71.668C93.8413 70.6459 94.8225 71.5862 94.8225 71.5862Z" fill="#E8462C"/>
<path d="M90.1432 92.2559C90.2031 92.1611 90.2645 92.0637 90.3271 91.9639C89.6665 90.806 88.556 89.9762 87.194 90.0069L87.1738 90.0397C88.5116 90.2179 89.5632 91.1113 90.1432 92.2559Z" fill="#A2412E"/>
<path d="M87.1735 90.0398L86.5363 91.0716L78.5773 98.0493C78.5773 98.0493 77.9231 97.3406 77.16 97.6677V95.6507C77.16 95.6507 75.143 94.9965 76.0697 98.9215C76.0697 98.9215 73.9437 101.375 74.4343 102.901C74.5324 103.206 74.6523 103.376 74.7814 103.453C75.2349 103.034 75.5779 102.458 75.7699 101.882C76.6694 102.373 77.8142 102.618 78.7954 102.045C79.6949 101.473 79.3678 99.7559 79.6949 99.5106C82.8839 97.0575 86.7271 95.9127 89.1802 92.3966C89.3644 92.1272 89.5448 91.8552 89.7214 91.5808C89.113 90.7723 88.2337 90.181 87.1735 90.0398Z" fill="#DF725D"/>
<path d="M79.6952 99.5108C79.3681 99.7561 79.6952 101.473 78.7957 102.046C77.8145 102.618 76.6697 102.373 75.7702 101.882C75.5782 102.458 75.2352 103.034 74.7817 103.453C75.2981 103.76 75.961 102.574 75.961 102.574C75.961 102.574 80.6492 103.61 80.3221 99.8485C80.3221 99.8485 87.7904 95.869 89.6439 93.0343C89.8123 92.7761 89.9787 92.5167 90.1432 92.2562C90.0228 92.0192 89.8818 91.7933 89.7218 91.5811C89.5452 91.8555 89.3648 92.1274 89.1806 92.3969C86.7274 95.9129 82.8842 97.0577 79.6952 99.5108Z" fill="#A2412E"/>
<path d="M99.1938 74.7976L97.8831 75.9169L96.2197 77.2855C97.1787 77.9335 98.2788 78.5358 99.32 77.8417C99.3261 77.8377 99.3315 77.8336 99.3375 77.8296C99.9528 76.9961 99.9126 75.7307 99.1938 74.7976Z" fill="#DF725D"/>
<path d="M99.3072 74.7004L99.1934 74.7976C99.9122 75.7307 99.9524 76.9961 99.3372 77.8295C100.562 77.0172 99.9541 75.7827 99.3072 74.7004Z" fill="#A2412E"/>
<path d="M101.735 77.3928L102.4 76.7889C102.4 76.7889 106.166 71.7558 108.031 68.3C107.79 68.0547 107.54 67.8264 107.28 67.6296C105.618 70.8964 103.501 73.8682 100.874 76.4513C101.226 76.7154 101.483 77.0505 101.735 77.3928Z" fill="#FFCC46"/>
<path d="M105.026 67.0136L99.6878 74.3756L99.3074 74.7005C99.9575 75.7882 100.569 77.0297 99.3198 77.8417C98.2786 78.5358 97.1785 77.9336 96.2196 77.2855L93.8412 79.2423L87.1938 90.0071C88.2879 89.9824 89.2196 90.5133 89.8862 91.3232C91.617 88.5896 92.8413 85.9051 94.5771 83.1568C94.8224 82.7479 94.986 82.3391 95.1495 81.9302C95.2633 82.3855 95.4558 82.7426 95.7029 83.0335C95.7729 82.9146 95.8428 82.7957 95.9128 82.6767L101.734 77.3931C101.483 77.0507 101.225 76.7156 100.873 76.4516C103.501 73.8685 105.618 70.8967 107.28 67.6299C106.588 67.1055 105.831 66.8061 105.026 67.0136Z" fill="#FFDD85"/>
<path d="M94.5772 83.1566C92.8414 85.905 91.6169 88.5894 89.8862 91.323C90.0511 91.5238 90.1986 91.7382 90.327 91.9639C92.0985 89.1414 94.9171 84.368 95.703 83.0332C95.4559 82.7423 95.2635 82.3852 95.1497 81.9299C94.986 82.3389 94.8225 82.7478 94.5772 83.1566Z" fill="#FFCC46"/>
<path d="M105.102 66.9086L105.026 67.0135C106.134 66.7282 107.149 67.4011 108.031 68.3001C108.086 68.1982 108.139 68.0979 108.191 67.999C107.383 67.1729 106.181 66.6797 105.102 66.9086Z" fill="#A2412E"/>
<path d="M108.828 89.687C107.44 90.7037 106.516 91.4153 106.516 91.4153C106.516 91.4153 105.107 92.4691 103.67 93.7922C105.943 93.325 107.953 91.9163 108.828 89.687ZM125.568 105.398L125.535 105.27C124.792 103.855 123.994 102.446 123.205 101.028C122.921 101.135 122.631 101.224 122.337 101.294C124.108 103.718 125.568 105.398 125.568 105.398Z" fill="#E8462C"/>
<path d="M118.135 94.6402C119.355 97.0152 120.942 99.3851 122.337 101.294C122.631 101.224 122.921 101.135 123.205 101.029C121.952 98.7788 120.719 96.5069 119.76 94.1497C119.224 94.3318 118.68 94.4934 118.135 94.6402Z" fill="#A2412E"/>
<path d="M107.782 91.4353C107.681 91.5552 107.576 91.6715 107.467 91.7839C106.459 92.8144 105.118 93.4948 103.67 93.7924C101.206 96.0617 98.6603 99.1235 102.999 99.0202C109.868 98.8567 116.41 90.2708 116.41 90.2708C116.746 91.6536 117.368 93.1479 118.135 94.6403C118.68 94.4934 119.224 94.3319 119.76 94.1498C120.652 93.8462 121.521 93.4854 122.332 93.0382L120.872 87.4627C120.308 86.5542 119.773 85.6298 119.353 84.6287C115.405 86.6757 111.393 88.7899 107.782 91.4353Z" fill="#E8462C"/>
<path d="M108.828 89.6872C108.57 90.3424 108.213 90.925 107.782 91.4353C111.393 88.7899 115.406 86.6757 119.354 84.6286C119.773 85.6297 120.308 86.5541 120.872 87.4626L119.681 82.9114C116.997 83.862 111.828 87.4886 108.828 89.6872Z" fill="#FF5B41"/>
<path d="M119.76 94.1497C120.719 96.5069 121.952 98.7788 123.205 101.029C123.579 100.888 123.943 100.72 124.293 100.526L122.332 93.0381C121.521 93.4853 120.652 93.8461 119.76 94.1497Z" fill="#DF725D"/>
<path d="M125.534 105.27L124.292 100.526C123.943 100.72 123.579 100.888 123.205 101.028C123.994 102.446 124.792 103.855 125.534 105.27Z" fill="#FF5B41"/>
<path d="M93.4189 125.925C93.8934 124.077 94.3511 122.224 94.8072 120.371C94.6056 120.274 94.4108 120.164 94.224 120.041C93.9212 121.954 93.6477 123.924 93.4189 125.925Z" fill="#E8462C"/>
<path d="M95.9325 110.962C95.3282 113.749 94.7345 116.815 94.2241 120.041C94.4109 120.164 94.6057 120.274 94.8073 120.371C95.5237 117.46 96.2361 114.549 97.0031 111.655C96.6245 111.46 96.2659 111.228 95.9325 110.962Z" fill="#A2412E"/>
<path d="M100.823 93.8863C100.228 93.8059 99.6444 93.6609 99.0813 93.4539C98.8782 94.0589 98.7247 95.2175 99.688 96.6487C99.688 96.6487 97.7621 102.526 95.9326 110.962C96.266 111.228 96.6246 111.46 97.0032 111.655C98.3287 106.653 99.8172 101.702 101.773 96.894C101.302 95.9783 100.975 94.9453 100.823 93.8863Z" fill="#E8462C"/>
<path d="M107.819 91.3958C106.191 93.3579 103.45 94.2445 100.823 93.8862C100.974 94.9452 101.302 95.9783 101.773 96.894C99.817 101.702 98.3285 106.653 97.003 111.655C97.9158 112.128 98.9473 112.403 99.991 112.472C102.362 107.016 104.747 100.699 105.943 95.0951C105.943 95.0951 108.078 93.8477 107.819 91.3958ZM93.4189 125.925L93.4097 126.004C93.4097 126.004 94.5233 123.989 96.1063 120.803C95.6547 120.712 95.2178 120.568 94.8071 120.371C94.3511 122.224 93.8934 124.077 93.4189 125.925Z" fill="#FF5B41"/>
<path d="M97.0029 111.655C96.236 114.549 95.5236 117.46 94.8071 120.371C95.2178 120.568 95.6547 120.712 96.1063 120.803C97.2393 118.523 98.6128 115.643 99.9909 112.472C98.9471 112.404 97.9157 112.129 97.0029 111.655Z" fill="#DF725D"/>
<path d="M107.819 91.3959C107.785 91.0693 107.709 90.7217 107.579 90.3525C106.472 87.2112 99.29 92.9964 99.29 92.9964C99.29 92.9964 99.1797 93.1603 99.0811 93.454C102.159 94.5901 105.824 93.7995 107.819 91.3959Z" fill="#E8462C"/>
<path d="M99.7278 76.0039L97.7656 78.0734C98.2821 78.2101 98.8082 78.1828 99.32 77.8416C99.3259 77.8378 99.3314 77.8338 99.3372 77.83C99.7112 77.3237 99.8432 76.6581 99.7278 76.0039Z" fill="#DF725D"/>
<path d="M99.8846 75.8384L99.7276 76.004C99.843 76.6582 99.711 77.3238 99.3369 77.8301C100.145 77.2948 100.156 76.5761 99.8846 75.8384Z" fill="#A2412E"/>
<path d="M102.918 78.9863C102.754 80.1311 102.345 81.1941 101.446 81.8483C100.383 82.5842 98.829 83.4837 98.0931 82.2572C96.9483 80.4582 99.2379 79.0682 100.628 78.0869C98.5241 78.7398 96.2286 80.616 95.5659 82.8582C96.1894 83.7396 97.2731 84.0597 98.3523 84.4473C100.902 83.8914 103.146 81.7218 102.918 78.9863Z" fill="#FFCC46"/>
<path d="M106.161 85.8928C106.264 84.6547 106.714 83.2648 106.594 81.8188C105.88 80.6415 104.739 79.7471 103.326 79.5587C104.471 79.5587 105.371 78.741 105.698 77.7598C106.04 76.939 105.98 76.0044 105.569 75.2418C103.982 74.5589 102.291 76.2984 102.291 76.2984L100.601 75.0828L99.8844 75.8382C100.158 76.5813 100.145 77.3051 99.3196 77.8415C98.8078 78.1827 98.2817 78.21 97.7652 78.0733L93.6323 82.4322C93.6323 82.4322 93.9689 82.7797 94.5061 83.2697C94.5298 83.232 94.5531 83.1943 94.5769 83.1565C94.8222 82.7476 94.9858 82.3388 95.1493 81.9299C95.2412 82.2975 95.3842 82.6013 95.5658 82.858C96.2285 80.6158 98.524 78.7396 100.628 78.0867C99.2378 79.0679 96.9482 80.458 98.093 82.257C98.8289 83.4836 100.383 82.5841 101.446 81.8481C102.345 81.1939 102.754 80.1309 102.918 78.9861C103.146 81.7216 100.902 83.8912 98.3522 84.447C98.9163 84.6496 99.4789 84.8707 99.9737 85.2006C100.137 85.3641 100.219 85.6095 100.301 85.8548C100.546 87.8173 99.7284 89.6162 100.056 91.5787C103.128 92.5004 106.477 91.2517 108.577 88.9084C107.837 88.5345 106.031 87.4563 106.161 85.8928Z" fill="#FFDD85"/>
<path d="M105.698 77.7598C105.371 78.741 104.471 79.5587 103.327 79.5587C104.74 79.7471 105.88 80.6415 106.594 81.8188C106.524 80.9727 106.26 80.1075 105.616 79.2422C105.616 79.2422 107.355 76.1921 105.725 75.3172C105.674 75.2899 105.622 75.2647 105.569 75.2419C105.98 76.0044 106.04 76.939 105.698 77.7598ZM100.056 91.579C99.7286 89.6165 100.546 87.8176 100.301 85.8551C100.219 85.6098 100.138 85.3645 99.9739 85.2009C98.2567 84.0561 95.7219 84.2197 95.1495 81.9301C94.986 82.339 94.8224 82.7478 94.5771 83.1567C94.5532 83.1945 94.5299 83.2322 94.5063 83.2699C95.4972 84.1739 97.1729 85.5645 98.6929 86.1655C101.037 87.0922 98.5787 89.9269 99.29 92.9252C99.29 92.9252 105.889 95.6509 108.887 89.0547C108.887 89.0547 108.766 89.0043 108.577 88.9088C106.478 91.2519 103.128 92.5007 100.056 91.579Z" fill="#FFCC46"/>
<path d="M98.9486 70.5164C99.0521 70.5164 99.136 70.4325 99.136 70.329C99.136 70.2255 99.0521 70.1416 98.9486 70.1416C98.8451 70.1416 98.7612 70.2255 98.7612 70.329C98.7612 70.4325 98.8451 70.5164 98.9486 70.5164Z" fill="#A2412E"/>
<path d="M112.076 54.537C112.156 53.2597 112.625 52.0603 112.875 50.8628C112.213 50.9405 111.913 54.1386 111.913 54.1386C111.913 54.1386 110.702 53.885 109.973 54.8221C110.578 54.4632 111.433 54.4297 112.076 54.537ZM111.095 57.6442C110.85 57.6442 110.604 58.3801 110.523 58.8708C109.765 61.8668 108.735 64.7191 107.407 67.379C107.693 67.5521 107.957 67.7604 108.191 67.9989C108.536 67.3359 108.801 66.7417 108.942 66.2679C109.814 63.3242 111.395 58.0364 111.395 58.0364C111.395 58.0364 112.24 58.309 113.017 57.5322C113.732 56.8171 113.269 59.0468 114.02 59.0867C113.879 58.3098 113.632 57.5682 113.385 56.8266C112.649 57.2354 111.913 57.6442 111.095 57.6442ZM112.812 55.6C113.071 56.4411 114.148 56.7706 114.79 57.479C114.611 56.8705 114.131 56.2418 113.344 55.8834C111.667 55.12 114.707 52.6482 113.139 50.9906C113.117 50.9668 113.093 50.9448 113.067 50.9251C113.837 52.4628 112.285 54.1699 112.812 55.6Z" fill="#A2412E"/>
<path d="M112.812 55.6002C112.285 54.1702 113.836 52.4631 113.066 50.9252C112.999 50.8751 112.936 50.8559 112.875 50.863C112.625 52.0605 112.156 53.2599 112.076 54.5372C111.432 54.4299 110.577 54.4634 109.973 54.8224C109.774 55.078 109.611 55.4214 109.519 55.8836C109.296 57.0009 109.519 57.6959 109.519 57.6959L105.616 66.2L105.102 66.9088C105.87 66.7457 106.7 66.9503 107.407 67.3793C108.735 64.7194 109.764 61.8671 110.522 58.8711C110.604 58.3805 110.849 57.6445 111.095 57.6445C111.912 57.6445 112.648 57.2356 113.384 56.8268C113.631 57.5684 113.878 58.31 114.02 59.0869C114.085 59.0903 114.158 59.0776 114.243 59.0451C114.807 58.8282 114.991 58.1666 114.789 57.4792C114.148 56.7708 113.071 56.4412 112.812 55.6002Z" fill="#DF725D"/>
<path d="M75.4524 107.769C75.6143 107.43 75.7511 107.141 75.8545 106.922C75.6353 106.773 75.3997 106.65 75.1523 106.555C75.0357 106.832 74.9161 107.106 74.7935 107.38C75.0258 107.486 75.2466 107.617 75.4524 107.769Z" fill="#E6E6E6"/>
<path d="M65.8177 126.14L63.0049 135.162L65.1539 139.251L65.1751 139.219C65.5864 134.943 65.3881 130.62 65.8582 126.368L65.8177 126.14Z" fill="#DB4A87"/>
<path d="M65.8584 126.368C65.3883 130.621 65.5866 134.943 65.1753 139.219L67.5228 135.735L65.8584 126.368Z" fill="#E5649A"/>
<path d="M73.2896 106.408L72.7773 107.191C73.4893 107.002 74.177 107.098 74.7933 107.38C74.916 107.106 75.0356 106.832 75.1521 106.556C74.5663 106.331 73.9174 106.266 73.2896 106.408Z" fill="#F2F2F2"/>
<path d="M83.6735 126.769C83.8426 126.561 84.0095 126.351 84.1743 126.139C84.0855 125.917 83.985 125.7 83.8733 125.488C83.7106 125.697 83.5471 125.905 83.3828 126.113C83.4909 126.326 83.588 126.545 83.6735 126.769Z" fill="#E6E6E6"/>
<path d="M82.525 123.753C82.3106 123.901 82.0967 124.051 81.8835 124.201C82.5191 124.734 83.0154 125.387 83.3828 126.113C83.5471 125.905 83.7106 125.697 83.8733 125.488C83.53 124.837 83.0795 124.244 82.525 123.753ZM76.9148 131.237C73.8893 132.055 70.5367 130.093 68.8195 127.394C68.7097 127.896 68.5938 128.41 68.4599 128.924C71.7041 131.572 76.5059 132.737 76.5059 132.737C79.0225 132.147 82.1344 128.664 83.6736 126.769C83.588 126.545 83.491 126.326 83.3828 126.113C81.6206 128.337 79.6595 130.519 76.9148 131.237ZM65.6305 119.953C65.5441 120.04 65.7546 120.309 66.0206 120.64C68.0378 118.655 70.8165 115.874 71.6542 114.802C72.6344 113.547 74.4883 109.783 75.4523 107.769C75.2465 107.617 75.0257 107.486 74.7933 107.38C72.6757 112.107 69.6412 116.453 65.6305 119.953Z" fill="#F2F2F2"/>
<path d="M81.8834 124.201C78.8854 126.312 75.6881 128.812 75.6881 128.812L68.9829 124.123L66.3254 123.428L63.7905 122.815C63.7905 122.815 64.756 121.884 66.0204 120.64C65.7544 120.309 65.5438 120.04 65.6303 119.953C69.641 116.453 72.6754 112.107 74.7932 107.38C74.177 107.098 73.4892 107.002 72.7772 107.191L69.4735 112.24L60.6968 122.979C60.6968 122.979 64.6763 125.432 67.8926 128.43C68.075 128.6 68.2647 128.764 68.4597 128.924C68.5936 128.41 68.7096 127.896 68.8193 127.394C70.5365 130.093 73.8891 132.055 76.9146 131.237C79.6593 130.519 81.6204 128.337 83.3826 126.113C83.0154 125.387 82.519 124.734 81.8834 124.201Z" fill="#F9FAFD"/>
<path d="M86.8091 122.815C86.6456 123.633 86.4002 124.451 85.7461 124.778C85.419 124.941 84.8466 124.941 84.6831 124.451C84.4153 124.79 84.1462 125.138 83.8735 125.488C83.9852 125.7 84.0857 125.917 84.1745 126.139C84.4643 125.767 84.6286 125.541 84.6286 125.541C87.5723 125.432 87.0817 123.645 87.0817 123.645C88.8806 125.892 90.2435 125.078 90.2435 125.078C90.1119 125.015 89.9896 124.916 89.8734 124.789C88.6126 124.636 87.5461 123.753 86.8091 122.815Z" fill="#A2412E"/>
<path d="M86.6454 121.343C85.937 121.501 84.3122 122.518 82.5249 123.753C83.0794 124.244 83.5299 124.837 83.8733 125.488C84.146 125.138 84.4151 124.79 84.6829 124.45C84.8464 124.941 85.4188 124.941 85.7459 124.778C86.4001 124.45 86.6454 123.633 86.8089 122.815C87.5459 123.753 88.6124 124.636 89.8731 124.789C88.9299 123.764 88.3926 120.955 86.6454 121.343Z" fill="#DF725D"/>
<path d="M68.1243 118.604L65.2674 119.162L65.1538 119.443C65.7666 119.732 66.4159 119.937 67.0711 120.015C67.5743 119.155 68.1243 118.604 68.1243 118.604Z" fill="#A2412E"/>
<path d="M65.1538 119.443L63.7905 122.815C64.5673 124.205 66.3254 123.428 66.3254 123.428C66.0753 122.136 66.5479 120.908 67.0712 120.014C66.4159 119.937 65.7667 119.732 65.1538 119.443ZM66.7751 118.318C66.8828 118.892 67.2113 119.198 67.6358 119.368C68.5965 119.112 69.2282 118.481 69.2282 118.481L68.4923 116.682L68.7478 116.294L67.6428 115.43C66.9791 116.217 66.5586 117.235 66.7751 118.318Z" fill="#DF725D"/>
<path d="M66.7754 118.318C66.5589 117.235 66.9794 116.217 67.6431 115.43L66.8572 114.802C61.8283 118.236 64.6085 119.095 66.2848 119.422C66.7781 119.518 67.2355 119.476 67.6361 119.369C67.2116 119.199 66.8831 118.892 66.7754 118.318Z" fill="#A2412E"/>
<path d="M65.8351 117.5C65.8351 117.5 68.8606 114.679 69.2286 110.754C69.2286 110.754 62.1555 115.619 60.9698 118.236C60.9698 118.236 61.9919 121.221 64.0362 121.098C66.0805 120.975 66.2849 119.422 66.2849 119.422L65.549 118.072C65.549 118.072 64.6904 118.44 64.7313 117.623C64.7721 116.805 65.8351 117.5 65.8351 117.5ZM56.3089 157.976C56.636 153.397 56.1454 148.655 57.2901 144.157C55.8686 142.894 55.5329 140.986 55.8225 139.155C55.4039 139.742 54.7961 141.096 55.8182 143.258C55.8182 143.258 54.101 153.07 54.1828 158.058C54.1828 158.058 49.3583 163.373 49.1948 177.438L49.3857 177.086C49.5046 175.412 49.7691 173.751 50.1761 172.122C51.4845 167.053 52.7928 161.901 56.3089 157.976Z" fill="#322666"/>
<path d="M62.352 143.094L56.118 138.815C56.118 138.815 55.9844 138.928 55.8225 139.155C55.5329 140.986 55.8685 142.894 57.2901 144.157C56.1453 148.655 56.6359 153.397 56.3089 157.977C52.7928 161.902 51.4845 167.053 50.1761 172.123C49.7691 173.751 49.5047 175.412 49.3857 177.086L59.0891 159.203L62.352 143.094Z" fill="#3F327A"/>
<path d="M74.7069 136.225C76.5086 141.492 79.9549 146.64 85.0949 148.935L75.4701 133.2C69.5281 134.59 63.7906 138.733 63.7906 138.733L56.3491 139.801C56.5712 140.583 56.8302 141.265 57.1204 141.858C62.8079 145.489 70.0515 140.081 74.7069 136.225Z" fill="#3F327A"/>
<path d="M74.7072 136.226C70.0518 140.081 62.8082 145.489 57.1206 141.859C61.5847 150.985 73.4806 138.842 73.4806 138.842C76.7514 145.466 85.1737 149.063 85.1737 149.063L85.0951 148.935C79.9552 146.641 76.5089 141.492 74.7072 136.226Z" fill="#322666"/>
<path d="M64.8944 134.508C63.7496 135.244 63.7496 136.716 63.0955 137.779C61.7872 139.987 58.6799 139.987 56.5539 138.924C55.9306 138.647 55.6 138.018 55.1161 137.484C55.1031 137.538 55.0914 137.591 55.082 137.643C54.7004 139.769 59.4703 142.494 63.7905 138.733C63.7905 138.733 63.4225 136.28 65.494 134.754C67.4592 133.305 69.1789 132.25 69.583 128.421C69.3045 128.097 69.0494 127.754 68.8194 127.394C68.247 130.011 67.511 132.955 64.8944 134.508Z" fill="#F2F2F2"/>
<path d="M60.697 122.979C60.697 122.979 58.5165 126.74 58.7345 129.575C58.9472 132.34 55.6331 135.364 55.1162 137.485C55.6 138.018 55.9307 138.647 56.554 138.924C58.68 139.987 61.7873 139.987 63.0956 137.779C63.7498 136.716 63.7498 135.244 64.8945 134.508C67.5112 132.955 68.2471 130.011 68.8195 127.394C69.0494 127.754 69.3046 128.098 69.5831 128.421C69.605 128.214 69.6232 128 69.6372 127.776C69.9097 123.415 60.697 122.979 60.697 122.979Z" fill="#F9FAFD"/>
<path d="M83.698 148.34L85.6642 136.662V151.38L83.698 148.34ZM49.2573 175.304L46.0874 178.528H61.0241L49.2573 175.304Z" fill="#322666"/>
<path d="M68.6015 117.555L68.1245 118.195C68.1245 118.195 68.6287 118.509 68.8059 118.4C68.9831 118.291 68.6015 117.555 68.6015 117.555Z" fill="#F9FAFD"/>
<path d="M63.2495 123.283C63.4362 123.524 63.6709 123.722 63.9388 123.867C64.199 124.004 64.4861 124.082 64.7799 124.096C64.9263 124.106 65.0746 124.101 65.2228 124.086C65.3719 124.076 65.5189 124.042 65.668 124.014C65.9645 123.949 66.2574 123.853 66.5573 123.756C66.3024 123.945 66.0202 124.094 65.7203 124.198C65.4181 124.3 65.0934 124.364 64.7646 124.341C64.6012 124.328 64.437 124.302 64.2802 124.249C64.1244 124.195 63.9733 124.125 63.8392 124.03C63.5711 123.843 63.3536 123.583 63.2495 123.283ZM63.7906 124.477C63.3593 124.968 62.9852 125.501 62.657 126.058C62.326 126.613 62.0474 127.196 61.815 127.794C61.5923 128.394 61.4229 129.013 61.309 129.643C61.2701 129.96 61.2066 130.274 61.1979 130.593L61.1671 131.075C61.1584 131.242 61.1511 131.41 61.1293 131.577C61.0532 132.244 60.8762 132.895 60.6369 133.516C60.5107 133.824 60.3771 134.129 60.2214 134.421C60.1846 134.496 60.1448 134.568 60.1044 134.641C60.0638 134.713 60.0257 134.787 59.9828 134.857C59.8974 134.999 59.8125 135.141 59.7214 135.279C59.3652 135.836 58.9559 136.355 58.5182 136.845C58.0747 137.329 57.6047 137.79 57.0854 138.188C57.5413 137.724 57.9683 137.232 58.3643 136.716C58.5626 136.46 58.7524 136.198 58.9335 135.93C59.1147 135.663 59.2887 135.391 59.4495 135.112C59.7712 134.555 60.0565 133.978 60.275 133.378C60.4933 132.779 60.6581 132.16 60.7232 131.53C60.7455 131.373 60.7536 131.216 60.7635 131.058L60.7999 130.563C60.8144 130.23 60.8778 129.902 60.9292 129.573C61.0694 128.923 61.254 128.282 61.5203 127.674C61.7858 127.069 62.1104 126.491 62.4893 125.949C62.8705 125.413 63.2946 124.905 63.7906 124.477Z" fill="#F2F2F2"/>
<path d="M83.9522 126.14C83.9527 126.163 83.9486 126.187 83.94 126.208C83.9314 126.23 83.9185 126.25 83.902 126.267C83.8856 126.284 83.866 126.297 83.8443 126.306C83.8227 126.315 83.7994 126.32 83.7759 126.32C83.7524 126.32 83.7291 126.315 83.7075 126.306C83.6858 126.297 83.6662 126.284 83.6498 126.267C83.6333 126.25 83.6205 126.23 83.6118 126.208C83.6032 126.187 83.5991 126.163 83.5997 126.14C83.6008 126.094 83.6198 126.05 83.6527 126.018C83.6857 125.986 83.7299 125.968 83.7759 125.968C83.8219 125.968 83.8661 125.986 83.8991 126.018C83.932 126.05 83.9511 126.094 83.9522 126.14Z" fill="#F9FAFD"/>
<path d="M75.3238 107.269C75.4211 107.269 75.5001 107.19 75.5001 107.093C75.5001 106.996 75.4211 106.917 75.3238 106.917C75.2264 106.917 75.1475 106.996 75.1475 107.093C75.1475 107.19 75.2264 107.269 75.3238 107.269Z" fill="#F9FAFD"/>
<path d="M75.5249 105.643C75.4044 105.949 75.2802 106.253 75.1524 106.555C75.3998 106.65 75.6354 106.773 75.8546 106.922C75.9915 106.631 76.07 106.461 76.07 106.461C76.8332 106.516 77.3238 105.752 77.3238 105.752C77.3238 105.752 77.9616 107.115 78.5183 107.26C78.2153 106.415 77.8117 105.62 77.242 104.907C76.915 105.562 75.6067 105.398 75.5249 105.643ZM77.2421 102.046C77.1603 101.473 77.2421 100.737 77.7327 100.41C77.9675 100.254 78.0898 100.359 78.1805 100.548C78.1558 100.004 78.0295 99.6277 77.7599 99.6469C76.9967 99.7014 76.7787 101.337 76.7787 101.337C76.7787 101.337 74.643 101.257 73.7805 102.373C73.6248 102.574 73.5451 102.781 73.5176 102.985C74.4652 102.106 75.9958 101.672 77.2421 102.046Z" fill="#A2412E"/>
<path d="M77.5419 103.845C77.9297 103.104 78.2258 101.544 78.1805 100.548C78.0898 100.359 77.9674 100.254 77.7327 100.41C77.2421 100.737 77.1603 101.473 77.2421 102.046C75.9958 101.672 74.4652 102.106 73.5176 102.985C73.3927 103.91 74.3612 104.771 74.3612 104.771L73.29 106.408C73.9178 106.266 74.5667 106.331 75.1525 106.555C75.2803 106.253 75.4045 105.949 75.525 105.643C75.6068 105.398 76.9151 105.562 77.2422 104.908C77.8119 105.62 78.2156 106.415 78.5185 107.261C78.7252 107.315 78.9208 107.202 79.0684 106.788C79.6134 105.262 76.9423 104.989 77.5419 103.845Z" fill="#DF725D"/>
<path d="M180.318 112.472H164.451L170.747 111.282C170.747 111.282 169.929 109.437 171.944 109.617C171.944 109.617 171.692 107.492 173.581 107.952C173.581 107.952 173.707 105.83 176.099 106.019C178.492 106.208 177.421 108.748 177.421 108.748C177.421 108.748 179.94 107.006 181.262 108.748C182.585 110.489 180.318 112.472 180.318 112.472ZM73.1665 57.6388H106.277L94.306 55.7716C94.306 55.7716 94.2393 52.1705 90.3048 53.6376C90.3048 53.6376 89.9834 50.9035 86.9431 50.7701C83.9029 50.6367 84.1029 53.2375 84.1029 53.2375C84.1029 53.2375 80.2351 50.7034 77.9678 53.1708C75.7005 55.6382 79.3015 56.3051 79.3015 56.3051L73.1665 57.6388Z" fill="#F9FAFD"/>
</svg>
