<svg width="241" height="200" viewBox="0 0 241 200" fill="none" xmlns="http://www.w3.org/2000/svg">
<path d="M94.4732 71.782C83.5526 77.7602 72.4726 78.1986 63.3854 74.1732C54.2982 70.1478 47.2834 61.5786 44.374 49.4624C66.255 37.5852 88.694 47.5892 94.4732 71.7818V71.782Z" fill="#145D62"/>
<path d="M91.6833 70.7456L48.1601 51.216C48.1201 51.216 48.1201 51.176 48.1201 51.1364C48.1201 51.0968 48.1601 51.0964 48.2001 51.0964L91.8025 70.4268C91.8214 70.434 91.8386 70.4449 91.853 70.4591C91.8674 70.4732 91.8787 70.4902 91.8862 70.5089C91.8937 70.5276 91.8972 70.5477 91.8966 70.5679C91.8959 70.588 91.891 70.6078 91.8823 70.626C91.8423 70.7456 91.7629 70.7854 91.6833 70.7456Z" fill="#F9FAFD"/>
<path d="M66.6134 59.3866C65.7546 58.428 65.0549 57.3381 64.5408 56.1582C64.2692 55.5693 64.0557 54.9552 63.9032 54.3248C63.7518 53.6971 63.6584 53.0567 63.6242 52.4118C63.6242 52.3696 63.641 52.329 63.6709 52.2991C63.7008 52.2692 63.7413 52.2524 63.7836 52.2524C63.8259 52.2524 63.8664 52.2692 63.8963 52.2991C63.9262 52.329 63.943 52.3696 63.943 52.4118C63.9282 53.0422 63.9953 53.6719 64.1424 54.285C64.2677 54.913 64.4546 55.5271 64.7004 56.1184C65.1814 57.2922 65.8254 58.3924 66.6134 59.3864V59.3866ZM79.8458 65.3252C78.5646 65.3768 77.2998 65.6324 76.0992 66.0824C75.5028 66.2907 74.9287 66.5578 74.3852 66.8796C73.8483 67.2061 73.3415 67.5795 72.8708 67.9956C72.8391 68.0274 72.796 68.0452 72.7512 68.0452C72.7063 68.0452 72.6633 68.0274 72.6316 67.9956C72.5999 67.9639 72.582 67.9209 72.582 67.876C72.582 67.8312 72.5999 67.7882 72.6316 67.7564C73.6525 66.941 74.8142 66.3196 76.0592 65.923C77.2804 65.5147 78.5579 65.2995 79.8456 65.2852C79.8856 65.2454 79.8856 65.2852 79.8456 65.3252C79.8856 65.2852 79.8856 65.3252 79.8456 65.3252H79.8458ZM84.469 67.3578C83.6102 66.3992 82.9105 65.3093 82.3964 64.1294C82.1248 63.5405 81.9113 62.9264 81.7588 62.296C81.6074 61.6683 81.514 61.0279 81.4798 60.383C81.4798 60.3408 81.4966 60.3002 81.5265 60.2703C81.5564 60.2404 81.5969 60.2236 81.6392 60.2236C81.6815 60.2236 81.722 60.2404 81.7519 60.2703C81.7818 60.3002 81.7986 60.3408 81.7986 60.383C81.7838 61.0134 81.8507 61.6431 81.9978 62.2562C82.1231 62.8842 82.31 63.4983 82.5558 64.0896C83.0368 65.2635 83.6809 66.3637 84.469 67.3578C84.5088 67.3578 84.5088 67.3178 84.469 67.3578ZM59.8778 56.3974C58.5966 56.449 57.3318 56.7046 56.1312 57.1546C55.5349 57.3629 54.9608 57.63 54.4174 57.9518C53.8804 58.2782 53.3736 58.6517 52.9028 59.0678C52.866 59.0875 52.825 59.0977 52.7833 59.0977C52.7416 59.0977 52.7006 59.0875 52.6638 59.0678C52.584 59.0278 52.6238 58.9082 52.6638 58.8286C53.6847 58.0132 54.8464 57.3918 56.0914 56.9952C57.3126 56.5869 58.59 56.3717 59.8776 56.3574C59.9176 56.3574 59.9176 56.3574 59.8776 56.3974H59.8778Z" fill="#F9FAFD"/>
<path d="M94.473 71.7822C88.654 82.7822 79.6466 89.2788 69.842 90.913C60.0374 92.5472 49.4356 89.3188 40.3882 80.7896C52.0662 58.8288 76.2986 54.8034 94.473 71.782V71.7822Z" fill="#35A2A0"/>
<path d="M91.5636 72.4595L44.4936 80.1517C44.4536 80.1517 44.4136 80.1517 44.4136 80.1117C44.4136 80.0717 44.4136 80.0321 44.4536 80.0321L91.4838 72.1407C91.5249 72.1399 91.5654 72.1507 91.6006 72.1718C91.6359 72.193 91.6645 72.2236 91.6832 72.2603C91.723 72.3399 91.6432 72.4197 91.5636 72.4595Z" fill="#F9FAFD"/>
<path d="M64.3814 76.8038C63.1397 76.4682 61.9568 75.944 60.874 75.2494C60.3283 74.9056 59.8207 74.5048 59.3596 74.0536C58.8928 73.5998 58.4661 73.1064 58.0842 72.579C58.0711 72.5607 58.0618 72.54 58.0567 72.5181C58.0516 72.4961 58.0509 72.4734 58.0546 72.4512C58.0583 72.429 58.0663 72.4077 58.0782 72.3886C58.0902 72.3695 58.1057 72.3529 58.124 72.3398C58.1424 72.3268 58.1631 72.3174 58.185 72.3123C58.2069 72.3072 58.2297 72.3065 58.2519 72.3102C58.2741 72.3139 58.2954 72.3219 58.3145 72.3338C58.3336 72.3458 58.3501 72.3613 58.3632 72.3796C58.7174 72.9056 59.1175 73.3991 59.5588 73.8544C60.0058 74.3051 60.5003 74.706 61.0336 75.05C62.0788 75.7885 63.2362 76.3538 64.4612 76.724C64.4212 76.764 64.4212 76.8038 64.3814 76.8038ZM78.6898 74.4522C77.6626 75.2073 76.7498 76.1067 75.9796 77.1226C75.5873 77.6282 75.253 78.1763 74.9832 78.7566C74.7163 79.3245 74.4898 79.9106 74.3056 80.5104C74.301 80.532 74.292 80.5523 74.2793 80.5703C74.2666 80.5883 74.2504 80.6036 74.2317 80.6152C74.213 80.6269 74.1922 80.6346 74.1704 80.638C74.1486 80.6414 74.1264 80.6404 74.1051 80.6351C74.0837 80.6297 74.0636 80.6201 74.046 80.6069C74.0284 80.5936 74.0137 80.577 74.0027 80.5579C73.9916 80.5388 73.9846 80.5177 73.9818 80.4959C73.9791 80.474 73.9808 80.4518 73.9868 80.4306C74.1735 79.8071 74.4274 79.2057 74.744 78.637C75.0653 78.0687 75.4248 77.5228 75.82 77.003C76.6389 76.0094 77.6071 75.1489 78.6898 74.4522C78.7298 74.4522 78.7298 74.4122 78.6898 74.4522ZM83.6718 73.6152C82.4301 73.2796 81.2472 72.7554 80.1644 72.0608C79.6187 71.7171 79.1111 71.3163 78.65 70.8652C78.1832 70.4113 77.7564 69.9179 77.3746 69.3904C77.352 69.3523 77.3436 69.3074 77.3508 69.2637C77.3581 69.2199 77.3807 69.1802 77.4144 69.1514C77.4942 69.0716 77.5738 69.1114 77.6536 69.1912C78.0078 69.7171 78.4079 70.2106 78.8492 70.6658C79.2962 71.1166 79.7907 71.5175 80.324 71.8616C81.3692 72.6001 82.5266 73.1654 83.7516 73.5356L83.6718 73.6152ZM57.1278 78.0392C56.1006 78.7943 55.1877 79.6937 54.4174 80.7096C54.0251 81.2152 53.6908 81.7633 53.421 82.3436C53.1541 82.9115 52.9276 83.4976 52.7434 84.0974C52.7318 84.1385 52.7046 84.1734 52.6676 84.1948C52.6306 84.2162 52.5868 84.2223 52.5454 84.212C52.504 84.2016 52.4682 84.1755 52.4457 84.1393C52.4231 84.103 52.4156 84.0594 52.4246 84.0176C52.6113 83.3942 52.8652 82.7928 53.1818 82.2242C53.5031 81.6559 53.8626 81.11 54.2578 80.5902C55.0768 79.5966 56.045 78.736 57.1278 78.0392Z" fill="#F9FAFD"/>
<path d="M94.4332 71.7821C82.1176 69.8289 73.0702 63.4121 68.3672 54.6837C63.6642 45.9553 63.2656 34.8751 68.3672 23.5161C92.9586 27.4619 104.636 49.0641 94.4332 71.7821Z" fill="#4ED6D4"/>
<path d="M92.8789 69.2311L70.3203 27.2227C70.3203 27.1827 70.3203 27.1431 70.3603 27.1431C70.4003 27.1431 70.4399 27.1431 70.4399 27.1829L93.1579 69.1115C93.1667 69.1297 93.1716 69.1495 93.1722 69.1697C93.1729 69.1899 93.1694 69.21 93.1619 69.2287C93.1544 69.2475 93.1431 69.2645 93.1286 69.2786C93.1142 69.2928 93.097 69.3037 93.0781 69.3109C92.9985 69.3109 92.9187 69.3109 92.8789 69.2311Z" fill="#F9FAFD"/>
<path d="M79.9255 44.919C79.8514 43.635 79.9588 42.3469 80.2443 41.0928C80.3968 40.4624 80.6105 39.8484 80.8821 39.2594C81.1376 38.6676 81.4584 38.1061 81.8385 37.5854C81.8785 37.5058 81.9979 37.5058 82.0777 37.5454C82.1575 37.585 82.1573 37.705 82.1177 37.7848C81.7483 38.292 81.4152 38.8247 81.1211 39.3788C80.8304 39.9502 80.6031 40.5516 80.4435 41.1724C80.0865 42.4017 79.9252 43.6794 79.9655 44.9588C79.9655 44.9188 79.9655 44.959 79.9255 44.919ZM86.8205 57.7128C85.7845 56.9589 84.6244 56.3924 83.3929 56.0388C82.1828 55.6581 80.9117 55.5093 79.6465 55.6004C79.6042 55.6004 79.5637 55.5836 79.5338 55.5537C79.5039 55.5239 79.4871 55.4833 79.4871 55.441C79.4871 55.3988 79.5039 55.3582 79.5338 55.3283C79.5637 55.2984 79.6042 55.2816 79.6465 55.2816C80.2998 55.2619 80.9535 55.3019 81.5995 55.4012C82.2339 55.5183 82.8598 55.678 83.4727 55.8794C84.6941 56.2745 85.83 56.8965 86.8207 57.7128C86.8605 57.6728 86.8605 57.7128 86.8207 57.7128H86.8205ZM89.2119 62.1368C89.1379 60.8529 89.2452 59.5649 89.5307 58.3108C89.6832 57.6804 89.8968 57.0663 90.1685 56.4772C90.4241 55.8854 90.745 55.3239 91.1251 54.8032C91.1649 54.7236 91.2845 54.7236 91.3641 54.7634C91.4437 54.8032 91.4439 54.9228 91.4041 55.0026C91.0347 55.5099 90.7018 56.0426 90.4077 56.5968C90.117 57.1682 89.8897 57.7696 89.7301 58.3904C89.373 59.6196 89.2117 60.8973 89.2519 62.1766C89.2519 62.1368 89.2519 62.1766 89.2119 62.1368ZM76.4181 38.4622C75.3821 37.7083 74.222 37.1418 72.9905 36.7882C71.7804 36.4075 70.5092 36.2587 69.2439 36.3498C69.2016 36.3498 69.1611 36.333 69.1312 36.3031C69.1013 36.2732 69.0845 36.2327 69.0845 36.1904C69.0845 36.1482 69.1013 36.1076 69.1312 36.0777C69.1611 36.0478 69.2016 36.031 69.2439 36.031C69.8972 36.0112 70.5509 36.0513 71.1969 36.1506C71.8313 36.2677 72.4572 36.4274 73.0701 36.6288C74.2883 37.0312 75.4229 37.6525 76.4181 38.4622C76.4581 38.4622 76.4581 38.4224 76.4181 38.4622Z" fill="#F9FAFD"/>
<path d="M157.924 50.5786C157.716 50.4284 157.488 50.3077 157.247 50.2198C156.165 49.7683 154.95 49.754 153.859 50.1798C153.313 50.3938 152.816 50.716 152.399 51.1271C151.981 51.5381 151.65 52.0294 151.428 52.5714C151.348 52.7564 151.199 52.9023 151.012 52.977C150.825 53.0518 150.616 53.0492 150.431 52.9699C150.246 52.8906 150.1 52.7411 150.025 52.5542C149.951 52.3673 149.953 52.1584 150.033 51.9734C150.653 50.5084 151.828 49.3481 153.301 48.7452C154.022 48.4457 154.796 48.2949 155.577 48.3017C156.357 48.3086 157.129 48.4731 157.844 48.7852C158.169 48.9044 158.477 49.0651 158.761 49.2632L166.254 54.046C166.767 54.3869 167.213 54.8192 167.569 55.3214C167.976 55.9317 168.226 56.6334 168.296 57.3637C168.365 58.0941 168.252 58.8303 167.968 59.5064C167.835 59.8326 167.66 60.1406 167.45 60.423C166.888 60.4287 166.341 60.2463 165.895 59.905C165.935 59.865 165.975 59.7854 166.015 59.7454C166.246 59.5076 166.423 59.2219 166.533 58.9084C166.743 58.3839 166.803 57.8109 166.704 57.2544C166.605 56.6979 166.353 56.1801 165.975 55.7598C165.798 55.5907 165.611 55.4311 165.417 55.2816" fill="#4ED6D4"/>
<path d="M159.399 77.9598C159.205 77.9603 159.013 77.9224 158.834 77.8485C158.655 77.7745 158.492 77.6659 158.355 77.5289C158.218 77.3918 158.109 77.2291 158.035 77.0499C157.961 76.8708 157.923 76.6788 157.924 76.485V60.981C157.924 55.7591 155.85 50.7512 152.157 47.0588C148.465 43.3663 143.457 41.292 138.235 41.292C133.013 41.292 128.005 43.3663 124.313 47.0588C120.62 50.7512 118.546 55.7591 118.546 60.981V76.485C118.546 76.8761 118.391 77.2511 118.114 77.5277C117.837 77.8042 117.462 77.9596 117.071 77.9596C116.68 77.9596 116.305 77.8042 116.029 77.5277C115.752 77.2511 115.597 76.8761 115.597 76.485V60.981C115.597 48.4662 125.76 38.303 138.235 38.303C144.249 38.3064 150.015 40.6968 154.267 44.949C158.519 49.2012 160.91 54.9675 160.913 60.981V76.485C160.898 76.8783 160.733 77.2509 160.451 77.5255C160.169 77.8001 159.792 77.9556 159.399 77.9598Z" fill="#DDE3EA"/>
<path d="M176.218 176.484H161.192C162.422 176.484 163.637 176.224 164.759 175.721C165.881 175.217 166.883 174.482 167.7 173.563C168.517 172.645 169.13 171.563 169.499 170.39C169.868 169.218 169.985 167.98 169.841 166.759L158.203 70.1478C157.953 68.0328 156.933 66.0839 155.338 64.6726C153.743 63.2613 151.684 62.4863 149.554 62.4954H164.58C166.708 62.4927 168.763 63.27 170.357 64.6801C171.951 66.0902 172.972 68.0354 173.229 70.1478L184.867 166.759C185.004 167.979 184.882 169.214 184.511 170.384C184.139 171.553 183.526 172.632 182.71 173.549C181.894 174.466 180.895 175.202 179.776 175.707C178.658 176.213 177.445 176.478 176.218 176.484Z" fill="#BA93DF"/>
<path d="M167.25 176.484H84.429C83.1996 176.484 81.984 176.224 80.8624 175.721C79.7407 175.217 78.7384 174.482 77.9214 173.563C77.1044 172.644 76.4912 171.563 76.1222 170.39C75.7531 169.218 75.6367 167.98 75.7804 166.759L87.4184 70.1078C87.6688 67.9928 88.6886 66.0439 90.2837 64.6326C91.8787 63.2213 93.9373 62.4463 96.067 62.4554H155.612C157.74 62.4527 159.795 63.2298 161.389 64.6399C162.983 66.0501 164.005 67.9953 164.261 70.1078L175.899 166.719C176.043 167.942 175.928 169.182 175.559 170.357C175.191 171.533 174.578 172.617 173.762 173.539C172.945 174.461 171.943 175.2 170.821 175.707C169.699 176.215 168.482 176.48 167.25 176.484Z" fill="#58297E"/>
<path d="M150.909 76.9632C150.909 77.7279 150.683 78.4753 150.258 79.1111C149.833 79.7468 149.229 80.2423 148.523 80.5349C147.816 80.8276 147.039 80.9041 146.289 80.7549C145.539 80.6058 144.85 80.2376 144.31 79.6969C143.769 79.1562 143.401 78.4674 143.252 77.7174C143.102 76.9675 143.179 76.1902 143.472 75.4838C143.764 74.7774 144.26 74.1736 144.895 73.7488C145.531 73.324 146.279 73.0972 147.043 73.0972C148.066 73.105 149.045 73.5148 149.768 74.2381C150.492 74.9615 150.902 75.9403 150.909 76.9632ZM108.542 76.9632C108.542 77.7279 108.315 78.4753 107.891 79.1111C107.466 79.7468 106.862 80.2423 106.156 80.5349C105.449 80.8276 104.672 80.9041 103.922 80.7549C103.172 80.6058 102.483 80.2376 101.942 79.6969C101.402 79.1562 101.034 78.4674 100.884 77.7174C100.735 76.9675 100.812 76.1902 101.104 75.4838C101.397 74.7774 101.892 74.1736 102.528 73.7488C103.164 73.324 103.911 73.0972 104.676 73.0972C105.185 73.0944 105.689 73.1924 106.159 73.3857C106.629 73.5789 107.057 73.8636 107.416 74.2232C107.776 74.5827 108.06 75.0101 108.254 75.4804C108.447 75.9507 108.545 76.4547 108.542 76.9632Z" fill="#F9FAFD"/>
<path d="M147.043 77.9598C146.849 77.9603 146.657 77.9224 146.478 77.8485C146.299 77.7745 146.136 77.6659 145.999 77.5289C145.862 77.3918 145.754 77.2291 145.68 77.0499C145.606 76.8708 145.568 76.6788 145.568 76.485V60.981C145.568 55.7591 143.494 50.7512 139.802 47.0588C136.109 43.3663 131.101 41.292 125.879 41.292C120.658 41.292 115.65 43.3663 111.957 47.0588C108.265 50.7512 106.19 55.7591 106.19 60.981V76.485C106.191 76.6788 106.153 76.8707 106.079 77.0499C106.005 77.229 105.897 77.3918 105.76 77.5288C105.623 77.6658 105.46 77.7745 105.281 77.8484C105.102 77.9224 104.91 77.9602 104.716 77.9598C104.327 77.9539 103.955 77.7966 103.68 77.5213C103.404 77.246 103.247 76.8743 103.241 76.485V60.981C103.241 48.4662 113.405 38.303 125.88 38.303C131.893 38.3064 137.659 40.6968 141.912 44.949C146.164 49.2012 148.554 54.9675 148.558 60.981V76.485C148.543 76.8783 148.377 77.2508 148.096 77.5254C147.814 77.8 147.437 77.9555 147.043 77.9598Z" fill="#F0F4F9"/>
<path d="M125.84 144.519C139.663 144.519 150.869 133.313 150.869 119.49C150.869 105.666 139.663 94.4602 125.84 94.4602C112.016 94.4602 100.81 105.666 100.81 119.49C100.81 133.313 112.016 144.519 125.84 144.519Z" fill="#F9FAFD"/>
<path d="M114.481 118.334C113.524 117.497 113.006 116.421 112.886 114.986C112.846 114.269 112.807 113.79 112.807 113.511C112.807 113.192 112.847 112.595 112.886 111.638C112.966 110.203 113.444 109.087 114.401 108.25C115.318 107.413 116.633 106.975 118.307 106.975C119.981 106.975 121.256 107.413 122.213 108.25C123.129 109.087 123.648 110.243 123.767 111.638C123.807 112.555 123.847 113.192 123.847 113.511C123.847 113.79 123.807 114.268 123.767 114.986C123.746 115.624 123.594 116.25 123.32 116.826C123.045 117.403 122.655 117.916 122.173 118.334C121.216 119.171 119.941 119.569 118.347 119.569C116.753 119.569 115.477 119.171 114.481 118.334L114.481 118.334ZM114.959 131.566C114.879 131.507 114.815 131.428 114.773 131.338C114.731 131.247 114.713 131.148 114.72 131.048C114.716 130.974 114.728 130.9 114.756 130.831C114.783 130.762 114.825 130.7 114.879 130.649L132.217 107.852C132.369 107.659 132.542 107.486 132.735 107.334C132.951 107.207 133.202 107.151 133.452 107.174H136.083C136.298 107.173 136.509 107.243 136.681 107.373C136.761 107.433 136.825 107.511 136.867 107.602C136.908 107.692 136.927 107.792 136.92 107.891C136.924 107.965 136.911 108.039 136.884 108.108C136.856 108.177 136.814 108.239 136.76 108.29L119.423 131.088C119.271 131.28 119.097 131.454 118.905 131.606C118.688 131.733 118.437 131.789 118.187 131.765H115.557C115.341 131.767 115.131 131.697 114.959 131.566H114.959ZM119.463 115.982C119.717 115.651 119.857 115.245 119.861 114.826C119.901 114.109 119.941 113.631 119.941 113.352C119.941 113.033 119.901 112.555 119.861 111.917C119.845 111.489 119.707 111.074 119.463 110.721C119.224 110.402 118.825 110.243 118.307 110.243C117.39 110.243 116.872 110.801 116.752 111.917C116.714 112.394 116.701 112.873 116.713 113.352C116.713 113.99 116.713 114.468 116.753 114.826C116.782 115.259 116.934 115.674 117.191 116.022C117.43 116.341 117.789 116.461 118.307 116.461C118.825 116.461 119.223 116.301 119.463 115.982ZM129.546 130.649C129.06 130.226 128.668 129.706 128.393 129.123C128.119 128.54 127.969 127.906 127.952 127.262C127.912 126.544 127.872 126.066 127.872 125.787C127.872 125.508 127.912 124.91 127.952 123.954C128.032 122.519 128.55 121.363 129.506 120.526C130.423 119.689 131.738 119.251 133.412 119.251C135.086 119.251 136.362 119.689 137.318 120.526C138.235 121.363 138.753 122.519 138.833 123.954C138.873 124.87 138.912 125.508 138.912 125.787C138.912 126.066 138.873 126.544 138.833 127.262C138.808 127.904 138.654 128.536 138.38 129.118C138.106 129.7 137.718 130.22 137.239 130.649C136.282 131.486 135.007 131.925 133.412 131.925C131.778 131.925 130.503 131.526 129.546 130.649ZM134.488 128.298C134.745 127.949 134.898 127.534 134.927 127.102C134.967 126.385 135.007 125.907 135.007 125.628C135.007 125.309 134.967 124.83 134.927 124.193C134.898 123.761 134.745 123.346 134.488 122.997C134.249 122.678 133.891 122.559 133.372 122.559C133.156 122.545 132.939 122.581 132.739 122.664C132.539 122.746 132.36 122.874 132.217 123.037C131.962 123.369 131.822 123.774 131.818 124.193C131.78 124.67 131.766 125.149 131.778 125.628C131.778 126.265 131.778 126.744 131.818 127.102C131.834 127.531 131.973 127.945 132.217 128.298C132.456 128.617 132.854 128.776 133.373 128.776C133.583 128.79 133.794 128.754 133.988 128.671C134.182 128.588 134.353 128.46 134.488 128.298Z" fill="#FA5814"/>
<path d="M199.973 176.484H151.468C151.071 176.485 150.679 176.401 150.318 176.238C149.957 176.074 149.635 175.835 149.375 175.537C149.114 175.238 148.92 174.887 148.807 174.508C148.694 174.128 148.663 173.728 148.718 173.336L154.576 128.577C154.663 127.908 154.989 127.292 155.495 126.845C156.001 126.398 156.651 126.15 157.326 126.146H194.034C194.711 126.143 195.365 126.39 195.872 126.838C196.379 127.286 196.704 127.905 196.784 128.577L202.643 173.336C202.71 173.724 202.691 174.121 202.587 174.501C202.484 174.881 202.298 175.233 202.044 175.534C201.789 175.834 201.471 176.075 201.114 176.239C200.756 176.403 200.366 176.487 199.973 176.484Z" fill="#FF9A05"/>
<path d="M163.504 137.066C165.045 137.066 166.294 135.817 166.294 134.276C166.294 132.735 165.045 131.486 163.504 131.486C161.963 131.486 160.714 132.735 160.714 134.276C160.714 135.817 161.963 137.066 163.504 137.066Z" fill="#F9FAFD"/>
<path d="M187.936 137.066C189.477 137.066 190.726 135.817 190.726 134.276C190.726 132.735 189.477 131.486 187.936 131.486C186.395 131.486 185.146 132.735 185.146 134.276C185.146 135.817 186.395 137.066 187.936 137.066Z" fill="#F9FAFD"/>
<path d="M187.936 135.074C187.81 135.075 187.685 135.052 187.568 135.004C187.451 134.957 187.345 134.886 187.256 134.797C187.167 134.708 187.096 134.602 187.049 134.485C187.001 134.368 186.978 134.243 186.979 134.117V123.436C186.979 120.455 185.795 117.596 183.687 115.488C181.58 113.38 178.721 112.196 175.74 112.196C172.759 112.196 169.9 113.38 167.793 115.488C165.685 117.596 164.501 120.455 164.501 123.436V134.117C164.502 134.243 164.479 134.368 164.431 134.485C164.384 134.602 164.313 134.708 164.224 134.797C164.135 134.886 164.029 134.957 163.912 135.004C163.795 135.052 163.67 135.075 163.544 135.074C163.291 135.07 163.05 134.968 162.871 134.79C162.693 134.611 162.591 134.37 162.587 134.117V123.436C162.587 119.937 163.977 116.581 166.451 114.107C168.925 111.633 172.281 110.243 175.78 110.243C179.279 110.243 182.634 111.633 185.108 114.107C187.582 116.581 188.972 119.937 188.972 123.436V134.117C188.951 134.377 188.832 134.62 188.64 134.797C188.449 134.974 188.197 135.073 187.936 135.074Z" fill="#DDE3EA"/>
<path d="M181.28 49.3826L218.067 73.3362C218.656 73.7153 219.165 74.2077 219.563 74.7849C219.96 75.362 220.24 76.0123 220.384 76.6982C220.529 77.3841 220.536 78.0918 220.405 78.7804C220.274 79.469 220.008 80.1247 219.621 80.7096L207.226 99.721C206.847 100.311 206.355 100.819 205.777 101.217C205.2 101.615 204.55 101.894 203.864 102.039C203.178 102.183 202.47 102.19 201.782 102.059C201.093 101.928 200.438 101.662 199.853 101.275L163.065 77.3218C162.303 76.8288 161.679 76.1488 161.253 75.3465C160.828 74.5443 160.614 73.6464 160.634 72.7384L160.953 59.3864C160.971 58.3933 161.268 57.4252 161.811 56.5933C162.353 55.7615 163.12 55.0996 164.022 54.6836L176.098 49.024C176.923 48.6475 177.83 48.4831 178.734 48.5457C179.639 48.6083 180.514 48.896 181.28 49.3826Z" fill="#89E4E2"/>
<path d="M166.852 62.4954C168.26 62.4954 169.402 61.3534 169.402 59.9446C169.402 58.5358 168.26 57.3938 166.852 57.3938C165.443 57.3938 164.301 58.5358 164.301 59.9446C164.301 61.3534 165.443 62.4954 166.852 62.4954Z" fill="#F9FAFD"/>
<path d="M169.044 58.6294C169.22 58.9143 169.339 59.2313 169.392 59.5622C169.446 59.8931 169.433 60.2313 169.355 60.5573C169.277 60.8833 169.136 61.1907 168.939 61.4618C168.742 61.7329 168.493 61.9623 168.207 62.1368C167.804 62.4006 167.333 62.5393 166.852 62.5354C166.29 62.541 165.743 62.3587 165.297 62.0174C165.045 61.832 164.829 61.6024 164.66 61.3398C164.314 60.7862 164.196 60.1205 164.33 59.4818C164.463 58.843 164.838 58.2806 165.377 57.912C165.417 57.8722 165.457 57.8722 165.497 57.8324C166.079 57.4938 166.769 57.3877 167.426 57.5355C168.084 57.6833 168.662 58.074 169.044 58.6294Z" fill="#F9FAFD"/>
<path d="M187.697 59.1475C187.83 59.2314 187.945 59.3419 188.035 59.4722C188.124 59.6024 188.185 59.7497 188.215 59.9047C188.28 60.2066 188.222 60.5219 188.056 60.7817L176.218 78.9561C176.045 79.2155 175.778 79.3978 175.473 79.4647C175.169 79.5315 174.85 79.4778 174.584 79.3147C174.45 79.2308 174.335 79.1202 174.246 78.99C174.157 78.8597 174.096 78.7125 174.066 78.5575C174.001 78.2556 174.058 77.9404 174.225 77.6807L186.063 59.5063C186.145 59.3741 186.253 59.2598 186.381 59.17C186.508 59.0802 186.652 59.0167 186.804 58.9833C186.956 58.9499 187.114 58.9472 187.267 58.9754C187.42 59.0036 187.566 59.0621 187.697 59.1475Z" fill="#4ED6D4"/>
<path d="M192.28 87.5251C192.041 86.5287 192.2 85.4925 192.758 84.4561C192.918 84.1771 193.157 83.8185 193.436 83.3401C193.755 82.8621 193.994 82.5033 194.193 82.2241C194.911 81.2677 195.787 80.6699 196.784 80.5105C197.78 80.3111 198.856 80.5901 199.972 81.3475C201.088 82.1049 201.806 82.9415 202.045 83.9381C202.284 84.9347 202.085 85.9309 201.527 87.0069C201.168 87.6049 200.929 88.0033 200.849 88.1629C200.73 88.3223 200.49 88.6809 200.092 89.2389C199.375 90.1955 198.498 90.7535 197.501 90.9129C196.465 91.0723 195.429 90.8331 194.313 90.1157C193.197 89.3983 192.519 88.5613 192.28 87.5251ZM182.356 81.9451C182.338 81.8706 182.336 81.7931 182.35 81.7177C182.363 81.6422 182.393 81.5705 182.436 81.5069C182.511 81.4188 182.607 81.3504 182.715 81.3075L205.034 73.2965C205.226 73.2258 205.428 73.1855 205.632 73.1769C205.832 73.1951 206.024 73.2636 206.19 73.3761L207.465 74.2131C207.605 74.3066 207.704 74.4488 207.744 74.6117C207.777 74.7627 207.748 74.9203 207.665 75.0501C207.589 75.1382 207.493 75.2067 207.386 75.2495L185.066 83.2605C184.874 83.3312 184.672 83.3716 184.468 83.3801C184.279 83.3674 184.099 83.2979 183.95 83.1807L182.675 82.3439C182.596 82.3048 182.526 82.2488 182.471 82.1799C182.416 82.1111 182.377 82.031 182.356 81.9453V81.9451ZM196.824 88.4817C197.241 88.3261 197.602 88.0483 197.86 87.6845C198.111 87.3609 198.35 87.0285 198.577 86.6881C198.798 86.3695 198.998 86.0366 199.175 85.6917C199.411 85.2952 199.522 84.837 199.494 84.3765C199.454 83.9381 199.215 83.5793 198.737 83.2605C198.548 83.1276 198.333 83.0373 198.106 82.996C197.878 82.9547 197.645 82.9634 197.422 83.0213C196.99 83.1714 196.615 83.4495 196.346 83.8185C196.186 84.0577 195.947 84.3765 195.668 84.7751C195.437 85.1228 195.224 85.4819 195.03 85.8511C194.806 86.2367 194.709 86.6827 194.751 87.1265C194.791 87.5649 195.03 87.9237 195.508 88.2425C195.987 88.5216 196.425 88.6013 196.824 88.4817ZM188.135 72.6189C187.856 71.6225 188.015 70.6261 188.573 69.6297C188.733 69.3507 188.972 68.9919 189.251 68.5137C189.511 68.1242 189.776 67.7389 190.048 67.3579C190.766 66.4013 191.642 65.8035 192.639 65.6439C193.635 65.4449 194.711 65.7239 195.827 66.4811C196.943 67.1985 197.621 68.0753 197.86 69.0717C198.099 70.0681 197.94 71.0645 197.342 72.1407L196.624 73.3363C196.505 73.4957 196.266 73.8543 195.867 74.4123C195.15 75.3291 194.313 75.8871 193.316 76.0465C192.32 76.2059 191.244 75.9269 190.168 75.2095C189.052 74.4523 188.414 73.6155 188.135 72.6189ZM192.639 73.5755C193.07 73.4254 193.446 73.1473 193.715 72.7783C193.966 72.4547 194.205 72.1223 194.432 71.7819C194.65 71.4477 194.85 71.1018 195.03 70.7457C195.266 70.3492 195.377 69.891 195.349 69.4305C195.309 68.9919 195.07 68.6333 194.592 68.3145C194.403 68.1816 194.188 68.0913 193.96 68.05C193.733 68.0087 193.5 68.0173 193.276 68.0753C192.845 68.2254 192.47 68.5035 192.2 68.8725C192.041 69.1115 191.802 69.4305 191.523 69.8689C191.244 70.2673 191.045 70.6261 190.885 70.9051C190.661 71.2907 190.564 71.7367 190.606 72.1805C190.646 72.6189 190.885 72.9777 191.363 73.2965C191.802 73.6153 192.24 73.7349 192.639 73.5755Z" fill="#F9FAFD"/>
<path d="M166.214 61.6187C165.214 62.237 164.012 62.4374 162.866 62.1767L154.177 60.1837C153.326 59.9859 152.528 59.6047 151.84 59.0669C151.151 58.529 150.588 57.8475 150.189 57.0696C149.791 56.2918 149.567 55.4364 149.533 54.5632C149.499 53.6899 149.656 52.8197 149.993 52.0133C150.073 51.8292 150.222 51.6842 150.409 51.6101C150.595 51.5359 150.803 51.5387 150.988 51.6178C151.172 51.6969 151.318 51.8458 151.393 52.032C151.468 52.2182 151.466 52.4265 151.387 52.6113C151.127 53.2067 151.006 53.8537 151.033 54.503C151.061 55.1523 151.237 55.7867 151.547 56.3577C151.837 56.9449 152.257 57.4583 152.775 57.8589C153.293 58.2594 153.895 58.5366 154.536 58.6693L163.225 60.6621C163.732 60.7741 164.26 60.7522 164.756 60.5985C165.252 60.4447 165.7 60.1645 166.055 59.7853C166.123 59.7121 166.205 59.6529 166.295 59.6112C166.386 59.5696 166.485 59.5462 166.584 59.5425C166.684 59.5388 166.784 59.5548 166.878 59.5896C166.972 59.6245 167.058 59.6774 167.131 59.7454C167.204 59.8135 167.263 59.8953 167.305 59.9862C167.347 60.0771 167.37 60.1753 167.374 60.2752C167.377 60.3751 167.361 60.4748 167.326 60.5686C167.292 60.6623 167.239 60.7483 167.171 60.8215C166.9 61.1402 166.576 61.4099 166.214 61.6187Z" fill="#4ED6D4"/>
<path d="M55.2147 175.567C55.2147 175.807 55.1349 176.046 55.1349 176.165C55.121 176.216 55.0892 176.261 55.0452 176.29C55.0012 176.319 54.9481 176.332 54.8957 176.325H44.1745C44.1386 176.328 44.1024 176.323 44.0689 176.31C44.0354 176.296 44.0057 176.275 43.9822 176.248C43.9587 176.22 43.9422 176.188 43.934 176.152C43.9259 176.117 43.9263 176.081 43.9353 176.046L44.3339 174.332L45.6491 168.752L49.9137 169.191C49.9137 169.191 49.5949 171.701 52.9429 172.658C55.0153 173.256 55.2545 174.691 55.2147 175.567Z" fill="#292561"/>
<path d="M51.1492 171.781C49.7144 170.665 49.9136 169.191 49.9136 169.191L45.649 168.752L44.9316 171.781H51.1492Z" fill="#191937"/>
<path d="M85.8244 175.567C85.8244 175.807 85.7448 176.046 85.7448 176.165C85.7309 176.216 85.699 176.261 85.655 176.29C85.6111 176.319 85.558 176.332 85.5056 176.325H74.7844C74.7485 176.328 74.7122 176.323 74.6788 176.31C74.6453 176.296 74.6156 176.275 74.5921 176.248C74.5686 176.22 74.5521 176.188 74.5439 176.152C74.5357 176.117 74.5362 176.081 74.5452 176.046L74.9438 174.332L76.259 168.752L80.5236 169.191C80.5236 169.191 80.2048 171.701 83.5526 172.658C85.6252 173.256 85.8644 174.691 85.8246 175.567H85.8244Z" fill="#292561"/>
<path d="M81.7591 171.781C80.3243 170.665 80.5235 169.191 80.5235 169.191L76.2589 168.752L75.5415 171.781H81.7591Z" fill="#191937"/>
<path d="M20.5 137.784L27.4748 146.393L39.8302 130.729L33.1742 124.751L20.5 137.784Z" fill="#EF996D"/>
<path d="M27.4746 146.393H30.4638L32.2176 148.505L41.0656 131.925L39.9894 131.885L39.83 130.729L27.4746 146.393Z" fill="#E58C5C"/>
<path d="M36.5218 130.61C36.462 130.6 36.4065 130.572 36.3626 130.53C36.3437 130.512 36.3287 130.49 36.3184 130.466C36.3081 130.442 36.3028 130.417 36.3028 130.391C36.3028 130.364 36.3081 130.339 36.3184 130.315C36.3287 130.291 36.3437 130.269 36.3626 130.251C36.4026 130.211 40.4278 126.624 40.1886 124.113C40.1492 123.771 40.027 123.443 39.8325 123.158C39.6381 122.873 39.3773 122.64 39.0726 122.479C38.8605 122.347 38.6216 122.264 38.3734 122.237C38.1252 122.209 37.8739 122.238 37.638 122.32C35.446 123.157 33.732 128.218 33.6922 128.258C33.6844 128.282 33.672 128.304 33.6557 128.322C33.6394 128.341 33.6196 128.356 33.5974 128.368C33.5525 128.39 33.5006 128.394 33.453 128.378C33.4055 128.362 33.3661 128.328 33.3437 128.283C33.3213 128.238 33.3176 128.186 33.3334 128.139C33.4132 127.939 35.127 122.838 37.5184 121.961C37.8111 121.846 38.1274 121.804 38.4398 121.839C38.7523 121.874 39.0517 121.984 39.312 122.16C40.109 122.638 40.5474 123.276 40.6272 124.113C40.8664 126.863 36.8408 130.45 36.6416 130.61C36.6416 130.57 36.5616 130.61 36.5218 130.61Z" fill="#131514"/>
<path d="M54.2185 112.037C51.7075 111.798 49.1565 110.881 47.4031 109.087C45.6493 107.254 44.8921 104.384 46.0081 102.113C46.8051 100.479 48.5189 99.1632 48.4393 97.3696C48.3993 96.0544 47.4031 94.8986 47.4429 93.5834C47.5225 92.4274 48.4393 91.471 49.4755 90.9928C50.5117 90.5146 51.7075 90.4348 52.8635 90.355C54.0195 90.2752 55.2149 90.1558 56.2511 89.6376C59.3201 88.0434 59.8381 83.3802 63.0267 82.025C64.5811 81.3874 66.3747 81.7062 67.8493 82.5034C69.3239 83.3006 70.5195 84.536 71.6753 85.7316C72.9109 87.007 74.1465 88.3224 74.7045 89.9962C75.0762 91.1201 75.0901 92.3316 74.7445 93.4638C74.4255 94.5 73.8277 95.6558 74.3857 96.6124C74.9037 97.5292 76.2589 97.7684 76.6973 98.7248C77.2153 99.8808 76.0597 101.156 76.1793 102.431C76.2987 103.787 77.7733 104.623 78.0923 105.939C78.4111 107.413 77.0561 108.769 75.6213 109.127C74.1865 109.486 72.6319 109.167 71.1573 109.008C68.8457 108.769 66.2153 108.928 64.0231 109.845C63.1861 110.203 62.5883 110.801 61.6715 111.16C60.5562 111.55 59.4094 111.843 58.2439 112.037C56.9047 112.156 55.5576 112.156 54.2185 112.037Z" fill="#7C3A3A"/>
<path d="M84.4692 103.348C84.4692 103.348 88.2554 97.3296 89.6504 100.638C91.0454 103.946 85.5452 105.62 85.5452 105.62L84.4692 103.348Z" fill="#FFD1C4"/>
<path d="M67.8892 95.3767V105.66C67.8892 105.66 71.2372 113.193 73.9872 113.87C74.3858 113.99 74.9438 113.87 75.6212 113.631C79.4076 112.236 86.3824 106.218 86.3824 106.218L84.549 102.83L75.2626 106.218C73.3096 97.2101 67.8892 95.3767 67.8892 95.3767Z" fill="#BA93DF"/>
<path d="M67.8892 99.522V105.7C67.8892 105.7 71.2372 113.232 73.9872 113.91C74.3858 114.03 74.9438 113.91 75.6212 113.671L75.701 113.591C76.219 112.953 75.9402 111.957 75.3024 111.399C74.7046 110.841 73.8676 110.602 73.1104 110.363C72.3132 110.124 71.5162 109.765 71.0378 109.127C70.5198 108.41 70.4798 107.413 70.5198 106.537C70.5198 104.823 70.5596 103.069 70.5596 101.355C70.5596 100.837 70.8386 99.6016 70.3204 99.4024C69.8022 99.2032 68.6066 99.5618 68.0486 99.6016C67.9688 99.482 67.929 99.522 67.8892 99.522Z" fill="#9859CD"/>
<path d="M39.1926 163.252V163.69C39.3122 166.161 40.2288 168.473 42.381 170.266H55.693C55.2546 168.154 55.175 165.683 55.414 163.172C55.4075 163.051 55.421 162.93 55.454 162.813C55.932 157.712 57.4068 151.972 59.0808 147.19C59.4394 146.074 59.6388 145.795 60.7548 141.929L60.8742 141.57C61.8706 138.063 62.9468 133.957 63.8236 130.41L64.1426 131.327L64.262 131.686L65.976 136.588L66.0954 136.947L67.8492 141.969C67.8492 142.008 69.1644 145.715 69.0846 145.476C69.0846 145.476 68.9652 146.153 68.8456 147.269C68.6862 148.664 68.4868 150.538 68.4072 152.291V152.65C68.2476 155.838 68.2876 159.465 68.8056 162.614C68.8456 162.734 68.8456 162.853 68.8854 162.973C69.563 166.52 70.918 169.429 73.4688 170.266H88.4548C87.7374 168.552 87.0598 166.918 86.462 165.364C85.1468 161.737 83.4328 157.632 81.5198 150.099C81.4743 149.985 81.4474 149.864 81.44 149.74C81.0016 148.027 80.643 146.432 80.2842 144.918C80.2444 144.798 80.2444 144.679 80.2046 144.559C79.248 140.334 79.2878 140.334 79.0088 139.338C76.5776 130.012 69.0048 112.595 69.0048 112.555H57.9248C51.1096 117.696 51.1892 132.283 46.4066 143.802C45.3702 146.313 43.0986 150.139 41.4246 154.085L41.305 154.404C40.732 155.751 40.2526 157.136 39.87 158.549C39.8246 158.663 39.7977 158.784 39.7904 158.907C39.3822 160.319 39.181 161.782 39.1926 163.252Z" fill="#FF9A05"/>
<path d="M63.7038 130.729C66.4142 125.907 66.4142 119.33 63.5444 110.96C63.5444 110.96 65.7764 112.913 66.733 118.174C67.6896 123.435 67.849 141.968 67.849 141.968L63.7038 130.729Z" fill="#F08228"/>
<path d="M56.2512 100.757C56.57 105.381 57.9252 112.555 57.9252 112.555H68.9254C68.9254 112.555 71.7154 98.2067 69.6828 96.3731C66.8528 93.7825 57.6062 94.4999 56.4106 97.2501C56.1316 97.8081 56.1316 99.1233 56.2512 100.757Z" fill="#BA93DF"/>
<path d="M56.251 100.757C56.5698 105.381 57.925 112.555 57.925 112.555H62.907C62.947 112.515 62.947 112.475 62.9866 112.435C63.146 111.957 62.907 111.399 62.5482 111.08C62.1346 110.778 61.6575 110.573 61.1532 110.482C60.6502 110.388 60.1658 110.213 59.7184 109.964C58.9214 109.446 58.483 108.49 58.443 107.533C58.403 106.576 58.6822 105.66 59.041 104.743C59.3598 103.866 59.7584 102.989 59.9576 102.033C60.1237 101.09 60.0692 100.121 59.7982 99.203C59.6388 98.645 59.3996 97.4892 58.6422 98.087C58.0446 98.5654 57.5662 99.3626 57.0482 99.9204C56.7692 100.199 56.53 100.478 56.251 100.757Z" fill="#9859CD"/>
<path d="M39.9897 119.131C39.9897 119.131 34.5693 122.2 37.3195 124.512C40.0697 126.823 43.1385 120.446 43.1385 120.446L39.9897 119.131Z" fill="#FFD1C4"/>
<path d="M58.2836 95.6958C58.2836 95.6958 51.1096 98.8046 46.4464 108.29C41.7832 117.776 39.1924 119.211 39.1924 119.211L43.5768 121.722C43.5768 121.722 52.2654 110.203 52.7834 109.327C53.3414 108.41 62.3888 101.515 58.2836 95.6958Z" fill="#BA93DF"/>
<path d="M61.0736 90.2353C61.0736 90.9129 61.9902 94.8587 61.9902 94.8587C61.9902 95.4963 65.2982 95.4963 65.2982 94.8587V92.9455C65.2982 92.9455 68.168 93.3441 68.8056 92.7861C69.2442 92.3875 70.121 88.2823 69.0846 85.6121C68.5666 84.2171 67.4906 83.2207 65.6172 83.3003C61.7512 83.4597 61.0736 86.4092 61.0338 88.442C60.9965 89.0398 61.0098 89.6397 61.0736 90.2353Z" fill="#FFD1C4"/>
<path d="M60.7944 88.4021C60.7944 88.4021 64.7004 89.7571 66.1352 88.0433C67.6098 86.2895 68.965 85.4127 69.2838 85.4127C68.7258 83.9779 67.6098 82.9017 65.617 82.9815C61.5516 83.1807 60.8342 86.2895 60.7944 88.4019V88.4021Z" fill="#7C3A3A"/>
<path d="M54.1784 117.417C55.135 117.178 56.0916 116.939 57.088 116.78C61.0887 116.067 65.1893 116.135 69.1644 116.979C69.7624 117.098 70.36 117.258 70.958 117.417C70.9117 117.282 70.8584 117.149 70.7984 117.019C70.2804 116.899 69.802 116.74 69.2442 116.62C65.2287 115.777 61.089 115.709 57.0482 116.421C56.1314 116.58 55.2944 116.78 54.4176 116.979C54.3295 117.12 54.2496 117.267 54.1784 117.417ZM52.106 123.077C52.3996 123.002 52.6919 122.923 52.9828 122.838C54.298 122.479 55.6532 122.12 57.0482 121.881C61.0489 121.169 65.1495 121.237 69.1246 122.081C70.2406 122.32 71.2766 122.639 72.313 122.918C72.6318 122.997 72.9508 123.117 73.2696 123.197C73.2296 123.077 73.15 122.918 73.1102 122.798C72.871 122.718 72.6318 122.678 72.4326 122.599C71.3964 122.32 70.36 122.001 69.244 121.762C65.2285 120.918 61.0888 120.851 57.048 121.562C55.6642 121.811 54.2941 122.13 52.943 122.519C52.722 122.591 52.4953 122.644 52.2654 122.678C52.1886 122.801 52.1346 122.936 52.106 123.077ZM50.7508 128.537C51.5082 128.338 52.3052 128.139 53.0228 127.979C54.3378 127.621 55.693 127.262 57.088 127.023C61.0887 126.31 65.1893 126.378 69.1644 127.222C70.2804 127.461 71.3166 127.78 72.3528 128.059C73.2696 128.338 74.2262 128.617 75.1828 128.816C75.2624 128.856 75.382 128.856 75.4616 128.896C75.4259 128.757 75.3723 128.623 75.3022 128.497H75.2226C74.266 128.258 73.3094 127.979 72.3926 127.74C71.3566 127.461 70.3202 127.142 69.2042 126.903C65.1887 126.06 61.049 125.992 57.0082 126.704C55.6244 126.953 54.2542 127.272 52.903 127.66C52.2256 127.86 51.508 128.019 50.7906 128.178C50.7906 128.258 50.7508 128.418 50.7508 128.537ZM69.244 131.965C67.5494 131.611 65.8308 131.385 64.1026 131.287L64.2222 131.646C65.885 131.713 67.5387 131.927 69.1642 132.284C70.2802 132.523 71.3166 132.842 72.3528 133.121C73.2696 133.4 74.2262 133.679 75.1828 133.878C75.9 134.037 76.6574 134.197 77.4148 134.316C77.3748 134.197 77.3348 134.077 77.295 133.918C76.6174 133.798 75.94 133.679 75.2624 133.519C74.3058 133.28 73.3492 133.001 72.4324 132.762C71.3964 132.523 70.36 132.204 69.244 131.965ZM49.4754 133.918H49.5552C50.7508 133.679 51.9066 133.36 53.0226 133.081C54.3378 132.722 55.693 132.363 57.088 132.124C59.1936 131.763 61.329 131.602 63.465 131.646C63.5104 131.531 63.5372 131.41 63.5446 131.287C61.3548 131.204 59.1625 131.364 57.0082 131.766C55.5734 132.005 54.2182 132.403 52.903 132.722C51.827 133.001 50.711 133.32 49.555 133.559C49.5096 133.674 49.4827 133.795 49.4754 133.918ZM69.244 137.106C68.1658 136.869 67.0746 136.696 65.976 136.588L66.0954 136.947C67.1714 137.066 68.168 137.226 69.1644 137.425C70.2804 137.664 71.3166 137.983 72.3528 138.262C73.2696 138.541 74.2262 138.82 75.1828 139.019C76.4421 139.319 77.7204 139.532 79.0088 139.657C78.9634 139.542 78.9366 139.421 78.9292 139.298C77.6965 139.151 76.4725 138.938 75.2624 138.661C74.3058 138.422 73.3492 138.143 72.4326 137.903C71.3964 137.664 70.36 137.345 69.244 137.106ZM48.0008 139.298C48.5244 139.239 49.0436 139.146 49.5552 139.019C50.7508 138.78 51.9066 138.461 53.0226 138.182C54.3378 137.824 55.693 137.465 57.088 137.226C58.7615 136.944 60.4532 136.785 62.1498 136.748C62.1952 136.633 62.222 136.512 62.2294 136.389C60.4779 136.386 58.73 136.546 57.0082 136.867C55.5734 137.106 54.2182 137.505 52.903 137.824C51.787 138.103 50.6312 138.422 49.4356 138.661C49.037 138.74 48.5986 138.82 48.0804 138.9C48.0771 139.036 48.0502 139.171 48.0008 139.298V139.298ZM69.244 142.208C68.8056 142.088 68.3274 142.009 67.8492 141.929L67.9686 142.327L69.1644 142.567C70.2804 142.806 71.3166 143.125 72.3528 143.404C73.2696 143.683 74.2262 143.962 75.1828 144.161C76.8214 144.542 78.487 144.795 80.1648 144.918C80.1248 144.799 80.1248 144.679 80.0848 144.559C78.4629 144.43 76.8518 144.19 75.2624 143.842C74.3058 143.603 73.3492 143.324 72.4324 143.085C71.3964 142.766 70.36 142.447 69.244 142.208ZM46.0478 144.599C47.2248 144.525 48.3961 144.379 49.5552 144.161C50.7508 143.922 51.9066 143.603 53.0226 143.324C54.3378 142.965 55.693 142.606 57.088 142.367C58.2884 142.158 59.499 142.011 60.7148 141.929C60.7548 141.809 60.7946 141.69 60.8344 141.57C59.5642 141.635 58.2996 141.782 57.0482 142.009C55.6644 142.257 54.2942 142.577 52.943 142.965C51.827 143.244 50.671 143.563 49.4754 143.802C48.3963 144.017 47.3048 144.163 46.2074 144.241C46.1378 144.352 46.0841 144.473 46.0478 144.599ZM68.8456 147.27C68.8456 147.389 68.8056 147.509 68.8056 147.628C68.9252 147.668 69.0448 147.668 69.1644 147.708C70.2804 147.947 71.3166 148.266 72.3528 148.545C73.2696 148.824 74.2262 149.103 75.1828 149.302C77.2419 149.753 79.3347 150.033 81.44 150.139C81.3946 150.025 81.3678 149.904 81.3604 149.781C79.3074 149.705 77.2659 149.438 75.2624 148.983C74.3058 148.744 73.3492 148.465 72.4324 148.226C71.3964 147.947 70.36 147.628 69.244 147.389C69.1247 147.314 68.9868 147.272 68.8456 147.27ZM43.497 149.701C45.8086 149.9 48.1602 149.541 49.555 149.262C50.751 149.023 51.9066 148.704 53.0226 148.425C54.3378 148.067 55.693 147.708 57.088 147.469C57.7256 147.349 58.4032 147.27 59.041 147.19L59.1604 146.831C58.4378 146.898 57.7194 147.005 57.0084 147.15C55.6245 147.399 54.2543 147.718 52.903 148.107C51.787 148.386 50.6312 148.705 49.4356 148.944C47.5233 149.343 45.5671 149.49 43.6166 149.382C43.5702 149.486 43.5302 149.592 43.497 149.701ZM68.3672 152.291V152.65C68.6462 152.69 68.8854 152.77 69.1644 152.81C70.2804 153.049 71.3166 153.368 72.3528 153.647C73.2696 153.926 74.2262 154.205 75.1828 154.404C77.7086 154.967 80.287 155.261 82.8748 155.281L82.7554 154.922C80.2348 154.915 77.7224 154.635 75.2624 154.085C74.3058 153.846 73.3492 153.567 72.4324 153.328C71.3964 153.049 70.3202 152.73 69.244 152.491C68.9575 152.401 68.6643 152.335 68.3672 152.291ZM41.265 154.404C41.305 154.404 41.305 154.404 41.3448 154.444C44.2144 155.281 47.682 154.763 49.5152 154.404C50.711 154.165 51.8668 153.846 52.9828 153.567C54.298 153.208 55.6532 152.849 57.0482 152.61C57.1278 152.61 57.2474 152.57 57.367 152.57C57.407 152.451 57.4466 152.331 57.4866 152.172C57.327 152.212 57.1676 152.212 57.0082 152.252C55.5734 152.491 54.2182 152.889 52.903 153.208C51.787 153.487 50.6312 153.806 49.4356 154.045C47.642 154.404 44.2144 154.922 41.4244 154.085H41.3846L41.265 154.404ZM69.244 157.592C68.9252 157.513 68.6064 157.473 68.2876 157.393V157.752C68.5666 157.792 68.8456 157.871 69.1644 157.911C70.2804 158.15 71.3166 158.469 72.3528 158.748C73.2696 159.027 74.2262 159.306 75.1828 159.505C77.7594 160.088 80.3928 160.382 83.0344 160.382C83.5126 160.382 84.0308 160.382 84.509 160.342L84.3894 159.984C81.3101 160.114 78.2273 159.833 75.2226 159.147C74.266 158.908 73.3094 158.629 72.3926 158.389C71.3964 158.15 70.36 157.831 69.244 157.592ZM39.7506 158.908C40.2521 159.188 40.7879 159.403 41.3446 159.545C44.2146 160.382 47.682 159.864 49.5152 159.505C50.711 159.266 51.8668 158.947 52.9828 158.668C53.9792 158.389 55.0154 158.11 56.1314 157.911C56.1714 157.792 56.1714 157.672 56.2112 157.553C55.0552 157.792 53.9792 158.071 52.9032 158.35C51.7872 158.629 50.6312 158.948 49.4356 159.187C47.642 159.545 44.2144 160.024 41.4244 159.227C40.8656 159.072 40.3297 158.844 39.8304 158.549C39.8229 158.672 39.7959 158.793 39.7504 158.908H39.7506ZM69.244 162.694C69.0885 162.648 68.928 162.621 68.766 162.614C68.8056 162.734 68.8056 162.853 68.8456 162.973C68.9652 163.013 69.0846 163.013 69.1644 163.053C70.2804 163.292 71.3166 163.611 72.3528 163.89C73.2696 164.169 74.2262 164.448 75.1828 164.647C77.7594 165.229 80.3928 165.524 83.0344 165.524C84.1524 165.53 85.27 165.477 86.3824 165.364L86.2626 165.006C82.596 165.324 78.6502 165.085 75.2624 164.288C74.3058 164.049 73.3492 163.77 72.4324 163.531C71.3964 163.252 70.36 162.933 69.244 162.694ZM39.1926 163.252V163.69C39.859 164.123 40.5836 164.458 41.3446 164.687C44.2146 165.524 47.682 165.006 49.5152 164.647C50.711 164.408 51.8668 164.089 52.9828 163.81C53.78 163.611 54.5372 163.411 55.3742 163.212C55.3677 163.091 55.3811 162.97 55.414 162.853C54.577 163.053 53.74 163.252 52.903 163.491C51.787 163.77 50.6312 164.089 49.4356 164.328C47.642 164.687 44.2144 165.165 41.4244 164.368C40.6248 164.119 39.8712 163.743 39.1926 163.252Z" fill="#F08228"/>
<path d="M65.2584 92.9456C65.2584 92.9456 63.6244 92.547 62.7476 91.8296C62.7476 91.8296 64.2222 93.8224 65.2584 94.0216V92.9456Z" fill="#F1C0BA"/>
<path d="M88.1758 98.3261L85.5452 106.178C85.4656 106.457 85.5852 106.656 85.8642 106.656H90.4476C90.589 106.647 90.7248 106.598 90.8382 106.513C90.9515 106.428 91.0374 106.311 91.0852 106.178L93.7158 98.3261C93.7954 98.0471 93.6758 97.8479 93.397 97.8479H88.8134C88.6762 97.8697 88.5464 97.9246 88.4353 98.008C88.3242 98.0913 88.2351 98.2005 88.1758 98.3261Z" fill="#5B6F8B"/>
<path d="M218.147 151.574V159.784C218.147 159.832 218.138 159.878 218.12 159.922C218.102 159.966 218.076 160.005 218.042 160.039C218.009 160.072 217.969 160.098 217.926 160.116C217.882 160.134 217.835 160.143 217.788 160.143H185.505C185.458 160.143 185.411 160.134 185.367 160.116C185.324 160.098 185.284 160.072 185.251 160.039C185.217 160.005 185.191 159.966 185.173 159.922C185.155 159.878 185.146 159.832 185.146 159.784V151.574C185.146 151.527 185.155 151.48 185.173 151.437C185.191 151.393 185.217 151.353 185.251 151.32C185.284 151.287 185.324 151.26 185.367 151.242C185.411 151.224 185.458 151.215 185.505 151.216H217.788C217.835 151.215 217.882 151.224 217.926 151.242C217.969 151.26 218.009 151.287 218.042 151.32C218.076 151.353 218.102 151.393 218.12 151.437C218.138 151.48 218.147 151.527 218.147 151.574Z" fill="#FA5814"/>
<path d="M215.676 160.103V175.607C215.674 175.839 215.58 176.061 215.417 176.225C215.253 176.389 215.031 176.482 214.799 176.484H188.454C188.222 176.482 188 176.389 187.836 176.225C187.672 176.061 187.579 175.839 187.577 175.607V160.103H215.676Z" fill="#FA5814"/>
<path d="M197.661 160.103H205.592V176.484H197.661V160.103Z" fill="#FDD333"/>
<path d="M197.661 151.215H205.592V160.143H197.661V151.215Z" fill="#FDD333"/>
<path d="M201.766 151.215H199.973C198.339 147.987 196.027 146.871 194.233 146.552C193.3 146.358 192.337 146.358 191.403 146.552C191.503 146.087 191.708 145.651 192.001 145.277C193.037 143.922 194.831 143.483 196.425 144.001C201.607 145.635 201.766 151.215 201.766 151.215H201.766Z" fill="#FCC800"/>
<path d="M196.983 151.215H194.871C191.204 149.462 191.403 146.552 191.403 146.552C192.337 146.358 193.3 146.358 194.233 146.552C194.512 149.462 196.983 151.215 196.983 151.215Z" fill="#E3B400"/>
<path d="M201.527 151.215H203.32C204.954 147.987 207.266 146.871 209.06 146.552C209.993 146.358 210.956 146.358 211.889 146.552C211.79 146.087 211.585 145.651 211.291 145.277C210.255 143.922 208.462 143.483 206.867 144.001C201.686 145.635 201.527 151.215 201.527 151.215Z" fill="#FCC800"/>
<path d="M206.27 151.215H208.382C212.049 149.462 211.849 146.552 211.849 146.552C210.916 146.358 209.953 146.358 209.02 146.552C208.741 149.462 206.27 151.215 206.27 151.215Z" fill="#E3B400"/>
<g opacity="0.15">
<path d="M197.661 160.103H205.592V161.897H197.661V160.103Z" fill="#131514"/>
</g>
<g opacity="0.15">
<path d="M205.592 160.103H215.675V161.897H205.592V160.103Z" fill="#131514"/>
</g>
<g opacity="0.15">
<path d="M187.577 160.103H197.661V161.897H187.577V160.103Z" fill="#131514"/>
</g>
</svg>
