<svg
  width="249"
  height="200"
  viewBox="0 0 249 200"
  fill="none"
  xmlns="http://www.w3.org/2000/svg"
>
<mask
    id="mask0_1141_7856"
    style="mask-type:luminance"
    maskUnits="userSpaceOnUse"
    x="0"
    y="0"
    width="249"
    height="200"
  >
<path d="M248.316 0H0.684326V200H248.316V0Z" fill="white" />
</mask>
<g mask="url(#mask0_1141_7856)">
<path
      d="M35.2785 169.059H212.952C212.952 169.059 194.354 144.713 198.283 136.612C202.212 128.511 221.668 115.116 219.691 93.8127C217.715 72.5097 202.569 47.1558 178.565 50.2848C154.561 53.4138 148.489 44.284 139.178 35.7542C129.866 27.2244 109.863 19.2303 86.3113 31.575C62.7596 43.9196 61.4021 66.0372 71.6181 84.6614C81.8341 103.286 72.3326 125.317 54.7581 126.603C37.1835 127.889 26.015 150.993 35.2785 169.059Z"
      fill="#F9EFF9"
    />
<path d="M218.098 170.769H29.1683V168.916H218.098V170.769Z" fill="#342522" />
<path
      d="M123.893 37.3923H194.358C195.648 37.3923 196.693 38.4375 196.693 39.7268V93.3117C196.693 94.6008 195.648 95.6462 194.358 95.6462H123.893C122.603 95.6462 121.558 94.6008 121.558 93.3117V39.7268C121.558 38.4375 122.603 37.3923 123.893 37.3923Z"
      fill="#276B6A"
    />
<path
      d="M175.465 94.7356L182.487 100.364L181.236 95.2429L175.465 94.7356Z"
      fill="#52CC99"
    />
<path
      d="M126.076 45.177H192.176C193.469 45.177 194.51 46.2182 194.51 47.5114V91.6194C194.51 92.9126 193.469 93.9538 192.176 93.9538H126.076C124.782 93.9538 123.741 92.9126 123.741 91.6194V47.5114C123.741 46.2182 124.782 45.177 126.076 45.177Z"
      fill="#F8F1F7"
    />
<g opacity="0.516967">
<path
        d="M194.51 41.6311C194.51 42.5203 193.789 43.2412 192.9 43.2412H192.9C192.01 43.2412 191.289 42.5203 191.289 41.6311C191.289 40.7419 192.01 40.021 192.9 40.021C193.789 40.021 194.51 40.7417 194.51 41.6311Z"
        fill="#F65231"
      />
</g>
<g opacity="0.483033">
<path
        d="M190.233 41.6311C190.233 42.5203 189.512 43.2412 188.623 43.2412C187.733 43.2412 187.012 42.5203 187.012 41.6311C187.012 40.7419 187.733 40.021 188.623 40.021C189.512 40.021 190.233 40.7417 190.233 41.6311Z"
        fill="#FF2A00"
      />
</g>
<g opacity="0.516967">
<path
        d="M185.956 41.6311C185.956 42.5203 185.235 43.2412 184.346 43.2412C183.456 43.2412 182.736 42.5203 182.736 41.6311C182.736 40.7419 183.456 40.021 184.346 40.021C185.235 40.021 185.956 40.7417 185.956 41.6311Z"
        fill="#73C8A5"
      />
</g>
<mask
      id="mask1_1141_7856"
      style="mask-type:luminance"
      maskUnits="userSpaceOnUse"
      x="92"
      y="26"
      width="112"
      height="68"
    >
<path
        d="M92.2173 31.266L119.874 93.9535H182.541L203.027 31.7781L146.907 26.6565L92.2173 31.266Z"
        fill="white"
      />
</mask>
<g mask="url(#mask1_1141_7856)">
<path
        d="M154.305 53.412C154.361 53.8957 154.425 54.3848 154.494 54.8799C154.521 55.0651 154.545 55.2485 154.574 55.4314C154.655 55.9764 154.742 56.5103 154.829 57.0353C154.97 57.1695 156.37 58.4659 158.187 58.0141C159.518 57.682 160.564 56.5405 160.912 55.0502C160.885 54.8606 160.265 50.9313 160.236 50.7441C160.19 50.4433 159.432 45.5967 159.382 45.3007C159.254 45.3233 159.122 45.3506 158.997 45.3771L158.993 45.3776C158.85 45.4061 158.712 45.4299 158.57 45.4583C157.828 45.5997 157.091 45.7447 156.35 45.8881C155.505 46.0492 154.664 46.2122 153.82 46.3775C153.861 48.5886 154.01 50.9378 154.305 53.412Z"
        fill="#F7775E"
      />
<path
        d="M154.837 54.0773C155.932 53.7734 157.322 53.1511 158.136 51.8499C159.24 50.0827 159.886 49.0622 159.458 46.7744C159.456 46.775 154.603 48.4942 153.789 48.7703C154.124 50.9563 154.216 51.6643 154.837 54.0773Z"
        fill="#C25D4A"
      />
<path
        d="M148.035 44.4547C148.243 44.8542 148.284 44.898 148.412 45.1024C148.412 45.1024 148.503 45.2528 148.611 45.445C148.83 45.8371 149.925 48.7128 151.039 50.4776C151.064 50.5166 151.089 50.5555 151.114 50.5943C151.135 50.6259 151.154 50.6584 151.175 50.6875C151.783 51.5951 152.769 53.0692 154.27 53.187C155.032 53.2426 155.611 52.9234 156.255 52.574C158.308 51.4509 159.093 49.4727 159.238 49.0606C159.247 49.0337 159.256 49.0128 159.26 48.9998C159.801 47.3414 159.488 45.9106 159.323 45.3117C159.353 45.3164 159.406 45.3177 159.472 45.3166C159.477 45.3145 159.484 45.3175 159.49 45.3178C159.402 45.0911 159.063 44.1709 159.318 43.0519C159.362 42.8636 159.42 42.6666 159.5 42.4689C159.998 41.2442 160.973 40.6809 161.25 40.5347C161.293 39.8385 161.262 38.5862 160.689 37.2715C159.612 34.8126 156.589 33.2593 153.763 33.2399C153.069 33.2397 149.962 33.1998 148.051 35.5845C146.165 37.9386 146.799 40.9581 146.899 41.437C147.047 42.1555 147.427 43.3015 148.035 44.4547Z"
        fill="#F7775E"
      />
<path
        d="M155.796 39.0593C155.107 38.2554 154.458 37.9863 154.009 37.8843C151.552 37.3257 148.494 40.273 146.414 40.0348C146.243 40.0151 146.004 39.9654 145.811 39.7886C145.157 39.1895 145.649 37.6904 145.746 37.3699C146.585 34.6029 151.268 33.1465 152.27 32.8378C155.472 31.8514 157.6 32.295 158.556 32.868C158.619 32.9054 158.675 32.9423 158.675 32.9423C160.035 33.8553 160.424 35.4978 160.551 36.2633C160.591 36.2999 160.65 36.3565 160.719 36.4292C161.271 37.0116 161.476 37.6422 161.579 37.959C162.506 40.8108 161.304 43.2228 161.304 43.2228C161.081 43.6704 160.671 44.3628 159.937 45.0596C159.589 44.9497 159.055 44.7318 158.522 44.2901C158.145 43.9773 157.886 43.6496 157.715 43.3943C157.58 43.493 157.444 43.5916 157.309 43.6901C157.1 43.3598 156.89 42.9807 156.699 42.552C156.204 41.4459 156.013 40.4182 155.942 39.635"
        fill="#080706"
      />
<path
        d="M157.304 42.5041C157.167 41.5001 157.59 40.6046 158.233 40.3547C159.103 40.0171 160.351 41.0645 160.54 42.023C160.646 42.5583 160.347 42.6796 160.408 43.744C160.454 44.5581 160.431 44.6515 160.329 44.837C160.295 44.8982 160.092 45.266 159.695 45.3372C159.623 45.3501 159.49 45.3628 159.322 45.3131C158.992 45.1199 158.472 44.7589 158.02 44.1459C157.756 43.788 157.406 43.2497 157.304 42.5041Z"
        fill="#F7775E"
      />
<path
        d="M159.507 44.5286C159.643 44.4793 159.732 44.2732 159.821 43.8236C159.836 43.7498 159.788 43.6782 159.714 43.6637C159.641 43.6487 159.569 43.6968 159.554 43.7708C159.511 43.9896 159.472 44.1159 159.444 44.1882C159.441 44.1794 159.437 44.1706 159.434 44.162C159.376 44.0138 159.288 43.7898 159.091 43.5956C158.905 43.4123 158.733 43.3652 158.595 43.3274C158.494 43.3 158.415 43.2784 158.341 43.2099C158.122 43.0049 158.064 42.4812 158.204 41.9643C158.307 41.5813 158.492 41.3072 158.681 41.2645C158.824 41.2325 159.026 41.3377 159.25 41.5613C159.304 41.6146 159.39 41.6145 159.443 41.561C159.496 41.5078 159.496 41.4217 159.443 41.3685C159.141 41.0683 158.865 40.9439 158.622 40.9987C158.328 41.0661 158.075 41.399 157.941 41.893C157.799 42.4158 157.811 43.0876 158.155 43.4091C158.278 43.5235 158.408 43.559 158.523 43.5902C158.647 43.6243 158.765 43.6563 158.9 43.7895C159.056 43.9429 159.128 44.127 159.18 44.2612C159.234 44.4001 159.291 44.5436 159.44 44.5405C159.464 44.5401 159.486 44.5362 159.507 44.5286Z"
        fill="#C25D4A"
      />
<path
        d="M151.586 65.9371C154.509 66.026 157.43 66.1172 160.354 66.2082C162.012 61.751 163.671 57.2939 165.329 52.8368C164.451 52.4517 163.574 52.0688 162.696 51.6837C162.228 51.4796 161.759 51.2736 161.291 51.0695C160.964 51.9511 159.921 54.4091 157.314 55.8668C156.341 56.4113 155.411 56.6713 154.68 56.8025L154.556 55.992C154.473 55.434 154.39 54.8801 154.312 54.3276C153.936 54.5413 153.563 54.7545 153.187 54.9661C152.949 55.1029 152.711 55.2378 152.473 55.3725C152.177 58.8942 151.882 62.4155 151.586 65.9371Z"
        fill="white"
      />
<path
        d="M154.164 56.3723C154.594 56.493 155.025 56.6137 155.455 56.7343C155.858 59.0772 156.26 61.42 156.663 63.7628C155.873 64.7466 155.083 65.7306 154.294 66.7144C153.613 65.6261 152.932 64.5378 152.252 63.4496C152.889 61.0904 153.527 58.7314 154.164 56.3723Z"
        fill="#40906F"
      />
<path
        d="M173.891 95.7306C173.05 91.3747 173.223 84.5604 172.782 81.3093C172.261 77.466 172.022 74.5096 172.072 72.6976C172.072 72.6976 171.904 66.0745 171.425 60.3221C171.204 57.6407 170.914 55.1475 170.541 53.6034C168.278 52.9132 166.019 52.2202 163.754 51.5323L163.754 51.5303C163.458 51.4409 163.162 51.3515 162.868 51.2618C162.855 51.2575 162.844 51.2528 162.833 51.2502C162.783 51.2343 162.734 51.2204 162.689 51.2059C162.579 51.4068 162.469 51.6095 162.361 51.8121C161.116 54.0829 159.751 56.4127 158.254 58.78C157.563 59.8758 157.148 60.5315 156.798 61.0533L156.778 61.0797C156.728 61.1559 156.674 61.2327 156.616 61.3142C156.591 61.35 156.563 61.3886 156.537 61.4268C155.335 63.1159 154.2 64.4101 153.376 65.2846C152.887 63.615 152.735 62.193 152.692 61.184C152.625 59.702 152.537 57.1864 153.887 54.6644C153.948 54.546 154.005 54.4452 154.054 54.3587C153.998 54.3864 153.939 54.419 153.881 54.4472C153.631 54.5752 153.386 54.7047 153.136 54.8327L153.132 54.8333C151.266 55.7948 149.401 56.7539 147.534 57.7154C146.93 63.0394 146.494 68.8613 146.349 75.1135C146.329 75.9909 146.313 76.8784 146.305 77.7733C146.304 77.8612 146.304 77.9487 146.303 78.0366C146.303 78.0942 146.302 78.1586 146.303 78.2311C146.299 78.4605 146.298 78.6893 146.301 78.9156C146.3 79.1337 146.301 79.3753 146.3 79.6362C146.301 79.7665 146.3 79.9034 146.3 80.0445C146.303 80.6747 146.308 81.3943 146.316 82.1457C146.32 82.4405 146.324 82.7449 146.333 83.1587C146.339 83.4786 146.452 86.7016 146.463 86.8869C146.644 89.5181 146.793 95.2818 146.974 97.9129L173.891 95.7306Z"
        fill="#140F0E"
      />
<path
        d="M170.112 86.474L163.266 85.2336C162.612 85.1152 162.17 84.4875 162.281 83.8345C162.302 83.7123 162.322 83.5887 162.342 83.4642C162.395 83.1248 162.445 82.7806 162.489 82.4412C162.493 82.4127 162.508 82.3867 162.531 82.3697C162.555 82.3525 162.584 82.3456 162.612 82.3508L171.443 83.9129C171.485 83.9203 171.519 83.9527 171.528 83.9948C171.611 84.383 171.63 84.7784 171.584 85.1703C171.568 85.3053 171.544 85.4401 171.513 85.5711C171.398 86.0582 170.996 86.407 170.52 86.48C170.388 86.5002 170.251 86.4993 170.112 86.474Z"
        fill="#080706"
      />
<path
        d="M150.488 64.7519C151.507 67.5017 152.528 70.2536 153.547 73.0035C155.608 70.1441 157.669 67.2848 159.731 64.4279C159.412 63.2847 159.09 62.1393 158.77 60.9961C160.345 60.3974 161.923 59.7958 163.498 59.1971C163.696 57.788 163.841 56.231 163.887 54.5456C163.916 53.499 163.904 52.5036 163.862 51.5653C163.613 51.4504 163.348 51.3372 163.068 51.2282C162.588 51.0417 162.13 50.8942 161.704 50.7768C161 53.1826 159.926 55.9356 158.254 58.7812C157.779 59.591 157.29 60.3478 156.798 61.0533L156.778 61.0808C156.729 61.157 156.674 61.2339 156.616 61.3139C156.592 61.3493 156.563 61.3879 156.537 61.4263C155.335 63.116 154.199 64.4112 153.375 65.284C152.887 63.6157 152.735 62.1922 152.691 61.1855C152.626 59.7021 152.537 57.187 153.886 54.6644L153.882 54.4471L153.881 54.3297C153.704 54.3696 153.453 54.4468 153.184 54.6062C152.861 54.7972 152.664 55.0177 152.572 55.1221C151.528 56.3118 150.796 57.42 150.796 57.42C150.472 57.9096 150 58.6067 149.391 59.4448C150.246 60.1368 151.102 60.8287 151.957 61.5207C151.468 62.5969 150.977 63.6757 150.488 64.7519Z"
        fill="#080706"
      />
<path
        d="M153.345 55.3993C153.393 55.7126 153.545 55.9801 153.733 56.1994C153.879 56.3715 154.051 56.5162 154.209 56.6309C154.408 56.7714 154.59 56.8676 154.692 56.9183C154.668 56.1522 154.645 55.3883 154.622 54.6222C154.608 54.5559 154.377 53.4688 154.363 53.4026C154.36 53.388 154.239 52.8208 154.235 52.8045C154.022 53.1021 153.719 53.5846 153.518 54.2376C153.386 54.6598 153.285 55.0045 153.345 55.3993Z"
        fill="#E7D4E5"
      />
<path
        d="M160.061 49.6187C160.001 50.138 159.841 50.872 159.395 51.6256C158.24 53.5811 156.113 54.0618 155.668 54.1525C155.342 55.0743 155.016 55.9962 154.691 56.9179C155.462 56.8799 156.961 56.6948 158.47 55.7139C161.09 54.0099 161.712 51.2237 161.83 50.63C161.76 50.5986 161.69 50.5661 161.619 50.5326C161.04 50.258 160.523 49.9462 160.061 49.6187Z"
        fill="#E7D4E5"
      />
<path
        d="M154.41 55.3235C154.266 55.5056 154.122 55.6878 153.978 55.8699L154.113 56.1835L153.889 56.9086L154.319 57.5264L155.616 57.4004L155.739 57.0181L155.58 56.3152L156.26 56.0512L155.91 55.3848L155.298 55.9001C155.042 55.8716 154.785 55.843 154.529 55.8145C154.489 55.6508 154.45 55.4872 154.41 55.3235Z"
        fill="#40906F"
      />
<path
        d="M146.727 72.6527C146.774 72.6455 146.811 72.6074 146.816 72.558C147.026 70.2529 147.142 67.9135 147.16 65.6047C147.165 65.0128 147.163 64.414 147.155 63.8245C147.155 63.7661 147.107 63.7195 147.048 63.7203C146.99 63.7209 146.943 63.7689 146.944 63.8274C146.952 64.4152 146.954 65.0127 146.949 65.603C146.931 67.9059 146.815 70.2393 146.605 72.5387C146.6 72.5967 146.643 72.6482 146.701 72.6535C146.71 72.6543 146.718 72.6539 146.727 72.6527Z"
        fill="#080706"
      />
<path
        d="M166.561 66.9386C166.604 66.9363 166.644 66.9066 166.656 66.8621C167.281 64.6722 167.973 62.4707 168.712 60.3184C168.921 59.7111 169.137 59.0969 169.355 58.4928C169.374 58.438 169.346 58.3775 169.291 58.3577C169.236 58.3378 169.176 58.3662 169.156 58.4213C168.938 59.0263 168.721 59.6414 168.512 60.2498C167.772 62.4055 167.079 64.6107 166.453 66.8042C166.437 66.8602 166.47 66.9187 166.526 66.9347C166.537 66.938 166.549 66.9393 166.561 66.9386Z"
        fill="#080706"
      />
<path
        d="M155.807 94.1509L154.257 82.5529C154.249 82.495 154.196 82.4544 154.138 82.4621C154.138 82.4622 154.137 82.4622 154.136 82.4624C154.079 82.4711 154.04 82.5237 154.048 82.5808L155.596 94.166L155.807 94.1509Z"
        fill="#080706"
      />
<path
        d="M146.483 87.1777L148.149 86.2598C148.57 86.0303 148.755 85.5373 148.591 85.0876L147.926 83.2708C147.916 83.2424 147.893 83.2196 147.865 83.2087C147.837 83.1975 147.806 83.1992 147.779 83.2128L146.35 83.8912L146.483 87.1777Z"
        fill="#080706"
      />
<path
        d="M147.512 57.6909C147.223 57.822 146.811 58.0396 146.387 58.3917C144.413 60.0277 143.462 70.3456 142.542 73.9494C138.397 73.5824 134.252 73.2153 130.108 72.8483C129.868 73.3557 129.631 73.9901 129.482 74.7396C129.096 76.673 129.51 78.2958 129.81 79.168C135.091 80.3258 139.02 81.2926 142.244 82.1706C143.821 82.6001 146.238 83.2831 148.054 82.0616C148.93 81.4732 149.45 80.5882 150.136 79.4197C151.072 77.8252 151.575 76.3703 151.854 75.3646C150.407 69.4733 148.959 63.5821 147.512 57.6909Z"
        fill="#140F0E"
      />
<path
        d="M130.787 73.0913C129.914 72.9761 129.04 72.8608 128.167 72.7456C127.943 73.3081 127.656 74.227 127.64 75.39C127.623 76.6295 127.92 77.6075 128.145 78.1859C128.872 78.3749 129.598 78.5641 130.325 78.7531C130.623 78.3259 131.293 77.2452 131.344 75.7158C131.385 74.4939 131.012 73.5582 130.787 73.0913Z"
        fill="white"
      />
<path
        d="M128.328 73.0186C127.601 72.7067 126.874 72.395 126.147 72.0831C125.55 71.9106 125.085 71.7358 124.766 71.606C124.344 71.4341 124.005 71.2707 123.822 71.4205C123.69 71.5278 123.705 71.7413 123.706 71.7555C123.74 72.169 124.32 72.2869 124.916 72.8425C125.171 73.0801 125.365 73.3384 125.515 73.5919C124.611 73.8056 123.707 74.0193 122.803 74.233C120.369 73.9977 119.115 74.0359 119.043 74.3477C119.006 74.5077 119.28 74.7398 119.866 75.0442C119.787 75.057 119.515 75.1095 119.466 75.2671C119.41 75.4475 119.653 75.7486 120.128 75.9329C119.994 76.0303 119.905 76.1725 119.928 76.2952C119.961 76.474 120.236 76.6396 120.566 76.5414C120.555 76.5793 120.543 76.6384 120.559 76.7035C120.615 76.9282 120.957 77.0235 121.13 77.066C123.234 77.5847 124.29 77.5542 124.29 77.5542C125.502 77.5191 126.573 77.4921 127.928 77.4557C128.151 77.1773 128.98 76.0729 128.834 74.5678C128.767 73.8791 128.52 73.3476 128.328 73.0186Z"
        fill="#F7775E"
      />
<g opacity="0.15">
<path
          d="M173.203 84.525C171.32 83.7664 168.87 82.53 166.388 80.4954C164.987 79.347 163.863 78.1797 162.976 77.1246C163.016 76.7762 163.056 76.4277 163.096 76.0792C161.871 75.1357 160.647 74.1923 159.423 73.2486C160.893 72.6623 162.364 72.076 163.835 71.4896C166.534 72.2561 169.234 73.0227 171.933 73.7892C172.353 77.3699 172.778 80.9448 173.203 84.525Z"
          fill="#A98983"
        />
</g>
<path
        d="M164.367 74.1078C163.603 69.522 162.839 64.9362 162.076 60.3503C160.759 61.2483 158.714 62.4227 155.999 63.1936C153.162 63.9993 150.706 64.048 149.081 63.9547C150.35 68.2911 151.619 72.6273 152.888 76.9635C154.107 77.2174 156.526 77.5493 159.383 76.7389C161.777 76.06 163.449 74.8713 164.367 74.1078Z"
        fill="#F2D0F0"
      />
<path
        d="M165.312 73.9356C165.488 73.4756 165.675 73.0066 165.874 72.5293C166.088 72.0148 166.305 71.5164 166.523 71.0345C165.577 70.1632 163.173 66.8959 163.173 66.8959C162.734 66.5401 160.593 65.2674 160.401 65.2318C159.767 65.1139 159.662 65.4779 158.59 65.533C158.079 65.5592 157.677 65.4984 157.565 65.7153C157.49 65.8607 157.589 66.047 157.605 66.0776C157.938 66.7082 159.61 66.4409 159.835 66.4033C160.095 66.6387 160.356 66.8742 160.617 67.1097C160.375 67.1758 159.997 67.265 159.519 67.3185C159.176 67.3569 159.145 67.3359 158.952 67.3815C158.601 67.4639 158.535 67.5717 157.841 67.9427C157.409 68.1735 157.282 68.2135 157.271 68.3265C157.246 68.5712 157.801 68.8058 157.935 68.8606C157.754 69.0285 157.76 69.1382 157.767 69.1777C157.804 69.3803 158.2 69.53 158.774 69.5121C158.523 69.8263 158.561 69.9976 158.583 70.0577C158.696 70.3691 159.355 70.3938 159.812 70.4109C160.142 70.4232 160.414 70.3964 160.595 70.3707C160.756 70.4935 161.886 71.1521 162.211 71.2787C162.297 71.4709 162.977 72.558 163.324 72.8947C164.008 73.5573 164.879 73.8284 165.312 73.9356Z"
        fill="#F7775E"
      />
<path
        d="M165.014 68.7428C164.825 69.2247 164.591 69.8996 164.396 70.7446C164.396 70.7446 164.373 70.8433 164.351 70.9422C164.098 72.1115 164.051 74.0923 164.039 74.7908C165.148 75.4568 166.257 76.1227 167.366 76.7887C167.733 74.6253 168.101 72.462 168.468 70.2988C167.317 69.7801 166.166 69.2614 165.014 68.7428Z"
        fill="white"
      />
<path
        d="M166.748 69.0402C166.289 69.8182 165.781 70.8375 165.376 72.0836C164.92 73.4897 164.736 74.7483 164.666 75.7221C167.502 78.9979 170.213 81.0092 172.063 82.1907C174.099 83.4915 175.583 84.1013 177.26 83.9184C177.644 83.8766 179.201 83.6665 180.153 82.7784C181.886 81.1632 180.625 78.2308 178.213 70.588C177.638 68.7678 176.996 66.6769 176.313 64.268C174.979 59.5672 173.829 54.6443 170.3 53.478C169.982 53.3728 169.691 53.4077 169.506 53.3777C169.609 57.4744 169.985 62.0311 170.772 66.7986C171.031 68.3638 171.32 69.8787 171.635 71.342C170.006 70.5748 168.377 69.8075 166.748 69.0402Z"
        fill="#140F0E"
      />
<path
        d="M174.307 73.369C174.283 73.3706 174.26 73.36 174.245 73.3387C173.871 72.7754 173.406 72.2915 172.863 71.9011C172.474 71.6221 172.048 71.3941 171.598 71.2234L167.211 69.4552C167.176 69.4412 167.159 69.4014 167.173 69.3668C167.187 69.3313 167.226 69.3146 167.261 69.3291L171.647 71.0969C172.107 71.2711 172.543 71.5047 172.942 71.7909C173.499 72.1906 173.975 72.6864 174.359 73.2634C174.38 73.2951 174.371 73.3372 174.34 73.3575C174.33 73.3646 174.318 73.3681 174.307 73.369Z"
        fill="#080706"
      />
<path
        d="M171.417 71.0157C171.381 71.0183 171.348 70.9919 171.344 70.9555L170.116 59.6706C170.112 59.633 170.139 59.5996 170.176 59.5954C170.221 59.589 170.247 59.6181 170.251 59.6555L171.48 70.9404C171.484 70.978 171.457 71.0112 171.419 71.0156L171.417 71.0157Z"
        fill="#080706"
      />
</g>
<path
      d="M92.462 59.6578C91.2159 58.466 90.3733 56.8404 90.1938 54.9895L89.701 49.9082C89.3033 45.8067 92.3058 42.1593 96.4074 41.7616L105.006 40.9277C109.108 40.53 112.755 43.5327 113.153 47.6342L113.646 52.7155C114.044 56.8171 111.041 60.4644 106.94 60.8621L98.3404 61.6959C98.3404 61.6959 97.073 63.7136 89.6112 66.1828C92.4052 63.5976 92.462 59.6578 92.462 59.6578Z"
      fill="#F9CCF5"
    />
<path
      d="M102.236 54.1151H100.524V53.7602C100.524 53.2871 100.606 52.886 100.771 52.5568C100.946 52.2277 101.162 51.9397 101.419 51.6928C101.676 51.4357 101.938 51.2042 102.206 50.9985C102.442 50.8134 102.658 50.6282 102.854 50.4431C103.059 50.258 103.224 50.0522 103.347 49.826C103.471 49.5894 103.532 49.322 103.532 49.0237C103.532 48.674 103.46 48.3705 103.316 48.1134C103.183 47.846 102.987 47.6402 102.73 47.4962C102.473 47.3522 102.164 47.2802 101.804 47.2802C101.444 47.2802 101.12 47.3677 100.832 47.5425C100.555 47.7071 100.339 47.9385 100.184 48.2368C100.03 48.5351 99.953 48.8848 99.953 49.286H97.9936C97.9936 48.5454 98.1582 47.8922 98.4873 47.3265C98.8164 46.7608 99.269 46.3185 99.845 45.9997C100.431 45.6808 101.095 45.5214 101.835 45.5214C102.617 45.5214 103.28 45.6602 103.826 45.938C104.381 46.2157 104.803 46.6117 105.091 47.126C105.389 47.63 105.538 48.2214 105.538 48.9002C105.538 49.4454 105.435 49.9134 105.23 50.3042C105.034 50.6848 104.787 51.0037 104.489 51.2608C104.191 51.518 103.887 51.7545 103.579 51.9705C103.208 52.238 102.89 52.5054 102.622 52.7728C102.365 53.0402 102.236 53.3694 102.236 53.7602V54.1151ZM101.45 57.2008C101.11 57.2008 100.817 57.0825 100.57 56.846C100.323 56.5991 100.2 56.3111 100.2 55.982C100.2 55.6322 100.323 55.3391 100.57 55.1025C100.817 54.866 101.11 54.7477 101.45 54.7477C101.789 54.7477 102.082 54.8711 102.329 55.118C102.576 55.3545 102.699 55.6425 102.699 55.982C102.699 56.3111 102.576 56.5991 102.329 56.846C102.082 57.0825 101.789 57.2008 101.45 57.2008Z"
      fill="#C656C0"
    />
<g opacity="0.961005">
<path
        d="M117.234 39.9703L132.671 38.4737C134.884 38.2591 136.504 36.2908 136.29 34.0776L135.134 22.1583C134.92 19.945 132.951 18.3247 130.738 18.5393L115.301 20.0361C113.088 20.2507 111.467 22.219 111.682 24.4322L112.838 36.3515C113.052 38.5648 115.02 40.1849 117.234 39.9703Z"
        fill="#CDEAF0"
      />
<path
        d="M123.7 34.0002V28.0722H125.164V34.0002H123.7ZM124.42 26.8842C124.172 26.8842 123.96 26.8002 123.784 26.6322C123.616 26.4562 123.532 26.2442 123.532 25.9962C123.532 25.7482 123.616 25.5402 123.784 25.3722C123.96 25.2042 124.172 25.1202 124.42 25.1202C124.668 25.1202 124.876 25.2042 125.044 25.3722C125.22 25.5402 125.308 25.7482 125.308 25.9962C125.308 26.2442 125.22 26.4562 125.044 26.6322C124.876 26.8002 124.668 26.8842 124.42 26.8842Z"
        fill="#145D62"
      />
<circle
        cx="124.5"
        cy="29.7039"
        r="6.41667"
        stroke="#145D62"
        strokeLinecap="1.16667"
      />
</g>
<path
      d="M145.641 30.4061C145.687 30.8774 146.106 31.2225 146.577 31.1768C147.048 31.1311 147.393 30.7119 147.348 30.2407C147.302 29.7694 146.883 29.4244 146.411 29.4701C145.94 29.5158 145.595 29.9348 145.641 30.4061Z"
      fill="#CDF0F0"
    />
<path
      d="M143.921 26.8448C143.994 27.5969 144.663 28.1474 145.415 28.0745C146.167 28.0015 146.718 27.3329 146.645 26.5809C146.572 25.8288 145.903 25.2782 145.151 25.3512C144.399 25.4241 143.848 26.0927 143.921 26.8448Z"
      fill="#CDF0F0"
    />
<path
      d="M137.504 24.3477C137.648 25.8263 138.962 26.9088 140.441 26.7654C141.92 26.6221 143.002 25.3071 142.859 23.8285C142.715 22.3499 141.4 21.2675 139.922 21.4109C138.443 21.5542 137.361 22.8691 137.504 24.3477Z"
      fill="#CDF0F0"
    />
<path
      d="M96.4749 96.8092C92.9535 89.7174 85.33 79.4926 70.0417 82.5037C54.7534 85.5149 44.7754 101.696 43.8704 124.317C42.9655 146.938 50.1275 160.632 71.3811 164.532C92.6349 168.433 115.829 160.364 120.664 150.859C123.398 145.483 123.211 138.247 120.393 132.633C118.228 128.321 114.121 125.195 110.971 123.212C101.533 117.27 99.8493 103.605 96.4749 96.8092Z"
      fill="#41B2B1"
    />
<path
      d="M76.7216 144.064C72.1896 143.367 67.63 141.062 65.512 136.995C64.155 134.389 63.93 131.367 63.572 128.451C62.1593 116.948 58.319 105.107 61.8399 94.0651C62.9076 90.717 64.9177 87.3326 68.2303 86.1588C71.357 85.051 74.9846 86.2721 77.3503 88.5976C79.7159 90.9231 80.9727 94.173 81.5777 97.4346C82.1826 100.696 82.2006 104.034 82.4645 107.341C82.8908 112.684 84.0095 118.089 86.7689 122.685C89.5282 127.28 94.1282 130.984 99.4432 131.68C102.648 132.1 106.644 131.514 108.826 134.467C110.286 136.443 110.535 139.939 108.715 141.786C105.171 145.382 96.1048 143.276 91.6643 143.6C86.6962 143.962 81.6969 144.828 76.7216 144.064Z"
      fill="#276B6A"
    />
<path
      d="M44.1527 134.979C45.8062 151.258 53.7139 161.29 71.3813 164.532C92.6348 168.433 115.829 160.363 120.663 150.858C122.623 147.006 123.074 142.201 122.14 137.72C112.797 155.077 90.6628 161.699 69.5139 158.07C55.1254 155.601 47.798 144.208 44.1527 134.979Z"
      fill="#276B6A"
    />
<path
      d="M110.879 128.885C110.879 128.885 114.087 135.36 108.481 136.183C93.7064 139.733 80.0736 135.611 80.0736 135.611C79.1384 132.099 78.7799 124.808 78.7799 124.808C88.9159 124.755 110.879 128.885 110.879 128.885Z"
      fill="#1D0E0B"
    />
<path
      d="M107.824 136.691L107.898 165.237L103.656 165.599C101.674 154.16 98.1466 139.097 101.165 134.709C103.636 131.794 105.543 132.658 106.67 133.809C107.421 134.575 107.821 135.618 107.824 136.691Z"
      fill="#311A15"
    />
<path
      d="M117.372 170.588L104.599 171.58C104.029 171.629 103.529 171.243 103.411 170.709C103.395 170.633 103.385 170.555 103.384 170.475L103.333 164.11C103.333 164.11 104.548 163.872 105.235 163.646C105.643 163.512 105.968 163.18 106.059 162.76C106.065 162.729 106.07 162.697 106.075 162.666C106.248 161.425 107.97 160.888 108.395 162.05C108.45 162.2 108.5 162.346 108.543 162.487C108.554 162.522 108.564 162.558 108.574 162.592C108.648 162.843 108.706 163.075 108.75 163.279C108.751 163.283 108.752 163.287 108.753 163.292C108.863 163.81 108.886 164.146 108.886 164.146C109.063 164.335 109.234 164.521 109.4 164.704C109.484 164.795 109.566 164.886 109.647 164.975C109.823 165.167 109.993 165.354 110.161 165.534C110.239 165.619 110.316 165.7 110.393 165.781C110.578 165.975 110.76 166.159 110.94 166.33C111.022 166.408 111.103 166.483 111.186 166.555C111.862 167.155 112.526 167.547 113.275 167.587C114.596 167.654 116.741 167.616 117.935 169.444C117.96 169.482 117.98 169.522 117.997 169.561C118.188 170.011 117.884 170.544 117.372 170.588Z"
      fill="#852C80"
    />
<path
      d="M117.371 170.588L104.599 171.58C104.029 171.629 103.529 171.243 103.411 170.709L117.997 169.561C118.188 170.011 117.884 170.544 117.371 170.588Z"
      fill="#571954"
    />
<path
      d="M109.647 164.975C109.525 165.192 109.262 165.464 108.708 165.742C108.614 165.79 108.511 165.838 108.399 165.885L108.269 165.58C108.379 165.532 108.479 165.486 108.569 165.44C109.204 165.119 109.362 164.842 109.4 164.704C109.484 164.795 109.566 164.886 109.647 164.975Z"
      fill="white"
    />
<path
      d="M108.707 165.7C108.725 165.906 108.572 166.088 108.366 166.105C108.159 166.123 107.978 165.97 107.96 165.764C107.943 165.558 108.096 165.376 108.302 165.359C108.508 165.341 108.69 165.494 108.707 165.7Z"
      fill="white"
    />
<path
      d="M110.393 165.78C110.251 165.959 110.012 166.163 109.613 166.37C109.502 166.429 109.38 166.486 109.244 166.545L109.113 166.238C109.24 166.184 109.353 166.131 109.454 166.079C109.86 165.868 110.062 165.677 110.161 165.534C110.239 165.619 110.316 165.7 110.393 165.78Z"
      fill="white"
    />
<path
      d="M109.613 166.355C109.63 166.561 109.477 166.743 109.271 166.76C109.065 166.778 108.883 166.625 108.866 166.419C108.848 166.213 109.001 166.031 109.207 166.013C109.413 165.996 109.595 166.149 109.613 166.355Z"
      fill="white"
    />
<path
      d="M111.186 166.555C111.043 166.728 110.809 166.922 110.429 167.12C110.317 167.18 110.193 167.24 110.055 167.298L109.925 166.992C110.053 166.937 110.166 166.883 110.267 166.83C110.631 166.641 110.832 166.466 110.94 166.33C111.022 166.408 111.103 166.483 111.186 166.555Z"
      fill="white"
    />
<path
      d="M110.429 167.107C110.447 167.313 110.294 167.495 110.088 167.512C109.882 167.53 109.7 167.377 109.682 167.171C109.665 166.965 109.818 166.783 110.024 166.766C110.23 166.748 110.412 166.901 110.429 167.107Z"
      fill="white"
    />
<path
      d="M108.75 163.279C108.198 163.318 107.682 163.431 107.682 163.431L107.637 162.828C107.955 162.678 108.288 162.615 108.574 162.592C108.648 162.843 108.705 163.075 108.75 163.279Z"
      fill="white"
    />
<path
      d="M114.181 132.688L116.062 161.098L111.852 161.729C109.147 150.438 104.671 135.629 107.405 131.058C109.457 128.299 111.249 128.624 112.46 129.502C113.484 130.244 114.097 131.426 114.181 132.688Z"
      fill="#1D0E0B"
    />
<path
      d="M125.856 165.836L113.172 167.637C112.607 167.722 112.084 167.369 111.932 166.843C111.911 166.769 111.896 166.691 111.89 166.611L111.435 160.262C111.435 160.262 112.632 159.947 113.304 159.678C113.702 159.519 114.005 159.167 114.069 158.742C114.074 158.711 114.077 158.679 114.08 158.647C114.174 157.398 115.857 156.753 116.356 157.885C116.421 158.031 116.479 158.174 116.531 158.312C116.544 158.346 116.557 158.381 116.569 158.414C116.659 158.66 116.731 158.889 116.788 159.089C116.79 159.093 116.79 159.098 116.792 159.102C116.935 159.612 116.979 159.946 116.979 159.946C117.167 160.123 117.35 160.298 117.527 160.47C117.617 160.555 117.704 160.641 117.791 160.725C117.979 160.905 118.161 161.081 118.34 161.25C118.423 161.33 118.505 161.406 118.587 161.481C118.784 161.664 118.977 161.836 119.168 161.995C119.254 162.067 119.34 162.137 119.427 162.204C120.14 162.76 120.828 163.109 121.578 163.101C122.9 163.085 125.038 162.91 126.346 164.659C126.374 164.695 126.396 164.733 126.415 164.772C126.635 165.208 126.365 165.76 125.856 165.836Z"
      fill="#852C80"
    />
<path
      d="M125.856 165.836L113.172 167.637C112.607 167.722 112.083 167.369 111.932 166.843L126.415 164.772C126.634 165.208 126.365 165.759 125.856 165.836Z"
      fill="#571954"
    />
<path
      d="M117.791 160.725C117.683 160.949 117.437 161.237 116.903 161.549C116.812 161.603 116.712 161.658 116.604 161.712L116.454 161.416C116.561 161.361 116.658 161.309 116.744 161.258C117.358 160.896 117.498 160.61 117.527 160.47C117.617 160.555 117.704 160.641 117.791 160.725Z"
      fill="white"
    />
<path
      d="M116.899 161.509C116.93 161.713 116.789 161.904 116.584 161.935C116.379 161.965 116.188 161.824 116.158 161.62C116.127 161.415 116.268 161.224 116.473 161.194C116.677 161.163 116.868 161.304 116.899 161.509Z"
      fill="white"
    />
<path
      d="M118.587 161.481C118.456 161.668 118.231 161.887 117.846 162.119C117.739 162.185 117.621 162.25 117.488 162.317L117.338 162.02C117.461 161.958 117.571 161.897 117.668 161.839C118.06 161.603 118.25 161.399 118.34 161.25C118.422 161.33 118.505 161.406 118.587 161.481Z"
      fill="white"
    />
<path
      d="M117.844 162.104C117.875 162.309 117.734 162.5 117.529 162.53C117.325 162.561 117.134 162.42 117.103 162.215C117.072 162.011 117.213 161.82 117.418 161.789C117.623 161.759 117.814 161.9 117.844 162.104Z"
      fill="white"
    />
<path
      d="M119.427 162.204C119.296 162.386 119.074 162.594 118.708 162.816C118.6 162.883 118.48 162.95 118.345 163.017L118.196 162.72C118.32 162.657 118.43 162.596 118.528 162.536C118.879 162.324 119.068 162.138 119.168 161.995C119.254 162.067 119.339 162.138 119.427 162.204Z"
      fill="white"
    />
<path
      d="M118.707 162.803C118.738 163.008 118.596 163.199 118.392 163.229C118.187 163.26 117.996 163.119 117.966 162.914C117.935 162.709 118.076 162.519 118.281 162.488C118.485 162.457 118.676 162.598 118.707 162.803Z"
      fill="white"
    />
<path
      d="M116.788 159.089C116.24 159.163 115.732 159.309 115.732 159.309L115.649 158.71C115.957 158.54 116.285 158.456 116.569 158.414C116.658 158.66 116.731 158.889 116.788 159.089Z"
      fill="white"
    />
<path
      d="M71.7517 127.253C71.4096 129.543 72.7235 130.475 73.7221 133.798C73.7221 133.798 81.6852 135.776 87.2855 131.328C89.3855 129.661 91.5779 128.14 92.0008 126.683C92.3247 125.567 91.7225 124.385 91.481 123.248L89.9408 118.605L75.4103 118.943L72.7258 124.027C72.5112 124.558 71.8363 126.687 71.7517 127.253Z"
      fill="#311A15"
    />
<path
      d="M74.3335 105.121L75.6819 97.8819C75.9491 96.447 76.1389 94.5353 75.4861 93.2307C75.2992 92.8573 74.8422 92.8357 73.581 93.7094C73.0211 94.0971 67.2177 99.9304 67.2177 99.9304C65.7513 101.389 64.2622 103.058 63.3551 104.1L67.4023 110.412C69.509 108.994 71.99 107.053 74.3335 105.121Z"
      fill="#C656C0"
    />
<path
      d="M74.0934 104.175C74.052 104.516 73.7648 105.587 73.7648 105.587C73.7648 105.587 68.1585 109.903 67.4021 110.413L66.9557 109.717C67.8616 109.122 73.0469 104.924 74.0934 104.175Z"
      fill="#692E66"
    />
<path
      d="M66.9558 109.716C65.6783 111.131 64.5599 112.12 63.6557 112.447C63.5692 112.479 63.4872 112.518 63.4035 112.524C57.1221 113.011 62.0952 106.509 62.2611 106.663C62.2611 106.663 63.1802 105.289 63.7205 104.669L66.9558 109.716Z"
      fill="#FC8D77"
    />
<path
      d="M63.6087 112.459C63.542 112.523 63.4371 112.514 63.3552 112.532C58.8909 113.487 47.8056 100.11 47.8056 100.11L48.4828 99.3548L49.3686 98.3665L49.9208 97.751C49.9208 97.751 58.3138 103.114 61.7547 106.138L61.7714 106.152C61.9697 106.328 62.151 106.495 62.3142 106.652C62.3142 106.652 66.7745 109.441 63.6087 112.459Z"
      fill="#FC8D77"
    />
<path
      d="M50.1784 97.997C50.1784 97.997 49.2608 96.9899 49.1579 96.5498C49.0166 95.9447 49.2099 95.3083 49.0814 94.6979C49.0155 94.3852 48.8398 94.1042 48.7049 93.8173C48.5665 93.5233 48.429 93.229 48.2917 92.9343C48.246 92.8365 48.2005 92.7385 48.1549 92.6404C48.1549 92.6404 47.7172 91.1904 47.6663 90.5433C47.6156 89.8963 47.5007 88.9256 46.8921 89.1705C46.2836 89.4154 46.2688 90.567 46.4099 91.3307C46.5512 92.0944 46.3929 92.8622 46.1231 92.5982C45.3961 91.8862 44.7931 90.944 44.2229 90.1051C43.3419 88.8091 42.428 87.4065 42.1746 88.4577C42.1266 88.6571 42.211 88.8625 42.3003 89.0471C42.9249 90.3379 43.8692 91.4976 44.4149 92.8286C44.5051 93.0487 44.4013 93.2556 44.1557 93.0352C43.9102 92.8148 42.1859 91.0715 41.6365 90.508C41.3112 90.1744 40.9882 89.8299 40.6259 89.5357C40.4658 89.4056 40.2837 89.2552 40.0714 89.2284C39.8534 89.201 39.5732 89.35 39.5389 89.5832C39.5226 89.6947 39.5675 89.8096 39.6145 89.9081C39.7937 90.2832 40.0775 90.6032 40.3529 90.9119C40.7301 91.3348 41.1356 91.7323 41.5303 92.1382C42.37 93.0065 43.0806 93.7452 43.1449 93.9653C43.2093 94.1853 43.1832 94.2889 42.7179 93.9517C42.2526 93.6144 40.1983 91.7868 39.9009 91.5662C39.6037 91.3458 39.3188 91.3002 39.1819 91.4914C39.0362 91.6948 38.7227 91.9397 41.4362 94.3508C41.9274 94.7915 42.4314 95.1676 42.5087 95.3229C42.5861 95.4784 42.4435 95.6722 42.0298 95.4646C41.616 95.2568 40.5044 94.5563 40.2713 94.7112C40.0381 94.8661 39.779 95.0987 41.0715 95.9548C42.3642 96.8108 43.6719 97.8185 44.2408 98.104C44.8097 98.3896 45.8721 98.3495 46.3374 98.609C46.8029 98.8686 47.8106 100.111 47.8106 100.111L50.1784 97.997Z"
      fill="#FC8D77"
    />
<path
      d="M93.9518 110.541C94.9798 112.146 95.921 113.305 96.7588 113.777C96.8389 113.822 96.9139 113.874 96.9954 113.893C101.73 115.024 100.593 110.128 99.0838 108.299C99.0838 108.299 98.4025 106.793 97.9708 106.092L93.9518 110.541Z"
      fill="#FC8D77"
    />
<path
      d="M98.4245 105.591L94.6247 109.797L93.3967 111.155C92.943 110.725 92.4727 110.261 91.9902 109.772C90.5129 108.269 88.9315 106.524 87.4269 104.797L87.2853 97.4349C87.2565 95.9756 87.613 94.5038 88.4718 93.3238C88.7166 92.9861 89.1712 93.0395 90.2724 94.1086C90.7611 94.5828 95.2978 100.845 95.2978 100.845C96.505 102.524 97.7009 104.414 98.4245 105.591Z"
      fill="#C656C0"
    />
<path
      d="M94.1314 110.223L93.3968 111.155C92.9431 110.725 92.4728 110.261 91.9901 109.772L88.7841 106.334L88.936 104.494L94.1314 110.223Z"
      fill="#692E66"
    />
<path
      d="M96.7811 113.789C96.8618 113.834 96.9413 113.872 97.0191 113.903C101.256 115.602 114.451 104.301 114.451 104.301L113.912 103.442L113.207 102.317L112.767 101.617C112.767 101.617 100.752 107.376 99.0429 108.285C96.164 109.816 95.9379 113.327 96.7811 113.789Z"
      fill="#FC8D77"
    />
<path
      d="M112.424 101.859C112.424 101.859 113.562 100.873 113.675 100.606C113.917 100.034 113.834 99.3738 114.064 98.7941C114.182 98.4971 114.403 98.2501 114.585 97.9902C114.771 97.724 114.957 97.4572 115.142 97.1901C115.204 97.1013 115.265 97.0126 115.327 96.9237C115.327 96.9237 116.004 95.569 116.164 94.9399C116.324 94.3109 116.602 93.3738 117.16 93.7184C117.718 94.063 117.537 95.2004 117.269 95.9291C117 96.6577 117.026 97.4413 117.336 97.2269C118.174 96.6486 118.928 95.8224 119.632 95.0924C120.72 93.9648 121.859 92.7376 121.93 93.8165C121.943 94.0212 121.826 94.2093 121.706 94.3761C120.872 95.5422 119.744 96.5247 118.981 97.7439C118.854 97.9454 118.922 98.167 119.201 97.9915C119.48 97.8159 121.475 96.3905 122.112 95.9283C122.49 95.6548 122.866 95.3702 123.273 95.1417C123.453 95.0406 123.658 94.9234 123.872 94.933C124.092 94.9429 124.342 95.1374 124.337 95.373C124.334 95.4857 124.27 95.5913 124.207 95.6804C123.967 96.0196 123.633 96.2868 123.309 96.5443C122.865 96.897 122.398 97.2199 121.94 97.553C120.966 98.2662 120.14 98.8736 120.039 99.0795C119.938 99.2855 119.947 99.392 120.462 99.1386C120.978 98.8852 123.313 97.4327 123.643 97.2658C123.974 97.099 124.262 97.1024 124.365 97.3141C124.474 97.5393 124.741 97.8338 121.658 99.7495C121.099 100.1 120.538 100.386 120.436 100.525C120.333 100.666 120.441 100.881 120.884 100.746C121.327 100.612 122.541 100.11 122.745 100.302C122.948 100.495 123.164 100.768 121.745 101.392C120.326 102.016 118.866 102.787 118.257 102.972C117.648 103.157 116.608 102.937 116.105 103.114C115.602 103.291 114.398 104.344 114.398 104.344L112.424 101.859Z"
      fill="#FC8D77"
    />
<path
      d="M90.0555 119.216C83.9676 123.522 75.2355 118.705 75.2355 118.705C75.3898 117.292 74.4485 110.891 73.6995 105.083C73.4983 103.516 73.31 101.995 73.1612 100.624C72.9223 98.4297 73.2032 96.4986 73.5351 95.1805C73.7705 94.2374 74.0334 93.6066 74.1508 93.4139C74.2897 93.1852 74.7606 92.8545 75.3627 92.5068C75.3654 92.5055 75.3697 92.5032 75.3729 92.502C75.4809 92.4414 75.5703 92.3917 75.6388 92.354C75.6533 92.3466 75.6664 92.3395 75.6783 92.3321C75.7165 92.3116 75.7441 92.2958 75.7644 92.2846C75.7705 92.2811 75.7763 92.2789 75.7807 92.2762C75.7851 92.2726 75.7893 92.2714 75.7936 92.269C76.8428 91.7057 78.1131 91.1554 78.7546 90.9849C78.762 90.9828 78.7706 90.9806 78.7774 90.9786C78.9873 90.9233 79.1936 90.8734 79.3868 90.8291C80.1728 90.6516 80.7771 90.5647 80.7771 90.5647L85.397 90.9461C85.397 90.9461 85.4039 90.9457 85.4165 90.9467C85.4206 90.9471 85.4262 90.9475 85.4315 90.9464C85.4485 90.9463 85.4706 90.9466 85.4983 90.9488C85.5014 90.9481 85.5028 90.9482 85.5055 90.9484C85.6469 90.957 85.9271 90.9956 86.3367 91.1355L86.3366 91.1369C86.4978 91.192 86.6776 91.2625 86.878 91.3545C87.4072 91.5975 88.0726 91.9859 88.864 92.6035C89.3477 92.9811 89.877 93.4444 90.4503 94.0135C93.6736 97.2088 93.033 102.773 90.6453 106.605C89.9315 107.749 90.0555 119.216 90.0555 119.216Z"
      fill="#C656C0"
    />
<path
      d="M89.8734 105.965C89.8734 105.965 89.7053 105.943 89.4013 105.902C89.1005 105.858 88.6652 105.795 88.1275 105.716C87.0599 105.575 85.5976 105.372 84.079 105.646C83.6917 105.715 83.3026 105.802 82.9117 105.873C82.5211 105.946 82.1267 105.996 81.7564 106.018C81.0124 106.063 80.3457 106.01 79.7941 105.919C79.5133 105.873 79.2594 105.804 79.0466 105.714C78.8334 105.626 78.6637 105.513 78.5449 105.404C78.4254 105.294 78.3582 105.189 78.3174 105.118C78.2806 105.044 78.2646 105.005 78.2646 105.005C78.2646 105.005 78.2938 105.035 78.3499 105.093C78.409 105.146 78.4989 105.219 78.6294 105.282C78.8889 105.413 79.3035 105.479 79.8231 105.446C80.3526 105.417 80.9813 105.352 81.6607 105.224C82.002 105.161 82.3493 105.082 82.7198 104.987C83.0906 104.894 83.487 104.79 83.914 104.713C84.7809 104.559 85.6341 104.597 86.3637 104.731C87.0986 104.86 87.7281 105.068 88.2445 105.257C88.7601 105.45 89.1647 105.632 89.4431 105.76C89.7213 105.888 89.8734 105.965 89.8734 105.965Z"
      fill="#692E66"
    />
<path
      d="M86.125 91.1806C85.3011 91.932 84.1701 92.0388 83.1459 91.9149C81.7661 91.7502 80.5807 91.1663 80.5807 91.1663L80.4768 90.4407L79.8735 86.2327L79.7497 85.3559C80.2017 84.9767 81.0528 84.9826 81.9813 85.1135C82.8927 85.2422 83.8815 85.4941 84.6456 85.6239C85.3696 85.7456 85.8737 85.862 85.8737 85.862L85.9535 87.5742L86.045 89.5084L86.125 91.1806Z"
      fill="#FB8169"
    />
<path
      d="M92.6628 75.9381C92.6264 81.1014 88.4111 85.2576 83.2477 85.2212C78.0844 85.1847 73.9282 80.9695 73.9647 75.8061C74.0011 70.6428 78.2164 66.4866 83.3797 66.5231C88.543 66.5595 92.6992 70.7748 92.6628 75.9381Z"
      fill="#311A15"
    />
<path
      d="M85.8688 85.9114L86.0409 89.5579C83.5299 89.2448 81.1245 86.0591 81.1245 86.0591L84.6414 85.6718C85.3669 85.7948 85.8688 85.9114 85.8688 85.9114Z"
      fill="#FB684B"
    />
<path
      d="M89.9672 86.5706C88.6978 87.3085 87.3116 87.6008 85.9504 87.6223C84.6529 87.6447 83.3768 87.4239 82.2417 87.1129C81.344 86.8663 80.5337 86.5632 79.87 86.2815C79.3323 86.0525 78.8898 85.8357 78.5764 85.6723C78.2356 85.4945 78.046 85.38 78.046 85.38C78.046 85.38 77.7892 84.5106 77.5164 83.2245C77.2259 81.8595 76.9144 80.0237 76.8692 78.2709C76.8148 76.1745 77.1408 74.1939 78.3394 73.2729L80.5302 72.7975L90.9068 70.545C90.9068 70.545 90.9545 70.6979 91.0341 70.9752C91.2042 71.568 91.5176 72.726 91.8097 74.1638C91.8151 74.1885 91.8195 74.2133 91.8248 74.238C91.8473 74.3491 91.8692 74.4622 91.891 74.5761C91.893 74.586 91.8949 74.596 91.8969 74.6059C92.6849 78.7082 93.1868 84.7006 89.9672 86.5706Z"
      fill="#FB8169"
    />
<path
      d="M78.891 79.1474C78.891 79.1474 77.1429 77.3327 75.9575 78.8177C74.6513 80.4539 76.3846 84.7756 79.5597 84.029L78.891 79.1474Z"
      fill="#FB8169"
    />
<path
      d="M79.3843 83.0485C79.2641 83.0477 79.1527 82.9709 79.1133 82.8501C78.3885 80.6165 76.9415 80.5617 76.9269 80.5614C76.7686 80.5581 76.6426 80.4272 76.6458 80.2688C76.6491 80.1103 76.788 79.9856 76.9384 79.9877C77.0145 79.9894 78.8095 80.0555 79.6592 82.6733C79.708 82.824 79.6254 82.9857 79.4746 83.0347C79.4447 83.0443 79.4142 83.0488 79.3843 83.0485Z"
      fill="#FB684B"
    />
<path
      d="M77.2994 81.9782C77.2511 81.9778 77.2022 81.9654 77.1575 81.9395C77.0205 81.8598 76.9741 81.6842 77.0535 81.5473C77.0714 81.5167 77.4976 80.8027 78.4484 80.8094C78.4551 80.8094 78.4615 80.8094 78.4682 80.8095C78.6266 80.8123 78.7529 80.943 78.7501 81.1013C78.7473 81.2588 78.6183 81.3842 78.4613 81.3832C78.4564 81.3829 78.4504 81.3831 78.4447 81.3831C77.8225 81.3786 77.5525 81.8308 77.5498 81.8355C77.496 81.9278 77.3989 81.9788 77.2994 81.9782Z"
      fill="#FB684B"
    />
<path
      d="M91.0745 70.9804C91.3459 72.3246 89.2665 74.1879 80.7273 76.2048C80.7273 76.2048 81.6185 80.1485 79.8518 80.1713C79.4318 80.1767 78.4962 77.9925 76.84 78.254C76.3569 76.4091 77.1055 73.8113 78.3038 72.8897L90.882 70.4834C90.882 70.4834 90.9947 70.7038 91.0745 70.9804Z"
      fill="#311A15"
    />
<path
      d="M77.6554 83.8514C77.6554 83.8514 78.2302 84.3024 79.5597 84.0287C79.5597 84.0287 80.0469 81.5423 78.891 79.1472L80.7272 76.2045C80.7272 76.2045 82.8132 87.5799 80.5125 90.7672C80.5125 90.7672 77.6569 86.8952 77.6554 83.8514Z"
      fill="#311A15"
    />
<path
      d="M104.518 133.045C104.518 133.045 107.725 138.476 102.12 139.298C91.2315 141.914 80.9634 140.364 76.3149 139.367C74.1193 138.896 72.2882 137.368 71.4587 135.281C69.2857 129.815 72.6544 124.215 72.6544 124.215C82.7904 124.162 104.518 133.045 104.518 133.045Z"
      fill="#311A15"
    />
<path
      d="M204.084 165.931L150.912 165.902L150.946 124.192L204.117 124.22L204.084 165.931Z"
      fill="#A54835"
    />
<path
      d="M199.213 163.183L154.311 163.159C153.493 163.158 152.827 162.492 152.828 161.674L152.836 147.138C152.836 146.32 153.502 145.655 154.321 145.655L199.222 145.679C200.04 145.68 200.706 146.346 200.705 147.164L200.698 161.7C200.697 162.518 200.031 163.184 199.213 163.183ZM154.32 146.264C153.838 146.263 153.445 146.656 153.445 147.139L153.437 161.674C153.437 162.157 153.829 162.55 154.311 162.55L199.213 162.574C199.696 162.575 200.088 162.182 200.089 161.7L200.097 147.164C200.097 146.681 199.704 146.288 199.222 146.288L154.32 146.264Z"
      fill="#632317"
    />
<path
      d="M199.224 143.396L154.322 143.372C153.504 143.372 152.838 142.705 152.839 141.887L152.847 127.351C152.847 126.533 153.513 125.868 154.331 125.868L199.233 125.892C200.051 125.893 200.717 126.559 200.716 127.377L200.708 141.913C200.708 142.731 200.042 143.397 199.224 143.396ZM154.331 126.477C153.848 126.476 153.456 126.869 153.455 127.352L153.448 141.887C153.447 142.37 153.84 142.763 154.322 142.763L199.224 142.787C199.706 142.788 200.099 142.395 200.099 141.912L200.107 127.377C200.108 126.894 199.715 126.501 199.233 126.501L154.331 126.477Z"
      fill="#632317"
    />
<path
      d="M160.167 169.135L153.654 169.131L153.656 165.786L160.169 165.79L160.167 169.135Z"
      fill="#632317"
    />
<path
      d="M201.665 169.157L195.152 169.154L195.154 165.809L201.667 165.812L201.665 169.157Z"
      fill="#632317"
    />
<path
      d="M158.978 121.556H174.767V124.312H158.978C158.217 124.312 157.6 123.695 157.6 122.934C157.6 122.173 158.217 121.556 158.978 121.556Z"
      fill="#262120"
    />
<path
      d="M169.758 124.312H197.232C198.017 124.312 198.711 123.804 198.948 123.056L205.176 103.403C205.404 102.682 204.866 101.947 204.11 101.947H176.636C175.852 101.947 175.157 102.455 174.92 103.203L168.692 122.856C168.464 123.577 169.002 124.312 169.758 124.312Z"
      fill="#262120"
    />
<path
      d="M170.939 124.312H198.413C199.198 124.312 199.892 123.804 200.129 123.056L206.357 103.403C206.586 102.682 206.048 101.947 205.291 101.947H177.817C177.033 101.947 176.339 102.455 176.102 103.203L169.874 122.856C169.645 123.577 170.183 124.312 170.939 124.312Z"
      fill="#5B8070"
    />
<path
      d="M186.091 114.54H189.937C190.862 114.54 191.682 113.943 191.965 113.062L192.14 112.516C192.266 112.122 191.972 111.718 191.557 111.718H187.709C186.785 111.718 185.967 112.315 185.684 113.195L185.509 113.742C185.382 114.137 185.676 114.54 186.091 114.54Z"
      fill="white"
    />
<path
      d="M169.874 122.856L175.594 104.806C176.854 117.805 190.068 122.933 200.655 121.398L200.129 123.056C199.892 123.804 199.198 124.312 198.413 124.312H170.939C170.183 124.312 169.645 123.577 169.874 122.856Z"
      fill="#6F4A42"
    />
</g>
</svg>
