<svg width="55" height="49" viewBox="0 0 55 49" fill="none" xmlns="http://www.w3.org/2000/svg">
<rect x="0.612606" y="7.39673" width="32.0144" height="40.9372" rx="1.5" transform="rotate(-6.95298 0.612606 7.39673)" fill="#E5E7EB"/>
<rect x="0.612606" y="7.39673" width="32.0144" height="40.9372" rx="1.5" transform="rotate(-6.95298 0.612606 7.39673)" stroke="#D1D5DB" stroke-dasharray="2 2"/>
<path d="M22.2995 24.8344L23.3912 33.7861L21.5687 34.0084L20.477 25.0567L22.2995 24.8344ZM17.355 29.046L26.2888 27.9565L26.511 29.779L17.5772 30.8685L17.355 29.046Z" fill="#D1D5DB"/>
<rect x="24.2582" y="3.29373" width="30.6165" height="39.1616" rx="1.5" transform="rotate(10.5064 24.2582 3.29373)" fill="#E5E7EB"/>
<rect x="24.2582" y="3.29373" width="30.6165" height="39.1616" rx="1.5" transform="rotate(10.5064 24.2582 3.29373)" stroke="#D1D5DB" stroke-dasharray="2 2"/>
<path d="M39.7144 26.4343L38.07 35.3012L36.2648 34.9664L37.9092 26.0996L39.7144 26.4343ZM33.7341 28.9683L42.5832 30.6094L42.2484 32.4147L33.3993 30.7736L33.7341 28.9683Z" fill="#D1D5DB"/>
<rect x="8.7162" y="0.5" width="36" height="46" rx="1.5" fill="#E5E7EB"/>
<rect x="8.7162" y="0.5" width="36" height="46" rx="1.5" stroke="#D1D5DB" stroke-dasharray="2 2"/>
<path d="M28.1328 20.434V29.452H26.2968V20.434H28.1328ZM22.7148 24.016H31.7148V25.852H22.7148V24.016Z" fill="#D1D5DB"/>
</svg>
