<svg
  width="301"
  height="200"
  viewBox="0 0 301 200"
  fill="none"
  xmlns="http://www.w3.org/2000/svg"
>
<path
    d="M55.2994 159.041L33.867 170.748C31.9108 171.817 33.0425 173.933 35.57 173.933H265.43C267.857 173.933 269.042 171.957 267.286 170.839L248.501 158.874C247.322 158.123 245.753 157.705 244.124 157.71L59.2704 158.089C57.8223 158.092 56.4201 158.428 55.2994 159.041Z"
    fill="#FFF8E0"
  />
<path
    d="M128.807 163.388C148.454 163.388 164.381 162.304 164.381 160.966C164.381 159.628 148.454 158.543 128.807 158.543C109.16 158.543 93.2332 159.628 93.2332 160.966C93.2332 162.304 109.16 163.388 128.807 163.388Z"
    fill="#ECE4C9"
  />
<path
    d="M198.816 163.751C221.668 163.751 240.194 162.585 240.194 161.147C240.194 159.709 221.668 158.543 198.816 158.543C175.964 158.543 157.438 159.709 157.438 161.147C157.438 162.585 175.964 163.751 198.816 163.751Z"
    fill="#ECE4C9"
  />
<path
    d="M241.826 170.281C251.542 170.281 259.419 169.277 259.419 168.039C259.419 166.802 251.542 165.798 241.826 165.798C232.11 165.798 224.233 166.802 224.233 168.039C224.233 169.277 232.11 170.281 241.826 170.281Z"
    fill="#ECE4C9"
  />
<path
    d="M230.821 29.9924H149.952C149.183 29.9924 148.559 29.3691 148.559 28.6002C148.559 27.8313 149.183 27.208 149.952 27.208H230.821C231.59 27.208 232.213 27.8313 232.213 28.6002C232.213 29.3691 231.59 29.9924 230.821 29.9924Z"
    fill="#C25939"
  />
<path d="M225.797 28.9031H153.402V87.9813H225.797V28.9031Z" fill="#C25939" />
<path d="M221.802 32.1631H157.397V84.721H221.802V32.1631Z" fill="#4A2C4F" />
<path
    d="M224.95 91.8553H193.837C192.566 91.8553 191.536 90.8255 191.536 89.5551V29.2663C191.536 27.9959 192.566 26.9661 193.837 26.9661H224.95C226.22 26.9661 227.25 27.9959 227.25 29.2663V89.5552C227.25 90.8255 226.22 91.8553 224.95 91.8553Z"
    fill="#B3D1FF"
  />
<path d="M222.77 27.0872H219.623V91.7343H222.77V27.0872Z" fill="#F2EFFF" />
<path d="M215.628 27.0872H202.795V91.7343H215.628V27.0872Z" fill="#F2EFFF" />
<path
    d="M185.725 91.8553H154.612C153.342 91.8553 152.312 90.8255 152.312 89.5551V29.2663C152.312 27.9959 153.342 26.9661 154.612 26.9661H185.725C186.996 26.9661 188.026 27.9959 188.026 29.2663V89.5552C188.026 90.8255 186.996 91.8553 185.725 91.8553Z"
    fill="#B3D1FF"
  />
<path d="M179.551 27.0872H167.324V91.7343H179.551V27.0872Z" fill="#F2EFFF" />
<path
    d="M197.348 27.0872L197.375 28.275L197.395 29.463L197.436 31.8388C197.457 33.4227 197.476 35.0066 197.489 36.5905C197.505 38.1743 197.509 39.7582 197.519 41.3422L197.529 46.0939L197.519 50.8456C197.509 52.4294 197.506 54.0133 197.489 55.5972C197.477 57.1811 197.458 58.765 197.437 60.349L197.396 62.7248L197.375 63.9127L197.347 65.1006L197.32 63.9127L197.299 62.7248L197.258 60.349C197.237 58.765 197.218 57.1811 197.206 55.5972C197.189 54.0134 197.186 52.4295 197.175 50.8456L197.166 46.0939L197.176 41.3422C197.186 39.7583 197.19 38.1744 197.206 36.5905C197.218 35.0066 197.238 33.4227 197.259 31.8388L197.3 29.463L197.32 28.275L197.348 27.0872ZM197.226 69.3378C197.302 71.2143 197.341 73.0908 197.368 74.9672C197.384 75.9054 197.388 76.8436 197.398 77.7818L197.408 80.5965L197.398 83.4112C197.388 84.3494 197.385 85.2877 197.368 86.2259C197.342 88.1024 197.302 89.9788 197.226 91.8552C197.151 89.9788 197.111 88.1024 197.085 86.2259C197.068 85.2877 197.065 84.3494 197.054 83.4112L197.045 80.5965L197.055 77.7818C197.065 76.8436 197.068 75.9054 197.085 74.9672C197.112 73.0907 197.151 71.2143 197.226 69.3378Z"
    fill="#4A2C4F"
  />
<path
    d="M171.837 160.762C170.168 160.762 168.814 159.409 168.814 157.739V153.999H174.86V157.739C174.86 159.409 173.507 160.762 171.837 160.762ZM226.453 160.762C224.784 160.762 223.431 159.409 223.431 157.739V153.999H229.476V157.739C229.476 159.409 228.123 160.762 226.453 160.762Z"
    fill="#661D09"
  />
<path
    d="M161.074 119.436C161.052 118.916 161.009 118.399 160.937 117.883C160.59 115.382 159.772 105.262 168.917 103.379C180.086 101.33 193.612 98.973 194.227 85.1397C195.764 70.2817 203.347 69.052 209.29 69.2569C216.258 69.1544 235.215 66.1828 237.162 84.6273C238.391 104.301 235.522 128.894 237.981 136.272C240.441 143.65 238.596 156.458 225.07 155.638C209.851 155.91 183.259 155.702 177.298 155.649C176.608 155.643 175.919 155.682 175.232 155.756C171.436 156.16 156.518 156.497 160.822 135.964C161.397 129.224 161.182 122.022 161.074 119.436Z"
    fill="#FF5E60"
  />
<path
    d="M224.353 81.2458C224.353 81.2458 216.258 82.8853 215.797 76.4298C215.335 69.9742 191.972 71.5113 201.348 98.102C204.73 110.706 166.15 106.863 168.609 117.776C171.991 128.535 189.974 128.843 193.356 128.843C206.728 128.689 225.019 119.928 227.478 104.097C229.937 88.265 227.529 82.5267 224.353 81.2458Z"
    fill="#D40000"
  />
<path
    d="M203.347 92.3124C203.347 92.3124 203.251 92.408 203.242 92.4176C202.972 92.7147 202.179 93.7377 200.836 96.6673C198.889 100.715 195.047 102.508 192.587 99.7414C190.128 96.9748 183.007 90.9291 178.959 91.7488C176.244 93.1322 187.874 102.149 187.925 102.406C187.976 102.662 195.303 111.987 202.271 105.121"
    fill="#FB8169"
  />
<path
    d="M205.191 152.667H173.272C169.395 152.667 166.253 149.524 166.253 145.648V135.606C166.253 131.729 169.395 128.586 173.272 128.586H205.191V152.667Z"
    fill="#FFBDAE"
  />
<path
    d="M205.191 152.203V128.587H190.605C186.271 131.339 172.007 140.623 166.399 147.078C167.059 150.268 169.885 152.667 173.272 152.667H201.757C203.079 152.504 204.24 152.346 205.191 152.203Z"
    fill="#FF8D81"
  />
<path
    d="M200.272 113.396C200.196 113.088 190.205 95.2585 180.906 93.4909C175.834 93.2603 171.607 96.7955 173.374 101.945C175.142 107.094 181.213 119.697 181.06 125.077C185.133 127.997 200.272 113.396 200.272 113.396Z"
    fill="#4A2C4F"
  />
<path
    d="M193.371 103.136C191.993 102.98 188.975 102.574 186.775 100.138C183.389 96.3897 187.198 102.194 185.385 107.273C185.143 110.296 184.901 116.462 184.901 116.462C184.901 116.462 192.882 111.919 198.762 110.79C197.538 108.812 195.647 105.962 193.371 103.136Z"
    fill="#241834"
  />
<path
    d="M207.292 90.1094C207.292 90.1094 205.114 91.211 203.885 91.7234C204.602 93.3116 203.347 97.6922 202.783 99.6391C202.415 100.911 201.609 104.283 201.095 106.468C200.819 107.641 199.795 108.486 198.59 108.536L196.942 108.605C196.942 108.605 199.043 111.167 197.352 112.858C195.662 114.548 201.707 119.364 205.191 119.006C208.675 118.647 217.641 116.854 217.641 116.854L223.789 91.8002L214.772 88.8286L207.292 90.1094Z"
    fill="#FBD347"
  />
<path
    d="M217.549 99.05C217.549 99.05 213.317 106.184 205.095 105.217C204.916 105.196 204.759 105.173 204.62 105.15C203.481 104.957 202.307 105.265 201.445 106.034C201.262 106.198 201.123 106.348 201.095 106.468C200.819 107.641 199.795 108.486 198.59 108.536L196.942 108.605C196.942 108.605 198.132 110.056 198 111.495C200.797 114.083 204.993 117.881 205.941 118.276C206.191 118.381 206.803 118.518 207.643 118.673C211.731 118.036 217.641 116.854 217.641 116.854L221.871 99.6157C219.675 98.0806 217.549 99.05 217.549 99.05Z"
    fill="#D0AE38"
  />
<path
    d="M207.5 88.9961L207.807 91.2504C207.807 91.2504 211.752 94.4782 215.8 89.7646C215.39 84.9998 215.39 84.9998 215.39 84.9998C215.39 84.9998 208.115 85.7683 207.5 88.9961Z"
    fill="#FB8169"
  />
<path
    d="M204.73 76.6348C204.73 76.6348 202.578 73.2533 205.806 73.6632C208.777 72.9972 213.44 74.1243 215.028 76.8397C217.077 76.7372 217.18 79.9651 216.207 81.7583C215.182 83.6027 214.977 85.7545 214.977 85.7545C214.977 85.7545 214.003 84.0125 212.569 84.32C211.134 84.6274 204.73 76.6348 204.73 76.6348Z"
    fill="#661D09"
  />
<path
    d="M204.679 76.3784C204.679 76.3784 204.73 78.0692 204.474 80.221C203.961 84.3198 203.449 87.8037 205.806 88.521C208.368 89.2383 211.647 89.0334 212.364 85.908C213.389 86.6253 214.465 84.7809 213.85 83.5C213.132 82.5266 212.671 83.8587 212.671 83.8587C212.671 83.8587 213.952 80.7846 213.081 78.6327C212.056 78.9401 208.88 78.6839 211.185 77.7105C209.187 78.0692 205.55 77.9667 204.679 76.3784ZM223.789 91.8C223.789 91.8 219.793 92.1587 217.846 99.5364C215.643 107.17 213.44 112.038 213.44 112.038C213.44 112.038 215.694 116.854 218.973 114.087C221.125 111.525 222.56 106.094 223.994 104.25C225.429 102.406 227.581 92.7735 223.789 91.8Z"
    fill="#FB8169"
  />
<path
    d="M201.707 109.681C201.707 109.681 204.474 110.552 207.138 110.398C211.032 110.194 218.768 109.937 219.639 112.192C220.408 114.702 218.051 117.11 214.823 116.854C211.595 116.598 203.091 112.397 200.631 113.063C198.172 113.729 201.707 109.681 201.707 109.681Z"
    fill="#FB8169"
  />
<path
    d="M182.75 95.6428C183.097 95.927 183.411 96.2495 183.711 96.5843C184.01 96.9208 184.286 97.2778 184.545 97.6479C184.801 98.0199 185.034 98.4083 185.245 98.8101C185.455 99.2119 185.635 99.6303 185.791 100.058C185.946 100.487 186.067 100.928 186.155 101.377C186.175 101.49 186.2 101.601 186.215 101.715L186.263 102.055C186.276 102.169 186.284 102.283 186.295 102.397C186.3 102.454 186.307 102.511 186.309 102.569L186.315 102.74L186.322 102.912L186.325 102.998L186.323 103.084L186.316 103.429C186.312 103.543 186.3 103.657 186.293 103.772L186.28 103.944L186.258 104.114L186.213 104.455L186.162 104.785L186.061 105.445C186.001 105.887 185.932 106.327 185.878 106.769L185.79 107.432L185.707 108.095C185.648 108.537 185.6 108.981 185.546 109.424L185.396 110.754L184.825 116.086C184.816 115.19 184.843 114.295 184.873 113.401C184.89 112.954 184.913 112.507 184.935 112.06C184.959 111.613 184.989 111.166 185.02 110.72C185.145 108.934 185.326 107.15 185.583 105.375L185.687 104.71L185.74 104.378L185.785 104.054L185.808 103.893L185.822 103.731C185.83 103.622 185.843 103.514 185.848 103.406L185.859 103.08L185.862 102.998L185.861 102.917L185.859 102.753C185.852 101.882 185.688 101.016 185.435 100.178C185.169 99.3424 184.801 98.5349 184.346 97.7756C184.122 97.394 183.873 97.0261 183.608 96.6684C183.475 96.4901 183.338 96.3149 183.195 96.1436C183.053 95.9715 182.905 95.8041 182.75 95.6428Z"
    fill="#241834"
  />
<path
    d="M194.278 124.77C194.278 124.77 192.203 119.39 188.745 118.391"
    stroke="black"
    strokeLinecap="4.796"
    stroke-miterlimit="10"
  />
<path
    d="M180.752 122.003C180.752 122.003 177.448 125.615 173.836 124.616C170.224 123.617 168.302 126.998 170.147 128.228C173.144 128.843 182.827 128.843 183.442 128.92C184.057 128.996 185.594 121.772 180.752 122.003Z"
    fill="#FB8169"
  />
<path
    d="M196.814 153.128C196.814 153.128 196.2 157.124 192.126 157.509C188.732 157.829 186.672 158.576 187.28 160.284C187.56 161.07 188.308 161.596 189.14 161.669C192.18 161.933 197.522 160.402 200.811 161.274C204.576 162.273 202.655 154.127 200.734 152.436C198.812 150.746 196.814 153.128 196.814 153.128Z"
    fill="#FB8169"
  />
<path
    d="M206.613 80.8488C206.597 81.2402 206.549 81.6251 206.494 82.0084C206.466 82.2 206.435 82.3907 206.401 82.5811L206.347 82.8661L206.319 83.0082C206.309 83.0587 206.295 83.1131 206.279 83.1644C206.212 83.3708 206.096 83.5586 205.947 83.7112C205.873 83.7871 205.792 83.8561 205.704 83.9144L205.639 83.9562C205.621 83.9674 205.603 83.9791 205.586 83.9908C205.552 84.0141 205.521 84.0393 205.498 84.0644C205.475 84.0896 205.461 84.1125 205.458 84.1275C205.454 84.142 205.455 84.1606 205.473 84.1889C205.508 84.2448 205.587 84.2986 205.665 84.3425C205.826 84.4352 206.009 84.5014 206.19 84.5761C205.994 84.5677 205.8 84.5418 205.605 84.4808C205.509 84.4461 205.41 84.4091 205.318 84.3179C205.273 84.2737 205.232 84.197 205.235 84.1145C205.237 84.032 205.272 83.9661 205.307 83.9154C205.344 83.8645 205.385 83.8244 205.427 83.788C205.448 83.7697 205.469 83.7533 205.491 83.7373L205.544 83.6959C205.613 83.6398 205.677 83.5796 205.733 83.5136C205.847 83.3823 205.935 83.2318 205.987 83.0702C206 83.0291 206.01 82.99 206.02 82.9459L206.051 82.8043L206.116 82.5218C206.161 82.3338 206.208 82.1462 206.259 81.9594C206.361 81.5859 206.471 81.2141 206.613 80.8488ZM205.806 86.3821C206.098 86.3929 206.381 86.3976 206.662 86.3899C206.942 86.3828 207.218 86.3612 207.488 86.3175C207.624 86.2971 207.758 86.268 207.89 86.2341C208.022 86.2014 208.152 86.1591 208.281 86.1109C208.54 86.0162 208.784 85.8841 209.034 85.729C208.875 85.9756 208.646 86.1816 208.385 86.3293C208.254 86.4045 208.116 86.4659 207.973 86.5135C207.831 86.5617 207.685 86.5978 207.537 86.621C207.241 86.6684 206.941 86.6693 206.648 86.6305C206.357 86.59 206.068 86.5166 205.806 86.3821ZM208.534 80.1571C208.688 79.9591 208.91 79.8289 209.162 79.7638C209.288 79.7324 209.424 79.7216 209.562 79.738C209.7 79.7548 209.839 79.7995 209.962 79.8727C210.085 79.9446 210.19 80.0434 210.273 80.1509C210.31 80.2071 210.352 80.2612 210.378 80.3212C210.393 80.3509 210.41 80.3793 210.421 80.4095L210.454 80.4998C210.535 80.7421 210.549 80.9907 210.494 81.2331C210.35 81.03 210.241 80.835 210.115 80.6711C210.054 80.5882 209.989 80.5152 209.925 80.4493C209.858 80.3856 209.789 80.3332 209.717 80.2895C209.572 80.2027 209.401 80.1557 209.2 80.1409C208.999 80.1247 208.78 80.1387 208.534 80.1571ZM204.646 79.9223C204.659 79.822 204.697 79.7327 204.745 79.6486C204.793 79.5647 204.855 79.4888 204.928 79.4212C205.002 79.3541 205.089 79.2964 205.188 79.2546C205.287 79.213 205.398 79.1882 205.513 79.1882C205.744 79.1874 205.965 79.2976 206.101 79.4482C206.239 79.5991 206.321 79.7782 206.334 79.9768C206.154 79.8927 206.01 79.8075 205.874 79.7534C205.841 79.7378 205.807 79.729 205.776 79.7164C205.744 79.7087 205.714 79.6971 205.684 79.6923C205.624 79.6792 205.569 79.6723 205.511 79.672C205.398 79.672 205.272 79.696 205.128 79.7432C204.984 79.7893 204.831 79.8547 204.646 79.9223Z"
    fill="#C25939"
  />
<path
    d="M205.691 81.3291C205.691 81.5732 205.536 81.771 205.345 81.771C205.154 81.771 204.999 81.5732 204.999 81.3291C204.999 81.0851 205.154 80.8872 205.345 80.8872C205.536 80.8872 205.691 81.085 205.691 81.3291ZM209.149 81.8094C209.149 82.0535 208.994 82.2514 208.803 82.2514C208.612 82.2514 208.457 82.0535 208.457 81.8094C208.457 81.5654 208.612 81.3675 208.803 81.3675C208.994 81.3675 209.149 81.5654 209.149 81.8094Z"
    fill="#661D09"
  />
<path
    d="M207.074 88.8799C207.074 88.8799 207.228 91.6465 210.033 90.0326C212.838 88.4572 212.43 85.9504 212.43 85.9504C212.43 85.9504 211.839 89.2257 207.074 88.8799Z"
    fill="#CA492F"
  />
<path
    d="M148.782 126.64H101.031C99.6445 126.64 98.5205 125.516 98.5205 124.129V92.7737C98.5205 91.3872 99.6445 90.2632 101.031 90.2632H148.782C150.168 90.2632 151.292 91.3872 151.292 92.7737V124.129C151.292 125.516 150.168 126.64 148.782 126.64Z"
    fill="#241834"
  />
<path
    d="M148.936 126.64V90.2634C150.237 90.2634 151.292 91.3186 151.292 92.6202V124.283C151.292 125.585 150.237 126.64 148.936 126.64Z"
    fill="#B3D1FF"
  />
<path
    d="M143.044 118.545H126.956C125.739 118.545 124.753 117.559 124.753 116.342V108.247C124.753 107.03 125.739 106.044 126.956 106.044H143.044C144.26 106.044 145.247 107.03 145.247 108.247V116.342C145.247 117.559 144.26 118.545 143.044 118.545ZM109.024 124.181H104.003C103.126 124.181 102.415 123.47 102.415 122.592C102.415 121.715 103.126 121.004 104.003 121.004H109.024C109.901 121.004 110.612 121.715 110.612 122.592C110.612 123.47 109.901 124.181 109.024 124.181Z"
    fill="#4A2C4F"
  />
<path d="M138.894 143.445H126.7V146.621H138.894V143.445Z" fill="#B3D1FF" />
<path d="M136.229 143.445H126.7V146.621H136.229V143.445Z" fill="#4A2C4F" />
<path
    d="M118.605 126.435L115.531 135.964H121.576L123.113 126.537C123.113 126.537 118.758 126.281 118.605 126.435Z"
    fill="#241834"
  />
<path
    d="M129.364 137.502H109.895C109.329 137.502 108.87 137.043 108.87 136.477C108.87 135.911 109.329 135.452 109.895 135.452H129.364C129.93 135.452 130.389 135.911 130.389 136.477C130.389 137.043 129.93 137.502 129.364 137.502Z"
    fill="#241834"
  />
<path
    d="M155.34 140.063H96.42C95.656 140.063 95.0366 139.444 95.0366 138.68C95.0366 137.916 95.656 137.296 96.42 137.296H155.34C156.104 137.296 156.723 137.916 156.723 138.68C156.723 139.444 156.104 140.063 155.34 140.063Z"
    fill="#C25939"
  />
<path d="M101.902 139.961H97.291V160.557H101.902V139.961Z" fill="#C25939" />
<path d="M154.161 139.961H149.55V160.557H154.161V139.961Z" fill="#C25939" />
<path d="M97.4961 155.946V160.557H154.162V155.946H97.4961Z" fill="#C25939" />
<path d="M97.4961 146.519V149.49H154.162V146.519H97.4961Z" fill="#C25939" />
<path d="M104.771 63.3136V76.071H106.718V63.3136H104.771Z" fill="#661D09" />
<path
    d="M139.406 64.492H102.619C101.657 64.492 100.877 63.7121 100.877 62.75C100.877 61.788 101.657 61.0081 102.619 61.0081H139.406C140.368 61.0081 141.148 61.788 141.148 62.75C141.148 63.7121 140.368 64.492 139.406 64.492ZM139.406 78.3254H102.619C101.657 78.3254 100.877 77.5454 100.877 76.5834C100.877 75.6213 101.657 74.8414 102.619 74.8414H139.406C140.368 74.8414 141.148 75.6213 141.148 76.5834C141.148 77.5455 140.368 78.3254 139.406 78.3254Z"
    fill="#661D09"
  />
<path d="M135.922 63.3136V76.071H137.869V63.3136H135.922Z" fill="#661D09" />
<path
    d="M137.254 46.2526H126.085C124.557 46.2526 123.318 45.0139 123.318 43.4859V28.8328C123.318 27.3048 124.557 26.0662 126.085 26.0662H137.254C138.782 26.0662 140.021 27.3048 140.021 28.8328V43.4859C140.021 45.0139 138.782 46.2526 137.254 46.2526Z"
    fill="#D40000"
  />
<path
    d="M136.432 44.7664H126.907C125.604 44.7664 124.548 43.7101 124.548 42.4071V29.9115C124.548 28.6085 125.604 27.5522 126.907 27.5522H136.432C137.735 27.5522 138.791 28.6085 138.791 29.9115V42.4071C138.791 43.7101 137.735 44.7664 136.432 44.7664Z"
    fill="#B8961F"
  />
<path
    d="M136.432 27.5522H135.41C132.838 30.3099 126.721 36.0062 124.548 38.2721V42.4071C124.548 43.7101 125.604 44.7664 126.907 44.7664H129.046L138.791 34.8537V29.9115C138.791 28.6085 137.735 27.5522 136.432 27.5522Z"
    fill="#F9FAFD"
  />
<path
    d="M115.425 59.1637H106.311C105.065 59.1637 104.054 58.153 104.054 56.9063V44.9501C104.054 43.7033 105.065 42.6926 106.311 42.6926H115.425C116.672 42.6926 117.682 43.7033 117.682 44.9501V56.9063C117.682 58.153 116.672 59.1637 115.425 59.1637Z"
    fill="#D40000"
  />
<path
    d="M114.671 57.8015H107.065C106.025 57.8015 105.181 56.9579 105.181 55.9174V45.939C105.181 44.8985 106.025 44.0549 107.065 44.0549H114.671C115.712 44.0549 116.555 44.8985 116.555 45.939V55.9174C116.555 56.9579 115.712 57.8015 114.671 57.8015Z"
    fill="#B8961F"
  />
<path
    d="M157.397 27.0872C157.472 27.5311 157.511 27.9749 157.539 28.4188C157.566 28.8627 157.578 29.3066 157.578 29.7505C157.579 30.1944 157.566 30.6382 157.54 31.0822C157.512 31.5261 157.473 31.9699 157.397 32.4138C157.321 31.9699 157.282 31.5261 157.254 31.0822C157.228 30.6382 157.215 30.1943 157.215 29.7505C157.216 29.3066 157.228 28.8627 157.255 28.4188C157.283 27.9749 157.322 27.531 157.397 27.0872ZM157.397 35.3193L157.424 37.0899L157.445 38.8604L157.485 42.4015L157.536 49.4836C157.556 51.8443 157.558 54.205 157.568 56.5657L157.578 63.6478L157.569 70.73C157.559 73.0907 157.556 75.4514 157.539 77.8121C157.526 80.1728 157.507 82.5335 157.486 84.8943L157.445 88.4353L157.424 90.2059L157.397 91.9764L157.369 90.2059L157.349 88.4353L157.308 84.8943C157.287 82.5336 157.267 80.1729 157.255 77.8121C157.238 75.4514 157.235 73.0907 157.225 70.73L157.215 63.6478L157.225 56.5657C157.236 54.205 157.237 51.8443 157.258 49.4836L157.308 42.4015L157.349 38.8604L157.37 37.0899L157.397 35.3193ZM161.755 91.4922C161.68 90.9575 161.642 90.4227 161.613 89.8881C161.586 89.3534 161.574 88.8187 161.574 88.284C161.573 87.7493 161.586 87.2146 161.612 86.6799C161.641 86.1452 161.679 85.6106 161.755 85.0758C161.831 85.6105 161.869 86.1452 161.898 86.6799C161.925 87.2146 161.937 87.7493 161.937 88.284C161.936 88.8187 161.924 89.3534 161.897 89.8881C161.868 90.4227 161.831 90.9574 161.755 91.4922Z"
    fill="#4A2C4F"
  />
<path
    d="M200.887 112.858C200.887 112.858 181.521 113.268 179.523 121.26C177.524 129.253 182.059 130.995 186.439 137.066C190.82 143.137 195.508 150.592 196.199 152.821C197.506 155.049 202.655 154.281 202.424 151.745C202.194 149.209 200.81 147.825 200.503 144.06C200.196 140.294 196.276 126.384 194.278 124.77C196.507 125.308 204.346 129.458 208.188 127.844C212.031 126.23 215.489 125.615 217.641 116.854C208.342 114.01 200.887 112.858 200.887 112.858Z"
    fill="#4A2C4F"
  />
<path
    d="M202.424 151.745C202.194 149.209 200.81 147.825 200.503 144.06C200.196 140.294 196.276 126.384 194.278 124.77C196.507 125.308 204.346 129.458 208.188 127.844C212.031 126.23 215.489 125.615 217.641 116.854C208.342 114.01 200.887 112.858 200.887 112.858C200.887 112.858 199.567 112.886 197.583 113.069C197.438 113.373 197.32 113.697 197.235 114.044C197.143 114.415 207.996 121.904 199.048 121.178C190.1 120.453 187.924 123.355 192.398 131.457C196.145 138.243 197.515 145.705 191.396 144.327C193.84 148.108 195.774 151.451 196.199 152.821C197.506 155.049 202.655 154.281 202.424 151.745Z"
    fill="#241834"
  />
<path
    d="M223.559 91.7232C223.559 91.7232 219.119 91.6609 217.428 98.808C215.661 105.955 215.489 105.633 215.489 105.633L224.02 108.707C224.02 108.707 229.553 93.0297 223.559 91.7232Z"
    fill="#FBD347"
  />
<path
    d="M215.643 105.172C215.894 103.948 216.214 102.738 216.572 101.54C216.749 100.941 216.944 100.347 217.145 99.7539C217.349 99.1623 217.567 98.5756 217.796 97.9925C218.265 96.8316 218.781 95.6833 219.439 94.609C219.77 94.0745 220.137 93.5557 220.585 93.1059L220.67 93.0227L220.758 92.9432C220.816 92.8891 220.879 92.8402 220.941 92.7904C221.001 92.7394 221.069 92.6968 221.133 92.6499C221.201 92.608 221.267 92.5644 221.338 92.5284C221.478 92.4525 221.629 92.3974 221.782 92.3581C221.938 92.3267 222.097 92.3188 222.252 92.338C222.095 92.3343 221.941 92.358 221.794 92.403C221.649 92.454 221.509 92.5181 221.381 92.6022C221.122 92.7659 220.898 92.9809 220.694 93.2098C220.489 93.439 220.304 93.6864 220.132 93.9425C219.961 94.1989 219.798 94.4618 219.646 94.7312C219.344 95.2717 219.065 95.8254 218.81 96.3914C218.551 96.9555 218.31 97.5281 218.081 98.1063C217.849 98.6828 217.631 99.2655 217.419 99.8506C217.203 100.435 217.003 101.024 216.799 101.613C216.4 102.793 216.017 103.98 215.643 105.172Z"
    fill="#D0AE38"
  />
<path
    d="M181.06 118.852C181.206 118.696 181.362 118.549 181.519 118.403C181.679 118.26 181.841 118.12 182.007 117.983C182.337 117.709 182.683 117.454 183.034 117.206C183.739 116.716 184.476 116.269 185.239 115.872C186 115.471 186.789 115.125 187.592 114.815C188.397 114.51 189.217 114.246 190.048 114.023C190.256 113.967 190.466 113.921 190.675 113.869L190.989 113.795L191.305 113.73C191.516 113.688 191.726 113.641 191.937 113.603L192.573 113.496C192.785 113.457 192.999 113.434 193.212 113.405C193.425 113.38 193.638 113.347 193.852 113.326C194.28 113.288 194.707 113.238 195.137 113.223C196.852 113.123 198.574 113.179 200.273 113.395C198.563 113.307 196.852 113.318 195.154 113.462C194.942 113.479 194.729 113.495 194.518 113.523L193.883 113.594C193.672 113.618 193.462 113.654 193.251 113.683C193.041 113.715 192.829 113.741 192.621 113.783L191.992 113.894C191.783 113.933 191.576 113.981 191.367 114.024L191.055 114.089L190.745 114.165C190.539 114.217 190.332 114.265 190.126 114.32C189.303 114.535 188.493 114.795 187.694 115.087C186.895 115.378 186.112 115.714 185.346 116.086C184.582 116.46 183.837 116.874 183.117 117.331C182.757 117.559 182.403 117.798 182.059 118.05C181.715 118.303 181.377 118.564 181.06 118.852Z"
    fill="#8457A4"
  />
<path
    d="M194.585 109.835L185.619 111.833L190.282 113.575L200.068 110.706L197.66 109.322L194.585 109.835Z"
    fill="#B3D1FF"
  />
<path
    d="M185.363 111.884L185.517 112.755L190.589 114.599L190.282 113.575L185.363 111.884Z"
    fill="#241834"
  />
<path
    d="M190.282 113.575L200.068 110.706L199.965 111.372L190.589 114.6"
    fill="#241834"
  />
<path
    d="M201.707 109.681L199.79 108.921C199.105 108.649 198.351 108.601 197.637 108.784L195.018 109.455C194.76 109.521 194.616 109.796 194.71 110.046C194.786 110.25 194.998 110.369 195.212 110.329L195.527 110.27C196.606 110.067 197.703 110.519 198.326 111.423L197.711 112.038L193.1 113.677L193.868 114.19L196.297 114.308C197.453 114.365 198.601 114.081 199.597 113.491L201.707 112.243L201.707 109.681Z"
    fill="#FB8169"
  />
<path
    d="M187.157 162.76C187.168 162.76 187.168 161.223 187.157 161.223C187.145 161.223 187.145 162.76 187.157 162.76Z"
    fill="#B3D1FF"
  />
<path
    d="M205.037 91.1853C205.037 91.1853 202.393 92.1088 199.383 96.3875C198.671 97.4005 197.795 98.2891 196.78 98.9993L195.354 99.9977C195.354 99.9977 199.35 103.379 198.428 107.17C202.219 108.298 201.628 104.008 201.628 104.008L205.037 91.1853Z"
    fill="#FBD347"
  />
<path
    d="M201.095 106.468C201.332 105.272 201.598 104.085 201.875 102.9C202.01 102.306 202.157 101.716 202.298 101.124L202.738 99.3524L203.194 97.585C203.351 96.9973 203.503 96.4082 203.666 95.8219C203.987 94.6478 204.318 93.4764 204.679 92.3125C204.442 93.5078 204.176 94.6956 203.899 95.8807C203.764 96.474 203.617 97.0645 203.476 97.6563L203.036 99.4277L202.579 101.195C202.422 101.783 202.27 102.372 202.107 102.958C201.786 104.132 201.455 105.304 201.095 106.468ZM217.334 95.028C217.398 95.3994 217.429 95.7709 217.454 96.1424C217.477 96.5138 217.487 96.8853 217.487 97.2567C217.487 97.6282 217.477 97.9996 217.454 98.3711C217.43 98.7425 217.398 99.114 217.334 99.4854C217.269 99.114 217.237 98.7426 217.213 98.3711C217.19 97.9996 217.18 97.6282 217.18 97.2567C217.18 96.8853 217.191 96.5138 217.213 96.1424C217.238 95.7709 217.27 95.3994 217.334 95.028Z"
    fill="#D0AE38"
  />
<path
    d="M202.809 95.7964C202.859 96.1382 202.88 96.4789 202.891 96.8192C202.9 97.1595 202.898 97.4993 202.885 97.8388C202.873 98.1782 202.849 98.5172 202.814 98.8558C202.778 99.1943 202.732 99.5325 202.655 99.8696C202.604 99.5277 202.583 99.187 202.573 98.8467C202.563 98.5064 202.565 98.1666 202.578 97.8272C202.591 97.4877 202.615 97.1487 202.65 96.8101C202.687 96.4716 202.732 96.1334 202.809 95.7964Z"
    fill="#D0AE38"
  />
<path
    d="M180.342 91.6464C180.342 91.6464 176.935 89.5714 174.22 92.6967C171.504 95.822 173.979 98.226 176.5 95.7451C178.855 93.4271 184.339 94.5667 180.342 91.6464Z"
    fill="#FB8169"
  />
<path
    d="M173.957 92.8805L173.4 93.5333C172.679 94.379 172.314 95.4914 172.474 96.5914C172.607 97.4962 173.066 98.3713 174.322 98.4862C175.757 97.7176 175.911 95.1559 178.882 94.1824C180.355 93.4459 178.241 92.6 176.598 92.1021C175.642 91.8124 174.606 92.1205 173.957 92.8805Z"
    fill="#FB8169"
  />
<path
    d="M172.913 98.5119C172.922 98.5119 172.93 98.5119 172.939 98.5119C172.95 98.5119 172.951 96.9749 172.939 96.9749C172.93 96.9749 172.922 96.9749 172.913 96.9749C172.902 96.9749 172.901 98.5119 172.913 98.5119Z"
    fill="#FF9B81"
  />
<path
    d="M224.353 81.2458C224.353 81.2458 229.886 86.2669 226.402 97.436C222.099 109.63 220.664 115.675 209.392 117.315C205.191 118.237 200.58 118.442 200.375 129.919C200.375 150.618 199.76 155.024 203.039 155.741C227.427 155.741 227.734 155.536 227.734 155.536C227.734 155.536 241.158 81.5533 224.353 81.2458Z"
    fill="#FF5E60"
  />
<path
    d="M223.635 81.8606C224.318 81.4794 224.994 81.0954 225.664 80.7023C226.333 80.3059 226.996 79.9031 227.642 79.4769C227.967 79.2654 228.286 79.0466 228.601 78.822C228.76 78.7113 228.914 78.5943 229.07 78.4804C229.223 78.3621 229.378 78.2474 229.529 78.1259C229.831 77.8847 230.128 77.6364 230.409 77.3704C230.693 77.1073 230.962 76.8284 231.218 76.5322C231.018 76.8686 230.775 77.1791 230.517 77.4755C230.388 77.6238 230.25 77.7639 230.113 77.9054C229.973 78.0427 229.831 78.1788 229.684 78.309C229.393 78.5734 229.087 78.8208 228.773 79.057C228.618 79.1768 228.457 79.2891 228.298 79.404C228.136 79.5152 227.975 79.6266 227.811 79.7338C227.155 80.1641 226.476 80.5556 225.779 80.9116C225.083 81.2677 224.371 81.5948 223.635 81.8606Z"
    fill="#D40000"
  />
<path
    d="M141.66 109.937H128.134C127.568 109.937 127.11 109.479 127.11 108.913C127.11 108.347 127.568 107.888 128.134 107.888H141.66C142.226 107.888 142.685 108.347 142.685 108.913C142.685 109.479 142.226 109.937 141.66 109.937ZM141.66 113.114H128.134C127.568 113.114 127.11 112.655 127.11 112.089C127.11 111.523 127.568 111.065 128.134 111.065H141.66C142.226 111.065 142.685 111.523 142.685 112.089C142.685 112.655 142.226 113.114 141.66 113.114Z"
    fill="#241834"
  />
<path
    d="M136.588 116.086C137.012 116.086 137.356 115.742 137.356 115.317C137.356 114.893 137.012 114.549 136.588 114.549C136.163 114.549 135.819 114.893 135.819 115.317C135.819 115.742 136.163 116.086 136.588 116.086Z"
    fill="#D40000"
  />
<path
    d="M139.252 116.086C139.677 116.086 140.021 115.742 140.021 115.317C140.021 114.893 139.677 114.549 139.252 114.549C138.828 114.549 138.484 114.893 138.484 115.317C138.484 115.742 138.828 116.086 139.252 116.086Z"
    fill="#B8961F"
  />
<path
    d="M141.916 116.086C142.341 116.086 142.685 115.742 142.685 115.317C142.685 114.893 142.341 114.549 141.916 114.549C141.492 114.549 141.148 114.893 141.148 115.317C141.148 115.742 141.492 116.086 141.916 116.086Z"
    fill="#BABA00"
  />
<path
    d="M105.796 122.541L105.038 123.22C103.629 124.483 102.824 126.286 102.824 128.179V134.975C102.824 136.401 102.028 137.707 100.76 138.36C99.9513 138.777 99.4429 139.611 99.4429 140.521V154.358C99.4429 156.027 100.796 157.381 102.466 157.381H126.239C127.851 157.381 129.159 156.073 129.159 154.46V149.421C129.159 147.516 130.408 145.837 132.233 145.289"
    stroke="#241834"
    stroke-miterlimit="10"
    strokeLinecap="round"
  />
<path
    d="M115.08 44.1006C112.999 45.8389 107.678 50.0476 105.181 52.0172V55.9173C105.181 56.9579 106.025 57.8014 107.065 57.8014H107.226L116.555 49.218V45.9388C116.555 45.039 115.924 44.2876 115.08 44.1006Z"
    fill="#F9FAFD"
  />
<path
    d="M216.072 106L214.5 110.474L222.239 108.418L216.072 106Z"
    fill="#EE6448"
  />
<path
    d="M237.981 136.272C236.362 131.415 237.052 119.096 237.362 105.633C230.302 119.188 215.246 144.38 200.373 147.938C200.519 153.591 201.094 155.315 203.039 155.741C213.184 155.741 222.328 155.563 229.552 155.355C238.985 153.383 240.137 142.74 237.981 136.272Z"
    fill="#E33D42"
  />
<path
    d="M208.269 81.3354C208.311 81.2767 208.368 81.2312 208.43 81.1923C208.461 81.1725 208.494 81.1577 208.528 81.1417C208.562 81.1296 208.598 81.1156 208.634 81.1075C208.781 81.0719 208.946 81.0866 209.09 81.1513C209.231 81.2191 209.344 81.3276 209.425 81.4485C209.464 81.51 209.494 81.5762 209.522 81.6412C209.541 81.7106 209.56 81.7785 209.569 81.8492C209.512 81.8022 209.466 81.7525 209.421 81.7041C209.37 81.6601 209.326 81.6133 209.28 81.5714C209.185 81.4895 209.09 81.4209 208.989 81.3711C208.886 81.3257 208.777 81.2999 208.656 81.2957C208.536 81.2906 208.408 81.3077 208.269 81.3354ZM204.792 80.882C204.854 80.7704 204.959 80.6863 205.082 80.6377C205.206 80.5897 205.352 80.5807 205.486 80.622C205.618 80.6644 205.73 80.7463 205.813 80.845C205.854 80.8945 205.885 80.9508 205.915 81.0048C205.938 81.0637 205.959 81.1227 205.971 81.1843C205.915 81.1512 205.868 81.1156 205.823 81.0797C205.773 81.0494 205.73 81.0141 205.685 80.9856C205.594 80.9275 205.506 80.8836 205.415 80.8534C205.325 80.8256 205.23 80.8162 205.127 80.822C205.023 80.8277 204.914 80.8507 204.792 80.882Z"
    fill="#661D09"
  />
<path
    d="M212.975 85.1443C213.231 85.1443 213.438 84.8736 213.438 84.5397C213.438 84.2058 213.231 83.9351 212.975 83.9351C212.719 83.9351 212.511 84.2058 212.511 84.5397C212.511 84.8736 212.719 85.1443 212.975 85.1443Z"
    fill="#FF9B81"
  />
<path
    d="M80.6597 164.468C95.5521 164.468 107.625 163.548 107.625 162.413C107.625 161.277 95.5521 160.357 80.6597 160.357C65.7673 160.357 53.6946 161.277 53.6946 162.413C53.6946 163.548 65.7673 164.468 80.6597 164.468Z"
    fill="#ECE4C9"
  />
<path
    d="M246.643 135.846C246.643 135.846 246.707 135.711 246.822 135.475C247.618 133.842 250.855 127.352 252.173 127.132C253.849 128.305 250.833 150.256 245.889 153.608C241.03 156.121 246.707 135.711 246.707 135.711"
    fill="#276B6A"
  />
<path
    d="M237.846 125.121C237.846 125.121 245.47 131.824 244.968 140.872C244.465 149.921 238.935 143.972 239.103 139.699C239.27 135.426 237.846 125.121 237.846 125.121Z"
    fill="#276B6A"
  />
<path
    d="M237.93 125.205C237.93 125.205 234.327 138.694 243.376 151.429C251.754 137.019 237.092 129.311 237.93 125.205Z"
    fill="#4ED6D4"
  />
<path
    d="M226.368 131.321C226.368 131.321 234.998 137.94 235.752 143.386C236.506 148.832 228.798 139.113 226.368 131.321ZM246.895 123.194C246.895 123.194 243.963 115.067 243.208 118.921C242.454 122.775 246.141 127.802 243.879 135.929C242.79 144.727 248.738 129.227 246.895 123.194Z"
    fill="#276B6A"
  />
<path
    d="M226.368 131.321C226.368 131.321 227.96 148.916 238.349 150.675C241.449 146.905 230.473 141.794 226.368 131.321Z"
    fill="#4ED6D4"
  />
<path
    d="M221.76 144.559C221.76 144.559 234.579 146.402 236.087 152.686C228.965 150.34 222.514 147.24 221.76 144.559Z"
    fill="#41B2B1"
  />
<path
    d="M245.387 153.021C245.124 153.053 254.184 146.821 257.954 133.583C257.87 137.019 256.362 151.681 245.387 153.021Z"
    fill="#4ED6D4"
  />
<path
    d="M258.122 133.416C258.122 133.416 248.152 141.208 247.062 149.921C248.068 151.848 254.938 148.413 258.122 133.416Z"
    fill="#276B6A"
  />
<path
    d="M245.554 153.999C245.554 153.999 255.106 143.358 263.149 141.85C264.406 144.447 252.424 154.753 245.554 153.999Z"
    fill="#4ED6D4"
  />
<path
    d="M234.863 158.383L236.536 167.882C236.713 168.881 237.581 169.61 238.596 169.61H246.761C247.725 169.61 248.564 168.952 248.793 168.016L251.168 158.3L234.863 158.383Z"
    fill="#FF9700"
  />
<path
    d="M221.927 144.894C221.927 144.894 224.608 146.905 228.127 147.324C231.646 147.743 236.254 150.592 237.93 153.105C239.606 155.619 224.189 152.686 221.927 144.894Z"
    fill="#4ED6D4"
  />
<path
    d="M246.56 122.608C246.56 122.608 247.481 128.975 243.795 135.175C240.108 141.375 242.119 151.513 243.125 153.691C244.968 155.451 246.057 153.189 246.895 145.481C247.733 137.772 248.906 126.713 246.56 122.608Z"
    fill="#41B2B1"
  />
<path
    d="M243.795 153.272C243.711 152.937 239.354 149.083 238.014 143.805C236.673 138.527 236.338 128.724 235.584 132.578C234.83 136.432 234.076 150.927 239.354 154.864C244.633 158.802 243.795 153.272 243.795 153.272Z"
    fill="#41B2B1"
  />
<path
    d="M235.752 131.573C235.752 131.573 237.511 134.254 238.935 142.297C240.36 150.34 242.873 153.356 242.873 153.356C242.873 153.356 235.584 145.816 235.752 131.573Z"
    fill="#276B6A"
  />
<path
    d="M244.884 153.775C244.884 153.775 251.587 126.881 257.619 124.87C260.216 128.975 248.989 150.675 244.884 153.775Z"
    fill="#41B2B1"
  />
<path
    d="M233.111 155.431L233.831 157.636C233.977 158.082 234.393 158.383 234.863 158.383H250.709C251.14 158.383 251.531 158.128 251.703 157.732L252.758 155.314C253.073 154.592 252.538 153.786 251.751 153.795L234.129 154.009C233.396 154.018 232.883 154.735 233.111 155.431Z"
    fill="#C25939"
  />
<path
    d="M126.368 75.047H112.304C110.967 75.047 109.883 73.9631 109.883 72.6261C109.883 71.2892 110.967 70.2053 112.304 70.2053H126.368V75.047Z"
    fill="#4A2C4F"
  />
<path
    d="M126.329 74.1246H113.303C112.475 74.1246 111.804 73.4537 111.804 72.626C111.804 71.7984 112.475 71.1274 113.303 71.1274H126.329V74.1246Z"
    fill="#B3D1FF"
  />
<path
    d="M128.097 70.2823H109.729C108.392 70.2823 107.308 69.1985 107.308 67.8615C107.308 66.5245 108.392 65.4407 109.729 65.4407H128.097V70.2823Z"
    fill="#D40000"
  />
<path
    d="M128.058 69.3602H110.728C109.901 69.3602 109.23 68.6893 109.23 67.8616C109.23 67.034 109.901 66.363 110.728 66.363H128.058V69.3602Z"
    fill="#B8961F"
  />
<path d="M128.174 67.0032H115.775V67.413H128.174V67.0032Z" fill="#F9FAFD" />
<path d="M128.174 68.1301H121.821V68.5402H128.174V68.1301Z" fill="#F9FAFD" />
<path d="M126.33 71.7678H119.977V72.1779H126.33V71.7678Z" fill="#F9FAFD" />
<path
    d="M122.174 58.1416L120.829 61.2925H123.212L122.174 58.1416Z"
    fill="#AE0000"
  />
<path
    d="M128.08 51.5613L130.566 60.5728C130.655 60.8962 130.412 61.2157 130.076 61.2157H123.207C122.982 61.2157 122.784 61.0677 122.72 60.8521L120.061 51.8737C119.965 51.5493 120.206 51.2234 120.545 51.2218C122.18 51.2141 126.307 51.1948 127.591 51.1885C127.82 51.1874 128.019 51.3402 128.08 51.5613Z"
    fill="#D40000"
  />
<path
    d="M127.242 52.6624L128.975 59.5359C129.037 59.7826 128.867 60.0263 128.633 60.0263H123.844C123.687 60.0263 123.549 59.9134 123.505 59.7489L121.651 52.9006C121.584 52.6531 121.753 52.4045 121.988 52.4033C123.128 52.3975 126.006 52.3827 126.901 52.3779C127.061 52.3772 127.199 52.4937 127.242 52.6624Z"
    fill="#F9FAFD"
  />
<path
    d="M94.2252 68.5935L95.5701 71.7444H93.1877L94.2252 68.5935Z"
    fill="#AE0000"
  />
<path
    d="M69.7615 78.3406C69.139 78.3406 68.6343 77.836 68.6343 77.2134V74.4468H70.8886V77.2134C70.8886 77.836 70.384 78.3406 69.7615 78.3406ZM93.7393 78.3406C93.1168 78.3406 92.6121 77.836 92.6121 77.2134V74.4468H94.8664V77.2134C94.8664 77.836 94.3618 78.3406 93.7393 78.3406Z"
    fill="#FF8B4A"
  />
<path
    d="M78.047 58.4874L81.0058 58.1416L85.2711 71.7828H80.3141L77.8933 58.5258"
    fill="#B3D1FF"
  />
<path
    d="M74.166 58.6028C74.2813 58.5644 77.7396 57.9111 77.7396 57.9111L81.7359 71.0913L78.5081 71.7445L74.166 58.6028Z"
    fill="#4A2C4F"
  />
<path
    d="M71.5148 71.6676H67.2495V61.8109C67.2495 61.2912 67.6709 60.8699 68.1905 60.8699H70.5737C71.0935 60.8699 71.5148 61.2912 71.5148 61.8109V71.6676Z"
    fill="#D40000"
  />
<path
    d="M76.6799 71.7367L72.4492 71.7444L70.6186 57.6567C70.5476 57.1104 70.9576 56.6198 71.5078 56.5926L73.8461 56.4772C74.338 56.4529 74.7658 56.8112 74.8285 57.2996L76.6799 71.7367Z"
    fill="#FF8B4A"
  />
<path
    d="M88.3195 62.0131L85.8335 71.0246C85.7443 71.348 85.9876 71.6675 86.3231 71.6675H93.1928C93.4177 71.6675 93.6158 71.5196 93.6797 71.3039L96.3387 62.3256C96.4347 62.0012 96.193 61.6753 95.8546 61.6737C94.2195 61.666 90.0922 61.6467 88.8087 61.6404C88.5793 61.6392 88.3804 61.7919 88.3195 62.0131Z"
    fill="#D40000"
  />
<path
    d="M89.1576 63.1143L87.4246 69.9879C87.3624 70.2345 87.532 70.4782 87.7658 70.4782H92.5551C92.7119 70.4782 92.8501 70.3653 92.8946 70.2008L94.7483 63.3525C94.8153 63.105 94.6467 62.8564 94.4108 62.8552C93.271 62.8494 90.3935 62.8346 89.4987 62.8298C89.3388 62.8291 89.2001 62.9456 89.1576 63.1143Z"
    fill="#F9FAFD"
  />
<path
    d="M96.0704 74.7032H67.6864C66.7951 74.7032 66.0725 73.9806 66.0725 73.0893C66.0725 72.1979 66.7951 71.4753 67.6864 71.4753H96.0704C96.9617 71.4753 97.6843 72.1979 97.6843 73.0893C97.6843 73.9806 96.9617 74.7032 96.0704 74.7032Z"
    fill="#B8961F"
  />
<path
    d="M96.0704 74.7032H67.6864C66.7951 74.7032 66.0725 73.9806 66.0725 73.0893C66.0725 72.1979 66.7951 71.4753 67.6864 71.4753H96.0704C96.9617 71.4753 97.6843 72.1979 97.6843 73.0893C97.6843 73.9806 96.9617 74.7032 96.0704 74.7032Z"
    fill="#B8961F"
  />
<path d="M71.5162 64.2512H67.251V64.5971H71.5162V64.2512Z" fill="#F9FAFD" />
<path d="M71.5162 64.9043H67.251V65.2501H71.5162V64.9043Z" fill="#F9FAFD" />
<path
    d="M73.9025 106.868C73.9025 106.868 69.445 110.403 67.37 104.716C65.0645 98.952 64.1423 96.6465 62.1441 96.3391C64.9876 96.2622 72.9802 98.1835 74.5172 104.024C75.4395 106.714 73.9025 106.868 73.9025 106.868ZM74.5942 114.476C74.5942 114.476 68.2154 108.712 61.6062 117.858C62.3747 118.626 65.5256 117.089 68.6766 118.396C71.8275 119.702 77.3608 117.166 74.5942 114.476ZM71.9043 123.007C71.9043 123.007 65.0645 119.856 61.8367 131.153C63.3738 129.77 69.5219 127.541 71.6738 127.08C73.8256 126.619 71.9043 123.007 71.9043 123.007ZM84.2006 121.777C84.2006 121.777 80.2812 123.007 83.0479 125.85C85.8145 128.694 88.6581 128.386 89.8877 131.768C90.5793 128.31 89.8877 119.548 84.2006 121.777ZM84.1238 114.784C84.1238 114.784 84.2775 118.011 87.1979 117.166C90.1183 116.321 92.8849 114.707 96.7275 116.244C95.4979 114.323 91.1173 109.865 84.3543 112.939C83.4321 113.323 84.1238 114.784 84.1238 114.784ZM82.5867 110.634C82.5867 110.634 79.2821 107.252 86.3525 103.179C91.5784 100.182 91.8858 100.182 91.8858 100.182C91.8858 100.182 88.1201 114.092 82.5867 110.634ZM77.1302 82.3521C77.1302 82.3521 77.6682 90.8826 74.7478 95.4169C73.6718 97.8761 74.6709 103.179 79.3589 103.871C82.3561 103.179 83.3552 100.335 81.6645 94.4946C79.9738 88.6539 77.1302 82.3521 77.1302 82.3521Z"
    fill="#41B2B1"
  />
<path
    d="M66.9601 134.535C66.8033 134.378 68.3017 142.646 69.2626 147.879C69.7072 150.3 71.817 152.057 74.2783 152.057H81.7821C84.1456 152.057 86.1993 150.433 86.7443 148.133L90.0157 134.33C90.0157 134.33 67.0626 134.637 66.9601 134.535Z"
    fill="#FF9700"
  />
<path
    d="M78.3342 135.559C84.6725 135.559 89.8107 135.1 89.8107 134.534C89.8107 133.969 84.6725 133.51 78.3342 133.51C71.9959 133.51 66.8577 133.969 66.8577 134.534C66.8577 135.1 71.9959 135.559 78.3342 135.559Z"
    fill="#661D09"
  />
<path
    d="M81.2033 148.778L88.991 163.226L87.8639 144.986C81.7157 150.52 67.9848 145.909 67.9848 145.909L67.575 164.148L73.4157 148.368"
    stroke="#C25939"
    strokeLinecap="4.796"
    stroke-miterlimit="10"
    strokeLinecap="round"
    strokeLinejoin="round"
  />
<path
    d="M74.9529 152.159C74.9529 152.467 77.8221 163.943 77.8221 163.943L80.6912 151.954M68.8303 146.831C68.8303 146.831 79.5128 150.674 87.5822 146.216"
    stroke="#C25939"
    strokeLinecap="4.796"
    stroke-miterlimit="10"
    strokeLinecap="round"
    strokeLinejoin="round"
  />
<path
    d="M77.5144 96.8003C77.5144 96.8003 81.2034 108.021 79.4357 114.399C77.6682 120.778 75.4394 132.844 77.1302 135.534C81.4339 135.534 81.4339 135.764 81.4339 135.764C81.4339 135.764 78.6672 129.078 80.0505 121.47C81.4339 113.785 81.2033 101.335 77.5144 96.8003Z"
    fill="#8A2914"
  />
<path
    d="M79.2822 113.861C79.2822 113.861 74.0562 104.485 69.4451 102.564C71.0591 103.871 78.1294 112.248 78.821 115.706C79.7433 116.013 79.7433 115.475 79.2822 113.861ZM79.0517 119.011C79.0517 119.011 75.2859 111.71 66.1405 116.244C68.5998 115.936 74.4405 113.016 78.4368 119.702C79.2822 119.856 79.0517 119.011 79.0517 119.011ZM78.1294 126.619C78.1294 126.619 73.3646 117.627 65.6794 126.926C67.7544 125.312 73.5952 120.01 77.5915 127.234C78.898 127.157 78.1294 126.619 78.1294 126.619ZM80.3582 113.708C80.3582 113.708 84.1239 106.714 87.3517 105.485C86.3526 106.868 80.5119 114.784 80.5119 114.784L80.3582 113.708ZM79.6665 119.779C79.6665 119.779 82.8175 110.403 90.8869 113.861C88.8119 113.631 83.1248 112.632 79.4359 120.932C79.2053 120.624 79.6665 119.779 79.6665 119.779ZM78.8211 123.622C78.8211 123.622 85.3535 118.319 88.735 127.157C88.4276 124.774 86.0452 118.934 78.898 122.623C78.2832 123.391 78.8211 123.622 78.8211 123.622Z"
    fill="#8A2914"
  />
</svg>
