<svg width="241" height="200" viewBox="0 0 241 200" fill="none" xmlns="http://www.w3.org/2000/svg">
<path d="M205.548 118.939C206.997 104.659 221.976 80.9216 199.312 66.2951C177.024 51.9116 163.463 69.763 141.219 65.8014C129.914 63.7878 123.522 51.6132 114.305 44.7649C89.5718 26.3872 52.2373 42.7535 51.5216 71.642C50.3668 118.257 26.3708 109.151 21.8708 145.087C18.4795 172.17 38.8364 190.695 63.0354 185.014L93.7604 174.554C98.5723 176.132 103.741 174.318 108.672 173.165C135.037 167.103 160.325 191.757 186.319 190.695C201.761 190.064 217.555 178.624 219.88 164.689C223.146 145.113 203.806 136.123 205.548 118.939Z" fill="#E8EDFF"/>
<g opacity="0.2">
<path d="M223.372 82.4713C223.028 79.8267 222.211 78.0592 220.876 77.067C219.105 75.7506 216.902 76.1127 214.959 76.433L214.728 76.4709C212.542 76.8318 210.439 75.0002 209.307 73.3244C206.727 69.5084 202.887 68.5678 198.769 70.7463C197.214 71.5685 195.054 72.0506 193.654 70.9361C193.148 70.533 192.651 70.0635 192.17 69.6096C190.738 68.258 189.26 66.8619 187.229 66.8619C187.183 66.8619 187.136 66.8627 187.09 66.8639C185.559 66.9119 184.025 67.7791 182.401 69.5162C182.209 69.7211 182.084 69.9788 182.04 70.256C181.997 70.5331 182.038 70.8169 182.158 71.0705L186.775 80.8399C186.683 80.8805 186.591 80.9191 186.501 80.9658C185.425 81.5241 184.608 82.4772 184.219 83.6252C183.831 84.7732 183.902 86.0269 184.418 87.1235C180.119 88.4314 176.021 90.3264 172.241 92.7549C170.538 88.8479 168.384 85.1535 165.823 81.7471C158.912 72.549 149.079 65.64 138.136 62.2943C137.635 62.1407 137.13 62.0009 136.624 61.862C136.189 61.7124 135.744 61.5969 135.291 61.5165C127.311 59.5422 118.99 59.3864 110.942 61.0606L99.7572 44.9775L101.869 42.7644C105.186 44.2902 109.401 45.6288 113.754 44.9146C118.216 44.1839 122.691 40.5621 123.432 35.9504C123.737 35.8831 124.019 35.7393 124.253 35.5323C124.486 35.3254 124.663 35.0624 124.766 34.7681L127.1 28.0942C127.19 27.8395 127.221 27.5683 127.193 27.2999C127.166 27.0315 127.079 26.7726 126.94 26.5416C126.8 26.3106 126.611 26.1132 126.387 25.9635C126.162 25.8138 125.908 25.7155 125.641 25.6757L121.006 24.9835C120.732 24.9426 120.453 24.9642 120.189 25.0468C119.924 25.1294 119.682 25.2707 119.48 25.4603C119.279 25.6498 119.122 25.8826 119.023 26.1411C118.924 26.3997 118.885 26.6773 118.909 26.9532L119.518 34.0668C119.548 34.4033 119.67 34.725 119.871 34.9963C120.073 35.2676 120.345 35.4779 120.659 35.6038C120.091 38.9471 116.687 41.5969 113.301 42.1513C110.528 42.6059 107.494 42.11 103.929 40.6056L110.702 33.5088C110.91 33.2905 111.042 33.0107 111.079 32.7112C111.115 32.4117 111.054 32.1085 110.904 31.8467L106.846 24.7615C106.833 24.7381 106.814 24.7186 106.8 24.6961C106.774 24.6572 106.748 24.6193 106.719 24.5834C106.697 24.5549 106.673 24.5274 106.648 24.5009C106.612 24.4632 106.575 24.4275 106.535 24.394C106.512 24.3749 106.491 24.3546 106.468 24.3369C106.403 24.2878 106.333 24.2444 106.261 24.2073C106.251 24.2024 106.241 24.1994 106.231 24.1947C106.164 24.1628 106.095 24.1363 106.023 24.1155C106.015 24.113 106.007 24.1084 105.999 24.106C105.985 24.1025 105.972 24.1025 105.959 24.0994C105.894 24.0836 105.828 24.0725 105.762 24.0662C105.742 24.0644 105.723 24.0621 105.704 24.0611C105.624 24.0565 105.544 24.0589 105.464 24.0682C105.46 24.0688 105.455 24.0686 105.451 24.0691C105.443 24.0702 105.434 24.0696 105.426 24.0709L54.2591 31.574C51.7475 31.9392 49.4683 33.2447 47.8826 35.2263L15.522 75.5709C15.5153 75.5792 15.5107 75.5886 15.5042 75.597C15.5004 75.602 15.4975 75.6075 15.4937 75.6125C15.4467 75.6758 15.4051 75.7431 15.3695 75.8136C15.3623 75.8277 15.356 75.842 15.3493 75.8564C15.3193 75.9205 15.2943 75.9868 15.2744 76.0548C15.27 76.0699 15.2651 76.0846 15.2612 76.0999C15.2409 76.1774 15.2274 76.2565 15.2206 76.3363C15.2203 76.3405 15.2193 76.3445 15.219 76.3487C15.2131 76.4341 15.2151 76.5199 15.2248 76.6049C15.2267 76.6215 15.231 76.6377 15.2334 76.6542C15.2432 76.7202 15.2578 76.7855 15.277 76.8495C15.2846 76.8749 15.2935 76.8998 15.3026 76.9249C15.3241 76.9833 15.3495 77.0402 15.3786 77.0952C15.3871 77.1113 15.3914 77.1284 15.4005 77.1443L19.4576 84.2299C19.6075 84.4918 19.8381 84.6983 20.115 84.8185C20.3918 84.9386 20.7002 84.9661 20.9939 84.8967L36.6589 81.2023L45.8689 100.537C46.518 101.826 47.5582 102.875 48.8405 103.536C50.1228 104.197 51.5814 104.435 53.0072 104.215C58.8084 103.326 64.2482 102.091 69.3645 100.5C68.1452 105.075 67.5265 109.79 67.524 114.524C67.524 115.504 67.5532 116.481 67.6051 117.454C64.6616 118.784 62.0484 120.748 59.9526 123.205C57.8568 125.662 56.3303 128.553 55.4823 131.669C54.6342 134.786 54.4857 138.051 55.0473 141.232C55.609 144.412 56.8668 147.429 58.7309 150.067L56.5289 152.564L56.0509 152.142C55.9138 152.019 55.7534 151.925 55.5793 151.866C55.4052 151.806 55.2209 151.782 55.0373 151.795C54.6667 151.818 54.3205 151.987 54.0748 152.266L37.4365 171.131C36.6699 172.002 36.2801 173.141 36.3527 174.3C36.4253 175.458 36.9542 176.54 37.8236 177.308L41.8814 180.887C42.6778 181.594 43.7059 181.983 44.7705 181.982C44.8634 181.982 44.9568 181.979 45.0505 181.973C45.6245 181.938 46.1859 181.79 46.7024 181.538C47.2188 181.285 47.6799 180.932 48.0591 180.5L64.6974 161.635C64.943 161.356 65.0679 160.992 65.0446 160.621C65.0214 160.251 64.852 159.904 64.5736 159.659L64.0958 159.237L66.2981 156.74C69.533 158.459 73.1464 159.341 76.8094 159.307C80.4724 159.273 84.0686 158.323 87.2706 156.543C96.0299 163.797 106.83 168.146 118.172 168.985C119.232 171.706 120.93 173.327 122.962 173.547C123.343 173.589 123.729 173.579 124.108 173.519C126.3 173.462 128.508 173.425 130.676 173.411C140.548 173.344 150.379 173.753 159.915 174.605L170.88 175.798C182.566 177.299 193.625 179.484 203.538 182.285C203.595 182.302 203.653 182.313 203.712 182.319C203.865 182.336 204.018 182.344 204.171 182.344C208.002 182.344 211.506 177.146 212.263 170.181C212.299 169.852 212.327 169.526 212.347 169.208C212.548 166.312 212.212 163.663 211.473 161.538C213.896 158.767 216.005 155.438 217.725 151.608C224.677 136.125 224.647 112.295 211.577 95.6802C212.114 95.37 212.583 94.9563 212.958 94.463C213.334 93.9698 213.607 93.4069 213.763 92.807C213.919 92.2072 213.954 91.5823 213.866 90.9688C213.778 90.3553 213.569 89.7654 213.251 89.2333L222.677 83.8689C222.918 83.7314 223.114 83.525 223.237 83.2761C223.361 83.0271 223.408 82.747 223.372 82.4713Z" fill="#102770"/>
</g>
<path d="M113.088 63.4176C98.3078 82.8834 79.4287 92.7133 55.195 96.432C54.0602 96.6019 52.9008 96.4103 51.881 95.8843C50.8613 95.3582 50.0331 94.5244 49.5139 93.5012L44.345 82.6472L43.8543 81.617L41.7651 77.2324L39.0082 71.4391L36.1733 65.4925L95.5258 31.4934L99.3386 36.9738L102.913 42.1157L105.675 46.0902L106.584 47.4003L113.318 57.0808C113.94 58.0311 114.251 59.1509 114.21 60.2858C114.169 61.4207 113.777 62.5149 113.088 63.4176Z" fill="#6D68B5"/>
<g opacity="0.57">
<path d="M113.514 64.1627C98.7346 83.6285 79.8555 93.4584 55.6218 97.1771C55.1787 97.2465 54.7286 97.2582 54.2826 97.2119C77.4445 93.2413 95.4039 83.0526 109.726 64.1904C110.415 63.2877 110.807 62.1935 110.848 61.0586C110.89 59.9237 110.578 58.8039 109.956 57.8536L103.436 48.5457L102.527 47.2356L99.7646 43.2611L96.1902 38.1192L93.1962 33.8175L95.9526 32.2385L99.7654 37.7189L103.34 42.8608L106.102 46.8353L107.011 48.1454L113.745 57.8259C114.366 58.7763 114.678 59.896 114.637 61.0309C114.596 62.1658 114.203 63.26 113.514 64.1627Z" fill="white"/>
</g>
<g opacity="0.3">
<path d="M100.574 38.75L99.4387 39.4004L98.7183 42.804C98.0594 45.9165 96.5472 48.7842 94.351 51.086L78.3028 67.9056C77.7279 68.5071 76.991 68.9292 76.1813 69.1208L70.5225 70.4549C69.7755 70.631 69.0775 70.9721 68.4796 71.4531C67.8816 71.9341 67.3989 72.5429 67.067 73.2348C66.735 73.9266 66.5621 74.6841 66.5609 75.4515C66.5598 76.2189 66.7305 76.9768 67.0605 77.6696L69.2234 82.211C69.7426 83.2342 70.5708 84.068 71.5905 84.594C72.6103 85.1201 73.7697 85.3117 74.9045 85.1417C83.1428 83.8762 90.7602 81.9076 97.8085 79.0923C85.8418 88.4855 71.7731 93.8875 55.195 96.432C54.0603 96.6019 52.9008 96.4103 51.8811 95.8843C50.8614 95.3582 50.0332 94.5244 49.5139 93.5012L44.3451 82.6472L43.8544 81.617L41.7652 77.2324L39.0082 71.4391L36.1734 65.4925L31.8158 56.341L51.5252 45.0507L55.8828 54.2023L95.5259 31.4934L99.3387 36.9738L100.574 38.75Z" fill="#102770"/>
</g>
<path d="M54.3692 97.8948C53.1047 97.8927 51.8654 97.5405 50.7887 96.8773C49.712 96.2141 48.8399 95.2658 48.269 94.1374L30.5522 56.9437C30.4004 56.625 30.3746 56.2608 30.4799 55.9239C30.5852 55.587 30.8139 55.3023 31.1202 55.1269L89.0376 21.9499C89.3414 21.7758 89.6995 21.7219 90.0411 21.7989C90.3827 21.8758 90.683 22.078 90.8829 22.3655L114.468 56.2792C115.255 57.4741 115.652 58.8836 115.604 60.3136C115.557 61.7435 115.067 63.1236 114.203 64.2636C99.8185 83.2081 81.1358 93.8694 55.4077 97.8155C55.064 97.8682 54.7169 97.8947 54.3692 97.8948ZM33.6382 56.9112L50.7804 92.8999C51.1666 93.6539 51.7805 94.2671 52.5349 94.6526C53.2893 95.0381 54.1459 95.1763 54.9833 95.0476C79.9472 91.2191 98.0559 80.8991 111.973 62.5706C112.486 61.8975 112.778 61.0823 112.809 60.2366C112.841 59.3909 112.61 58.5561 112.148 57.8468L89.3165 25.0171L33.6382 56.9112Z" fill="#102770"/>
<path d="M108.032 19.0574L112.089 26.1427L75.148 64.8532L23.0725 77.1343L19.0153 70.049L108.032 19.0574Z" fill="#6157A4"/>
<g opacity="0.57">
<path d="M108.031 19.0554L112.089 26.1421L109.687 28.6609L105.136 20.7136L108.031 19.0554Z" fill="white"/>
</g>
<g opacity="0.3">
<path d="M71.0867 57.764L74.8333 64.3066L75.4345 64.551L75.1469 64.8543L23.0732 77.1332L19.0151 70.0466L75.5328 37.6714C66.5895 54.7093 71.0867 57.764 71.0867 57.764Z" fill="#102770"/>
</g>
<path d="M23.0723 78.5341C22.8257 78.534 22.5836 78.4688 22.3703 78.3451C22.157 78.2215 21.9802 78.0437 21.8576 77.8298L17.8004 70.7446C17.6159 70.4224 17.5669 70.0402 17.6642 69.6819C17.7615 69.3236 17.9972 69.0186 18.3193 68.8341L107.336 17.8423C107.495 17.7508 107.671 17.6917 107.854 17.6684C108.036 17.645 108.221 17.6577 108.399 17.7059C108.576 17.7542 108.742 17.8369 108.888 17.9493C109.033 18.0618 109.155 18.2018 109.246 18.3614L113.304 25.447C113.454 25.7088 113.515 26.012 113.479 26.3115C113.442 26.611 113.31 26.8908 113.102 27.1091L76.1609 65.8196C75.9737 66.016 75.7334 66.1536 75.4693 66.2157L23.3937 78.4966C23.2884 78.5215 23.1805 78.5341 23.0723 78.5341ZM20.9258 70.568L23.7682 75.5317L74.4223 63.586L110.355 25.9317L107.512 20.968L20.9258 70.568Z" fill="#102770"/>
<path d="M108.029 19.0562L71.0874 57.7638L19.0143 70.0466L53.5007 27.0522L108.029 19.0562Z" fill="#6157A4"/>
<g opacity="0.3">
<path d="M69.6222 58.1083L19.0151 70.0467L42.3567 40.9412C35.2862 57.1784 47.298 60.9953 69.6222 58.1083Z" fill="#102770"/>
</g>
<g opacity="0.57">
<path d="M107.751 19.4587L70.8068 58.1673L65.371 59.4503L97.0592 26.2476C98.1159 25.1404 97.179 23.3267 95.6649 23.5487L51.113 30.0819L53.2198 27.455L107.751 19.4587Z" fill="white"/>
</g>
<path d="M19.0141 71.4466C18.7503 71.4465 18.4918 71.3719 18.2685 71.2313C18.0452 71.0907 17.8662 70.8899 17.7521 70.652C17.638 70.4141 17.5934 70.1488 17.6235 69.8867C17.6537 69.6245 17.7572 69.3763 17.9223 69.1704L50.2831 28.8263C51.8685 26.8446 54.1476 25.5391 56.6591 25.174L107.825 17.6708C108.114 17.6285 108.408 17.6773 108.668 17.8103C108.927 17.9434 109.138 18.154 109.272 18.413C109.406 18.6719 109.456 18.9661 109.414 19.2546C109.373 19.5431 109.243 19.8115 109.041 20.0224L72.1001 58.7302C71.913 58.9266 71.6728 59.0642 71.4089 59.1263L19.3358 71.4091C19.2304 71.4341 19.1225 71.4467 19.0141 71.4466ZM104.208 21.031L57.0653 27.9443C55.2542 28.2077 53.6107 29.1492 52.4673 30.5783L22.6509 67.7505L70.3614 56.4966L104.208 21.031Z" fill="#102770"/>
<path d="M62.757 43.2154C65.8297 41.4551 67.6957 38.9374 66.9248 37.5918C66.1539 36.2462 63.0382 36.5824 59.9655 38.3427C56.8929 40.103 55.0269 42.6208 55.7977 43.9664C56.5686 45.3119 59.6844 44.9757 62.757 43.2154Z" fill="#102770"/>
<path d="M123.406 18.5836L128.041 19.2758C128.308 19.3157 128.562 19.414 128.787 19.5636C129.011 19.7133 129.2 19.9107 129.34 20.1417C129.479 20.3727 129.566 20.6317 129.593 20.9001C129.621 21.1685 129.59 21.4397 129.5 21.6944L127.166 28.3682C127.025 28.771 126.748 29.112 126.383 29.3325C126.017 29.553 125.587 29.6391 125.165 29.5761L123.474 29.3236C123.066 29.2627 122.691 29.066 122.409 28.7654C122.126 28.4648 121.954 28.0778 121.918 27.6669L121.309 20.5533C121.285 20.2775 121.324 19.9998 121.423 19.7413C121.522 19.4827 121.679 19.2499 121.88 19.0604C122.082 18.8709 122.324 18.7295 122.589 18.6469C122.853 18.5643 123.132 18.5427 123.406 18.5836Z" fill="#102770"/>
<path d="M61.3781 42.1872C61.1483 42.1868 60.9222 42.13 60.7195 42.0216C60.5169 41.9133 60.344 41.7567 60.2161 41.5658C60.0882 41.3749 60.0092 41.1555 59.9861 40.9268C59.963 40.6982 59.9965 40.4674 60.0836 40.2548C62.4006 34.6137 66.8979 29.897 72.4221 27.3137C77.9465 24.7305 84.4494 24.3032 90.2641 26.1426C93.66 27.2165 96.7342 29.0016 99.707 30.7278C100.814 31.3704 101.958 32.0352 103.091 32.6446C108.116 35.3509 112.123 36.3368 115.701 35.7516C119.582 35.1157 123.488 31.7278 123.117 27.6973C123.1 27.5142 123.12 27.3295 123.174 27.1539C123.229 26.9782 123.317 26.815 123.435 26.6736C123.552 26.5322 123.697 26.4153 123.859 26.3296C124.022 26.244 124.2 26.1912 124.383 26.1744C124.566 26.1576 124.751 26.177 124.927 26.2315C125.102 26.2861 125.266 26.3747 125.407 26.4924C125.548 26.61 125.665 26.7543 125.751 26.9171C125.836 27.0799 125.889 27.2579 125.906 27.4411C126.419 33.0251 121.278 37.6751 116.154 38.5149C110.61 39.4216 105.286 37.0067 101.763 35.1102C100.591 34.479 99.4272 33.8032 98.301 33.1493C95.3287 31.4231 92.5211 29.793 89.4197 28.8122C84.2666 27.1829 78.5037 27.561 73.608 29.8505C68.7125 32.1395 64.727 36.3196 62.6738 41.3188C62.5683 41.5757 62.3887 41.7954 62.158 41.95C61.9273 42.1047 61.6559 42.1872 61.3781 42.1872Z" fill="#102770"/>
<path d="M194.097 163.336C182.456 163.175 171.332 159.349 160.592 152.753C136.225 136.207 156.171 89.8156 189.209 81.5061L191.153 75.3509L186.559 65.6226L185.825 64.071C186.166 63.7027 186.531 63.3572 186.917 63.0364C190.551 60.0502 192.434 63.4454 195.181 65.6328C197.045 67.1154 199.716 66.6986 201.823 65.5859C205.477 63.6511 208.454 64.6144 210.547 67.7091C212.079 69.971 214.661 71.8957 217.353 71.4536C220.258 70.9779 223.05 70.3933 224.119 74.7869C224.233 75.2699 224.322 75.7584 224.385 76.2505L221.932 77.648L213.544 82.4233L211.6 88.5785C233.867 114.356 222.653 162.933 194.097 163.336Z" fill="#9CAFF4"/>
<g opacity="0.65">
<path d="M224.385 76.2505L222.09 77.5557C222.029 77.124 221.952 76.7285 221.865 76.3664C220.796 71.9728 218.004 72.5574 215.099 73.0332C212.406 73.4752 209.825 71.5506 208.293 69.2887C206.2 66.1939 203.223 65.2306 199.569 67.1654C197.462 68.2782 194.791 68.695 192.927 67.2123C190.602 65.3597 188.897 62.6444 186.224 63.6652C186.459 63.428 186.694 63.2224 186.917 63.0364C190.551 60.0502 192.435 63.4454 195.181 65.6328C197.045 67.1154 199.716 66.6986 201.823 65.5859C205.477 63.6511 208.454 64.6144 210.548 67.7091C212.079 69.971 214.661 71.8957 217.353 71.4536C220.258 70.9779 223.05 70.3933 224.119 74.7869C224.233 75.2699 224.322 75.7584 224.385 76.2505Z" fill="white"/>
</g>
<g opacity="0.65">
<path d="M205.58 159.396C217.047 150.443 222.49 131.41 219.348 113.602C213.478 112.133 213.404 106.678 216.603 103.647C214.849 99.0869 212.44 94.7697 209.321 90.92C209.052 90.5884 208.871 90.1952 208.792 89.776C208.713 89.3567 208.74 88.9244 208.87 88.518L210.386 83.7172L212.526 82.5002L210.696 88.2928C229.375 109.917 224.495 147.584 205.58 159.396Z" fill="white"/>
</g>
<g opacity="0.65">
<path d="M222.131 77.8301L219.678 79.2275L213.43 82.7859L213.544 82.4233L221.932 77.648L222.089 77.5557C222.106 77.648 222.119 77.739 222.131 77.8301Z" fill="white"/>
</g>
<g opacity="0.3">
<path d="M210.082 156.982C205.686 160.887 200.299 163.246 194.097 163.336C182.456 163.175 171.332 159.349 160.592 152.753C140.416 139.057 150.619 104.9 173.475 88.8371L173.476 88.8329C173.487 88.8248 173.498 88.8177 173.51 88.8116C174.015 88.5037 179.604 85.1313 184.503 83.2598C186.91 82.3427 189.149 81.7848 190.538 82.1319L208.87 88.518C198.966 84.5586 192.34 85.4175 185.189 89.6196C175.298 95.4316 167.795 104.675 164.201 115.57C160.146 127.861 161.503 139.746 172.026 146.892C182.766 153.488 193.891 157.313 205.531 157.475C207.06 157.456 208.584 157.291 210.082 156.982Z" fill="#102770"/>
</g>
<g opacity="0.3">
<path d="M185.34 82.6716C185.059 82.8626 184.782 83.0592 184.503 83.2598C179.604 85.1313 174.015 88.5037 173.51 88.8117C177.156 86.2509 181.123 84.1536 185.34 82.6716Z" fill="#262F6A"/>
</g>
<path d="M194.117 164.735C182.615 164.576 171.422 161.046 159.861 153.946C159.843 153.935 159.825 153.923 159.807 153.911C150.671 147.707 146.737 136.763 149.015 123.884C150.673 114.516 155.406 104.978 162.343 97.0279C169.618 88.6916 178.511 82.9373 188.106 80.3479L189.653 75.4514L184.558 64.6705C184.438 64.4169 184.397 64.1331 184.44 63.856C184.484 63.5788 184.609 63.3211 184.801 63.1162C186.425 61.3795 187.959 60.5119 189.49 60.4643C191.591 60.3924 193.106 61.8271 194.569 63.2088C195.05 63.6631 195.548 64.133 196.054 64.5361C197.454 65.651 199.614 65.1686 201.169 64.3463C205.286 62.169 209.128 63.108 211.707 66.9244C212.84 68.5998 214.938 70.4326 217.128 70.0709L217.359 70.033C219.303 69.7131 221.505 69.3502 223.277 70.667C224.612 71.6592 225.428 73.4268 225.773 76.0713C225.808 76.347 225.761 76.6272 225.638 76.8761C225.514 77.125 225.318 77.3314 225.077 77.469L214.714 83.367L213.167 88.2639C227.052 104.91 227.22 129.408 220.125 145.208C214.622 157.462 205.142 164.58 194.117 164.735ZM161.354 151.577C172.463 158.394 183.181 161.783 194.117 161.935C203.969 161.796 212.532 155.281 217.571 144.06C224.388 128.879 224.162 105.262 210.54 89.4951C210.384 89.3143 210.276 89.0966 210.228 88.8626C210.18 88.6286 210.192 88.3862 210.264 88.1584L212.209 82.0002C212.315 81.6636 212.545 81.3795 212.852 81.2049L222.847 75.5162C222.584 74.2053 222.169 73.3322 221.607 72.9147C220.788 72.3061 219.41 72.533 217.814 72.7959L217.58 72.8342C214.089 73.4076 211.059 70.9662 209.387 68.4924C207.603 65.8525 205.343 65.3061 202.478 66.8213C199.45 68.424 196.397 68.3881 194.31 66.7268C193.711 66.2498 193.17 65.7389 192.647 65.2451C191.503 64.1658 190.516 63.2307 189.577 63.2627C188.996 63.2811 188.304 63.6525 187.512 64.3693L192.419 74.7514C192.57 75.0705 192.594 75.4348 192.488 75.7713L190.543 81.9291C190.471 82.1569 190.342 82.3625 190.168 82.5263C189.994 82.6901 189.781 82.8067 189.549 82.865C168.861 88.0678 154.645 108.133 151.773 124.372C149.667 136.276 153.069 145.936 161.354 151.577Z" fill="#102770"/>
<path d="M210.592 88.468L190.044 81.9778C189.184 81.7061 188.466 81.1037 188.05 80.3033C187.634 79.5028 187.553 78.5698 187.825 77.7095C187.959 77.2835 188.176 76.8882 188.464 76.5461C188.751 76.204 189.103 75.9219 189.499 75.7158C189.896 75.5098 190.329 75.3838 190.774 75.3451C191.219 75.3064 191.667 75.3557 192.093 75.4902L212.641 81.9804C213.067 82.1149 213.462 82.3321 213.804 82.6194C214.146 82.9067 214.428 83.2586 214.634 83.655C214.84 84.0513 214.966 84.4844 215.005 84.9294C215.044 85.3745 214.994 85.8228 214.86 86.2488C214.725 86.6747 214.508 87.0701 214.221 87.4121C213.934 87.7542 213.582 88.0363 213.185 88.2424C212.789 88.4485 212.356 88.5744 211.911 88.6132C211.466 88.6519 211.017 88.6025 210.592 88.468Z" fill="#F7C414"/>
<g opacity="0.65">
<path d="M214.861 86.249C214.755 86.5857 214.598 86.9038 214.394 87.1921C214.39 86.471 214.158 85.7696 213.73 85.189C213.302 84.6083 212.701 84.1784 212.014 83.9609L191.469 77.4716C190.781 77.254 190.042 77.2605 189.358 77.4902C188.675 77.7198 188.082 78.1608 187.665 78.7495C187.663 78.2136 187.787 77.6847 188.028 77.206C188.269 76.7274 188.62 76.3124 189.051 75.9949C189.483 75.6774 189.984 75.4664 190.513 75.379C191.041 75.2916 191.583 75.3304 192.094 75.4922L212.639 81.9814C213.065 82.1157 213.461 82.3326 213.803 82.6197C214.145 82.9069 214.428 83.2586 214.634 83.6549C214.84 84.0512 214.967 84.4842 215.006 84.9293C215.045 85.3744 214.996 85.8228 214.861 86.249Z" fill="white"/>
</g>
<g opacity="0.3">
<path d="M214.861 86.249C214.727 86.6749 214.509 87.0702 214.222 87.4121C213.934 87.7541 213.582 88.036 213.185 88.2419C212.789 88.4477 212.356 88.5735 211.91 88.6119C211.465 88.6503 211.017 88.6006 210.591 88.4658L190.046 81.9765C189.404 81.7748 188.837 81.3872 188.415 80.8627C187.994 80.3381 187.737 79.7004 187.679 79.0301C187.62 78.3598 187.762 77.6872 188.085 77.0974C188.409 76.5076 188.901 76.0272 189.498 75.717C189.575 75.6771 189.65 75.6413 189.73 75.6069C189.555 76.4328 189.694 77.2941 190.119 78.0232C190.545 78.7523 191.226 79.297 192.031 79.5512L212.58 86.0418C213.357 86.289 214.198 86.2467 214.946 85.9228C214.924 86.0331 214.896 86.142 214.861 86.249Z" fill="#102770"/>
</g>
<path d="M211.613 89.9229C211.134 89.9228 210.658 89.8491 210.201 89.7046L210.201 89.7042L189.653 83.2139C188.465 82.8386 187.475 82.0068 186.9 80.9013C186.326 79.7958 186.213 78.5073 186.589 77.3192C186.964 76.1311 187.796 75.1408 188.901 74.566C190.007 73.9913 191.295 73.8793 192.484 74.2546L213.031 80.7448C214.101 81.0828 215.015 81.7928 215.607 82.7461C216.199 83.6994 216.43 84.8332 216.259 85.9423C216.088 87.0513 215.525 88.0624 214.673 88.7926C213.82 89.5227 212.735 89.9237 211.613 89.9229ZM210.982 87.2319C211.514 87.4001 212.092 87.35 212.587 87.0925C213.082 86.835 213.455 86.3913 213.624 85.8589C213.792 85.3265 213.742 84.749 213.484 84.2536C213.227 83.7582 212.783 83.3853 212.25 83.2171L191.703 76.7264C191.17 76.5583 190.593 76.6085 190.097 76.8662C189.602 77.1238 189.229 77.5677 189.061 78.1002C188.893 78.6327 188.943 79.2102 189.2 79.7056C189.458 80.2011 189.902 80.5739 190.434 80.7421L210.982 87.2323L210.982 87.2319ZM183.011 138.076L183.998 134.949C181.825 134.154 179.873 132.886 178.851 131.767L181.054 128.228C182.197 129.422 183.921 130.726 186.06 131.402C187.936 131.995 189.448 131.676 189.864 130.359C190.259 129.109 189.455 127.986 187.28 126.394C184.132 124.097 182.25 121.693 183.258 118.501C184.173 115.605 186.931 113.978 190.67 114.399L191.658 111.273L194.883 112.292L193.968 115.188C196.142 115.983 197.477 116.911 198.397 117.781L196.268 121.199C195.527 120.566 194.252 119.331 191.883 118.583C189.744 117.907 188.761 118.61 188.47 119.532C188.127 120.618 189.061 121.673 191.525 123.609C195.005 126.229 196.013 128.538 195.078 131.5C194.153 134.429 191.289 136.275 187.297 135.738L186.236 139.095L183.011 138.076Z" fill="#102770"/>
<path d="M186.917 63.0364L186.801 63.8841C186.791 63.5969 186.83 63.3102 186.917 63.0364Z" fill="#262F6A"/>
<g opacity="0.3">
<path d="M223 76.2529L221.932 77.6478L213.544 82.4231L213.342 83.0649L190.951 75.9926L191.153 75.3508L186.559 65.6225L186.801 63.884C186.954 71.1601 216.507 80.8062 223 76.2529Z" fill="#102770"/>
</g>
<path d="M224.119 74.7869C223.931 75.3828 223.549 75.8671 223 76.2531L224.119 74.7869Z" fill="#262F6A"/>
<path d="M177.789 108.123C177.792 111.224 177.52 114.318 176.978 117.371V117.375C173.994 134.466 162.854 148.745 147.724 156.077C140.495 159.574 132.567 161.386 124.537 161.376C108.931 161.376 94.8926 154.66 85.1561 143.968V143.963C76.5335 134.498 71.2803 121.931 71.2803 108.123C71.2628 97.3069 74.5561 86.744 80.718 77.8541C81.4562 76.7899 82.2351 75.7528 83.0457 74.7475C89.7224 66.4564 98.728 60.3538 108.903 57.2255C119.078 54.0972 129.957 54.0864 140.138 57.1945C153.828 61.379 165.172 70.9344 171.721 83.4062C175.72 91.0306 177.803 99.5139 177.789 108.123Z" fill="#22A7F0"/>
<g opacity="0.3">
<path d="M176.263 110.904C176.266 114.004 175.996 117.098 175.457 120.151V120.156C173.719 120.694 172.525 121.06 172.525 121.06C170.75 121.329 169.082 120.086 168.001 118.65C166.92 117.219 166.177 115.525 164.935 114.228C164.132 113.406 163.156 112.774 162.077 112.38C160.998 111.985 159.844 111.837 158.7 111.948C155.72 112.265 153.305 114.702 151.25 116.692C148.404 119.441 145.273 122.561 141.314 122.615C137.807 122.658 134.611 120.016 133.38 116.735C132.148 113.448 132.653 109.699 134.09 106.504C135.682 102.964 138.312 100.301 140.798 97.4019C143.46 94.298 145.666 90.7638 147.35 87.0413C148.474 84.5668 149.302 81.4737 147.672 79.3058C146.613 77.8911 144.768 77.294 143.014 77.0896C141.255 76.8852 139.458 76.982 137.737 76.5678C134.353 75.7609 131.567 72.8614 130.894 69.4456C130.227 66.0351 131.861 61.0754 134.685 59.0474C134.685 59.0474 136.139 60.1501 138.614 59.9726C160.411 66.6376 176.263 86.9176 176.263 110.904Z" fill="#102770"/>
</g>
<path d="M177.788 108.124C177.79 111.224 177.52 114.319 176.981 117.371V117.377C175.243 117.915 174.049 118.281 174.049 118.281C172.274 118.55 170.606 117.307 169.525 115.871C168.444 114.44 167.701 112.745 166.459 111.449C165.656 110.626 164.68 109.995 163.601 109.6C162.522 109.205 161.368 109.058 160.224 109.168C157.244 109.485 154.829 111.922 152.774 113.913C149.928 116.661 146.797 119.781 142.838 119.835C139.331 119.878 136.136 117.237 134.904 113.956C133.672 110.669 134.178 106.919 135.614 103.724C137.206 100.185 139.837 97.5218 142.322 94.6223C144.985 91.5185 147.19 87.9842 148.874 84.2618C149.998 81.7873 150.827 78.6942 149.197 76.5263C148.137 75.1115 146.292 74.5145 144.538 74.31C142.779 74.1056 140.982 74.2024 139.261 73.7883C135.877 72.9814 133.091 70.0819 132.419 66.666C131.751 63.2555 133.385 58.2958 136.209 56.2678C136.209 56.2678 137.663 57.3706 140.138 57.193C161.935 63.858 177.788 84.138 177.788 108.124Z" fill="#41B2B1"/>
<path d="M177.788 108.124C177.79 111.224 177.52 114.319 176.981 117.371V117.377C175.243 117.915 174.049 118.281 174.049 118.281C172.274 118.55 170.606 117.307 169.525 115.871C168.444 114.44 167.701 112.745 166.459 111.449C165.656 110.626 164.68 109.995 163.601 109.6C162.522 109.205 161.368 109.058 160.224 109.168C157.244 109.485 154.829 111.922 152.774 113.913C149.928 116.661 146.797 119.781 142.838 119.835C139.331 119.878 136.136 117.237 134.904 113.956C133.672 110.669 134.178 106.919 135.614 103.724C137.206 100.185 139.837 97.5218 142.322 94.6223C144.985 91.5185 147.19 87.9842 148.874 84.2618C149.998 81.7873 150.827 78.6942 149.197 76.5263C148.137 75.1115 146.292 74.5145 144.538 74.31C142.779 74.1056 140.982 74.2024 139.261 73.7883C135.877 72.9814 133.091 70.0819 132.419 66.666C131.751 63.2555 133.385 58.2958 136.209 56.2678C136.209 56.2678 137.663 57.3706 140.138 57.193C161.935 63.858 177.788 84.138 177.788 108.124Z" fill="#39B8B7"/>
<g opacity="0.3">
<path d="M132.417 66.6661C131.857 63.8151 132.912 59.8828 134.923 57.4836C134.149 59.4901 133.858 61.7279 134.213 63.53C134.886 66.9458 137.672 69.8453 141.056 70.6522C142.777 71.0664 144.574 70.9696 146.333 71.174C148.087 71.3784 149.932 71.9755 150.991 73.3902C152.621 75.5581 151.793 78.6512 150.669 81.1257C149.837 82.9701 148.879 84.7549 147.801 86.4674C148.178 85.7412 148.538 85.0042 148.872 84.2618C149.996 81.7874 150.825 78.6943 149.195 76.5264C148.135 75.1116 146.29 74.5145 144.536 74.3101C142.777 74.1057 140.981 74.2025 139.259 73.7883C135.876 72.9814 133.089 70.082 132.417 66.6661Z" fill="#102770"/>
</g>
<g opacity="0.3">
<path d="M177.382 114.671C177.275 115.58 177.135 116.479 176.979 117.372V117.377C175.241 117.915 174.047 118.281 174.047 118.281C172.272 118.55 170.604 117.307 169.523 115.871C168.442 114.44 167.7 112.745 166.457 111.449C165.654 110.627 164.678 109.995 163.599 109.6C162.52 109.205 161.366 109.058 160.222 109.168C157.242 109.486 154.827 111.922 152.772 113.913C149.926 116.662 146.796 119.782 142.836 119.835C139.329 119.878 136.134 117.237 134.902 113.956C133.67 110.669 134.176 106.92 135.612 103.724C136.117 102.614 136.724 101.554 137.425 100.556L137.409 100.588C135.972 103.783 135.467 107.533 136.699 110.82C137.93 114.101 141.126 116.742 144.633 116.699C148.592 116.645 151.723 113.525 154.569 110.777C156.624 108.786 159.039 106.349 162.019 106.032C163.163 105.922 164.316 106.069 165.395 106.464C166.474 106.859 167.451 107.491 168.254 108.313C169.496 109.609 170.239 111.304 171.32 112.735C172.401 114.171 174.069 115.414 175.844 115.145C175.844 115.145 176.43 114.967 177.382 114.671Z" fill="#102770"/>
</g>
<g opacity="0.3">
<path d="M147.801 86.4675C146.292 89.3863 144.453 92.1225 142.32 94.6225C140.631 96.5914 138.877 98.4526 137.425 100.556C139.017 97.0325 141.637 94.3751 144.117 91.4864C145.47 89.9088 146.702 88.231 147.801 86.4675Z" fill="#282E6A"/>
</g>
<path d="M104.338 69.6246C101.869 72.5134 98.163 74.1056 94.4136 74.735C90.6696 75.359 86.8395 75.1062 83.0525 74.848L83.0471 74.7458C88.8717 67.4977 96.4921 61.9005 105.151 58.511L106.103 59.0113C107.776 62.4218 106.808 66.7359 104.338 69.6246Z" fill="#39B8B7"/>
<g opacity="0.3">
<path d="M113.258 87.943C111.347 86.761 107.82 87.4457 106.016 88.7858C104.819 89.6756 103.782 90.8544 103.338 92.2787C102.895 93.703 103.133 95.3898 104.172 96.4597C106.119 98.4631 109.971 97.7262 111.588 100.004C112.149 100.794 112.308 101.804 112.808 102.634C113.752 104.2 115.933 104.771 117.563 104.005C119.47 103.11 119.79 100.804 119.592 98.9179C119.358 96.7676 118.686 94.6879 117.618 92.8071C116.675 91.1388 115.084 88.7273 113.258 87.943Z" fill="#102770"/>
</g>
<g opacity="0.57">
<path d="M104.337 69.6246C101.867 72.5134 98.1611 74.1056 94.4118 74.735C90.6678 75.359 86.8377 75.1062 83.0506 74.848L83.0453 74.7458C83.0829 74.6974 83.1206 74.6543 83.1582 74.6059C86.1115 74.7726 89.0809 74.8157 91.9911 74.3315C95.7405 73.7022 99.4468 72.1099 101.916 69.2212C104.283 66.4509 105.273 62.3733 103.874 59.0328C104.294 58.8499 104.719 58.6777 105.149 58.511L106.101 59.0113C107.774 62.4218 106.806 66.7359 104.337 69.6246Z" fill="white"/>
</g>
<path d="M114.603 85.5709C112.692 84.389 109.164 85.0736 107.361 86.4137C106.164 87.3035 105.127 88.4824 104.683 89.9067C104.239 91.331 104.477 93.0177 105.517 94.0876C107.464 96.0911 111.315 95.3541 112.933 97.6321C113.493 98.4218 113.653 99.4321 114.153 100.262C115.097 101.828 117.278 102.399 118.908 101.633C120.815 100.738 121.135 98.4322 120.937 96.5458C120.703 94.3955 120.031 92.3158 118.963 90.435C118.02 88.7667 116.429 86.3553 114.603 85.5709Z" fill="#39B8B7"/>
<g opacity="0.57">
<path d="M119.856 101.489C120.014 100.697 120.047 99.8856 119.953 99.084C119.719 96.9337 119.047 94.8541 117.979 92.9731C117.032 91.3055 115.445 88.8902 113.616 88.1102C111.707 86.9268 108.178 87.6099 106.376 88.9494C105.712 89.4361 105.121 90.0158 104.622 90.6708C104.638 90.5954 104.66 90.5201 104.681 90.4448C105.128 89.0193 106.166 87.8412 107.36 86.9536C109.162 85.6088 112.691 84.9257 114.601 86.1091C116.43 86.8945 118.022 89.3044 118.963 90.972C120.031 92.853 120.703 94.9326 120.938 97.0829C121.099 98.5999 120.921 100.386 119.856 101.489Z" fill="white"/>
</g>
<g opacity="0.3">
<path d="M120.728 99.4176C120.437 100.359 119.878 101.177 118.909 101.634C117.28 102.398 115.096 101.828 114.154 100.262C113.654 99.4338 113.493 98.4225 112.933 97.6317C111.314 95.3562 107.462 96.0932 105.515 94.0867C104.477 93.0163 104.24 91.3325 104.681 89.907C104.988 88.928 105.574 88.0619 106.306 87.3357C106.215 87.5293 106.138 87.7288 106.074 87.9328C105.633 89.3583 105.87 91.0474 106.908 92.1125C108.856 94.119 112.707 93.382 114.326 95.6575C114.886 96.4483 115.047 97.4596 115.547 98.288C116.489 99.8534 118.667 100.429 120.303 99.6597C120.451 99.5919 120.594 99.5109 120.728 99.4176Z" fill="#102770"/>
</g>
<path d="M117.35 103.106C115.687 103.106 114.047 102.279 113.183 100.846C112.93 100.4 112.718 99.9318 112.55 99.4471C112.385 99.0096 112.229 98.5963 112.01 98.2869C111.402 97.4311 110.221 97.1389 108.854 96.8006C107.447 96.4526 105.853 96.058 104.705 94.8768C103.437 93.5721 103.005 91.4889 103.602 89.5698C104.073 88.06 105.139 86.6541 106.686 85.5049C108.805 83.9307 112.767 83.1698 115.125 84.5643C116.745 85.2928 118.367 87.0799 119.948 89.878C121.091 91.8948 121.81 94.1234 122.063 96.4276C122.38 99.4404 121.405 101.711 119.389 102.658C118.751 102.955 118.054 103.108 117.35 103.106ZM112.101 86.0967C110.671 86.0967 109.014 86.5963 108.036 87.3221C107.228 87.9233 106.177 88.9178 105.764 90.2432C105.415 91.3639 105.642 92.5916 106.329 93.2987C107.026 94.0155 108.178 94.3006 109.398 94.6026C110.975 94.9928 112.762 95.435 113.856 96.9764C114.245 97.5241 114.47 98.1209 114.669 98.6479C114.79 99.0035 114.942 99.3479 115.123 99.6772C115.744 100.708 117.287 101.143 118.427 100.608C119.974 99.8819 119.91 97.6084 119.811 96.6647C119.591 94.6688 118.967 92.7387 117.977 90.992C116.659 88.6592 115.302 87.1033 114.156 86.6112C114.104 86.5889 114.055 86.5631 114.007 86.5338C113.516 86.2299 112.838 86.0967 112.101 86.0967Z" fill="#102770"/>
<g opacity="0.25">
<path d="M132.354 129.463C130.215 132.273 123.329 131.638 117.572 127.257C111.815 122.876 109.368 116.408 111.507 113.598C113.646 110.787 118.063 114.667 123.82 119.048C129.576 123.429 134.493 126.652 132.354 129.463Z" fill="white"/>
</g>
<g opacity="0.3">
<path d="M172.307 131.681C167.913 140.599 161.109 148.107 152.667 153.356C144.224 158.604 134.48 161.383 124.539 161.377C108.931 161.377 94.8908 154.661 85.1548 143.969V143.961C76.5348 134.497 71.2788 121.933 71.2788 108.125C71.261 97.3073 74.5552 86.7433 80.7188 77.8531C81.4548 76.7891 82.2348 75.7531 83.0468 74.7491C83.5148 74.1691 83.9908 73.5971 84.4828 73.0371C80.8741 80.356 79.0029 88.4089 79.0148 96.5691C79.0148 110.377 84.2668 122.945 92.8908 132.409V132.413C102.627 143.105 116.663 149.821 132.271 149.821C139.852 149.828 147.347 148.213 154.252 145.084C161.157 141.955 167.313 137.385 172.307 131.681Z" fill="#102770"/>
</g>
<g opacity="0.25">
<path d="M146.887 134.454C146.353 136.275 143.57 137.063 140.67 136.213C137.771 135.362 135.854 133.196 136.388 131.375C136.922 129.553 139.505 129.45 142.404 130.301C145.303 131.151 147.422 132.632 146.887 134.454Z" fill="white"/>
</g>
<g opacity="0.57">
<path d="M124.536 54.8692C128.28 54.8668 132.015 55.2599 135.677 56.0419L132.487 63.0404C124.133 60.7227 115.339 60.4831 106.872 62.3423C98.4045 64.2016 90.5201 68.1033 83.906 73.7076C88.8975 67.7977 95.1199 63.0498 102.138 59.7958C109.156 56.5418 116.8 54.8604 124.536 54.8692Z" fill="white"/>
</g>
<g opacity="0.57">
<path d="M176.941 117.592C174.72 130.018 168.184 140.933 158.947 148.749C165.039 141.572 169.106 132.9 170.728 123.628V123.622C171.08 121.627 171.317 119.614 171.438 117.592H176.941Z" fill="white"/>
</g>
<path d="M147.723 156.076C140.495 159.574 132.568 161.386 124.538 161.374C108.932 161.374 94.8925 154.661 85.1559 143.967V143.962L85.2151 142.552C88.4319 141.702 90.3147 138.437 91.7402 135.43C93.1657 132.418 94.7634 129.093 97.8403 127.824C101.036 126.506 104.785 127.958 107.356 130.266C109.922 132.573 111.671 135.64 113.806 138.356C117.34 142.848 121.579 144.209 127.061 144.941C131.348 145.511 135.77 145.678 139.794 147.27C143.645 148.787 147.169 152.014 147.723 156.076Z" fill="#39B8B7"/>
<g opacity="0.3">
<path d="M147.723 156.077C140.495 159.574 132.568 161.384 124.539 161.373C108.931 161.373 94.8908 154.661 85.1548 143.965V143.961L85.2148 142.553C88.3868 141.713 90.2668 138.521 91.6788 135.549C101.343 145.477 114.863 151.641 129.819 151.641C134.596 151.646 139.352 151.007 143.959 149.741C145.923 151.405 147.383 153.585 147.723 156.077Z" fill="#102770"/>
</g>
<g opacity="0.57">
<path d="M147.721 156.076C146.994 156.425 146.263 156.764 145.521 157.076C144.337 153.865 141.309 151.347 138.043 150.062C134.02 148.469 129.598 148.303 125.31 147.732C119.829 147.001 115.59 145.64 112.056 141.148C109.92 138.432 108.172 135.365 105.606 133.058C103.035 130.75 99.2854 129.298 96.09 130.615C94.7614 131.164 93.707 132.095 92.8248 133.224C94.0244 130.933 95.5037 128.786 97.8383 127.824C101.034 126.506 104.783 127.958 107.354 130.266C109.92 132.573 111.669 135.64 113.804 138.356C117.338 142.848 121.577 144.209 127.059 144.941C131.346 145.511 135.768 145.678 139.792 147.27C143.643 148.787 147.167 152.014 147.721 156.076Z" fill="white"/>
</g>
<g opacity="0.57">
<path d="M92.8249 133.224C92.4376 133.956 92.0826 134.704 91.7383 135.43C91.0659 136.85 90.2967 138.319 89.323 139.567C89.5597 139.12 89.7802 138.668 89.99 138.222C90.7969 136.511 91.663 134.704 92.8249 133.224Z" fill="white"/>
</g>
<path d="M124.538 162.507C116.967 162.499 109.481 160.914 102.556 157.854C95.6314 154.793 89.4204 150.323 84.3188 144.729C84.1289 144.521 84.0236 144.249 84.0237 143.967C84.0237 143.951 84.0241 143.93 84.0247 143.914L84.0838 142.505C84.094 142.263 84.1813 142.031 84.3328 141.843C84.4843 141.654 84.6921 141.519 84.9258 141.458C87.6499 140.738 89.3819 137.762 90.717 134.945C92.1334 131.952 93.8965 128.226 97.4084 126.777C101.331 125.158 105.626 127.191 108.113 129.423C109.954 131.079 111.382 133.087 112.764 135.03C113.387 135.906 114.032 136.812 114.696 137.657C117.984 141.835 121.922 143.112 127.211 143.818C128.148 143.943 129.115 144.051 130.051 144.155C133.436 144.532 136.937 144.922 140.21 146.217C143.944 147.688 148.174 151.01 148.844 155.923C148.877 156.159 148.833 156.4 148.721 156.611C148.608 156.821 148.431 156.991 148.216 157.095C140.801 160.686 132.834 162.507 124.538 162.507ZM86.3065 143.546C91.1901 148.806 97.1053 153.004 103.683 155.876C110.261 158.749 117.36 160.235 124.538 160.242C132.197 160.242 139.562 158.624 146.443 155.429C145.683 152.479 142.998 149.749 139.379 148.323C136.386 147.139 133.187 146.783 129.8 146.405C128.853 146.3 127.874 146.191 126.912 146.063C121.223 145.303 116.666 143.821 112.916 139.056C112.218 138.168 111.558 137.24 110.919 136.342C109.548 134.415 108.254 132.596 106.599 131.108C104.602 129.315 101.223 127.654 98.2719 128.87C95.569 129.985 94.0786 133.135 92.7635 135.914C91.3252 138.948 89.4418 142.154 86.3133 143.382L86.3065 143.546Z" fill="#102770"/>
<path d="M124.538 162.733C116.935 162.725 109.418 161.134 102.464 158.061C95.511 154.987 89.2741 150.499 84.1512 144.881C84.1288 144.857 84.1071 144.831 84.0864 144.805C74.9611 134.769 69.9107 121.689 69.9241 108.124C69.9241 95.6943 74.2091 83.5377 81.9897 73.8928C88.836 65.3902 98.071 59.132 108.505 55.9242C118.94 52.7165 130.095 52.7061 140.536 55.8943C151.479 59.24 161.312 66.149 168.223 75.3471C175.369 84.8588 179.146 96.1928 179.146 108.124C179.148 111.29 178.873 114.449 178.326 117.567C178.324 117.582 178.322 117.596 178.319 117.611C175.314 134.815 164.097 149.651 148.315 157.298C140.868 160.904 132.869 162.733 124.538 162.733ZM86.2243 143.122C91.0911 148.44 97.0102 152.687 103.606 155.595C110.201 158.503 117.329 160.009 124.538 160.016C132.455 160.016 140.056 158.279 147.131 154.853C162.115 147.592 172.769 133.512 175.635 117.183C175.638 117.167 175.64 117.151 175.643 117.134C176.168 114.16 176.431 111.145 176.429 108.124C176.429 85.1479 161.685 65.2022 139.741 58.4924C129.82 55.4499 119.215 55.4536 109.297 58.5029C99.379 61.5522 90.6037 67.507 84.1061 75.5971C76.6052 84.8947 72.6413 96.142 72.6413 108.124C72.6283 121.045 77.4508 133.502 86.16 143.046C86.1825 143.071 86.2039 143.096 86.2243 143.122Z" fill="#102770"/>
<path d="M142.756 120.968C138.965 120.968 135.311 118.261 133.844 114.354C132.616 111.077 132.885 107.034 134.581 103.26C135.983 100.144 138.15 97.6728 140.246 95.2829C140.652 94.8204 141.059 94.356 141.462 93.8857C144.057 90.8419 146.205 87.4443 147.842 83.795C149.193 80.8224 149.344 78.606 148.292 77.2067C147.397 76.0118 145.685 75.5837 144.407 75.4345C143.791 75.363 143.171 75.3306 142.514 75.2962C141.367 75.236 140.181 75.1743 138.996 74.8892C135.161 73.9743 132.07 70.7575 131.308 66.8849C130.608 63.306 132.168 57.64 135.525 55.2286C135.683 55.1154 135.866 55.0446 136.059 55.0232C136.27 54.9989 138.162 54.8333 140.581 56.145C151.434 59.49 161.183 66.354 168.042 75.4829C175.158 84.9552 178.92 96.2423 178.92 108.124C178.921 111.286 178.646 114.441 178.098 117.555C178.064 117.763 177.973 117.958 177.835 118.118C177.697 118.277 177.517 118.395 177.316 118.458C175.576 118.997 174.381 119.363 174.381 119.363C174.328 119.379 174.274 119.392 174.219 119.4C172.278 119.692 170.185 118.63 168.621 116.552C168.154 115.935 167.754 115.283 167.366 114.653C166.818 113.762 166.301 112.92 165.641 112.232C164.958 111.535 164.127 111 163.21 110.665C162.293 110.33 161.313 110.203 160.341 110.294C157.857 110.559 155.691 112.66 153.78 114.514L153.354 114.926C150.454 117.73 147.166 120.909 142.854 120.967C142.821 120.968 142.789 120.968 142.756 120.968ZM136.582 57.2724C134.404 59.0829 132.936 63.4153 133.53 66.4489C134.114 69.4189 136.579 71.9849 139.524 72.6872C140.508 72.9239 141.54 72.9778 142.632 73.0349C143.295 73.0696 143.981 73.1056 144.669 73.1853C147.135 73.4732 149.014 74.3939 150.103 75.8478C151.69 77.9579 151.623 80.947 149.905 84.7302C148.179 88.5744 145.915 92.1534 143.181 95.3595C142.773 95.836 142.36 96.3067 141.948 96.7763C139.871 99.1446 137.909 101.382 136.647 104.189C135.193 107.422 134.944 110.837 135.964 113.558C137.087 116.55 139.936 118.704 142.757 118.704C142.78 118.704 142.802 118.704 142.824 118.703C146.238 118.657 149.056 115.933 151.781 113.298L152.204 112.888C154.27 110.884 156.841 108.39 160.105 108.042C161.42 107.91 162.749 108.077 163.991 108.531C165.233 108.985 166.356 109.714 167.275 110.665C168.103 111.528 168.709 112.514 169.295 113.467C169.671 114.079 170.026 114.656 170.428 115.188C170.819 115.707 172.198 117.352 173.805 117.171C174.062 117.092 174.864 116.846 175.981 116.501C176.431 113.731 176.657 110.93 176.655 108.124C176.655 85.0478 161.847 65.015 139.807 58.2759C139.73 58.2525 139.657 58.2211 139.587 58.1821C138.225 57.4239 137.088 57.29 136.582 57.2724ZM89.1788 76.2579C87.088 76.2579 85.0134 76.1165 82.9757 75.9778C82.6998 75.959 82.4404 75.8398 82.2463 75.6429C82.0523 75.4459 81.937 75.1848 81.9222 74.9087L81.9167 74.8064C81.9017 74.5279 81.99 74.2537 82.1647 74.0364C88.1145 66.6356 95.8968 60.9198 104.739 57.4567C104.89 57.3976 105.052 57.3717 105.214 57.3806C105.376 57.3896 105.534 57.4333 105.678 57.5087L106.63 58.0091C106.842 58.1209 107.014 58.2974 107.119 58.513C108.909 62.1618 108.137 66.9228 105.199 70.3603C102.137 73.9423 97.746 75.3235 94.6012 75.8513C92.7913 76.1532 90.9788 76.2579 89.1788 76.2579ZM85.2667 73.8583C88.2514 74.0353 91.2843 74.1083 94.2276 73.6181C97.0009 73.1528 100.858 71.954 103.478 68.8892C105.713 66.2747 106.41 62.606 105.234 59.8341L105.085 59.7552C97.4599 62.8293 90.6694 67.6617 85.2667 73.8583Z" fill="#102770"/>
<g opacity="0.3">
<path d="M80.9263 77.5598C80.8584 77.6549 80.7905 77.7545 80.7226 77.8542H80.718C80.786 77.7545 80.8539 77.6549 80.9263 77.5598Z" fill="#282E6A"/>
</g>
<path d="M69.1315 147.732L63.6648 142.911L59.0528 148.14L64.5195 152.961L69.1315 147.732Z" fill="#DBE3ED"/>
<path d="M64.5189 154.361C64.178 154.361 63.8488 154.237 63.5935 154.011L58.1267 149.19C57.8482 148.944 57.6787 148.598 57.6555 148.227C57.6322 147.857 57.7571 147.492 58.0027 147.213L62.6148 141.985C62.8605 141.706 63.2066 141.537 63.5772 141.513C63.9477 141.49 64.3123 141.615 64.5908 141.861L70.0574 146.682C70.3359 146.928 70.5054 147.274 70.5287 147.645C70.5519 148.015 70.427 148.38 70.1814 148.658L65.5695 153.887C65.4382 154.036 65.2765 154.156 65.0954 154.238C64.9142 154.319 64.7177 154.361 64.5189 154.361ZM61.0287 148.016L64.3957 150.985L67.1555 147.856L63.7887 144.887L61.0287 148.016Z" fill="#102770"/>
<path d="M94.3838 144.58C101.871 136.091 101.059 123.137 92.5701 115.65C84.0807 108.158 71.1264 108.974 63.6394 117.463C56.1524 125.952 56.9639 138.907 65.4531 146.394C73.9423 153.881 86.8968 153.069 94.3838 144.58ZM70.0408 141.193C64.4213 136.236 63.8837 127.666 68.8406 122.051C70.0184 120.715 71.4479 119.624 73.0474 118.84C74.647 118.057 76.3852 117.596 78.1628 117.485C79.9405 117.373 81.7226 117.613 83.4075 118.191C85.0924 118.768 86.647 119.672 87.9824 120.851C93.5974 125.803 94.135 134.373 89.1826 139.993C84.2258 145.608 75.6557 146.145 70.0408 141.193Z" fill="#F7C414"/>
<g opacity="0.57">
<path d="M92.5696 115.649C84.0828 108.159 71.1252 108.974 63.6394 117.464C63.3486 117.796 63.07 118.132 62.7997 118.475C70.3846 110.849 82.6991 110.365 90.8703 117.576C99.033 124.775 100.099 137.025 93.5172 145.503C93.8135 145.207 94.1012 144.899 94.3845 144.579C101.87 136.093 101.06 123.135 92.5696 115.649ZM70.0391 141.192C67.5077 138.958 65.9002 135.861 65.5308 132.505C65.1614 129.15 66.0566 125.777 68.0414 123.046C67.729 123.339 67.4293 123.647 67.1423 123.975C65.9637 125.311 65.0596 126.865 64.4819 128.55C63.9041 130.235 63.6639 132.018 63.775 133.795C63.8862 135.573 64.3464 137.312 65.1296 138.911C65.9127 140.511 67.0033 141.941 68.3391 143.119C69.6749 144.298 71.2298 145.201 72.9149 145.779C74.6 146.356 76.3823 146.596 78.16 146.484C79.9377 146.372 81.6761 145.911 83.2757 145.128C84.8753 144.344 86.3049 143.253 87.4828 141.917C87.7659 141.593 88.0327 141.262 88.283 140.92C83.2388 145.652 75.3286 145.857 70.0391 141.192Z" fill="white"/>
</g>
<g opacity="0.4">
<path d="M79.0111 144.583C86.5011 144.583 92.5729 138.511 92.5729 131.021C92.5729 123.531 86.5011 117.459 79.0111 117.459C71.5211 117.459 65.4492 123.531 65.4492 131.021C65.4492 138.511 71.5211 144.583 79.0111 144.583Z" fill="#22A7F0"/>
</g>
<g opacity="0.3">
<path d="M87.9808 120.852C82.3631 115.895 73.7938 116.431 68.8416 122.049C68.5585 122.373 68.2917 122.704 68.0414 123.046C73.0816 118.314 80.9916 118.105 86.2815 122.778C88.8125 125.011 90.4201 128.107 90.7902 131.462C91.1603 134.817 90.2664 138.189 88.283 140.92C88.5954 140.627 88.8951 140.319 89.1821 139.991C94.1343 134.373 93.5983 125.804 87.9808 120.852Z" fill="#26316B"/>
</g>
<path d="M78.9983 152.908C73.6688 152.917 68.5207 150.973 64.5269 147.444C55.4714 139.457 54.6019 125.592 62.5884 116.536C65.0081 113.789 68.0778 111.693 71.5168 110.439C74.9558 109.184 78.6544 108.812 82.2743 109.356C85.8943 109.9 89.3201 111.343 92.2385 113.553C95.1569 115.763 97.4748 118.669 98.9802 122.005C100.486 125.342 101.131 129.003 100.856 132.653C100.581 136.304 99.3961 139.827 97.4085 142.901C95.4208 145.975 92.6943 148.501 89.4782 150.25C86.262 151.998 82.6589 152.912 78.9983 152.908ZM79.0376 111.923C78.6317 111.923 78.2244 111.935 77.8157 111.961C75.3113 112.111 72.8615 112.756 70.6082 113.86C68.3549 114.963 66.3428 116.502 64.6884 118.389C57.7229 126.286 58.4813 138.378 66.3788 145.344C74.2765 152.308 86.3686 151.551 93.3339 143.653C95.7633 140.898 97.3468 137.501 97.8945 133.869C98.4423 130.237 97.9312 126.524 96.4223 123.176C94.9135 119.827 92.471 116.984 89.3876 114.988C86.3042 112.992 82.7106 111.928 79.0376 111.923Z" fill="#102770"/>
<path d="M78.9905 145.783C75.4 145.788 71.9326 144.475 69.2467 142.092C63.142 136.708 62.5559 127.361 67.9401 121.256C69.5458 119.436 71.5758 118.039 73.8502 117.191C76.1246 116.342 78.5731 116.067 80.979 116.391C83.3849 116.715 85.6738 117.627 87.6431 119.046C89.6123 120.466 91.201 122.349 92.2686 124.529C93.3361 126.71 93.8495 129.12 93.7632 131.546C93.6769 133.972 92.9937 136.339 91.774 138.438C90.5543 140.537 88.8358 142.302 86.7708 143.578C84.7057 144.855 82.3578 145.602 79.935 145.754C79.6192 145.774 79.3043 145.784 78.9905 145.783ZM79.028 118.658C78.7653 118.658 78.5017 118.667 78.2373 118.683C76.6162 118.78 75.0304 119.198 73.5719 119.912C72.1133 120.626 70.8109 121.623 69.7401 122.844C65.2313 127.956 65.7221 135.783 70.8342 140.292C72.0517 141.366 73.4688 142.189 75.0045 142.715C76.5403 143.242 78.1646 143.46 79.7848 143.358C81.405 143.257 82.9893 142.837 84.4473 142.123C85.9052 141.409 87.2083 140.415 88.2821 139.197C89.8546 137.414 90.8796 135.215 91.2342 132.864C91.5888 130.513 91.2579 128.11 90.2812 125.942C89.3045 123.775 87.7235 121.935 85.7276 120.643C83.7316 119.351 81.4055 118.662 79.028 118.658Z" fill="#102770"/>
<path d="M66.0477 154.309L54.7386 167.134L54.7346 167.134L49.4072 173.175C49.1486 173.468 48.8349 173.708 48.4838 173.879C48.1327 174.051 47.7513 174.152 47.3612 174.176C46.9711 174.201 46.5801 174.148 46.2103 174.021C45.8406 173.895 45.4995 173.696 45.2064 173.438L41.1499 169.859C40.8569 169.601 40.6176 169.287 40.4458 168.936C40.274 168.585 40.173 168.203 40.1486 167.813C40.1242 167.423 40.1769 167.032 40.3037 166.662C40.4304 166.293 40.6287 165.952 40.8873 165.659L46.3831 159.427C46.3829 159.423 46.3869 159.422 46.3868 159.418L57.5238 146.792L66.0477 154.309Z" fill="#22A7F0"/>
<g opacity="0.57">
<path d="M66.0477 154.309L49.4072 173.175C49.1433 173.477 48.8191 173.721 48.4554 173.89L63.9745 156.294L55.6332 148.935L57.5238 146.792L66.0477 154.309Z" fill="white"/>
</g>
<path d="M47.1706 175.582C46.106 175.583 45.078 175.194 44.2817 174.487H44.2815L40.2241 170.909C39.3547 170.14 38.8256 169.058 38.753 167.9C38.6803 166.742 39.07 165.602 39.8366 164.731L56.4749 145.866C56.7205 145.588 57.0667 145.418 57.4372 145.395C57.8078 145.372 58.1724 145.497 58.4508 145.742L66.9735 153.259C67.252 153.505 67.4215 153.851 67.4447 154.221C67.468 154.592 67.3431 154.957 67.0975 155.235L50.4592 174.1C50.08 174.532 49.6189 174.885 49.1025 175.138C48.5861 175.391 48.0246 175.539 47.4506 175.573C47.3571 175.579 47.2635 175.582 47.1706 175.582ZM46.1337 172.387C46.4473 172.664 46.858 172.805 47.2753 172.778C47.6927 172.752 48.0825 172.561 48.3592 172.248L64.0715 154.433L57.6487 148.768L41.9366 166.583C41.6604 166.897 41.5201 167.307 41.5462 167.725C41.5723 168.142 41.7629 168.532 42.076 168.809L46.1339 172.387H46.1337Z" fill="#102770"/>
<g opacity="0.4">
<path d="M77.428 122.345C78.953 120.734 82.2896 121.418 84.8805 123.872C87.4715 126.326 88.3356 129.621 86.8107 131.231C85.2857 132.841 83.4496 130.573 80.8587 128.119C78.2677 125.665 75.903 123.955 77.428 122.345Z" fill="white"/>
</g>
<g opacity="0.3">
<path d="M54.7346 167.134L49.4072 173.175C49.1486 173.468 48.8349 173.708 48.4838 173.879C48.1328 174.051 47.7513 174.152 47.3612 174.177C46.9711 174.201 46.5801 174.148 46.2103 174.021C45.8406 173.895 45.4995 173.696 45.2064 173.438L41.1499 169.859C40.8569 169.601 40.6176 169.287 40.4458 168.936C40.274 168.585 40.173 168.203 40.1486 167.813C40.1242 167.423 40.1769 167.032 40.3037 166.662C40.4304 166.293 40.6287 165.952 40.8873 165.659L46.3831 159.427C43.2926 166.626 48.2961 169.966 54.7346 167.134Z" fill="#102770"/>
</g>
<path d="M181.345 144.874L173.206 158.329L166.429 154.231L174.569 140.773L176.124 145.639L181.345 144.874Z" fill="#22A7F0"/>
<g opacity="0.57">
<path d="M174.274 146.861L173.106 143.207L166.534 154.073L166.458 154.026L174.597 140.569L176.154 145.435L181.375 144.668L179.771 147.322L175.916 147.886C175.565 147.938 175.208 147.863 174.907 147.675C174.606 147.487 174.382 147.199 174.274 146.861Z" fill="white"/>
</g>
<path d="M170.679 154.046L163.18 156.595L158.124 141.701L163.173 143.708L165.623 139.156L170.679 154.046Z" fill="#22A7F0"/>
<g opacity="0.57">
<path d="M170.749 154.251L166.477 141.672L164.709 144.956C164.521 145.306 164.211 145.574 163.838 145.71C163.465 145.845 163.055 145.839 162.686 145.693L159.076 144.257L158.269 141.88L163.317 143.885L165.767 139.333L170.825 154.224L170.749 154.251Z" fill="white"/>
</g>
<path d="M173.204 159.389C173.011 159.389 172.822 159.336 172.657 159.236L165.88 155.139C165.761 155.066 165.657 154.972 165.575 154.859C165.492 154.747 165.433 154.62 165.399 154.485C165.366 154.35 165.36 154.209 165.381 154.071C165.402 153.934 165.45 153.801 165.522 153.682L173.662 140.224C173.767 140.05 173.92 139.91 174.103 139.821C174.286 139.731 174.491 139.696 174.693 139.72C174.895 139.744 175.086 139.826 175.244 139.955C175.401 140.085 175.517 140.257 175.579 140.451L176.86 144.459L181.191 143.825C181.39 143.796 181.593 143.824 181.777 143.906C181.96 143.988 182.117 144.12 182.228 144.288C182.339 144.455 182.401 144.651 182.405 144.852C182.409 145.053 182.356 145.251 182.252 145.423L174.113 158.878C174.018 159.034 173.885 159.163 173.726 159.253C173.567 159.343 173.387 159.39 173.204 159.389ZM167.885 153.873L172.847 156.873L179.274 146.249L176.277 146.688C176.028 146.725 175.775 146.672 175.561 146.539C175.348 146.406 175.189 146.201 175.113 145.961L174.269 143.319L167.885 153.873Z" fill="#102770"/>
<path d="M163.18 157.655C162.959 157.655 162.743 157.586 162.563 157.457C162.383 157.328 162.247 157.146 162.176 156.936L157.12 142.042C157.055 141.851 157.046 141.644 157.095 141.448C157.143 141.251 157.247 141.072 157.394 140.933C157.541 140.793 157.724 140.699 157.923 140.66C158.122 140.622 158.328 140.641 158.516 140.716L162.687 142.374L164.69 138.654C164.786 138.471 164.935 138.321 165.117 138.222C165.298 138.123 165.505 138.081 165.711 138.1C165.917 138.117 166.114 138.194 166.276 138.321C166.439 138.448 166.561 138.62 166.627 138.815L171.684 153.705C171.728 153.837 171.747 153.977 171.738 154.115C171.729 154.254 171.692 154.39 171.631 154.515C171.569 154.64 171.484 154.752 171.379 154.843C171.274 154.935 171.153 155.005 171.021 155.05L163.522 157.599C163.412 157.636 163.296 157.655 163.18 157.655ZM159.867 143.535L163.843 155.249L169.334 153.383L165.402 141.804L164.107 144.211C163.983 144.44 163.78 144.615 163.536 144.704C163.292 144.793 163.023 144.789 162.781 144.694L159.867 143.535Z" fill="#102770"/>
<path d="M122.308 147.323C122.308 147.323 123.457 142.461 128.704 136.422C153.737 150.132 180.633 154.231 209.85 146.35L208.071 151.194L157.825 157.692L122.308 147.323Z" fill="white"/>
<g opacity="0.3">
<path d="M205.535 151.523L157.824 157.692L122.31 147.323C122.31 147.323 123.459 142.462 128.704 136.421C152.748 149.59 178.506 153.889 206.39 147.229C206.113 148.574 205.8 150.166 205.535 151.523Z" fill="#102770"/>
</g>
<path d="M157.825 158.752C157.725 158.752 157.625 158.738 157.528 158.71L122.011 148.34C121.75 148.264 121.529 148.091 121.392 147.856C121.255 147.621 121.214 147.343 121.276 147.079C121.326 146.87 122.547 141.892 127.903 135.727C128.062 135.544 128.279 135.421 128.517 135.378C128.755 135.335 129.001 135.376 129.213 135.492C154.792 149.501 181.829 152.81 209.574 145.326C209.762 145.276 209.96 145.278 210.146 145.332C210.333 145.386 210.501 145.491 210.632 145.634C210.764 145.778 210.853 145.954 210.891 146.145C210.928 146.336 210.913 146.533 210.846 146.716L209.067 151.56C209 151.742 208.885 151.902 208.733 152.023C208.582 152.144 208.4 152.221 208.207 152.245L157.961 158.744C157.916 158.749 157.871 158.752 157.825 158.752ZM123.648 146.609L157.909 156.612L207.298 150.225L208.156 147.888C194.399 151.356 180.756 152.245 167.571 150.534C154.521 148.84 141.532 144.544 128.954 137.765C125.69 141.691 124.218 145.036 123.648 146.609Z" fill="#102770"/>
<path d="M132.857 154.883C132.145 161.432 128.84 166.448 125.478 166.082C122.112 165.716 119.963 160.107 120.676 153.558C121.388 147.008 124.692 141.993 128.058 142.359C130.279 142.6 131.973 145.133 132.658 148.714C133.012 150.551 133.098 152.665 132.857 154.883Z" fill="white"/>
<g opacity="0.3">
<path d="M126.636 166.001L126.634 165.999C123.751 164.877 122.011 159.672 122.663 153.679C123.295 147.887 125.955 143.291 128.891 142.564C130.7 143.273 132.063 145.594 132.657 148.715C133.013 150.552 133.099 152.667 132.857 154.884C132.228 160.678 129.567 165.269 126.636 166.001Z" fill="#102770"/>
</g>
<path d="M125.821 167.173C125.668 167.173 125.514 167.165 125.362 167.148C121.348 166.711 118.821 160.691 119.61 153.442C119.973 150.108 120.991 147.03 122.477 144.775C124.104 142.307 126.125 141.071 128.174 141.293C130.831 141.582 132.901 144.281 133.711 148.512C134.094 150.505 134.167 152.748 133.923 154.999C133.164 161.97 129.657 167.173 125.821 167.173ZM127.719 143.412C126.586 143.412 125.341 144.325 124.267 145.955C122.965 147.93 122.068 150.672 121.741 153.674C121.049 160.036 123.216 164.758 125.594 165.017C127.968 165.289 131.099 161.129 131.791 154.767C132.013 152.726 131.949 150.703 131.606 148.916C131.001 145.756 129.563 143.601 127.942 143.425C127.868 143.416 127.794 143.412 127.719 143.412Z" fill="#102770"/>
<path d="M125.478 166.082C125.76 166.075 126.043 166.067 126.322 166.062C126.042 166.106 125.759 166.112 125.478 166.082Z" fill="white"/>
<path d="M125.823 167.112C125.671 167.112 125.52 167.104 125.369 167.088C125.114 167.06 124.879 166.937 124.712 166.743C124.544 166.549 124.457 166.298 124.467 166.042C124.477 165.786 124.585 165.543 124.767 165.363C124.95 165.183 125.194 165.078 125.45 165.071C125.737 165.063 126.023 165.056 126.306 165.051C126.563 165.047 126.811 165.141 127.001 165.313C127.191 165.485 127.308 165.723 127.33 165.979C127.351 166.234 127.275 166.488 127.116 166.689C126.957 166.891 126.728 167.024 126.474 167.063C126.259 167.096 126.041 167.112 125.823 167.112Z" fill="#282E6A"/>
<path d="M127.68 165.571C124.287 162.99 122.938 153.804 126.722 147.803L132.778 149.416C133.864 155.363 132.165 160.748 127.68 165.571Z" fill="white"/>
<path d="M127.704 165.84L127.559 165.73C123.984 163.011 122.831 153.597 126.552 147.696L126.631 147.571L132.952 149.255L132.975 149.379C134.069 155.37 132.337 160.863 127.827 165.707L127.704 165.84ZM126.813 148.034C123.334 153.705 124.346 162.555 127.66 165.299C131.954 160.619 133.618 155.331 132.604 149.576L126.813 148.034Z" fill="#102770"/>
<g opacity="0.3">
<path d="M128.593 164.536C126.181 161 125.564 153.542 128.688 148.324L132.778 149.414C133.785 154.942 132.39 159.982 128.593 164.536Z" fill="#102770"/>
</g>
<path d="M206.225 174.864C200.039 173.113 193.497 171.629 186.736 170.402C174.211 168.135 160.932 166.75 147.738 166.208C142.822 166.004 137.918 165.921 133.069 165.953C130.829 165.965 128.58 166.002 126.321 166.064C129.375 165.597 132.205 160.882 132.857 154.884C133.099 152.667 133.013 150.552 132.657 148.715C132.067 145.63 130.73 143.32 128.947 142.588C135.756 144.359 142.702 145.908 149.683 147.195C162.275 149.524 174.985 151.014 187.236 151.474C194.636 151.754 201.871 151.657 208.808 151.142C212.009 151.489 214.113 156.594 213.691 162.735C213.67 163.041 213.644 163.353 213.609 163.664C212.897 170.216 209.588 175.232 206.225 174.864Z" fill="white"/>
<g opacity="0.3">
<path d="M153.472 150.154C162.944 151.763 172.449 152.888 181.741 153.447C183.266 153.538 184.22 155.169 183.509 156.521C182.634 158.185 182.158 159.797 182.082 161.357C182.068 161.625 182.066 161.891 182.076 162.156C182.106 163.003 182.428 163.814 182.986 164.452C183.545 165.09 184.307 165.516 185.143 165.659C185.936 165.794 186.727 165.934 187.516 166.077C194.276 167.302 200.818 168.787 207.004 170.539C209.692 170.829 212.347 167.683 213.666 163.06C213.649 163.262 213.632 163.461 213.61 163.665C213.522 164.471 213.392 165.272 213.219 166.064C212.059 171.396 209.164 175.186 206.226 174.864C200.04 173.112 193.496 171.63 186.736 170.403C174.211 168.134 160.933 166.749 147.737 166.208C142.823 166.005 137.918 165.921 133.068 165.952C131.812 165.96 130.553 165.975 129.293 165.997C128.305 166.015 127.315 166.037 126.321 166.064C128.065 165.797 129.736 164.146 130.969 161.659C131.93 161.643 132.89 161.631 133.849 161.627C138.698 161.595 143.6 161.677 148.518 161.882C148.59 161.885 148.663 161.888 148.736 161.891C150.481 161.962 152.092 160.864 152.57 159.184C152.573 159.174 152.576 159.164 152.579 159.154C153.197 156.933 153.105 154.5 152.108 151.798C152.032 151.595 152.012 151.376 152.048 151.162C152.084 150.949 152.176 150.749 152.315 150.582C152.453 150.415 152.633 150.288 152.836 150.213C153.039 150.138 153.258 150.118 153.472 150.154Z" fill="#102770"/>
</g>
<path d="M206.571 175.944C206.417 175.944 206.264 175.936 206.112 175.919C206.053 175.913 205.995 175.901 205.938 175.885C185.111 169.999 159.236 166.837 133.076 167.011C130.85 167.026 128.587 167.063 126.35 167.123C126.341 167.123 126.331 167.123 126.322 167.123C126.054 167.123 125.797 167.022 125.601 166.84C125.405 166.658 125.285 166.409 125.264 166.142C125.244 165.876 125.326 165.611 125.492 165.402C125.659 165.193 125.898 165.054 126.162 165.014C128.425 164.67 131.153 160.743 131.803 154.768C132.025 152.726 131.961 150.702 131.617 148.914C131.086 146.139 129.938 144.141 128.545 143.569C128.296 143.466 128.096 143.273 127.984 143.029C127.872 142.785 127.857 142.507 127.942 142.252C128.028 141.997 128.206 141.784 128.443 141.656C128.679 141.528 128.955 141.494 129.215 141.561C157.042 148.797 185.281 151.823 208.729 150.084C208.793 150.08 208.858 150.081 208.922 150.087C212.716 150.5 215.22 155.969 214.748 162.808C214.727 163.126 214.699 163.452 214.663 163.781C213.906 170.746 210.403 175.944 206.571 175.944ZM206.42 173.818C208.794 173.971 211.87 169.85 212.555 163.551L212.555 163.551C212.588 163.254 212.613 162.96 212.631 162.668C213.007 157.231 211.284 152.58 208.779 152.207C186.156 153.87 159.15 151.151 132.339 144.54C132.942 145.639 133.406 146.981 133.7 148.515C134.083 150.506 134.156 152.748 133.911 154.997C133.459 159.154 132.008 162.742 130.074 164.923C131.074 164.908 132.072 164.897 133.062 164.89C159.368 164.737 185.423 167.896 206.42 173.818Z" fill="#102770"/>
<path d="M173.88 168.385L162.307 167.126C163.937 161.381 164.587 155.403 164.231 149.443L175.804 150.701C176.553 157.023 176.055 162.961 173.88 168.385Z" fill="#22A7F0"/>
<g opacity="0.57">
<path d="M163.176 163.591C163 164.781 162.781 165.967 162.519 167.148L162.305 167.126C162.637 165.951 162.927 164.772 163.176 163.591Z" fill="white"/>
</g>
<g opacity="0.57">
<path d="M175.254 164.015C175.68 160.762 175.648 157.371 175.234 153.862L164.323 152.674C164.327 151.6 164.293 150.523 164.23 149.442L175.805 150.701C176.357 155.364 176.232 159.822 175.254 164.015Z" fill="white"/>
</g>
<g opacity="0.57">
<path d="M163.176 163.59C163.716 159.955 163.878 156.272 163.659 152.603L164.323 152.674C164.322 156.343 163.937 160.001 163.176 163.59Z" fill="white"/>
</g>
<g opacity="0.3">
<path d="M173.88 168.384L162.305 167.126C162.748 165.557 163.117 163.979 163.414 162.393L174.493 163.597C175.177 161.887 175.702 160.118 176.061 158.311C175.857 161.829 175.159 165.198 173.88 168.384Z" fill="#282E6A"/>
</g>
<path d="M173.881 169.456C173.842 169.456 173.803 169.454 173.764 169.45L162.192 168.192C162.037 168.175 161.887 168.124 161.754 168.044C161.62 167.963 161.506 167.855 161.419 167.726C161.332 167.596 161.274 167.45 161.249 167.296C161.224 167.142 161.234 166.985 161.276 166.835C162.868 161.204 163.506 155.347 163.161 149.506C163.152 149.35 163.177 149.194 163.234 149.049C163.291 148.904 163.379 148.774 163.492 148.666C163.605 148.559 163.74 148.477 163.887 148.427C164.035 148.377 164.192 148.36 164.347 148.377L175.919 149.636C176.16 149.662 176.385 149.769 176.558 149.94C176.73 150.11 176.839 150.334 176.868 150.575C177.683 157.45 177.031 163.406 174.875 168.783C174.795 168.982 174.658 169.152 174.481 169.272C174.304 169.392 174.095 169.456 173.881 169.456ZM163.669 166.196L173.176 167.23C174.879 162.611 175.423 157.506 174.832 151.674L165.36 150.644C165.548 155.882 164.978 161.12 163.669 166.196Z" fill="#102770"/>
<path d="M127.68 166.643C127.446 166.643 127.218 166.566 127.032 166.424C123.101 163.435 121.805 153.591 125.815 147.231C125.937 147.038 126.117 146.888 126.33 146.805C126.543 146.721 126.776 146.708 126.997 146.767L133.054 148.379C133.329 148.453 133.563 148.632 133.705 148.878C133.848 149.124 133.887 149.416 133.813 149.691C133.74 149.966 133.561 150.2 133.315 150.343C133.069 150.485 132.777 150.524 132.502 150.451L127.234 149.048C124.157 154.717 125.635 162.669 128.329 164.718C128.508 164.854 128.64 165.042 128.705 165.257C128.771 165.471 128.768 165.701 128.696 165.914C128.624 166.126 128.488 166.311 128.305 166.442C128.123 166.573 127.904 166.643 127.68 166.643Z" fill="#282E6A"/>
</svg>
