<svg width="285" height="200" viewBox="0 0 285 200" fill="none" xmlns="http://www.w3.org/2000/svg">
<path d="M231.751 93.4473C233.199 79.1669 248.179 55.4294 225.515 40.8029C203.227 26.4194 189.665 44.2708 167.422 40.3092C156.117 38.2956 149.724 26.1211 140.508 19.2727C115.774 0.895014 78.4399 17.2613 77.7243 46.1498C76.5695 92.7652 52.5734 83.6588 48.0734 119.595C44.6822 146.678 65.0391 165.203 89.238 159.522L119.963 149.062C124.775 150.639 129.943 148.826 134.874 147.673C161.24 141.611 186.527 166.265 212.521 165.203C227.963 164.572 243.758 153.132 246.083 139.197C249.348 119.621 230.008 110.631 231.751 93.4473Z" fill="#E3F5FF"/>
<path d="M51.4712 100.41C51.4307 100.41 51.3907 100.401 51.354 100.384C51.3173 100.367 51.2848 100.342 51.2588 100.311C51.2328 100.28 51.214 100.244 51.2036 100.205C51.1932 100.165 51.1915 100.124 51.1987 100.085C51.4036 98.9464 51.6326 97.8127 51.8858 96.6842C51.9018 96.6126 51.9456 96.5503 52.0076 96.5111C52.0695 96.4718 52.1445 96.4587 52.2161 96.4747C52.2877 96.4908 52.35 96.5346 52.3893 96.5965C52.4285 96.6584 52.4416 96.7335 52.4256 96.805C52.1742 97.9258 51.9466 99.0519 51.7431 100.182C51.7317 100.246 51.6982 100.304 51.6485 100.346C51.5988 100.387 51.536 100.41 51.4712 100.41ZM198.89 91.8642C198.831 91.8641 198.773 91.8448 198.725 91.809C198.677 91.7733 198.642 91.7231 198.625 91.6659C197.993 89.5227 197.271 87.4069 196.462 85.324C196.438 85.2563 196.441 85.182 196.471 85.1169C196.501 85.0517 196.556 85.0007 196.622 84.9747C196.689 84.9487 196.764 84.9497 196.83 84.9775C196.896 85.0053 196.949 85.0576 196.977 85.1236C197.792 87.2209 198.518 89.3513 199.155 91.5092C199.168 91.5504 199.17 91.594 199.162 91.6363C199.155 91.6787 199.138 91.7187 199.112 91.7531C199.086 91.7876 199.053 91.8156 199.014 91.8349C198.976 91.8542 198.933 91.8642 198.89 91.8642ZM53.9012 90.5246C53.8578 90.5247 53.8149 90.5145 53.7761 90.4949C53.7374 90.4753 53.7038 90.4468 53.6781 90.4118C53.6523 90.3767 53.6352 90.3361 53.6282 90.2933C53.6211 90.2504 53.6242 90.2065 53.6372 90.165C54.312 88.0176 55.0763 85.8993 55.9281 83.8157C55.9572 83.7498 56.0109 83.6979 56.0777 83.6709C56.1446 83.644 56.2193 83.6442 56.2859 83.6715C56.3526 83.6988 56.406 83.7511 56.4348 83.8171C56.4635 83.8832 56.4654 83.9579 56.44 84.0253C55.5941 86.0945 54.8351 88.1982 54.165 90.3309C54.1279 90.449 54.0187 90.5246 53.9012 90.5246ZM194.022 79.3411C193.92 79.3411 193.821 79.284 193.773 79.1861C192.791 77.1791 191.725 75.2144 190.578 73.2971C190.54 73.2342 190.529 73.1589 190.547 73.0877C190.565 73.0166 190.61 72.9555 190.673 72.9179C190.736 72.8802 190.811 72.8691 190.883 72.887C190.954 72.9048 191.015 72.9502 191.052 73.0132C192.208 74.9438 193.281 76.9222 194.27 78.9432C194.291 78.9853 194.3 79.032 194.298 79.0788C194.296 79.1257 194.281 79.1711 194.256 79.2109C194.232 79.2507 194.197 79.2835 194.156 79.3063C194.115 79.3291 194.069 79.341 194.022 79.3411ZM58.9904 78.0844C58.9431 78.0843 58.8966 78.0721 58.8553 78.049C58.8141 78.0258 58.7795 77.9925 58.7548 77.9521C58.7301 77.9118 58.7162 77.8657 58.7144 77.8185C58.7125 77.7712 58.7229 77.7243 58.7443 77.6821C59.7693 75.6782 60.8781 73.7183 62.0679 71.8075C62.1066 71.7453 62.1685 71.701 62.24 71.6843C62.3114 71.6677 62.3865 71.6801 62.4488 71.7189C62.5111 71.7577 62.5554 71.8196 62.572 71.891C62.5887 71.9624 62.5762 72.0376 62.5375 72.0998C61.356 73.9975 60.2548 75.9439 59.2368 77.934C59.2135 77.9793 59.1782 78.0173 59.1347 78.0438C59.0913 78.0704 59.0413 78.0844 58.9904 78.0844ZM187.12 67.8142C187.034 67.8142 186.949 67.7742 186.895 67.6994C185.589 65.8867 184.206 64.1305 182.75 62.4355C182.727 62.4079 182.709 62.376 182.697 62.3415C182.686 62.307 182.681 62.2706 182.684 62.2344C182.687 62.1982 182.697 62.1629 182.713 62.1305C182.73 62.0981 182.752 62.0692 182.78 62.0456C182.807 62.0219 182.839 62.0039 182.874 61.9926C182.908 61.9813 182.945 61.9769 182.981 61.9797C183.017 61.9824 183.052 61.9923 183.085 62.0087C183.117 62.0251 183.146 62.0477 183.17 62.0753C184.636 63.7822 186.028 65.5508 187.344 67.3761C187.374 67.4174 187.391 67.4661 187.395 67.5168C187.399 67.5675 187.389 67.6182 187.366 67.6635C187.342 67.7087 187.307 67.7467 187.264 67.7733C187.221 67.7999 187.171 67.814 187.12 67.8142ZM66.0985 66.6771C66.0472 66.6771 65.9969 66.6628 65.9533 66.6358C65.9096 66.6089 65.8743 66.5703 65.8514 66.5244C65.8284 66.4785 65.8187 66.4272 65.8232 66.3761C65.8278 66.3249 65.8465 66.2761 65.8772 66.235C67.2257 64.4327 68.6504 62.6888 70.1475 61.008C70.1964 60.9534 70.2648 60.9204 70.338 60.9161C70.4111 60.9119 70.483 60.9367 70.5379 60.9853C70.6518 61.0871 70.662 61.2617 70.5604 61.3759C69.0739 63.0449 67.6592 64.7766 66.3202 66.5661C66.266 66.6388 66.1827 66.6771 66.0985 66.6771ZM178.363 57.6255C178.293 57.6255 178.223 57.5992 178.17 57.5465C176.573 55.9834 174.909 54.4902 173.183 53.0711C173.129 53.0238 173.095 52.9572 173.089 52.8854C173.083 52.8135 173.105 52.7422 173.151 52.6865C173.197 52.6308 173.262 52.5952 173.334 52.5872C173.406 52.5792 173.478 52.5995 173.535 52.6438C175.273 54.073 176.948 55.5769 178.557 57.1511C178.596 57.1895 178.623 57.2388 178.634 57.2927C178.645 57.3465 178.64 57.4024 178.619 57.4533C178.598 57.5042 178.563 57.5478 178.517 57.5784C178.472 57.6091 178.418 57.6255 178.363 57.6255ZM75.0404 56.645C74.9849 56.6452 74.9307 56.6287 74.8847 56.5977C74.8387 56.5666 74.8032 56.5224 74.7827 56.4709C74.7622 56.4193 74.7577 56.3628 74.7698 56.3087C74.7818 56.2545 74.8099 56.2053 74.8504 56.1673C76.4872 54.6224 78.1902 53.1493 79.9547 51.7521C79.9832 51.7295 80.0159 51.7128 80.0508 51.7028C80.0858 51.6929 80.1224 51.6899 80.1585 51.6941C80.1946 51.6984 80.2295 51.7097 80.2612 51.7274C80.2929 51.7452 80.3208 51.769 80.3433 51.7975C80.3888 51.855 80.4096 51.9282 80.4011 52.0011C80.3926 52.0739 80.3556 52.1404 80.2981 52.1859C78.5461 53.5732 76.8552 55.0359 75.2302 56.5698C75.1766 56.6198 75.1085 56.645 75.0404 56.645ZM167.981 49.0971C167.927 49.0971 167.873 49.0815 167.825 49.0488C165.981 47.7878 164.081 46.6092 162.132 45.5165C162.101 45.4987 162.073 45.4749 162.05 45.4464C162.028 45.4179 162.011 45.3852 162.002 45.3503C161.992 45.3153 161.989 45.2788 161.993 45.2427C161.997 45.2067 162.009 45.1718 162.027 45.1401C162.044 45.1085 162.068 45.0806 162.097 45.0582C162.125 45.0357 162.158 45.0191 162.193 45.0092C162.228 44.9994 162.264 44.9965 162.3 45.0008C162.336 45.0051 162.371 45.0165 162.403 45.0342C164.366 46.1346 166.28 47.3219 168.137 48.5925C168.186 48.6259 168.223 48.674 168.242 48.7298C168.262 48.7856 168.263 48.8461 168.245 48.9025C168.228 48.959 168.193 49.0083 168.145 49.0433C168.098 49.0783 168.04 49.0972 167.981 49.0971ZM85.5783 48.3094C85.5188 48.3094 85.4608 48.2903 85.4131 48.2547C85.3653 48.2192 85.3303 48.1692 85.3132 48.1122C85.2961 48.0552 85.2978 47.9942 85.3182 47.9383C85.3385 47.8823 85.3763 47.8345 85.426 47.8017C87.3071 46.5663 89.2423 45.4153 91.2258 44.3521C91.2901 44.321 91.364 44.316 91.4319 44.3381C91.4998 44.3602 91.5566 44.4077 91.5903 44.4707C91.6241 44.5336 91.6322 44.6072 91.6129 44.676C91.5937 44.7448 91.5486 44.8035 91.487 44.8398C89.5179 45.8951 87.5969 47.0377 85.7297 48.2642C85.6847 48.2937 85.6321 48.3094 85.5783 48.3094ZM156.259 42.5325C156.221 42.5325 156.183 42.525 156.146 42.5086C154.107 41.5969 152.027 40.7782 149.913 40.055C149.878 40.0433 149.847 40.0249 149.819 40.0009C149.792 39.9769 149.77 39.9477 149.754 39.9151C149.738 39.8825 149.728 39.8471 149.726 39.8108C149.724 39.7746 149.729 39.7383 149.74 39.7039C149.752 39.6695 149.771 39.6378 149.795 39.6106C149.819 39.5833 149.848 39.5611 149.88 39.5451C149.913 39.5291 149.948 39.5197 149.985 39.5174C150.021 39.5151 150.057 39.52 150.092 39.5317C152.221 40.2603 154.317 41.0852 156.372 42.0038C156.512 42.0661 156.574 42.2298 156.512 42.3692C156.49 42.4179 156.454 42.4592 156.41 42.4881C156.365 42.5171 156.312 42.5325 156.259 42.5325ZM97.4191 41.9686C97.3554 41.9685 97.2936 41.9465 97.2442 41.9061C97.1948 41.8658 97.1609 41.8096 97.1482 41.7471C97.1355 41.6846 97.1447 41.6197 97.1744 41.5632C97.2041 41.5068 97.2523 41.4623 97.311 41.4373C99.3823 40.5586 101.492 39.7744 103.635 39.0871C103.67 39.0747 103.707 39.0694 103.744 39.0715C103.781 39.0737 103.817 39.0833 103.85 39.0997C103.884 39.1161 103.913 39.1391 103.937 39.1672C103.962 39.1953 103.98 39.228 103.991 39.2633C104.002 39.2986 104.007 39.3359 104.003 39.3728C104 39.4097 103.989 39.4456 103.972 39.4783C103.954 39.511 103.93 39.5398 103.901 39.5631C103.872 39.5864 103.839 39.6036 103.803 39.6138C101.677 40.296 99.5828 41.0744 97.527 41.9467C97.4929 41.9611 97.4562 41.9686 97.4191 41.9686ZM143.546 38.1886C143.525 38.1886 143.503 38.1861 143.481 38.1807C141.309 37.6551 139.115 37.2291 136.904 36.9042C136.868 36.899 136.834 36.8867 136.803 36.8681C136.771 36.8494 136.744 36.8249 136.723 36.7957C136.701 36.7666 136.685 36.7334 136.676 36.6982C136.668 36.663 136.666 36.6264 136.671 36.5905C136.676 36.5544 136.688 36.5197 136.707 36.4884C136.725 36.4571 136.75 36.4298 136.779 36.4081C136.808 36.3864 136.841 36.3707 136.877 36.3619C136.912 36.3532 136.949 36.3516 136.985 36.3571C139.212 36.6844 141.423 37.1135 143.611 37.6432C143.677 37.6589 143.735 37.6982 143.774 37.7539C143.813 37.8095 143.83 37.8774 143.822 37.9447C143.814 38.0121 143.781 38.0741 143.73 38.1191C143.68 38.1641 143.614 38.1888 143.546 38.1886ZM110.209 37.8702C110.141 37.8701 110.075 37.8448 110.025 37.7993C109.974 37.7538 109.942 37.6912 109.935 37.6236C109.927 37.5559 109.945 37.4879 109.985 37.4326C110.024 37.3772 110.083 37.3384 110.149 37.3236C112.347 36.8364 114.565 36.4499 116.798 36.1653C116.871 36.1564 116.944 36.1766 117.002 36.2214C117.06 36.2663 117.098 36.3322 117.107 36.4048C117.112 36.4409 117.109 36.4774 117.1 36.5125C117.09 36.5475 117.074 36.5803 117.052 36.609C117.029 36.6377 117.002 36.6618 116.97 36.6798C116.939 36.6978 116.904 36.7094 116.868 36.714C114.652 36.9966 112.45 37.3802 110.269 37.8638C110.249 37.868 110.229 37.8702 110.209 37.8702ZM130.256 36.2355C130.25 36.2355 130.245 36.2355 130.24 36.2348C128.009 36.1136 125.774 36.0926 123.542 36.1719C123.394 36.1892 123.261 36.058 123.256 35.9057C123.254 35.8694 123.26 35.8332 123.273 35.7991C123.285 35.7651 123.305 35.7339 123.329 35.7073C123.354 35.6807 123.384 35.6592 123.417 35.6442C123.45 35.6291 123.486 35.6207 123.522 35.6194C125.771 35.5391 128.023 35.5603 130.27 35.683C130.306 35.6839 130.342 35.692 130.375 35.7068C130.408 35.7215 130.438 35.7427 130.463 35.769C130.488 35.7954 130.508 35.8263 130.521 35.8602C130.534 35.8941 130.54 35.9302 130.539 35.9665C130.538 36.0028 130.53 36.0385 130.515 36.0717C130.501 36.1048 130.479 36.1347 130.453 36.1597C130.427 36.1847 130.396 36.2042 130.362 36.2172C130.328 36.2302 130.292 36.2364 130.256 36.2355ZM201.156 101.835C201.023 101.835 200.905 101.739 200.883 101.603C200.7 100.469 200.493 99.3388 200.261 98.2136C200.254 98.178 200.254 98.1413 200.261 98.1057C200.267 98.07 200.281 98.036 200.301 98.0057C200.321 97.9754 200.347 97.9493 200.377 97.9289C200.407 97.9086 200.441 97.8943 200.477 97.887C200.512 97.8797 200.549 97.8795 200.584 97.8864C200.62 97.8932 200.654 97.9071 200.684 97.9271C200.715 97.947 200.741 97.9728 200.761 98.0029C200.782 98.033 200.796 98.0668 200.803 98.1023C201.036 99.2353 201.245 100.373 201.43 101.515C201.436 101.554 201.434 101.595 201.423 101.633C201.412 101.672 201.393 101.708 201.367 101.738C201.341 101.769 201.308 101.793 201.272 101.81C201.236 101.827 201.196 101.835 201.156 101.835Z" fill="#3A67B3"/>
<path d="M83.1608 179.264H149.344C150.763 179.264 151.914 178.113 151.914 176.694V108.379C151.914 106.96 150.763 105.809 149.344 105.809H83.1608C81.7414 105.809 80.5908 106.96 80.5908 108.379V176.694C80.5908 178.113 81.7414 179.264 83.1608 179.264Z" fill="#D94559"/>
<path d="M83.6485 105.809H148.856C149.712 105.809 150.485 106.2 151.04 106.828H90.3406C88.6519 106.828 87.2829 108.345 87.2829 110.217V176.894C87.2829 177.817 87.6169 178.653 88.1571 179.264H83.6485C81.9598 179.264 80.5908 177.747 80.5908 175.875V109.198C80.5908 107.326 81.9598 105.809 83.6485 105.809Z" fill="#E4E7F4"/>
<path d="M137.456 119.244C156.571 137.908 143.854 148.563 173.273 171.561C179.655 169.157 185.999 171.967 190.26 175.531C196.516 180.764 182.473 176.211 172.904 179.264C155.684 172.125 142.362 162.844 136.373 142.191C136.372 142.192 137.456 119.244 137.456 119.244Z" fill="#FFB050"/>
<path d="M101.967 97.6634C104.978 85.5378 102.344 77.4768 113.351 75.4087C116.248 74.8643 115.429 72.4028 120.834 69.9484C137.356 62.4464 149.888 80.0482 139.069 94.6853C133.443 102.297 140.562 102.288 143.201 118.121C145.319 130.835 123.09 129.999 123.556 132.681C124.261 136.717 123.523 140.865 122.486 144.803C122.022 146.564 121.104 154.338 120.073 155.8C115.827 161.82 105.829 157.613 99.8985 161.726C93.7426 165.994 97.5091 169.515 90.7539 172.611C74.9028 178.006 68.0633 166.442 72.4083 152.097C76.9805 137.996 63.7837 146.866 61.467 133.873C61.1858 109.161 96.5528 119.463 101.967 97.6634Z" fill="#311A15"/>
<path d="M118.316 123.613H130.359C130.937 123.613 129.302 113.597 129.302 113.597L129.288 108.887L129.283 106.968L120.68 104.881L118.438 113.398L118.331 122.403L118.316 123.613Z" fill="#FB8169"/>
<path d="M118.331 122.402L120.008 122.843C120.008 122.843 120.258 112.026 122.203 109.587C123.615 107.814 127.356 108.423 129.288 108.887L129.283 106.968L120.68 104.881L118.438 113.398L118.331 122.402Z" fill="#FB684B"/>
<path d="M104.161 178.573C103.969 179.036 103.772 179.498 103.571 179.957H145.292C145.353 179.926 145.414 179.892 145.473 179.858C145.182 179.429 144.903 179 144.638 178.573C128.227 152.168 161.085 130.672 129.301 113.597L127.451 121.864L120.576 115.405L118.438 113.398C111.408 113.671 105.875 114.895 101.966 117.17C113.888 138.613 110.474 163.272 104.161 178.573Z" fill="#FFB050"/>
<path d="M128.98 127.03C128.98 126.665 128.835 126.315 128.577 126.056C128.318 125.798 127.968 125.653 127.603 125.653C127.237 125.653 126.887 125.798 126.628 126.056C126.37 126.315 126.225 126.665 126.225 127.03C126.225 127.396 126.37 127.746 126.628 128.005C126.887 128.263 127.237 128.408 127.603 128.408C127.968 128.408 128.318 128.263 128.577 128.005C128.835 127.746 128.98 127.396 128.98 127.03ZM129.973 132.292C129.973 132.111 129.937 131.932 129.868 131.764C129.798 131.597 129.697 131.445 129.569 131.317C129.441 131.189 129.289 131.088 129.122 131.019C128.955 130.949 128.776 130.914 128.595 130.914C128.414 130.914 128.234 130.949 128.067 131.019C127.9 131.088 127.748 131.189 127.62 131.317C127.492 131.445 127.391 131.597 127.322 131.764C127.252 131.932 127.217 132.111 127.217 132.292C127.217 132.657 127.362 133.008 127.62 133.266C127.879 133.524 128.229 133.67 128.595 133.67C128.96 133.67 129.311 133.524 129.569 133.266C129.827 133.008 129.973 132.657 129.973 132.292ZM130.358 137.819C130.358 137.638 130.323 137.459 130.253 137.292C130.184 137.125 130.083 136.973 129.955 136.845C129.827 136.717 129.675 136.615 129.508 136.546C129.341 136.477 129.161 136.441 128.98 136.441C128.799 136.441 128.62 136.477 128.453 136.546C128.286 136.615 128.134 136.717 128.006 136.845C127.878 136.973 127.777 137.125 127.707 137.292C127.638 137.459 127.603 137.638 127.603 137.819C127.603 138.185 127.748 138.535 128.006 138.794C128.265 139.052 128.615 139.197 128.98 139.197C129.346 139.197 129.696 139.052 129.955 138.794C130.213 138.535 130.358 138.185 130.358 137.819Z" fill="#EB9936"/>
<path d="M129.302 113.597L127.452 121.864L129.302 122.456L132.757 117.495L129.302 113.597ZM116.581 116.945L125.592 122.843L127.452 121.864L118.438 113.398L116.581 116.945ZM129.67 127.031C129.67 126.85 129.634 126.67 129.565 126.503C129.495 126.336 129.394 126.184 129.266 126.056C129.138 125.928 128.986 125.827 128.819 125.757C128.652 125.688 128.473 125.653 128.292 125.653C128.111 125.653 127.931 125.688 127.764 125.757C127.597 125.827 127.445 125.928 127.317 126.056C127.189 126.184 127.088 126.336 127.019 126.503C126.949 126.67 126.914 126.85 126.914 127.031C126.914 127.396 127.059 127.746 127.317 128.005C127.576 128.263 127.926 128.408 128.292 128.408C128.657 128.408 129.008 128.263 129.266 128.005C129.524 127.746 129.67 127.396 129.67 127.031ZM130.662 132.292C130.662 132.111 130.626 131.932 130.557 131.764C130.487 131.597 130.386 131.445 130.258 131.317C130.13 131.189 129.978 131.088 129.811 131.019C129.644 130.949 129.465 130.914 129.284 130.914C129.103 130.914 128.924 130.949 128.756 131.019C128.589 131.088 128.437 131.189 128.309 131.317C128.181 131.445 128.08 131.597 128.011 131.764C127.941 131.932 127.906 132.111 127.906 132.292C127.906 132.657 128.051 133.008 128.309 133.266C128.568 133.525 128.918 133.67 129.284 133.67C129.649 133.67 130 133.525 130.258 133.266C130.516 133.008 130.662 132.657 130.662 132.292ZM131.047 137.819C131.047 137.638 131.012 137.459 130.943 137.292C130.873 137.125 130.772 136.973 130.644 136.845C130.516 136.717 130.364 136.615 130.197 136.546C130.03 136.477 129.85 136.441 129.67 136.441C129.489 136.441 129.309 136.477 129.142 136.546C128.975 136.615 128.823 136.717 128.695 136.845C128.567 136.973 128.466 137.125 128.396 137.292C128.327 137.459 128.292 137.638 128.292 137.819C128.292 138.185 128.437 138.535 128.695 138.794C128.954 139.052 129.304 139.197 129.67 139.197C130.035 139.197 130.385 139.052 130.644 138.794C130.902 138.535 131.047 138.185 131.047 137.819Z" fill="#F9FAFD"/>
<path d="M103.676 179.958H111.784C111.797 179.49 111.812 179.027 111.831 178.573C112.672 158.322 120.06 150.643 113.677 133.364L106.824 131.577C113.539 148.208 107.716 170.029 104.266 178.573C104.079 179.038 103.882 179.5 103.676 179.958Z" fill="#EB9936"/>
<path d="M84.3496 162.017C85.05 169.618 108.3 168.339 118.286 167.437C121.027 167.189 122.769 166.968 122.769 166.968C128.646 168.098 133.125 175.675 134.767 173.03C140.087 164.457 131.919 161.148 124.016 160.972L120.008 159.819L100.592 154.23L110.493 141.809C117.616 133.299 112.733 109.599 101.979 117.162C95.1385 121.974 83.4571 152.329 84.3496 162.017Z" fill="#F9CBCB"/>
<path d="M84.3496 162.017C85.05 169.618 108.3 168.339 118.286 167.437L120.008 159.819L100.592 154.23L110.493 141.809C119.432 131.288 112.732 109.598 101.978 117.162C95.1385 121.974 83.4571 152.328 84.3496 162.017Z" fill="#FFB050"/>
<path d="M101.978 117.162C102.624 116.708 103.248 116.37 103.85 116.131C96.9352 122.905 86.365 150.91 87.2156 160.143C87.8627 167.166 107.765 166.608 118.662 165.771L118.286 167.437C108.3 168.339 85.05 169.618 84.3496 162.017C83.4573 152.329 95.1387 121.974 101.978 117.162Z" fill="#EB9936"/>
<path d="M116.231 96.8357C116.231 96.8357 117.854 102.916 121.823 105.872C122.133 106.104 122.457 106.316 122.795 106.504C124.197 107.284 125.848 107.663 127.777 107.331C132.153 106.578 137.268 103.187 138.625 93.9074C139.872 85.4059 138.172 83.7061 137.445 83.3657C137.445 83.3657 137.443 83.3657 137.443 83.3636C137.263 83.2811 137.145 83.2811 137.145 83.2811C137.145 83.2811 130.817 86.2728 124.203 79.4438C124.203 79.4438 121.554 87.717 118.004 91.0405C110.719 85.8055 113.497 95.6411 116.231 96.8357Z" fill="#FB8169"/>
<path d="M116.231 96.8358C116.231 96.8358 117.854 102.916 121.823 105.872C118.937 103.16 117.595 93.7693 119.867 92.245C123.854 89.5693 124.011 82.9175 124.479 82.1712C124.948 81.425 127.812 84.8273 131.641 84.895C135.472 84.9606 137.449 83.3704 137.449 83.3704L137.445 83.3662C137.445 83.3662 137.443 83.3662 137.443 83.3641C137.263 83.2816 137.145 83.2816 137.145 83.2816C137.145 83.2816 130.817 86.2733 124.204 79.4443C124.204 79.4443 121.554 87.7175 118.005 91.041C110.719 85.8056 113.497 95.6412 116.231 96.8358Z" fill="#FB684B"/>
<path d="M115.138 99.1284H115.135C115.142 99.1309 115.149 99.1355 115.157 99.1355C115.149 99.1355 115.145 99.1332 115.138 99.1284Z" fill="#B7D8F2"/>
<path d="M129.176 178.544H189.641C191.861 178.544 193.723 176.869 193.958 174.662L198.166 135.059C198.439 132.494 196.428 130.259 193.849 130.259H133.384C131.164 130.259 129.301 131.934 129.067 134.142L124.859 173.744C124.586 176.309 126.597 178.544 129.176 178.544Z" fill="#145D62"/>
<path d="M166.27 156.367C167.358 153.74 166.11 150.729 163.484 149.641C160.857 148.553 157.846 149.8 156.758 152.427C155.67 155.054 156.917 158.065 159.544 159.153C162.171 160.241 165.182 158.993 166.27 156.367Z" fill="#F9FAFD"/>
<path d="M97.9307 178.572H129.72C129.894 178.572 130.067 178.538 130.228 178.471C130.389 178.405 130.535 178.307 130.659 178.184C130.782 178.06 130.88 177.914 130.947 177.753C131.013 177.592 131.048 177.419 131.048 177.245V174.652C131.048 174.478 131.013 174.305 130.947 174.144C130.88 173.983 130.782 173.837 130.659 173.714C130.535 173.59 130.389 173.492 130.228 173.426C130.067 173.359 129.894 173.325 129.72 173.325H97.9307C97.5786 173.325 97.2409 173.465 96.9919 173.714C96.7429 173.963 96.603 174.3 96.603 174.652V177.245C96.603 177.597 96.7429 177.935 96.9919 178.184C97.2409 178.433 97.5786 178.572 97.9307 178.572Z" fill="#278CC6"/>
<path d="M193.849 130.259H192.714L188.551 169.435C188.316 171.643 186.454 173.318 184.233 173.318H124.904L124.859 173.744C124.586 176.309 126.597 178.544 129.176 178.544H189.641C191.861 178.544 193.723 176.869 193.958 174.662L198.166 135.059C198.439 132.494 196.428 130.259 193.849 130.259Z" fill="#E1F9F9"/>
<path d="M253.014 188.492H31.9859C29.1319 188.492 26.8184 186.178 26.8184 183.324C26.8184 180.47 29.1319 178.157 31.9859 178.157H253.014C255.868 178.157 258.182 180.47 258.182 183.324C258.182 186.178 255.868 188.492 253.014 188.492Z" fill="#DEF3FF"/>
<path d="M254.666 178.431C254.819 178.926 254.896 179.44 254.896 179.957C254.896 182.811 252.582 185.125 249.728 185.125H28.6999C28.1214 185.125 27.5672 185.026 27.0479 184.851C27.6989 186.959 29.6631 188.492 31.9858 188.492H253.014C255.868 188.492 258.182 186.178 258.182 183.324C258.182 181.049 256.709 179.121 254.666 178.431Z" fill="#145D62"/>
<path d="M200.89 107.282C200.94 107.287 200.933 107.364 200.883 107.36C200.833 107.356 200.84 107.278 200.89 107.282Z" fill="#353957"/>
<path d="M185.04 88.9968C189.065 86.4675 194.084 85.736 198.766 86.5548C201.792 87.0839 204.753 88.2625 207.078 90.2706C209.403 92.2789 211.042 95.1675 211.2 98.2356C211.359 101.304 209.904 104.491 207.283 106.093C204.511 107.786 200.977 107.548 197.819 106.788C193.823 105.827 190.03 104.131 186.023 103.214C184.366 102.835 182.6 102.596 180.989 103.139C179.378 103.682 178.075 104.375 177.368 106.587C175.729 96.6989 181.015 91.5264 185.04 88.9968Z" fill="#278CC6"/>
<path d="M190.326 106.399C190.708 106.521 191.052 106.742 191.413 106.915C191.776 107.089 192.147 107.249 192.516 107.41C193.258 107.733 193.999 108.056 194.761 108.328C196.279 108.869 197.857 109.252 199.461 109.422C202.282 109.721 205.178 109.342 207.742 108.092C209.132 107.414 210.436 106.465 211.484 105.326C211.534 105.271 211.629 105.332 211.581 105.394C210.723 106.5 209.7 107.392 208.503 108.117C207.293 108.851 205.965 109.38 204.592 109.72C201.486 110.49 198.264 110.184 195.239 109.21C194.343 108.922 193.454 108.586 192.604 108.183C192.183 107.984 191.774 107.76 191.371 107.529C190.955 107.292 190.492 107.079 190.136 106.757C189.97 106.607 190.093 106.325 190.326 106.399ZM176.483 95.1266C176.998 93.5959 177.84 92.1926 178.936 91.0078C179.488 90.4126 180.102 89.879 180.768 89.4164C181.079 89.1994 181.401 88.9982 181.732 88.8136C182.065 88.6293 182.459 88.4193 182.833 88.3426C182.923 88.3245 182.985 88.4493 182.91 88.5057C182.617 88.7261 182.265 88.8914 181.952 89.0841C181.608 89.2964 181.273 89.5201 180.952 89.7661C180.346 90.2314 179.788 90.7557 179.286 91.3311C178.268 92.4951 177.496 93.8568 177.03 95.3314C176.917 95.6893 176.362 95.4843 176.483 95.1266ZM186.771 105.081C186.945 105.009 187.173 105.059 187.355 105.093C187.536 105.126 187.716 105.171 187.891 105.233C188.059 105.292 188.222 105.366 188.377 105.456C188.542 105.551 188.728 105.654 188.823 105.824C188.902 105.967 188.763 106.187 188.594 106.152C188.528 106.138 188.475 106.127 188.417 106.092C188.382 106.071 188.348 106.047 188.312 106.026C188.261 105.995 188.209 105.966 188.155 105.939C188.012 105.867 187.864 105.803 187.714 105.749C187.64 105.724 187.566 105.701 187.491 105.681C187.43 105.664 187.368 105.65 187.306 105.64C187.229 105.627 187.153 105.616 187.075 105.609C186.982 105.599 186.876 105.609 186.791 105.567C186.695 105.519 186.625 105.444 186.622 105.331C186.619 105.231 186.672 105.122 186.771 105.081Z" fill="#69C0FF"/>
<path d="M79.1525 60.0461C79.1031 60.0372 79.0894 60.1138 79.1388 60.1226C79.1882 60.1316 79.2019 60.0551 79.1525 60.0461Z" fill="#353957"/>
<path d="M99.2681 46.5948C96.0544 43.0925 91.4065 41.0617 86.674 40.615C83.6152 40.3263 80.4484 40.6811 77.6754 42.0042C74.9025 43.3273 72.5598 45.6809 71.5965 48.5981C70.6329 51.5154 71.195 54.9736 73.3004 57.2111C75.5261 59.5763 78.9981 60.2798 82.2442 60.3806C86.3525 60.5084 90.4588 59.8744 94.5656 60.0479C96.2642 60.1196 98.03 60.3556 99.4406 61.3048C100.851 62.254 101.925 63.2667 102.023 65.5871C106.214 56.4819 102.482 50.0971 99.2681 46.5948Z" fill="#3A67B3"/>
<path d="M89.5741 61.9837C89.1736 62.0008 88.7838 62.1228 88.3899 62.1941C87.9932 62.266 87.5936 62.323 87.1949 62.3805C86.3938 62.4962 85.5945 62.6116 84.7872 62.6726C83.1801 62.7941 81.5578 62.747 79.9659 62.4876C77.1651 62.031 74.4724 60.9003 72.3293 59.0176C71.1678 57.9972 70.1605 56.7372 69.4509 55.3616C69.417 55.2958 69.3091 55.3297 69.3393 55.4024C69.8751 56.6953 70.6263 57.8251 71.5888 58.8412C72.5624 59.8689 73.7032 60.7295 74.9376 61.4199C77.7303 62.9822 80.9182 63.5385 84.0941 63.3974C85.0336 63.3558 85.9799 63.2668 86.9063 63.1028C87.3643 63.0218 87.818 62.9141 88.2682 62.798C88.7316 62.6785 89.2347 62.5958 89.6628 62.3791C89.863 62.2778 89.8186 61.9733 89.5741 61.9837ZM105.903 54.7664C105.81 53.1541 105.369 51.5783 104.624 50.146C104.249 49.4263 103.798 48.7494 103.277 48.1272C103.034 47.8359 102.777 47.5569 102.507 47.2914C102.234 47.0255 101.909 46.7189 101.569 46.5464C101.488 46.5053 101.395 46.6095 101.452 46.6835C101.676 46.9733 101.973 47.2258 102.223 47.4943C102.499 47.7899 102.763 48.0941 103.008 48.4162C103.469 49.0249 103.869 49.6779 104.201 50.3655C104.875 51.757 105.261 53.2743 105.321 54.8193C105.335 55.1943 105.924 55.1433 105.903 54.7664ZM93.3515 61.651C93.2028 61.5353 92.9688 61.5237 92.7853 61.5081C92.6011 61.4915 92.4159 61.4894 92.2313 61.5018C92.053 61.5145 91.8768 61.5433 91.7036 61.5883C91.5195 61.6362 91.312 61.687 91.1759 61.8262C91.0622 61.9426 91.138 62.1922 91.3103 62.2022C91.3772 62.2062 91.4313 62.2095 91.4963 62.1918C91.5363 62.181 91.5753 62.1668 91.6151 62.1555C91.6727 62.1386 91.731 62.1244 91.7899 62.1128C91.9469 62.081 92.1058 62.0589 92.2655 62.0466C92.343 62.0414 92.4205 62.0389 92.498 62.0393C92.5822 62.0399 92.5997 62.041 92.6878 62.0491C92.7651 62.0562 92.842 62.0664 92.9184 62.0793C93.0109 62.0951 93.1103 62.1322 93.2041 62.1139C93.3088 62.0935 93.3959 62.0393 93.4288 61.9314C93.4586 61.8353 93.4355 61.7164 93.3515 61.651Z" fill="#3A67B3"/>
<path d="M39.8955 91.7654C45.2465 82.4351 64.7278 83.4066 66.5617 95.7085C67.4509 100.165 63.6332 103.942 60.1455 106.009C54.7511 109.204 59.6594 112.343 64.7555 111.619C53.5055 117.382 32.7078 104.298 39.8955 91.7654Z" fill="#D94559"/>
<path d="M35.2138 96.2643C35.2373 95.6385 35.3096 95.0141 35.43 94.3995C35.6721 93.1702 36.0977 91.9844 36.6927 90.8818C37.8196 88.791 39.5773 87.076 41.6736 85.9647C42.8323 85.3504 44.0788 84.9387 45.3836 84.8022C45.5265 84.7872 45.5498 85.0118 45.4169 85.0483C43.2725 85.6343 41.2496 86.616 39.6292 88.1595C37.9571 89.7537 36.7976 91.8097 36.2984 94.0654C36.1539 94.716 36.0634 95.3775 36.0277 96.0431C35.9919 96.7068 36.1005 97.3756 36.0586 98.0335C36.0323 98.4445 35.4496 98.5493 35.3267 98.1324C35.155 97.5508 35.1913 96.8647 35.2138 96.2643ZM35.6865 100.495C35.6921 100.443 35.6984 100.391 35.7069 100.34C35.7161 100.283 35.749 100.253 35.7671 100.202C35.7875 100.146 35.873 100.103 35.9188 100.162C35.9461 100.197 35.9855 100.215 36.0136 100.252C36.0407 100.288 36.0607 100.332 36.0834 100.371C36.1302 100.451 36.1746 100.533 36.2182 100.615C36.3161 100.799 36.384 100.998 36.4655 101.19C36.4488 101.151 36.4982 101.263 36.5036 101.275C36.5642 101.407 36.63 101.536 36.7011 101.663C36.7486 101.748 36.7986 101.831 36.8507 101.913C36.8767 101.954 36.9055 101.994 36.9307 102.035C36.9815 102.119 36.995 102.191 37.0065 102.287C37.04 102.566 36.6767 102.728 36.4621 102.599C36.2663 102.481 36.1625 102.213 36.0671 102.013C35.973 101.815 35.8893 101.613 35.8165 101.406C35.7475 101.21 35.6905 101.005 35.6775 100.796C35.6721 100.696 35.6751 100.595 35.6865 100.495ZM61.6534 107.666C61.9215 107.511 62.248 107.44 62.5319 107.312C62.8201 107.182 63.1006 107.036 63.3723 106.874C63.9068 106.556 64.404 106.179 64.8546 105.751C65.3086 105.319 65.7234 104.851 66.0767 104.333C66.4277 103.818 66.7667 103.267 67.0161 102.696C67.0634 102.588 67.2371 102.666 67.2048 102.776C67.0169 103.422 66.7902 104.015 66.4367 104.589C66.089 105.154 65.6763 105.69 65.2063 106.158C64.7409 106.622 64.2262 107.034 63.6715 107.386C63.3827 107.569 63.0828 107.735 62.7736 107.882C62.4702 108.025 62.1425 108.195 61.8082 108.238C61.4934 108.278 61.4096 107.807 61.6534 107.666Z" fill="#D94559"/>
<path d="M171.624 37.6072C166.273 28.2769 146.792 29.2484 144.958 41.5503C144.069 46.0069 147.886 49.7842 151.374 51.8505C156.768 55.0461 151.86 58.1853 146.764 57.4611C158.014 63.2238 178.812 50.1399 171.624 37.6072Z" fill="#FFB050"/>
<path d="M176.305 42.1061C176.282 41.4798 176.209 40.8564 176.089 40.2413C175.847 39.012 175.421 37.8262 174.826 36.7236C173.699 34.6328 171.942 32.9178 169.845 31.8065C168.687 31.1922 167.44 30.7805 166.135 30.644C165.993 30.629 165.969 30.8536 166.102 30.8901C168.247 31.4761 170.269 32.4578 171.89 34.0013C173.562 35.5955 174.721 37.6515 175.221 39.9072C175.365 40.5578 175.456 41.2193 175.491 41.8849C175.527 42.5486 175.419 43.2174 175.46 43.8753C175.487 44.2863 176.069 44.3911 176.192 43.9742C176.364 43.3926 176.328 42.7067 176.305 42.1061ZM175.832 46.3369C175.827 46.2851 175.82 46.2328 175.812 46.1813C175.803 46.1244 175.77 46.0944 175.752 46.044C175.731 45.9876 175.646 45.9453 175.6 46.004C175.573 46.039 175.533 46.0565 175.505 46.0938C175.478 46.1297 175.458 46.1734 175.435 46.2124C175.389 46.2926 175.344 46.3744 175.301 46.4565C175.203 46.6409 175.135 46.8403 175.053 47.0319C175.07 46.9928 175.021 47.1044 175.015 47.1163C174.955 47.2485 174.889 47.3782 174.818 47.5051C174.77 47.5899 174.72 47.6732 174.668 47.7551C174.642 47.7961 174.613 47.8357 174.588 47.8772C174.537 47.9607 174.524 48.0326 174.512 48.1286C174.479 48.4082 174.842 48.5703 175.057 48.4411C175.253 48.3232 175.356 48.0553 175.452 47.8544C175.545 47.6572 175.63 47.4544 175.702 47.2482C175.771 47.0519 175.829 46.8469 175.841 46.638C175.847 46.5392 175.843 46.4349 175.832 46.3369ZM149.865 53.508C149.597 53.3528 149.271 53.2822 148.987 53.154C148.699 53.024 148.418 52.8778 148.147 52.7161C147.612 52.3981 147.115 52.0212 146.664 51.5926C146.21 51.1609 145.795 50.693 145.442 50.1749C145.091 49.6601 144.752 49.1092 144.503 48.5382C144.455 48.4299 144.282 48.5074 144.314 48.6178C144.502 49.2634 144.729 49.8563 145.082 50.4309C145.43 50.9957 145.843 51.5313 146.313 52.0001C146.778 52.4639 147.293 52.8756 147.847 53.2278C148.136 53.4112 148.436 53.5767 148.745 53.7234C149.049 53.8672 149.376 54.0367 149.711 54.0799C150.025 54.1203 150.109 53.6494 149.865 53.508Z" fill="#FFB050"/>
<path d="M218.752 148.103H228.055V178.157H218.752V148.103Z" fill="#3A67B3"/>
<path d="M220.994 150.353H225.365V165.203H220.994V150.353Z" fill="#F9FAFD"/>
<path d="M223.18 173.665C224.51 173.665 225.589 172.586 225.589 171.255C225.589 169.925 224.51 168.846 223.18 168.846C221.849 168.846 220.77 169.925 220.77 171.255C220.77 172.586 221.849 173.665 223.18 173.665Z" fill="#F9FAFD"/>
<path d="M209.761 146.685L218.606 149.568L209.292 178.143L200.448 175.26L209.761 146.685Z" fill="#FFB050"/>
<path d="M211.2 149.516L215.356 150.871L210.754 164.99L206.598 163.635L211.2 149.516ZM204.502 169.316C204.915 168.05 206.275 167.359 207.54 167.772C208.805 168.184 209.497 169.544 209.084 170.809C208.672 172.075 207.312 172.766 206.046 172.354C204.781 171.941 204.09 170.581 204.502 169.316Z" fill="#F9FAFD"/>
<path d="M228.055 148.103H237.357V178.157H228.055V148.103Z" fill="#D94559"/>
<path d="M230.296 150.353H234.667V165.203H230.296V150.353ZM230.072 171.255C230.072 169.924 231.151 168.846 232.482 168.846C233.813 168.846 234.892 169.924 234.892 171.255C234.892 172.586 233.813 173.665 232.482 173.665C231.151 173.665 230.072 172.586 230.072 171.255Z" fill="#F9FAFD"/>
<path d="M237.357 148.103H246.659V178.157H237.357V148.103Z" fill="#FFB050"/>
<path d="M239.599 150.353H243.97V165.203H239.599V150.353Z" fill="#F9FAFD"/>
<path d="M241.784 173.665C243.115 173.665 244.194 172.586 244.194 171.255C244.194 169.925 243.115 168.846 241.784 168.846C240.453 168.846 239.375 169.925 239.375 171.255C239.375 172.586 240.453 173.665 241.784 173.665Z" fill="#F9FAFD"/>
<path d="M153.484 43.8134L154.3 44.0194C154.129 44.6898 153.821 45.2011 153.377 45.5529C152.932 45.9048 152.389 46.0806 151.746 46.0806C151.082 46.0806 150.541 45.9456 150.125 45.6748C149.708 45.4042 149.391 45.0123 149.174 44.4992C148.957 43.9858 148.848 43.4348 148.848 42.8459C148.848 42.2036 148.971 41.6436 149.216 41.1652C149.462 40.6871 149.811 40.324 150.264 40.0756C150.717 39.8275 151.215 39.7036 151.759 39.7036C152.376 39.7036 152.895 39.8604 153.316 40.1746C153.736 40.4888 154.029 40.9306 154.195 41.4998L153.391 41.6892C153.248 41.2402 153.041 40.9138 152.769 40.7088C152.497 40.504 152.155 40.4017 151.742 40.4017C151.268 40.4017 150.872 40.5154 150.554 40.7425C150.236 40.9696 150.012 41.2746 149.883 41.6575C149.754 42.0391 149.689 42.4392 149.689 42.8419C149.689 43.3665 149.766 43.8242 149.919 44.2152C150.072 44.6065 150.309 44.8988 150.632 45.0925C150.948 45.2841 151.31 45.3846 151.679 45.3829C152.137 45.3829 152.524 45.2511 152.84 44.9875C153.157 44.7236 153.372 44.3321 153.484 43.8134ZM155.444 45.9754V39.8084H156.26V45.9754H155.444ZM157.022 45.9754L159.39 39.8084H160.269L162.793 45.9754H161.864L161.144 44.1075H158.565L157.888 45.9754H157.022ZM158.801 43.4431H160.892L160.248 41.7352C160.052 41.2165 159.906 40.7902 159.811 40.4565C159.731 40.8571 159.62 41.2508 159.479 41.6342L158.801 43.4431ZM163.197 42.9717C163.197 41.9481 163.472 41.1467 164.022 40.5677C164.572 39.9884 165.281 39.699 166.151 39.699C166.72 39.699 167.233 39.835 167.69 40.1071C168.147 40.3792 168.496 40.7586 168.736 41.245C168.975 41.7317 169.095 42.2834 169.095 42.9006C169.095 43.5259 168.969 44.0854 168.717 44.5792C168.464 45.0725 168.107 45.4465 167.644 45.7002C167.181 45.9542 166.682 46.0809 166.146 46.0809C165.566 46.0809 165.047 45.9406 164.59 45.6604C164.133 45.3802 163.786 44.9971 163.551 44.5119C163.316 44.0324 163.196 43.5054 163.197 42.9717ZM164.039 42.9844C164.039 43.7277 164.238 44.3131 164.638 44.7406C165.038 45.1684 165.539 45.3823 166.142 45.3823C166.756 45.3823 167.262 45.1663 167.659 44.7344C168.055 44.3025 168.254 43.6898 168.254 42.8961C168.254 42.394 168.169 41.9559 167.999 41.5813C167.83 41.2069 167.582 40.9167 167.255 40.7106C166.928 40.5046 166.561 40.4015 166.155 40.4015C165.577 40.4015 165.08 40.6 164.664 40.9967C164.247 41.3938 164.039 42.0563 164.039 42.9844ZM181.501 100.507V94.3521H182.315V96.8798H185.515V94.3521H186.329V100.507H185.515V97.6059H182.315V100.507H181.501ZM187.702 100.507V94.3521H192.153V95.0784H188.517V96.9638H191.922V97.6858H188.517V99.7808H192.296V100.507H187.702ZM193.388 100.507V94.3521H194.202V99.7808H197.234V100.507H193.388ZM198.17 100.507V94.3521H198.984V99.7808H202.016V100.507H198.17ZM202.738 97.5094C202.738 96.4877 203.012 95.6877 203.561 95.1098C204.109 94.5319 204.818 94.2429 205.685 94.2429C206.254 94.2429 206.766 94.3788 207.222 94.6502C207.678 94.9217 208.026 95.3002 208.265 95.7859C208.505 96.2715 208.625 96.8223 208.625 97.4381C208.625 98.0623 208.499 98.6208 208.247 99.1133C207.995 99.6061 207.638 99.979 207.176 100.232C206.714 100.486 206.216 100.612 205.681 100.612C205.102 100.612 204.584 100.472 204.128 100.192C203.672 99.9125 203.326 99.5304 203.091 99.0461C202.856 98.5617 202.738 98.0496 202.738 97.5094ZM203.578 97.5219C203.578 98.2638 203.777 98.8481 204.176 99.275C204.575 99.7021 205.075 99.9154 205.677 99.9154C206.29 99.9154 206.795 99.6998 207.191 99.2688C207.587 98.8377 207.785 98.2261 207.785 97.434C207.785 96.9329 207.7 96.4954 207.531 96.1219C207.362 95.7481 207.114 95.4584 206.788 95.2527C206.462 95.0469 206.096 94.944 205.69 94.944C205.113 94.944 204.617 95.1419 204.201 95.5381C203.785 95.9344 203.578 96.5954 203.578 97.5219ZM77.4303 50.1536C77.0772 50.7744 76.7026 51.3417 76.3174 51.8231C76.2211 51.6734 75.9963 51.395 75.8572 51.2452C76.863 50.0467 77.8263 48.0136 78.4363 46.0336L79.3247 46.3013C79.282 46.4081 79.1855 46.4296 79.0678 46.4188C78.7788 47.2748 78.4363 48.1419 78.0511 48.955L78.3615 49.0408C78.3403 49.1048 78.2867 49.1583 78.1476 49.1692V55.9754H77.4305V50.1536H77.4303ZM84.7611 50.4106C84.8468 50.0144 84.9536 49.4152 85.0501 48.8375H82.9205V55.0873C82.9205 55.8579 82.6422 55.9969 81.144 55.9969C81.1013 55.7827 80.9943 55.4723 80.8765 55.2586C81.144 55.2692 81.4009 55.2692 81.6042 55.2692H82.0324C82.1715 55.2692 82.2142 55.2265 82.2142 55.0875V48.8375H80.4913C80.1703 49.6186 79.7957 50.3248 79.389 50.86C79.2607 50.7315 79.0145 50.5175 78.8432 50.4211C79.6138 49.4258 80.2451 47.7456 80.609 46.0656L81.4972 46.3011C81.4757 46.3758 81.4009 46.4186 81.2618 46.4079C81.1226 46.9965 80.9513 47.5956 80.748 48.1629H85.4782L85.8528 48.1738C85.8528 48.3558 85.5959 49.7575 85.3713 50.5279L84.7611 50.4106ZM81.3365 50.7638C81.3045 50.8386 81.2295 50.8815 81.1011 50.8815C80.7586 52.1977 80.1701 53.5998 79.4959 54.4559C79.3568 54.3381 79.0999 54.1777 78.9286 54.0919C79.5815 53.2788 80.138 51.8981 80.4697 50.5283L81.3365 50.7638ZM85.2211 54.3702C85.0178 53.3642 84.397 51.8231 83.7549 50.6779L84.3863 50.4531C85.0605 51.5984 85.692 53.1071 85.9059 54.1131L85.2211 54.3702ZM90.3365 48.27L90.7432 48.3773L90.679 48.5271C90.5292 50.4211 90.1867 51.9409 89.6517 53.1286C90.1761 53.5352 90.6257 53.9313 90.9145 54.295L90.4757 54.8838C90.2082 54.5413 89.8015 54.1559 89.3307 53.7709C88.7849 54.7661 88.068 55.4938 87.2118 56.0073C87.1155 55.8256 86.9122 55.5688 86.7624 55.4188C87.5649 54.9906 88.2393 54.295 88.7743 53.3319C88.3819 53.0366 87.9747 52.7616 87.5542 52.5079L87.4259 52.979L86.8159 52.6579C87.0834 51.7163 87.4153 50.3569 87.7255 48.9765H86.6553V48.3021H87.8753C88.0345 47.5513 88.1843 46.7985 88.3247 46.044L89.2022 46.1513C89.1913 46.2261 89.1274 46.269 88.9882 46.2796C88.8705 46.8896 88.7207 47.5852 88.5601 48.3021H90.208L90.3365 48.27ZM88.4101 48.9767C88.1917 49.9395 87.9598 50.8991 87.7145 51.8554C88.1638 52.1015 88.624 52.4013 89.0736 52.7009C89.5017 51.7056 89.8122 50.4644 89.9617 48.9767H88.4101ZM96.5757 50.8171V51.5127H93.9965V55.055C93.9965 55.879 93.6755 56.0073 91.7813 55.9861C91.7386 55.7936 91.6207 55.4831 91.5138 55.269C92.0276 55.2798 92.4984 55.2902 92.798 55.2902C93.162 55.2902 93.2688 55.2902 93.2688 55.0654V51.5125H90.647V50.8169H93.2688V48.9977L93.622 49.019C94.1784 48.5481 94.767 47.8738 95.2057 47.2746H91.0855V46.6004H95.7515L95.8907 46.5575L96.4578 46.9109C96.4257 46.9644 96.3507 46.9965 96.2865 47.0177C95.7301 47.8098 94.8097 48.8265 93.9963 49.49V50.8169L96.5757 50.8171ZM40.3784 98.0269L41.0565 97.9675C41.0886 98.2394 41.1634 98.4623 41.2807 98.6365C41.398 98.8106 41.5803 98.9515 41.8274 99.0588C42.0745 99.1663 42.3522 99.22 42.6611 99.22C42.9353 99.22 43.1774 99.1792 43.3874 99.0977C43.5974 99.0161 43.7536 98.9044 43.8561 98.7623C43.9586 98.6202 44.0099 98.4652 44.0099 98.2973C44.0099 98.1269 43.9603 97.9781 43.8615 97.8508C43.7628 97.7236 43.5997 97.6169 43.3724 97.5302C43.2265 97.4736 42.9043 97.3852 42.4053 97.2652C41.9063 97.1456 41.5568 97.0325 41.3568 96.9263C41.0974 96.7904 40.904 96.6219 40.7768 96.4204C40.6495 96.2192 40.5859 95.9938 40.5859 95.7442C40.5859 95.47 40.6638 95.2138 40.8195 94.9752C40.9751 94.7367 41.2024 94.5561 41.5013 94.4323C41.8003 94.309 42.1326 94.2471 42.4982 94.2471C42.9009 94.2471 43.2559 94.3119 43.5634 94.4415C43.8711 94.5715 44.1076 94.7621 44.273 95.014C44.4384 95.2661 44.5274 95.5515 44.5399 95.87L43.8507 95.9219C43.8136 95.5783 43.6882 95.3192 43.4745 95.1436C43.2607 94.9683 42.9451 94.8804 42.5278 94.8804C42.093 94.8804 41.7761 94.96 41.5774 95.1194C41.3786 95.2788 41.279 95.4708 41.279 95.6956C41.279 95.8906 41.3495 96.0513 41.4903 96.1771C41.6286 96.3031 41.9899 96.4323 42.5743 96.5644C43.1584 96.6967 43.5593 96.8121 43.7768 96.9109C44.093 97.0567 44.3263 97.2411 44.4772 97.4648C44.6278 97.6883 44.7032 97.9461 44.7032 98.2375C44.7032 98.5265 44.6205 98.7988 44.4549 99.0544C44.2895 99.3102 44.0515 99.509 43.7415 99.6511C43.4315 99.7931 43.0826 99.8642 42.6947 99.8642C42.203 99.8642 41.7911 99.7925 41.4588 99.6492C41.1265 99.5061 40.8659 99.2904 40.677 99.0025C40.4876 98.7156 40.3882 98.3898 40.3784 98.0269ZM45.088 99.7721L47.1743 94.3398H47.9488L50.1722 99.7721H49.3532L48.7195 98.1269H46.448L45.8513 99.7721H45.088ZM46.6555 97.5413H48.4972L47.9303 96.0369C47.7574 95.58 47.6288 95.2046 47.5449 94.9104C47.4744 95.2634 47.3766 95.6104 47.2522 95.9481L46.6555 97.5413ZM50.7168 99.7721V94.3398H51.4357V99.1309H54.1111V99.7721H50.7168ZM58.5315 94.3398H59.2505V97.4783C59.2505 98.0244 59.1886 98.4579 59.0653 98.779C58.9418 99.1 58.7188 99.3613 58.3965 99.5627C58.074 99.764 57.6511 99.8646 57.1274 99.8646C56.6184 99.8646 56.2022 99.7769 55.8786 99.6015C55.5549 99.4263 55.324 99.1723 55.1857 98.8398C55.0474 98.5075 54.9782 98.0536 54.9782 97.4781V94.3396H55.6972V97.4744C55.6972 97.9465 55.7409 98.294 55.8286 98.5177C55.9163 98.7413 56.067 98.9136 56.2807 99.0346C56.4942 99.1556 56.7555 99.2161 57.0645 99.2161C57.593 99.2161 57.9699 99.0961 58.1947 98.8567C58.4195 98.6171 58.5318 98.1565 58.5318 97.4744V94.3398H58.5315ZM61.8295 99.7721V94.9811H60.0397V94.3398H64.3455V94.9811H62.5484V99.7721H61.8295Z" fill="#F9FAFD"/>
<path d="M48.5059 169.364L55.3767 145.862L59.1719 146.972L52.3011 170.473L48.5059 169.364Z" fill="#FFB050"/>
<path d="M57.7107 147.88L57.7684 147.683L58.8621 148.003L58.8046 148.2L57.7107 147.88ZM57.1384 149.837L57.1959 149.64L58.2896 149.959L58.2321 150.156L57.1384 149.837ZM56.5667 151.793L56.6244 151.596L57.7182 151.916L57.6605 152.113L56.5667 151.793ZM56.0088 153.759L56.0663 153.562L57.1601 153.882L57.1026 154.079L56.0088 153.759ZM55.4365 155.717L55.4942 155.52L56.588 155.84L56.5303 156.037L55.4365 155.717ZM54.8505 157.664L54.908 157.467L56.0017 157.786L55.9442 157.983L54.8505 157.664ZM54.2782 159.621L54.3357 159.425L55.4294 159.744L55.3719 159.941L54.2782 159.621ZM53.7059 161.579L53.7634 161.382L54.8571 161.702L54.7996 161.899L53.7059 161.579ZM53.1342 163.536L53.1917 163.339L54.2855 163.659L54.228 163.856L53.1342 163.536ZM52.5788 165.499L52.6363 165.302L53.7301 165.621L53.6726 165.818L52.5788 165.499ZM52.0042 167.459L52.0619 167.262L53.1557 167.582L53.0982 167.779L52.0042 167.459ZM51.4351 169.412L51.4926 169.215L52.5863 169.534L52.5288 169.731L51.4351 169.412Z" fill="#F9FAFD"/>
<path d="M46.7183 148.253L47.6714 148.126L50.5426 169.623L49.5897 169.75L46.7183 148.253Z" fill="#D94559"/>
<path d="M50.5423 169.621L50.3746 170.666L50.2792 171.265L50.0273 170.713L49.5908 169.748L50.5423 169.621Z" fill="#FFC3C0"/>
<path d="M47.6328 148.337L46.8122 148.447C46.7879 148.45 46.7631 148.448 46.7394 148.442C46.7156 148.436 46.6934 148.425 46.6739 148.41C46.6544 148.395 46.638 148.376 46.6257 148.355C46.6134 148.334 46.6054 148.31 46.6022 148.286L46.4814 147.381C46.4603 147.223 46.5028 147.064 46.5995 146.937C46.6963 146.81 46.8394 146.727 46.9974 146.706C47.1554 146.685 47.3153 146.728 47.4419 146.824C47.5685 146.921 47.6515 147.064 47.6726 147.222L47.7935 148.127C47.8 148.176 47.7868 148.226 47.7567 148.265C47.7265 148.305 47.682 148.33 47.6328 148.337ZM47.7482 148.771L46.8145 148.896C46.7813 148.899 46.7483 148.889 46.7222 148.868C46.6962 148.847 46.6792 148.817 46.6748 148.784C46.6704 148.751 46.6789 148.718 46.6985 148.691C46.7182 148.664 46.7475 148.646 46.7803 148.64L47.7141 148.515C47.7469 148.513 47.7795 148.523 47.8051 148.544C47.8307 148.564 47.8474 148.594 47.8518 148.627C47.8561 148.66 47.8478 148.693 47.8286 148.719C47.8094 148.746 47.7806 148.765 47.7482 148.771ZM47.8012 149.168L46.8674 149.293C46.8342 149.296 46.8012 149.286 46.7751 149.265C46.7491 149.244 46.7321 149.214 46.7277 149.181C46.7233 149.148 46.7318 149.115 46.7515 149.088C46.7711 149.061 46.8004 149.043 46.8332 149.037L47.767 148.912C47.8009 148.908 47.8353 148.917 47.8624 148.937C47.8896 148.958 47.9075 148.989 47.912 149.023C47.9165 149.057 47.9074 149.091 47.8866 149.118C47.8658 149.146 47.8351 149.163 47.8012 149.168Z" fill="#FFB050"/>
<path d="M50.3746 170.666L50.2792 171.265L50.0273 170.713L50.3746 170.666Z" fill="#4D4D4D"/>
<path d="M51.5591 169.306L50.6001 169.235L52.1963 147.606L53.1551 147.677L51.5591 169.306Z" fill="#3A67B3"/>
<path d="M52.2061 147.607L52.5848 146.618L52.8008 146.051L52.9342 146.644L53.1636 147.678L52.2061 147.607Z" fill="#FFC3C0"/>
<path d="M50.6891 169.035L51.5147 169.096C51.5641 169.1 51.6101 169.123 51.6425 169.16C51.6748 169.198 51.691 169.247 51.6874 169.296L51.6201 170.206C51.6143 170.285 51.593 170.362 51.5575 170.432C51.522 170.503 51.473 170.565 51.4133 170.617C51.3535 170.668 51.2842 170.708 51.2093 170.732C51.1343 170.757 51.0553 170.767 50.9766 170.761C50.8979 170.755 50.8211 170.734 50.7506 170.699C50.6801 170.663 50.6173 170.614 50.5658 170.554C50.5142 170.495 50.475 170.425 50.4502 170.35C50.4255 170.275 50.4157 170.196 50.4216 170.118L50.4886 169.208C50.4924 169.158 50.5156 169.112 50.5531 169.08C50.5907 169.047 50.6396 169.031 50.6891 169.035ZM50.6649 168.587L51.6043 168.656C51.6212 168.657 51.6377 168.662 51.6528 168.67C51.6679 168.677 51.6814 168.688 51.6925 168.701C51.7036 168.713 51.712 168.728 51.7173 168.744C51.7226 168.761 51.7247 168.778 51.7234 168.794C51.7222 168.811 51.7176 168.828 51.71 168.843C51.7023 168.858 51.6918 168.872 51.6789 168.883C51.6661 168.894 51.6512 168.902 51.6351 168.907C51.619 168.913 51.602 168.915 51.5851 168.914L50.6457 168.844C50.6123 168.841 50.5816 168.824 50.5601 168.799C50.5386 168.773 50.5279 168.74 50.5304 168.706C50.5329 168.673 50.5484 168.642 50.5735 168.619C50.5986 168.597 50.6313 168.585 50.6649 168.587ZM50.6945 168.187L51.6338 168.257C51.6508 168.258 51.6672 168.263 51.6824 168.27C51.6975 168.278 51.711 168.288 51.7221 168.301C51.7331 168.314 51.7416 168.329 51.7469 168.345C51.7522 168.361 51.7543 168.378 51.753 168.395C51.7518 168.412 51.7472 168.428 51.7395 168.444C51.7319 168.459 51.7214 168.472 51.7085 168.483C51.6957 168.494 51.6808 168.503 51.6647 168.508C51.6486 168.513 51.6316 168.515 51.6147 168.514L50.6753 168.445C50.6584 168.444 50.6419 168.439 50.6268 168.431C50.6116 168.424 50.5981 168.413 50.5871 168.4C50.576 168.388 50.5676 168.373 50.5623 168.357C50.557 168.34 50.5549 168.323 50.5561 168.307C50.5574 168.29 50.562 168.273 50.5696 168.258C50.5772 168.243 50.5878 168.229 50.6006 168.218C50.6135 168.207 50.6284 168.199 50.6445 168.193C50.6606 168.188 50.6776 168.186 50.6945 168.187Z" fill="#FFB050"/>
<path d="M52.585 146.618L52.801 146.051L52.9343 146.644L52.585 146.618Z" fill="#4D4D4D"/>
<path d="M59.9961 155.082L60.9569 155.05L61.6857 176.725L60.7248 176.757L59.9961 155.082Z" fill="#353957"/>
<path d="M61.693 176.727L61.4224 177.751L61.2682 178.337L61.0721 177.763L60.7334 176.759L61.693 176.727Z" fill="#FFC3C0"/>
<path d="M60.9067 155.26L60.0792 155.288C60.0297 155.289 59.9815 155.271 59.9453 155.237C59.9091 155.203 59.8878 155.157 59.8861 155.107L59.8555 154.195C59.855 154.039 59.9154 153.888 60.0239 153.776C60.1323 153.663 60.2803 153.598 60.4365 153.592C60.5927 153.587 60.7447 153.643 60.8605 153.748C60.9763 153.853 61.0467 153.999 61.0567 154.155L61.0873 155.067C61.0882 155.091 61.0842 155.116 61.0755 155.139C61.0669 155.162 61.0538 155.183 61.0371 155.201C61.0203 155.219 61.0001 155.233 60.9778 155.243C60.9554 155.253 60.9313 155.259 60.9067 155.26ZM60.9786 155.703L60.0371 155.735C60.0202 155.735 60.0033 155.732 59.9874 155.726C59.9716 155.721 59.957 155.711 59.9446 155.7C59.9323 155.688 59.9223 155.674 59.9153 155.659C59.9083 155.644 59.9044 155.627 59.9038 155.61C59.9027 155.576 59.9152 155.542 59.9386 155.517C59.962 155.492 59.9944 155.478 60.0286 155.477L60.9701 155.445C60.9875 155.444 61.005 155.446 61.0215 155.451C61.0381 155.457 61.0533 155.466 61.0663 155.477C61.0794 155.489 61.0899 155.503 61.0973 155.519C61.1047 155.535 61.1088 155.552 61.1094 155.569C61.11 155.587 61.107 155.604 61.1007 155.621C61.0943 155.637 61.0848 155.652 61.0725 155.664C61.0603 155.677 61.0457 155.687 61.0295 155.693C61.0134 155.7 60.9961 155.703 60.9786 155.703ZM60.9921 156.103L60.0507 156.135C60.0333 156.136 60.0158 156.134 59.9992 156.129C59.9827 156.123 59.9674 156.114 59.9544 156.103C59.9414 156.091 59.9309 156.077 59.9234 156.061C59.916 156.045 59.9119 156.028 59.9113 156.011C59.9107 155.993 59.9137 155.976 59.92 155.96C59.9263 155.943 59.9359 155.928 59.9481 155.916C59.9603 155.903 59.9749 155.894 59.991 155.887C60.0072 155.88 60.0245 155.877 60.0419 155.877L60.9834 155.845C61.0166 155.846 61.0484 155.859 61.0722 155.882C61.096 155.905 61.1098 155.937 61.111 155.97C61.1121 156.003 61.1004 156.036 61.0782 156.061C61.0561 156.085 61.0253 156.101 60.9921 156.103Z" fill="#FFB050"/>
<path d="M61.4225 177.751L61.2683 178.337L61.0723 177.763L61.4225 177.751Z" fill="#4D4D4D"/>
<path d="M65.1437 155.097L66.0978 155.218L63.3695 176.734L62.4155 176.613L65.1437 155.097Z" fill="#3A67B3"/>
<path d="M63.3656 176.725L62.9356 177.693L62.69 178.247L62.5879 177.649L62.4131 176.604L63.3656 176.725Z" fill="#FFC3C0"/>
<path d="M66.0035 155.406L65.1821 155.302C65.1577 155.299 65.1342 155.291 65.1129 155.279C65.0915 155.266 65.0728 155.25 65.0578 155.231C65.0427 155.211 65.0317 155.189 65.0252 155.165C65.0188 155.142 65.0171 155.117 65.0202 155.093L65.135 154.187C65.155 154.029 65.2371 153.886 65.363 153.788C65.489 153.69 65.6485 153.647 65.8066 153.667C65.9648 153.687 66.1084 153.769 66.206 153.895C66.3037 154.021 66.3473 154.181 66.3273 154.339L66.2125 155.244C66.2094 155.268 66.2015 155.292 66.1894 155.313C66.1772 155.334 66.1609 155.353 66.1415 155.368C66.1221 155.383 66.1 155.394 66.0763 155.401C66.0526 155.407 66.0279 155.409 66.0035 155.406ZM66.0042 155.855L65.0696 155.736C65.0522 155.735 65.0353 155.73 65.0199 155.721C65.0045 155.713 64.9909 155.702 64.9799 155.689C64.969 155.675 64.9609 155.659 64.9561 155.643C64.9513 155.626 64.95 155.608 64.9522 155.591C64.9544 155.574 64.96 155.557 64.9689 155.542C64.9777 155.527 64.9894 155.514 65.0034 155.504C65.0174 155.493 65.0334 155.486 65.0503 155.482C65.0673 155.478 65.0849 155.477 65.1021 155.48L66.0366 155.599C66.0695 155.604 66.0989 155.622 66.1187 155.649C66.1385 155.676 66.1472 155.709 66.143 155.742C66.1389 155.775 66.1221 155.805 66.0962 155.826C66.0703 155.847 66.0373 155.857 66.0042 155.855ZM65.9537 156.252L65.0191 156.134C64.9856 156.129 64.9552 156.111 64.9347 156.084C64.9141 156.057 64.905 156.023 64.9092 155.989C64.9135 155.956 64.9308 155.925 64.9575 155.904C64.9841 155.883 65.0179 155.874 65.0516 155.877L65.9862 155.996C66.0202 156 66.0511 156.018 66.0721 156.045C66.093 156.072 66.1024 156.106 66.0981 156.14C66.0937 156.174 66.076 156.205 66.049 156.226C66.0219 156.247 65.9877 156.256 65.9537 156.252Z" fill="#D94559"/>
<path d="M62.9356 177.692L62.69 178.247L62.5879 177.648L62.9356 177.692Z" fill="#4D4D4D"/>
<path d="M45.3687 159.094H57.5391V178.182H45.3687V159.094Z" fill="#278CC6"/>
<path d="M57.5377 166.573H66.947V178.182H57.5377V166.573ZM44.9243 158.561H57.9804V161.089H44.9243V158.561Z" fill="#278CC6"/>
<path d="M57.5376 166.11H67.3816V168.638H57.5376V166.11Z" fill="#69C0FF"/>
<path d="M66.9459 168.638V178.182C66.1939 173.162 63.9061 169.65 57.5391 170.134V178.182C57.3082 174.869 52.7074 162.365 45.3687 162.228V161.089H57.5391V168.638H66.9459Z" fill="#E6E6E6"/>
</svg>
